<svg width="460" height="335" viewBox="0 0 460 335" fill="none" xmlns="http://www.w3.org/2000/svg">
<rect width="460" height="335" rx="16" fill="#38AC41"/>
<rect width="460" height="335" rx="16" fill="white" fill-opacity="0.85"/>
<path d="M415.976 276.525C415.976 276.862 415.704 277.134 415.367 277.134H43.18C42.8464 277.134 42.5703 276.862 42.5703 276.525C42.5703 276.187 42.8426 275.915 43.18 275.915H415.367C415.704 275.915 415.976 276.187 415.976 276.525Z" fill="#1A5B1F"/>
<path d="M120.252 142.313C106.359 151.251 87.7842 147.221 78.8455 133.328C74.5583 126.663 73.2545 118.925 74.5928 111.689C75.3598 113.932 76.4105 116.122 77.7488 118.204C86.6874 132.097 105.263 136.127 119.156 127.189C126.384 122.537 130.943 115.278 132.397 107.425C136.749 120.156 132.067 134.716 120.256 142.317L120.252 142.313Z" fill="#A6C8FC"/>
<path d="M119.153 127.188C105.26 136.127 86.6844 132.096 77.7458 118.203C76.4075 116.121 75.3568 113.935 74.5898 111.688C76.0394 103.835 80.5988 96.5758 87.831 91.9243C101.724 82.9857 120.299 87.0159 129.238 100.909C130.576 102.991 131.627 105.177 132.394 107.424C130.94 115.278 126.385 122.537 119.153 127.188Z" fill="#E5ECFE"/>
<path d="M128.196 146.131C142.664 134.113 146.219 112.911 135.788 96.6945C124.51 79.1623 101.153 74.0929 83.6212 85.3707C66.0891 96.6485 61.0196 120.009 72.3013 137.541C82.7354 153.758 103.504 159.311 120.438 151.124C121.811 150.461 123.157 149.709 124.468 148.861C125.784 148.014 127.026 147.105 128.199 146.131H128.196ZM78.8471 133.327C74.5599 126.662 73.2561 118.924 74.5944 111.688C76.0439 103.835 80.6033 96.5756 87.8356 91.9241C101.729 82.9855 120.304 87.0158 129.242 100.909C130.581 102.991 131.631 105.177 132.398 107.424C136.751 120.155 132.069 134.715 120.258 142.316C106.365 151.254 87.7895 147.224 78.8509 133.331L78.8471 133.327Z" fill="#3275FA"/>
<path d="M128.191 146.133L130.649 149.952C129.464 150.918 128.203 151.823 126.906 152.659C125.607 153.499 124.257 154.266 122.884 154.945L120.43 151.129C121.803 150.466 123.145 149.711 124.464 148.863C125.775 148.016 127.018 147.107 128.187 146.133H128.191Z" fill="#14305E"/>
<path d="M130.652 149.951L133.869 154.952L126.112 159.948L122.891 154.944C124.263 154.265 125.609 153.502 126.913 152.658C128.209 151.822 129.471 150.918 130.656 149.951H130.652Z" fill="#1F60CC"/>
<path d="M160.298 196.829L154.649 200.464C151.071 202.765 146.301 201.734 144 198.152L124.551 160.952L126.606 159.629L144.165 193.217C146.466 196.795 151.236 197.83 154.814 195.525L160.463 191.89C161.912 190.958 162.944 189.62 163.507 188.121C164.474 191.33 163.254 194.919 160.294 196.825L160.298 196.829Z" fill="#FFA71C"/>
<path d="M160.466 191.895L154.817 195.531C151.24 197.831 146.469 196.8 144.168 193.222L126.609 159.634L136.821 153.065L162.613 186.186C163.012 186.807 163.311 187.459 163.514 188.134C162.951 189.633 161.919 190.967 160.47 191.903L160.466 191.895Z" fill="#F8C43A"/>
<path d="M125.377 249.216C118.371 257.498 105.329 256.712 95.7234 254.473C86.6889 252.368 78.3063 246.597 73.5168 238.62C71.8295 235.813 70.9897 232.178 73.8235 229.862C75.3804 228.589 77.5278 228.01 79.495 227.81C77.2901 228.037 73.8925 226.311 71.8525 225.536C68.2441 224.164 59.2824 218.561 66.0506 214.934C68.5892 213.572 71.2965 214.17 72.3395 214.462C68.4856 213.384 63.7997 212.46 60.985 209.366C57.4034 205.431 60.3331 198.559 66.0545 200.703C62.4345 197.873 58.0093 193.824 56.8244 189.203C55.9271 185.713 57.645 182.151 61.2841 181.296C63.5657 180.759 65.9969 181.376 68.0523 182.511C71.9177 184.647 75.1848 188.21 77.4511 191.956C76.132 189.77 76.9603 186.001 78.4213 184.133C79.2228 183.11 80.4268 182.35 81.723 182.3C87.9965 182.044 91.4669 192.459 92.2031 197.206C91.3787 191.876 94.6535 185.541 100.689 189.314C105.168 192.113 108.7 197.965 107.852 203.349C108.171 201.317 108.961 198.705 110.399 197.175C113.083 194.315 115.43 199.181 116.235 201.251C117.88 205.481 118.122 210.175 116.929 214.554C117.416 212.771 120.572 210.094 122.351 209.761C128.295 208.645 129.572 223.213 130.017 226.825C130.895 233.954 130.596 241.918 126.324 248C126.025 248.426 125.711 248.832 125.385 249.216H125.377Z" fill="#28832F"/>
<path opacity="0.5" d="M138.888 259.792L112.716 234.563L114.266 211.521C114.296 211.072 113.959 210.685 113.51 210.658C113.073 210.62 112.674 210.965 112.647 211.414L111.19 233.091L97.0019 219.413L99.5788 202.513C99.6479 202.068 99.3411 201.654 98.9001 201.589C98.4553 201.524 98.0411 201.827 97.976 202.268L95.5716 218.032L83.7493 206.636L84.3437 192.85C84.3628 192.401 84.0139 192.025 83.5691 192.002C83.1357 191.995 82.7446 192.332 82.7216 192.777L82.1886 205.129L68.2572 191.699C67.9351 191.389 67.4212 191.397 67.1106 191.719C66.8 192.041 66.8077 192.555 67.1298 192.865L81.0305 206.264L67.6436 207.103C67.195 207.13 66.8575 207.518 66.8844 207.962C66.9112 208.392 67.2678 208.722 67.6935 208.722C67.7088 208.722 67.728 208.722 67.7433 208.722L82.6142 207.79L94.3253 219.079L77.2763 220.935C76.8315 220.985 76.5094 221.384 76.5593 221.829C76.6053 222.243 76.9581 222.553 77.3645 222.553C77.3952 222.553 77.4221 222.553 77.4527 222.549L95.8477 220.548L110.002 234.195L89.1485 235.614C88.6999 235.645 88.3624 236.032 88.3931 236.477C88.4238 236.906 88.7804 237.232 89.2022 237.232C89.2214 237.232 89.2406 237.232 89.2597 237.232L111.578 235.714L137.761 260.958C137.918 261.111 138.121 261.184 138.324 261.184C138.528 261.184 138.75 261.099 138.907 260.935C139.218 260.612 139.21 260.099 138.888 259.788V259.792Z" fill="white"/>
<path d="M50.5857 230.369C44.8644 228.222 41.9347 235.097 45.5163 239.028C48.2811 242.065 52.8405 243.012 56.6483 244.063C55.4788 243.764 52.9632 243.326 50.5857 244.6C43.8175 248.223 52.7753 253.83 56.3837 255.202C58.4238 255.977 61.8213 257.699 64.0301 257.476C62.0591 257.68 59.9117 258.259 58.3586 259.528C55.5248 261.844 56.3646 265.479 58.0518 268.29C59.7583 271.136 61.9287 273.701 64.4174 275.914H111.944C115.166 270.104 115.342 262.952 114.544 256.487C114.506 256.18 114.464 255.793 114.41 255.34C113.846 250.509 112.316 238.403 106.879 239.427C105.096 239.764 101.94 242.437 101.453 244.224C102.151 241.658 102.358 238.989 102.078 236.367C102.024 235.826 101.944 235.293 101.848 234.756C101.61 233.448 101.242 232.164 100.759 230.917C99.9496 228.847 97.6066 223.984 94.9185 226.841C93.4805 228.375 92.6943 230.986 92.3761 233.019C93.0241 228.889 91.103 224.487 88.1502 221.392C87.6441 220.863 87.1072 220.372 86.5512 219.935C86.1179 219.586 85.6692 219.264 85.2129 218.98C81.4932 216.66 78.8205 218.167 77.5167 220.92C77.2866 221.4 77.0987 221.914 76.9568 222.454C76.5848 223.846 76.5005 225.399 76.7306 226.872C76.2206 223.555 74.3722 217.481 71.1703 214.202C71.1434 214.175 71.1128 214.145 71.0859 214.118H71.0782C69.7093 212.745 68.1064 211.89 66.2504 211.966C65.8592 211.982 65.4796 212.059 65.1153 212.189H65.1115C64.264 212.496 63.5124 213.086 62.9526 213.799C61.4915 215.667 60.6594 219.436 61.9824 221.622C59.7199 217.872 56.4489 214.309 52.5836 212.177C50.532 211.042 48.1008 210.425 45.8154 210.962C42.1763 211.817 40.4583 215.379 41.3556 218.869C42.5444 223.486 46.9658 227.539 50.5857 230.369Z" fill="#38AC41"/>
<path opacity="0.5" d="M51.4141 237.64C51.4409 238.069 51.8014 238.403 52.227 238.403H52.2807L67.1478 237.471L78.8589 248.756L61.8099 250.616C61.3651 250.666 61.0429 251.065 61.0928 251.51C61.1388 251.928 61.4916 252.235 61.8981 252.235C61.9288 252.235 61.9594 252.231 61.9863 252.231L80.3851 250.225L94.5389 263.873L73.6859 265.292C73.2411 265.318 72.9036 265.71 72.9343 266.154C72.9611 266.58 73.3216 266.91 73.7434 266.91H73.8009L96.1188 265.391L107.04 275.918H109.379L97.2615 264.233L97.8866 254.938L98.8069 241.191C98.8376 240.746 98.5001 240.359 98.0515 240.328C97.6143 240.29 97.2193 240.635 97.1887 241.083L96.2798 254.604L95.7315 262.765L81.547 249.086L81.7464 247.794L84.1239 232.183C84.1929 231.742 83.89 231.328 83.4413 231.259C83.0003 231.194 82.5862 231.493 82.5172 231.941L80.2854 246.598L80.1167 247.706L68.2905 236.309L68.8235 224.027L68.8887 222.527C68.9079 222.082 68.5589 221.703 68.1141 221.684C67.6808 221.676 67.2858 222.013 67.2666 222.458L67.2436 222.987L66.7375 234.814L52.8061 221.381C52.4839 221.074 51.9701 221.082 51.6595 221.404C51.3489 221.726 51.3604 222.24 51.6787 222.546L65.5794 235.945L52.1925 236.785C51.7438 236.811 51.4064 237.199 51.4294 237.644L51.4141 237.64Z" fill="white"/>
<path d="M327.641 249.216C334.647 257.498 347.689 256.712 357.294 254.473C366.329 252.368 374.712 246.597 379.501 238.62C381.188 235.813 382.028 232.178 379.194 229.862C377.638 228.589 375.49 228.01 373.523 227.81C375.728 228.037 379.125 226.311 381.165 225.536C384.774 224.164 393.735 218.561 386.967 214.934C384.429 213.572 381.721 214.17 380.678 214.462C384.532 213.384 389.218 212.46 392.033 209.366C395.614 205.431 392.685 198.559 386.963 200.703C390.583 197.873 395.009 193.824 396.194 189.203C397.091 185.713 395.373 182.151 391.734 181.296C389.452 180.759 387.021 181.376 384.966 182.511C381.1 184.647 377.833 188.21 375.567 191.956C376.886 189.77 376.058 186.001 374.597 184.133C373.795 183.11 372.591 182.35 371.295 182.3C365.021 182.044 361.551 192.459 360.815 197.206C361.639 191.876 358.364 185.541 352.329 189.314C347.85 192.113 344.318 197.965 345.165 203.349C344.847 201.317 344.057 198.705 342.619 197.175C339.935 194.315 337.588 199.181 336.783 201.251C335.138 205.481 334.896 210.175 336.089 214.554C335.602 212.771 332.446 210.094 330.666 209.761C324.723 208.645 323.446 223.213 323.001 226.825C322.123 233.954 322.422 241.918 326.694 248C326.993 248.426 327.307 248.832 327.633 249.216H327.641Z" fill="#28832F"/>
<path opacity="0.5" d="M314.126 259.792L340.298 234.563L338.748 211.521C338.718 211.072 339.055 210.685 339.504 210.658C339.941 210.62 340.34 210.965 340.367 211.414L341.824 233.091L356.012 219.413L353.435 202.513C353.366 202.068 353.673 201.654 354.114 201.589C354.559 201.524 354.973 201.827 355.038 202.268L357.442 218.032L369.265 206.636L368.67 192.85C368.651 192.401 369 192.025 369.445 192.002C369.878 191.995 370.269 192.332 370.292 192.777L370.825 205.129L384.757 191.699C385.079 191.389 385.593 191.397 385.903 191.719C386.214 192.041 386.206 192.555 385.884 192.865L371.984 206.264L385.37 207.103C385.819 207.13 386.157 207.518 386.13 207.962C386.103 208.392 385.746 208.722 385.321 208.722C385.305 208.722 385.286 208.722 385.271 208.722L370.4 207.79L358.689 219.079L375.738 220.935C376.183 220.985 376.505 221.384 376.455 221.829C376.409 222.243 376.056 222.553 375.65 222.553C375.619 222.553 375.592 222.553 375.561 222.549L357.166 220.548L343.013 234.195L363.866 235.614C364.314 235.645 364.652 236.032 364.621 236.477C364.59 236.906 364.234 237.232 363.812 237.232C363.793 237.232 363.773 237.232 363.754 237.232L341.436 235.714L315.253 260.958C315.096 261.111 314.893 261.184 314.69 261.184C314.479 261.184 314.264 261.099 314.107 260.935C313.796 260.612 313.804 260.099 314.126 259.788V259.792Z" fill="white"/>
<path d="M402.432 230.369C408.154 228.222 411.083 235.097 407.502 239.028C404.737 242.065 400.177 243.012 396.37 244.063C397.539 243.764 400.055 243.326 402.432 244.6C409.2 248.223 400.243 253.83 396.634 255.202C394.594 255.977 391.197 257.699 388.988 257.476C390.959 257.68 393.106 258.259 394.659 259.528C397.493 261.844 396.653 265.479 394.966 268.29C393.26 271.136 391.089 273.701 388.6 275.914H341.073C337.852 270.104 337.676 262.952 338.474 256.487C338.512 256.18 338.554 255.793 338.608 255.34C339.171 250.509 340.701 238.403 346.139 239.427C347.922 239.764 351.078 242.437 351.565 244.224C350.867 241.658 350.66 238.989 350.94 236.367C350.994 235.826 351.074 235.293 351.17 234.756C351.408 233.448 351.776 232.164 352.259 230.917C353.068 228.847 355.411 223.984 358.099 226.841C359.537 228.375 360.324 230.986 360.642 233.019C359.994 228.889 361.915 224.487 364.868 221.392C365.374 220.863 365.911 220.372 366.467 219.935C366.9 219.586 367.349 219.264 367.805 218.98C371.525 216.66 374.197 218.167 375.501 220.92C375.731 221.4 375.919 221.914 376.061 222.454C376.433 223.846 376.517 225.399 376.287 226.872C376.797 223.555 378.646 217.481 381.848 214.202C381.874 214.175 381.905 214.145 381.932 214.118H381.94C383.309 212.745 384.912 211.89 386.768 211.966C387.159 211.982 387.538 212.059 387.903 212.189H387.906C388.754 212.496 389.505 213.086 390.065 213.799C391.526 215.667 392.358 219.436 391.036 221.622C393.298 217.872 396.569 214.309 400.434 212.177C402.486 211.042 404.917 210.425 407.203 210.962C410.842 211.817 412.56 215.379 411.662 218.869C410.473 223.486 406.052 227.539 402.432 230.369Z" fill="#38AC41"/>
<path opacity="0.5" d="M401.602 237.64C401.575 238.069 401.214 238.403 400.789 238.403H400.735L385.868 237.471L374.157 248.756L391.206 250.616C391.651 250.666 391.973 251.065 391.923 251.51C391.877 251.928 391.524 252.235 391.118 252.235C391.087 252.235 391.056 252.231 391.03 252.231L372.631 250.225L358.477 263.873L379.33 265.292C379.775 265.318 380.112 265.71 380.082 266.154C380.055 266.58 379.694 266.91 379.272 266.91H379.215L356.897 265.391L345.976 275.918H343.637L355.754 264.233L355.129 254.938L354.209 241.191C354.178 240.746 354.516 240.359 354.964 240.328C355.402 240.29 355.797 240.635 355.827 241.083L356.736 254.604L357.284 262.765L371.469 249.086L371.269 247.794L368.892 232.183C368.823 231.742 369.126 231.328 369.575 231.259C370.016 231.194 370.43 231.493 370.499 231.941L372.73 246.598L372.899 247.706L384.725 236.309L384.192 224.027L384.127 222.527C384.108 222.082 384.457 221.703 384.902 221.684C385.335 221.676 385.73 222.013 385.749 222.458L385.772 222.987L386.278 234.814L400.21 221.381C400.532 221.074 401.046 221.082 401.356 221.404C401.667 221.726 401.655 222.24 401.337 222.546L387.436 235.945L400.823 236.785C401.272 236.811 401.609 237.199 401.586 237.644L401.602 237.64Z" fill="white"/>
<path d="M366.891 239.496C370.974 233.078 369.08 224.564 362.662 220.481C356.243 216.399 347.73 218.292 343.647 224.711C339.564 231.13 341.457 239.643 347.876 243.726C354.295 247.809 362.808 245.915 366.891 239.496Z" fill="#355BAF"/>
<path d="M354.243 247.851C361.85 247.851 368.017 241.684 368.017 234.077C368.017 226.47 361.85 220.303 354.243 220.303C346.636 220.303 340.469 226.47 340.469 234.077C340.469 241.684 346.636 247.851 354.243 247.851Z" fill="url(#paint0_linear_431_52500)"/>
<path d="M348.487 226.361L342.801 232.65C342.54 232.939 342.562 233.386 342.852 233.647L346.126 236.607C346.415 236.868 346.861 236.845 347.123 236.556L352.808 230.266C353.069 229.977 353.047 229.531 352.758 229.27L349.483 226.31C349.194 226.049 348.748 226.071 348.487 226.361Z" fill="white"/>
<path d="M361.191 238.806C363.745 238.184 362.671 236.344 362.671 236.344L358.729 232.781L359.109 232.501C359.109 232.501 361.87 230.135 362.165 228.912C362.464 227.685 361.16 225.887 360.815 226.132C360.466 226.377 359.331 227.842 358.511 228.475C357.69 229.104 354.2 230.557 353.748 230.711C353.644 230.745 353.48 230.753 353.292 230.738L347.777 236.842C347.977 237.529 348.452 237.882 348.452 237.882L354.177 243.058C355.945 243.722 356.586 242.184 356.586 242.184C358.56 242.41 359.105 240.911 359.105 240.911C361.529 240.984 361.191 238.81 361.191 238.81V238.806Z" fill="white"/>
<path d="M317.141 101.271V106.961L310.822 103.89V94.9551C310.822 90.5069 307.34 86.8754 302.953 86.6377C306.811 86.7527 310.304 88.3633 312.854 90.9134C315.504 93.5631 317.141 97.2291 317.141 101.267V101.271Z" fill="#030916"/>
<path d="M317.141 106.961V271.411C317.141 273.026 316.769 274.552 316.109 275.913H302.5C307.098 275.913 310.821 272.19 310.821 267.592V103.89L317.141 106.961Z" fill="#BB8FE7"/>
<path d="M310.823 103.89V267.592C310.823 272.19 307.099 275.913 302.502 275.913H146.817C146.096 275.913 145.399 275.821 144.735 275.653C144.202 275.514 143.692 275.327 143.209 275.093C142.967 274.978 142.73 274.847 142.503 274.709C141.441 274.065 140.536 273.187 139.857 272.151C139.811 272.086 139.769 272.021 139.731 271.952C139.67 271.856 139.612 271.756 139.554 271.657C139.52 271.595 139.489 271.538 139.459 271.477C139.42 271.411 139.39 271.342 139.355 271.277C139.324 271.212 139.29 271.143 139.263 271.078C139.159 270.863 139.067 270.641 138.987 270.41C138.952 270.318 138.922 270.226 138.895 270.131C138.826 269.923 138.765 269.713 138.715 269.494C138.696 269.402 138.672 269.31 138.657 269.214C138.626 269.08 138.603 268.938 138.584 268.796C138.554 268.574 138.527 268.344 138.515 268.114C138.5 267.941 138.496 267.768 138.496 267.592V103.89H310.823Z" fill="white"/>
<path d="M310.827 94.955V103.89H138.496V94.955C138.496 90.3572 142.223 86.6299 146.817 86.6299H302.502C307.099 86.6299 310.823 90.3572 310.823 94.955H310.827Z" fill="#4F2271"/>
<path d="M150.224 98.9651C152.272 98.9651 153.932 97.3049 153.932 95.257C153.932 93.209 152.272 91.5488 150.224 91.5488C148.176 91.5488 146.516 93.209 146.516 95.257C146.516 97.3049 148.176 98.9651 150.224 98.9651Z" fill="#F3CAD6"/>
<path d="M160.482 98.9651C162.53 98.9651 164.19 97.3049 164.19 95.257C164.19 93.209 162.53 91.5488 160.482 91.5488C158.434 91.5488 156.773 93.209 156.773 95.257C156.773 97.3049 158.434 98.9651 160.482 98.9651Z" fill="#D6BFF1"/>
<path d="M170.732 98.9651C172.78 98.9651 174.44 97.3049 174.44 95.257C174.44 93.209 172.78 91.5488 170.732 91.5488C168.684 91.5488 167.023 93.209 167.023 95.257C167.023 97.3049 168.684 98.9651 170.732 98.9651Z" fill="#48D753"/>
<path d="M262.66 112.245H186.664V130.337H262.66V112.245Z" fill="#E2538E"/>
<path d="M210.536 121.126C211.207 120.773 211.629 120.14 211.629 119.32C211.629 118.039 210.574 117.184 208.519 117.184H204.508V125.394H208.753C210.912 125.394 212.039 124.573 212.039 123.154C212.039 122.123 211.452 121.417 210.536 121.126ZM206.398 118.614H208.285C209.213 118.614 209.715 118.932 209.715 119.576C209.715 120.221 209.213 120.55 208.285 120.55H206.398V118.614ZM208.615 123.963H206.398V121.935H208.615C209.6 121.935 210.126 122.265 210.126 122.955C210.126 123.645 209.6 123.963 208.615 123.963Z" fill="white"/>
<path d="M217.73 123.848V117.184H215.828V125.394H221.849V123.848H217.73Z" fill="white"/>
<path d="M229.096 117.042C226.504 117.042 224.605 118.848 224.605 121.291C224.605 123.734 226.504 125.536 229.096 125.536C231.688 125.536 233.59 123.741 233.59 121.291C233.59 118.84 231.68 117.042 229.096 117.042ZM229.096 123.918C227.631 123.918 226.53 122.848 226.53 121.291C226.53 119.734 227.631 118.66 229.096 118.66C230.561 118.66 231.665 119.73 231.665 121.291C231.665 122.852 230.565 123.918 229.096 123.918Z" fill="white"/>
<path d="M242.918 123.565C242.439 123.822 241.959 123.918 241.442 123.918C239.87 123.918 238.78 122.825 238.78 121.291C238.78 119.757 239.87 118.66 241.465 118.66C242.297 118.66 242.991 118.955 243.589 119.588L244.809 118.461C244.011 117.537 242.815 117.042 241.373 117.042C238.754 117.042 236.855 118.814 236.855 121.291C236.855 123.768 238.754 125.536 241.334 125.536C242.508 125.536 243.754 125.172 244.655 124.493V121.16H242.918V123.565Z" fill="white"/>
<path d="M146.379 140.425V197.082H252.734V140.425H146.379ZM178.851 182.322L190.551 161.68L195.881 171.271L205.084 154.974L220.994 182.322H178.851Z" fill="#BB8FE7"/>
<path d="M252.734 202.308H146.379V207.649H252.734V202.308Z" fill="#F4EEFB"/>
<path d="M252.734 212.293H146.379V217.635H252.734V212.293Z" fill="#F4EEFB"/>
<path d="M252.734 222.278H146.379V227.62H252.734V222.278Z" fill="#F4EEFB"/>
<path d="M252.734 232.265H146.379V237.606H252.734V232.265Z" fill="#F4EEFB"/>
<path d="M252.734 242.248H146.379V247.59H252.734V242.248Z" fill="#F4EEFB"/>
<path d="M252.734 252.234H146.379V257.576H252.734V252.234Z" fill="#F4EEFB"/>
<path d="M252.734 262.221H146.379V267.562H252.734V262.221Z" fill="#F4EEFB"/>
<path d="M270.06 140.425H257.992V152.638H270.06V140.425Z" fill="#D6BFF1"/>
<path d="M302.95 140.425H272.457V142.791H302.95V140.425Z" fill="#F4EEFB"/>
<path d="M302.95 145.351H272.457V147.717H302.95V145.351Z" fill="#F4EEFB"/>
<path d="M302.95 150.274H272.457V152.64H302.95V150.274Z" fill="#F4EEFB"/>
<path d="M270.06 159.581H257.992V171.795H270.06V159.581Z" fill="#D6BFF1"/>
<path d="M302.95 159.581H272.457V161.947H302.95V159.581Z" fill="#F4EEFB"/>
<path d="M302.95 164.504H272.457V166.87H302.95V164.504Z" fill="#F4EEFB"/>
<path d="M302.95 169.428H272.457V171.794H302.95V169.428Z" fill="#F4EEFB"/>
<path d="M270.06 178.73H257.992V190.944H270.06V178.73Z" fill="#D6BFF1"/>
<path d="M302.95 178.73H272.457V181.096H302.95V178.73Z" fill="#F4EEFB"/>
<path d="M302.95 183.655H272.457V186.021H302.95V183.655Z" fill="#F4EEFB"/>
<path d="M302.95 188.581H272.457V190.947H302.95V188.581Z" fill="#F4EEFB"/>
<path d="M270.06 197.885H257.992V210.098H270.06V197.885Z" fill="#D6BFF1"/>
<path d="M302.95 197.885H272.457V200.251H302.95V197.885Z" fill="#F4EEFB"/>
<path d="M302.95 202.808H272.457V205.174H302.95V202.808Z" fill="#F4EEFB"/>
<path d="M302.95 207.734H272.457V210.1H302.95V207.734Z" fill="#F4EEFB"/>
<path d="M270.06 217.04H257.992V229.253H270.06V217.04Z" fill="#D6BFF1"/>
<path d="M302.95 217.04H272.457V219.406H302.95V217.04Z" fill="#F4EEFB"/>
<path d="M302.95 221.963H272.457V224.329H302.95V221.963Z" fill="#F4EEFB"/>
<path d="M302.95 226.889H272.457V229.255H302.95V226.889Z" fill="#F4EEFB"/>
<path d="M270.06 236.19H257.992V248.404H270.06V236.19Z" fill="#D6BFF1"/>
<path d="M302.95 236.19H272.457V238.556H302.95V236.19Z" fill="#F4EEFB"/>
<path d="M302.95 241.114H272.457V243.48H302.95V241.114Z" fill="#F4EEFB"/>
<path d="M302.95 246.041H272.457V248.407H302.95V246.041Z" fill="#F4EEFB"/>
<path d="M270.06 255.344H257.992V267.557H270.06V255.344Z" fill="#D6BFF1"/>
<path d="M302.95 255.344H272.457V257.71H302.95V255.344Z" fill="#F4EEFB"/>
<path d="M302.95 260.269H272.457V262.635H302.95V260.269Z" fill="#F4EEFB"/>
<path d="M302.95 265.192H272.457V267.558H302.95V265.192Z" fill="#F4EEFB"/>
<path d="M177.772 269.92H140.035C140.112 269.506 140.476 269.191 140.913 269.191H176.89C177.327 269.191 177.692 269.506 177.768 269.92H177.772Z" fill="#FFEB13"/>
<path d="M177.772 275.188C177.696 275.602 177.331 275.916 176.894 275.916H140.917C140.48 275.916 140.116 275.602 140.039 275.188H177.776H177.772Z" fill="#D58E02"/>
<path d="M149.43 269.922V275.191H140.035C140.023 275.137 140.02 275.08 140.02 275.026V270.091C140.02 270.033 140.023 269.979 140.035 269.926H149.43V269.922Z" fill="#F9EC22"/>
<path d="M166.713 269.922H149.43V275.191H166.713V269.922Z" fill="#F9C100"/>
<path d="M177.785 270.087V275.022C177.785 275.079 177.782 275.133 177.77 275.187H166.711V269.918H177.77C177.782 269.972 177.785 270.029 177.785 270.083V270.087Z" fill="#F3AC04"/>
<path d="M142.027 270.809C142.027 270.578 141.84 270.391 141.609 270.391C141.379 270.391 141.191 270.578 141.191 270.809V274.294C141.191 274.525 141.379 274.712 141.609 274.712C141.84 274.712 142.027 274.525 142.027 274.294V270.809Z" fill="#FEF0A5"/>
<path d="M143.758 270.809C143.758 270.578 143.571 270.391 143.34 270.391C143.109 270.391 142.922 270.578 142.922 270.809V274.294C142.922 274.525 143.109 274.712 143.34 274.712C143.571 274.712 143.758 274.525 143.758 274.294V270.809Z" fill="#FEF0A5"/>
<path d="M145.488 270.809C145.488 270.578 145.301 270.391 145.07 270.391C144.839 270.391 144.652 270.578 144.652 270.809V274.294C144.652 274.525 144.839 274.712 145.07 274.712C145.301 274.712 145.488 274.525 145.488 274.294V270.809Z" fill="#FEF0A5"/>
<path d="M147.219 270.809C147.219 270.578 147.032 270.391 146.801 270.391C146.57 270.391 146.383 270.578 146.383 270.809V274.294C146.383 274.525 146.57 274.712 146.801 274.712C147.032 274.712 147.219 274.525 147.219 274.294V270.809Z" fill="#FEF0A5"/>
<path d="M148.941 270.809C148.941 270.578 148.754 270.391 148.523 270.391C148.293 270.391 148.105 270.578 148.105 270.809V274.294C148.105 274.525 148.293 274.712 148.523 274.712C148.754 274.712 148.941 274.525 148.941 274.294V270.809Z" fill="#FEF0A5"/>
<path d="M150.676 270.809C150.676 270.578 150.489 270.391 150.258 270.391C150.027 270.391 149.84 270.578 149.84 270.809V274.294C149.84 274.525 150.027 274.712 150.258 274.712C150.489 274.712 150.676 274.525 150.676 274.294V270.809Z" fill="#FFEF29"/>
<path d="M152.402 270.809C152.402 270.578 152.215 270.391 151.984 270.391C151.754 270.391 151.566 270.578 151.566 270.809V274.294C151.566 274.525 151.754 274.712 151.984 274.712C152.215 274.712 152.402 274.525 152.402 274.294V270.809Z" fill="#FFE726"/>
<path d="M154.133 270.809C154.133 270.578 153.946 270.391 153.715 270.391C153.484 270.391 153.297 270.578 153.297 270.809V274.294C153.297 274.525 153.484 274.712 153.715 274.712C153.946 274.712 154.133 274.525 154.133 274.294V270.809Z" fill="#F8F328"/>
<path d="M155.863 270.809C155.863 270.578 155.676 270.391 155.445 270.391C155.214 270.391 155.027 270.578 155.027 270.809V274.294C155.027 274.525 155.214 274.712 155.445 274.712C155.676 274.712 155.863 274.525 155.863 274.294V270.809Z" fill="#F6E91F"/>
<path d="M157.594 270.809C157.594 270.578 157.407 270.391 157.176 270.391C156.945 270.391 156.758 270.578 156.758 270.809V274.294C156.758 274.525 156.945 274.712 157.176 274.712C157.407 274.712 157.594 274.525 157.594 274.294V270.809Z" fill="#F5E724"/>
<path d="M159.32 270.809C159.32 270.578 159.133 270.391 158.902 270.391C158.672 270.391 158.484 270.578 158.484 270.809V274.294C158.484 274.525 158.672 274.712 158.902 274.712C159.133 274.712 159.32 274.525 159.32 274.294V270.809Z" fill="#F5ED20"/>
<path d="M161.055 270.809C161.055 270.578 160.868 270.391 160.637 270.391C160.406 270.391 160.219 270.578 160.219 270.809V274.294C160.219 274.525 160.406 274.712 160.637 274.712C160.868 274.712 161.055 274.525 161.055 274.294V270.809Z" fill="#FBEF29"/>
<path d="M162.781 270.809C162.781 270.578 162.594 270.391 162.363 270.391C162.132 270.391 161.945 270.578 161.945 270.809V274.294C161.945 274.525 162.132 274.712 162.363 274.712C162.594 274.712 162.781 274.525 162.781 274.294V270.809Z" fill="#F5E61B"/>
<path d="M164.508 270.809C164.508 270.578 164.321 270.391 164.09 270.391C163.859 270.391 163.672 270.578 163.672 270.809V274.294C163.672 274.525 163.859 274.712 164.09 274.712C164.321 274.712 164.508 274.525 164.508 274.294V270.809Z" fill="#FFE320"/>
<path d="M166.242 270.809C166.242 270.578 166.055 270.391 165.824 270.391C165.593 270.391 165.406 270.578 165.406 270.809V274.294C165.406 274.525 165.593 274.712 165.824 274.712C166.055 274.712 166.242 274.525 166.242 274.294V270.809Z" fill="#FFEC31"/>
<path d="M167.969 270.809C167.969 270.578 167.782 270.391 167.551 270.391C167.32 270.391 167.133 270.578 167.133 270.809V274.294C167.133 274.525 167.32 274.712 167.551 274.712C167.782 274.712 167.969 274.525 167.969 274.294V270.809Z" fill="#FCC200"/>
<path d="M169.699 270.809C169.699 270.578 169.512 270.391 169.281 270.391C169.05 270.391 168.863 270.578 168.863 270.809V274.294C168.863 274.525 169.05 274.712 169.281 274.712C169.512 274.712 169.699 274.525 169.699 274.294V270.809Z" fill="#FDC30A"/>
<path d="M171.43 270.809C171.43 270.578 171.243 270.391 171.012 270.391C170.781 270.391 170.594 270.578 170.594 270.809V274.294C170.594 274.525 170.781 274.712 171.012 274.712C171.243 274.712 171.43 274.525 171.43 274.294V270.809Z" fill="#FFBD0C"/>
<path d="M173.16 270.809C173.16 270.578 172.973 270.391 172.742 270.391C172.511 270.391 172.324 270.578 172.324 270.809V274.294C172.324 274.525 172.511 274.712 172.742 274.712C172.973 274.712 173.16 274.525 173.16 274.294V270.809Z" fill="#FDBC0A"/>
<path d="M174.887 270.809C174.887 270.578 174.7 270.391 174.469 270.391C174.238 270.391 174.051 270.578 174.051 270.809V274.294C174.051 274.525 174.238 274.712 174.469 274.712C174.7 274.712 174.887 274.525 174.887 274.294V270.809Z" fill="#FDC202"/>
<path d="M176.617 270.809C176.617 270.578 176.43 270.391 176.199 270.391C175.968 270.391 175.781 270.578 175.781 270.809V274.294C175.781 274.525 175.968 274.712 176.199 274.712C176.43 274.712 176.617 274.525 176.617 274.294V270.809Z" fill="#FCC200"/>
<path d="M211.725 269.92H173.988C174.065 269.506 174.429 269.191 174.866 269.191H210.843C211.281 269.191 211.645 269.506 211.722 269.92H211.725Z" fill="#FFEB13"/>
<path d="M211.725 275.188C211.649 275.602 211.284 275.916 210.847 275.916H174.87C174.433 275.916 174.069 275.602 173.992 275.188H211.729H211.725Z" fill="#D58E02"/>
<path d="M183.383 269.922V275.191H173.988C173.976 275.137 173.973 275.08 173.973 275.026V270.091C173.973 270.033 173.976 269.979 173.988 269.926H183.383V269.922Z" fill="#F9EC22"/>
<path d="M200.666 269.922H183.383V275.191H200.666V269.922Z" fill="#F9C100"/>
<path d="M211.739 270.087V275.022C211.739 275.079 211.735 275.133 211.723 275.187H200.664V269.918H211.723C211.735 269.972 211.739 270.029 211.739 270.083V270.087Z" fill="#F3AC04"/>
<path d="M175.98 270.809C175.98 270.578 175.793 270.391 175.563 270.391C175.332 270.391 175.145 270.578 175.145 270.809V274.294C175.145 274.525 175.332 274.712 175.563 274.712C175.793 274.712 175.98 274.525 175.98 274.294V270.809Z" fill="#FEF0A5"/>
<path d="M177.711 270.809C177.711 270.578 177.524 270.391 177.293 270.391C177.062 270.391 176.875 270.578 176.875 270.809V274.294C176.875 274.525 177.062 274.712 177.293 274.712C177.524 274.712 177.711 274.525 177.711 274.294V270.809Z" fill="#FEF0A5"/>
<path d="M179.441 270.809C179.441 270.578 179.254 270.391 179.023 270.391C178.793 270.391 178.605 270.578 178.605 270.809V274.294C178.605 274.525 178.793 274.712 179.023 274.712C179.254 274.712 179.441 274.525 179.441 274.294V270.809Z" fill="#FEF0A5"/>
<path d="M181.172 270.809C181.172 270.578 180.985 270.391 180.754 270.391C180.523 270.391 180.336 270.578 180.336 270.809V274.294C180.336 274.525 180.523 274.712 180.754 274.712C180.985 274.712 181.172 274.525 181.172 274.294V270.809Z" fill="#FEF0A5"/>
<path d="M182.898 270.809C182.898 270.578 182.711 270.391 182.48 270.391C182.25 270.391 182.062 270.578 182.062 270.809V274.294C182.062 274.525 182.25 274.712 182.48 274.712C182.711 274.712 182.898 274.525 182.898 274.294V270.809Z" fill="#FEF0A5"/>
<path d="M184.633 270.809C184.633 270.578 184.446 270.391 184.215 270.391C183.984 270.391 183.797 270.578 183.797 270.809V274.294C183.797 274.525 183.984 274.712 184.215 274.712C184.446 274.712 184.633 274.525 184.633 274.294V270.809Z" fill="#FFEF29"/>
<path d="M186.359 270.809C186.359 270.578 186.172 270.391 185.941 270.391C185.711 270.391 185.523 270.578 185.523 270.809V274.294C185.523 274.525 185.711 274.712 185.941 274.712C186.172 274.712 186.359 274.525 186.359 274.294V270.809Z" fill="#FFE726"/>
<path d="M188.086 270.809C188.086 270.578 187.899 270.391 187.668 270.391C187.437 270.391 187.25 270.578 187.25 270.809V274.294C187.25 274.525 187.437 274.712 187.668 274.712C187.899 274.712 188.086 274.525 188.086 274.294V270.809Z" fill="#F8F328"/>
<path d="M189.82 270.809C189.82 270.578 189.633 270.391 189.402 270.391C189.172 270.391 188.984 270.578 188.984 270.809V274.294C188.984 274.525 189.172 274.712 189.402 274.712C189.633 274.712 189.82 274.525 189.82 274.294V270.809Z" fill="#F6E91F"/>
<path d="M191.547 270.809C191.547 270.578 191.36 270.391 191.129 270.391C190.898 270.391 190.711 270.578 190.711 270.809V274.294C190.711 274.525 190.898 274.712 191.129 274.712C191.36 274.712 191.547 274.525 191.547 274.294V270.809Z" fill="#F5E724"/>
<path d="M193.277 270.809C193.277 270.578 193.09 270.391 192.859 270.391C192.629 270.391 192.441 270.578 192.441 270.809V274.294C192.441 274.525 192.629 274.712 192.859 274.712C193.09 274.712 193.277 274.525 193.277 274.294V270.809Z" fill="#F5ED20"/>
<path d="M195.008 270.809C195.008 270.578 194.821 270.391 194.59 270.391C194.359 270.391 194.172 270.578 194.172 270.809V274.294C194.172 274.525 194.359 274.712 194.59 274.712C194.821 274.712 195.008 274.525 195.008 274.294V270.809Z" fill="#FBEF29"/>
<path d="M196.738 270.809C196.738 270.578 196.551 270.391 196.32 270.391C196.089 270.391 195.902 270.578 195.902 270.809V274.294C195.902 274.525 196.089 274.712 196.32 274.712C196.551 274.712 196.738 274.525 196.738 274.294V270.809Z" fill="#F5E61B"/>
<path d="M198.465 270.809C198.465 270.578 198.278 270.391 198.047 270.391C197.816 270.391 197.629 270.578 197.629 270.809V274.294C197.629 274.525 197.816 274.712 198.047 274.712C198.278 274.712 198.465 274.525 198.465 274.294V270.809Z" fill="#FFE320"/>
<path d="M200.195 270.809C200.195 270.578 200.008 270.391 199.777 270.391C199.547 270.391 199.359 270.578 199.359 270.809V274.294C199.359 274.525 199.547 274.712 199.777 274.712C200.008 274.712 200.195 274.525 200.195 274.294V270.809Z" fill="#FFEC31"/>
<path d="M201.918 270.809C201.918 270.578 201.731 270.391 201.5 270.391C201.269 270.391 201.082 270.578 201.082 270.809V274.294C201.082 274.525 201.269 274.712 201.5 274.712C201.731 274.712 201.918 274.525 201.918 274.294V270.809Z" fill="#FCC200"/>
<path d="M203.648 270.809C203.648 270.578 203.461 270.391 203.23 270.391C203 270.391 202.812 270.578 202.812 270.809V274.294C202.812 274.525 203 274.712 203.23 274.712C203.461 274.712 203.648 274.525 203.648 274.294V270.809Z" fill="#FDC30A"/>
<path d="M205.379 270.809C205.379 270.578 205.192 270.391 204.961 270.391C204.73 270.391 204.543 270.578 204.543 270.809V274.294C204.543 274.525 204.73 274.712 204.961 274.712C205.192 274.712 205.379 274.525 205.379 274.294V270.809Z" fill="#FFBD0C"/>
<path d="M207.109 270.809C207.109 270.578 206.922 270.391 206.691 270.391C206.461 270.391 206.273 270.578 206.273 270.809V274.294C206.273 274.525 206.461 274.712 206.691 274.712C206.922 274.712 207.109 274.525 207.109 274.294V270.809Z" fill="#FDBC0A"/>
<path d="M208.836 270.809C208.836 270.578 208.649 270.391 208.418 270.391C208.187 270.391 208 270.578 208 270.809V274.294C208 274.525 208.187 274.712 208.418 274.712C208.649 274.712 208.836 274.525 208.836 274.294V270.809Z" fill="#FDC202"/>
<path d="M210.566 270.809C210.566 270.578 210.379 270.391 210.148 270.391C209.918 270.391 209.73 270.578 209.73 270.809V274.294C209.73 274.525 209.918 274.712 210.148 274.712C210.379 274.712 210.566 274.525 210.566 274.294V270.809Z" fill="#FCC200"/>
<path d="M169.546 263.194H131.809C131.885 262.78 132.25 262.466 132.687 262.466H168.664C169.101 262.466 169.465 262.78 169.542 263.194H169.546Z" fill="#FFEB13"/>
<path d="M169.546 268.46C169.469 268.874 169.105 269.189 168.668 269.189H132.691C132.253 269.189 131.889 268.874 131.812 268.46H169.55H169.546Z" fill="#D58E02"/>
<path d="M141.203 263.195V268.464H131.808C131.797 268.41 131.793 268.353 131.793 268.299V263.364C131.793 263.306 131.797 263.253 131.808 263.199H141.203V263.195Z" fill="#F9EC22"/>
<path d="M158.486 263.195H141.203V268.464H158.486V263.195Z" fill="#F9C100"/>
<path d="M169.559 263.36V268.295C169.559 268.353 169.555 268.407 169.544 268.46H158.484V263.191H169.544C169.555 263.245 169.559 263.303 169.559 263.356V263.36Z" fill="#F3AC04"/>
<path d="M133.801 264.083C133.801 263.852 133.614 263.665 133.383 263.665C133.152 263.665 132.965 263.852 132.965 264.083V267.569C132.965 267.8 133.152 267.987 133.383 267.987C133.614 267.987 133.801 267.8 133.801 267.569V264.083Z" fill="#FEF0A5"/>
<path d="M135.531 264.083C135.531 263.852 135.344 263.665 135.113 263.665C134.882 263.665 134.695 263.852 134.695 264.083V267.569C134.695 267.8 134.882 267.987 135.113 267.987C135.344 267.987 135.531 267.8 135.531 267.569V264.083Z" fill="#FEF0A5"/>
<path d="M137.262 264.083C137.262 263.852 137.075 263.665 136.844 263.665C136.613 263.665 136.426 263.852 136.426 264.083V267.569C136.426 267.8 136.613 267.987 136.844 267.987C137.075 267.987 137.262 267.8 137.262 267.569V264.083Z" fill="#FEF0A5"/>
<path d="M138.992 264.083C138.992 263.852 138.805 263.665 138.574 263.665C138.343 263.665 138.156 263.852 138.156 264.083V267.569C138.156 267.8 138.343 267.987 138.574 267.987C138.805 267.987 138.992 267.8 138.992 267.569V264.083Z" fill="#FEF0A5"/>
<path d="M140.719 264.083C140.719 263.852 140.532 263.665 140.301 263.665C140.07 263.665 139.883 263.852 139.883 264.083V267.569C139.883 267.8 140.07 267.987 140.301 267.987C140.532 267.987 140.719 267.8 140.719 267.569V264.083Z" fill="#FEF0A5"/>
<path d="M142.449 264.083C142.449 263.852 142.262 263.665 142.031 263.665C141.8 263.665 141.613 263.852 141.613 264.083V267.569C141.613 267.8 141.8 267.987 142.031 267.987C142.262 267.987 142.449 267.8 142.449 267.569V264.083Z" fill="#FFEF29"/>
<path d="M144.18 264.083C144.18 263.852 143.993 263.665 143.762 263.665C143.531 263.665 143.344 263.852 143.344 264.083V267.569C143.344 267.8 143.531 267.987 143.762 267.987C143.993 267.987 144.18 267.8 144.18 267.569V264.083Z" fill="#FFE726"/>
<path d="M145.906 264.083C145.906 263.852 145.719 263.665 145.488 263.665C145.257 263.665 145.07 263.852 145.07 264.083V267.569C145.07 267.8 145.257 267.987 145.488 267.987C145.719 267.987 145.906 267.8 145.906 267.569V264.083Z" fill="#F8F328"/>
<path d="M147.641 264.083C147.641 263.852 147.454 263.665 147.223 263.665C146.992 263.665 146.805 263.852 146.805 264.083V267.569C146.805 267.8 146.992 267.987 147.223 267.987C147.454 267.987 147.641 267.8 147.641 267.569V264.083Z" fill="#F6E91F"/>
<path d="M149.367 264.083C149.367 263.852 149.18 263.665 148.949 263.665C148.718 263.665 148.531 263.852 148.531 264.083V267.569C148.531 267.8 148.718 267.987 148.949 267.987C149.18 267.987 149.367 267.8 149.367 267.569V264.083Z" fill="#F5E724"/>
<path d="M151.098 264.083C151.098 263.852 150.911 263.665 150.68 263.665C150.449 263.665 150.262 263.852 150.262 264.083V267.569C150.262 267.8 150.449 267.987 150.68 267.987C150.911 267.987 151.098 267.8 151.098 267.569V264.083Z" fill="#F5ED20"/>
<path d="M152.828 264.083C152.828 263.852 152.641 263.665 152.41 263.665C152.179 263.665 151.992 263.852 151.992 264.083V267.569C151.992 267.8 152.179 267.987 152.41 267.987C152.641 267.987 152.828 267.8 152.828 267.569V264.083Z" fill="#FBEF29"/>
<path d="M154.559 264.083C154.559 263.852 154.371 263.665 154.141 263.665C153.91 263.665 153.723 263.852 153.723 264.083V267.569C153.723 267.8 153.91 267.987 154.141 267.987C154.371 267.987 154.559 267.8 154.559 267.569V264.083Z" fill="#F5E61B"/>
<path d="M156.281 264.083C156.281 263.852 156.094 263.665 155.863 263.665C155.632 263.665 155.445 263.852 155.445 264.083V267.569C155.445 267.8 155.632 267.987 155.863 267.987C156.094 267.987 156.281 267.8 156.281 267.569V264.083Z" fill="#FFE320"/>
<path d="M158.012 264.083C158.012 263.852 157.825 263.665 157.594 263.665C157.363 263.665 157.176 263.852 157.176 264.083V267.569C157.176 267.8 157.363 267.987 157.594 267.987C157.825 267.987 158.012 267.8 158.012 267.569V264.083Z" fill="#FFEC31"/>
<path d="M159.742 264.083C159.742 263.852 159.555 263.665 159.324 263.665C159.093 263.665 158.906 263.852 158.906 264.083V267.569C158.906 267.8 159.093 267.987 159.324 267.987C159.555 267.987 159.742 267.8 159.742 267.569V264.083Z" fill="#FCC200"/>
<path d="M161.473 264.083C161.473 263.852 161.286 263.665 161.055 263.665C160.824 263.665 160.637 263.852 160.637 264.083V267.569C160.637 267.8 160.824 267.987 161.055 267.987C161.286 267.987 161.473 267.8 161.473 267.569V264.083Z" fill="#FDC30A"/>
<path d="M163.199 264.083C163.199 263.852 163.012 263.665 162.781 263.665C162.55 263.665 162.363 263.852 162.363 264.083V267.569C162.363 267.8 162.55 267.987 162.781 267.987C163.012 267.987 163.199 267.8 163.199 267.569V264.083Z" fill="#FFBD0C"/>
<path d="M164.934 264.083C164.934 263.852 164.746 263.665 164.516 263.665C164.285 263.665 164.098 263.852 164.098 264.083V267.569C164.098 267.8 164.285 267.987 164.516 267.987C164.746 267.987 164.934 267.8 164.934 267.569V264.083Z" fill="#FDBC0A"/>
<path d="M166.66 264.083C166.66 263.852 166.473 263.665 166.242 263.665C166.011 263.665 165.824 263.852 165.824 264.083V267.569C165.824 267.8 166.011 267.987 166.242 267.987C166.473 267.987 166.66 267.8 166.66 267.569V264.083Z" fill="#FDC202"/>
<path d="M168.391 264.083C168.391 263.852 168.204 263.665 167.973 263.665C167.742 263.665 167.555 263.852 167.555 264.083V267.569C167.555 267.8 167.742 267.987 167.973 267.987C168.204 267.987 168.391 267.8 168.391 267.569V264.083Z" fill="#FCC200"/>
<path d="M196.581 263.194H158.844C158.92 262.78 159.285 262.466 159.722 262.466H195.699C196.136 262.466 196.5 262.78 196.577 263.194H196.581Z" fill="#FFEB13"/>
<path d="M196.581 268.46C196.504 268.874 196.14 269.189 195.703 269.189H159.726C159.289 269.189 158.924 268.874 158.848 268.46H196.585H196.581Z" fill="#D58E02"/>
<path d="M168.238 263.195V268.464H158.843C158.832 268.41 158.828 268.353 158.828 268.299V263.364C158.828 263.306 158.832 263.253 158.843 263.199H168.238V263.195Z" fill="#F9EC22"/>
<path d="M185.521 263.195H168.238V268.464H185.521V263.195Z" fill="#F9C100"/>
<path d="M196.594 263.36V268.295C196.594 268.353 196.59 268.407 196.579 268.46H185.52V263.191H196.579C196.59 263.245 196.594 263.303 196.594 263.356V263.36Z" fill="#F3AC04"/>
<path d="M160.836 264.083C160.836 263.852 160.649 263.665 160.418 263.665C160.187 263.665 160 263.852 160 264.083V267.569C160 267.8 160.187 267.987 160.418 267.987C160.649 267.987 160.836 267.8 160.836 267.569V264.083Z" fill="#FEF0A5"/>
<path d="M162.563 264.083C162.563 263.852 162.375 263.665 162.145 263.665C161.914 263.665 161.727 263.852 161.727 264.083V267.569C161.727 267.8 161.914 267.987 162.145 267.987C162.375 267.987 162.563 267.8 162.563 267.569V264.083Z" fill="#FEF0A5"/>
<path d="M164.297 264.083C164.297 263.852 164.11 263.665 163.879 263.665C163.648 263.665 163.461 263.852 163.461 264.083V267.569C163.461 267.8 163.648 267.987 163.879 267.987C164.11 267.987 164.297 267.8 164.297 267.569V264.083Z" fill="#FEF0A5"/>
<path d="M166.023 264.083C166.023 263.852 165.836 263.665 165.605 263.665C165.375 263.665 165.188 263.852 165.188 264.083V267.569C165.188 267.8 165.375 267.987 165.605 267.987C165.836 267.987 166.023 267.8 166.023 267.569V264.083Z" fill="#FEF0A5"/>
<path d="M167.754 264.083C167.754 263.852 167.567 263.665 167.336 263.665C167.105 263.665 166.918 263.852 166.918 264.083V267.569C166.918 267.8 167.105 267.987 167.336 267.987C167.567 267.987 167.754 267.8 167.754 267.569V264.083Z" fill="#FEF0A5"/>
<path d="M169.484 264.083C169.484 263.852 169.297 263.665 169.066 263.665C168.836 263.665 168.648 263.852 168.648 264.083V267.569C168.648 267.8 168.836 267.987 169.066 267.987C169.297 267.987 169.484 267.8 169.484 267.569V264.083Z" fill="#FFEF29"/>
<path d="M171.215 264.083C171.215 263.852 171.028 263.665 170.797 263.665C170.566 263.665 170.379 263.852 170.379 264.083V267.569C170.379 267.8 170.566 267.987 170.797 267.987C171.028 267.987 171.215 267.8 171.215 267.569V264.083Z" fill="#FFE726"/>
<path d="M172.941 264.083C172.941 263.852 172.754 263.665 172.523 263.665C172.293 263.665 172.105 263.852 172.105 264.083V267.569C172.105 267.8 172.293 267.987 172.523 267.987C172.754 267.987 172.941 267.8 172.941 267.569V264.083Z" fill="#F8F328"/>
<path d="M174.676 264.083C174.676 263.852 174.489 263.665 174.258 263.665C174.027 263.665 173.84 263.852 173.84 264.083V267.569C173.84 267.8 174.027 267.987 174.258 267.987C174.489 267.987 174.676 267.8 174.676 267.569V264.083Z" fill="#F6E91F"/>
<path d="M176.398 264.083C176.398 263.852 176.211 263.665 175.98 263.665C175.75 263.665 175.562 263.852 175.562 264.083V267.569C175.562 267.8 175.75 267.987 175.98 267.987C176.211 267.987 176.398 267.8 176.398 267.569V264.083Z" fill="#F5E724"/>
<path d="M178.129 264.083C178.129 263.852 177.942 263.665 177.711 263.665C177.48 263.665 177.293 263.852 177.293 264.083V267.569C177.293 267.8 177.48 267.987 177.711 267.987C177.942 267.987 178.129 267.8 178.129 267.569V264.083Z" fill="#F5ED20"/>
<path d="M179.859 264.083C179.859 263.852 179.672 263.665 179.441 263.665C179.211 263.665 179.023 263.852 179.023 264.083V267.569C179.023 267.8 179.211 267.987 179.441 267.987C179.672 267.987 179.859 267.8 179.859 267.569V264.083Z" fill="#FBEF29"/>
<path d="M181.59 264.083C181.59 263.852 181.403 263.665 181.172 263.665C180.941 263.665 180.754 263.852 180.754 264.083V267.569C180.754 267.8 180.941 267.987 181.172 267.987C181.403 267.987 181.59 267.8 181.59 267.569V264.083Z" fill="#F5E61B"/>
<path d="M183.316 264.083C183.316 263.852 183.129 263.665 182.898 263.665C182.668 263.665 182.48 263.852 182.48 264.083V267.569C182.48 267.8 182.668 267.987 182.898 267.987C183.129 267.987 183.316 267.8 183.316 267.569V264.083Z" fill="#FFE320"/>
<path d="M185.047 264.083C185.047 263.852 184.86 263.665 184.629 263.665C184.398 263.665 184.211 263.852 184.211 264.083V267.569C184.211 267.8 184.398 267.987 184.629 267.987C184.86 267.987 185.047 267.8 185.047 267.569V264.083Z" fill="#FFEC31"/>
<path d="M186.777 264.083C186.777 263.852 186.59 263.665 186.359 263.665C186.129 263.665 185.941 263.852 185.941 264.083V267.569C185.941 267.8 186.129 267.987 186.359 267.987C186.59 267.987 186.777 267.8 186.777 267.569V264.083Z" fill="#FCC200"/>
<path d="M188.508 264.083C188.508 263.852 188.321 263.665 188.09 263.665C187.859 263.665 187.672 263.852 187.672 264.083V267.569C187.672 267.8 187.859 267.987 188.09 267.987C188.321 267.987 188.508 267.8 188.508 267.569V264.083Z" fill="#FDC30A"/>
<path d="M190.234 264.083C190.234 263.852 190.047 263.665 189.816 263.665C189.586 263.665 189.398 263.852 189.398 264.083V267.569C189.398 267.8 189.586 267.987 189.816 267.987C190.047 267.987 190.234 267.8 190.234 267.569V264.083Z" fill="#FFBD0C"/>
<path d="M191.965 264.083C191.965 263.852 191.778 263.665 191.547 263.665C191.316 263.665 191.129 263.852 191.129 264.083V267.569C191.129 267.8 191.316 267.987 191.547 267.987C191.778 267.987 191.965 267.8 191.965 267.569V264.083Z" fill="#FDBC0A"/>
<path d="M193.695 264.083C193.695 263.852 193.508 263.665 193.277 263.665C193.047 263.665 192.859 263.852 192.859 264.083V267.569C192.859 267.8 193.047 267.987 193.277 267.987C193.508 267.987 193.695 267.8 193.695 267.569V264.083Z" fill="#FDC202"/>
<path d="M195.418 264.083C195.418 263.852 195.231 263.665 195 263.665C194.769 263.665 194.582 263.852 194.582 264.083V267.569C194.582 267.8 194.769 267.987 195 267.987C195.231 267.987 195.418 267.8 195.418 267.569V264.083Z" fill="#FCC200"/>
<path d="M181.624 256.464H143.887C143.963 256.05 144.328 255.735 144.765 255.735H180.742C181.179 255.735 181.543 256.05 181.62 256.464H181.624Z" fill="#FFEB13"/>
<path d="M181.624 261.732C181.547 262.147 181.183 262.461 180.746 262.461H144.769C144.332 262.461 143.967 262.147 143.891 261.732H181.628H181.624Z" fill="#D58E02"/>
<path d="M153.281 256.465V261.734H143.886C143.875 261.68 143.871 261.622 143.871 261.569V256.634C143.871 256.576 143.875 256.522 143.886 256.469H153.281V256.465Z" fill="#F9EC22"/>
<path d="M170.564 256.465H153.281V261.734H170.564V256.465Z" fill="#F9C100"/>
<path d="M181.637 256.634V261.569C181.637 261.626 181.633 261.68 181.622 261.734H170.562V256.465H181.622C181.633 256.519 181.637 256.576 181.637 256.63V256.634Z" fill="#F3AC04"/>
<path d="M145.879 257.357C145.879 257.127 145.692 256.939 145.461 256.939C145.23 256.939 145.043 257.127 145.043 257.357V260.843C145.043 261.074 145.23 261.261 145.461 261.261C145.692 261.261 145.879 261.074 145.879 260.843V257.357Z" fill="#FEF0A5"/>
<path d="M147.609 257.357C147.609 257.127 147.422 256.939 147.191 256.939C146.961 256.939 146.773 257.127 146.773 257.357V260.843C146.773 261.074 146.961 261.261 147.191 261.261C147.422 261.261 147.609 261.074 147.609 260.843V257.357Z" fill="#FEF0A5"/>
<path d="M149.34 257.357C149.34 257.127 149.153 256.939 148.922 256.939C148.691 256.939 148.504 257.127 148.504 257.357V260.843C148.504 261.074 148.691 261.261 148.922 261.261C149.153 261.261 149.34 261.074 149.34 260.843V257.357Z" fill="#FEF0A5"/>
<path d="M151.066 257.357C151.066 257.127 150.879 256.939 150.648 256.939C150.418 256.939 150.23 257.127 150.23 257.357V260.843C150.23 261.074 150.418 261.261 150.648 261.261C150.879 261.261 151.066 261.074 151.066 260.843V257.357Z" fill="#FEF0A5"/>
<path d="M152.793 257.357C152.793 257.127 152.606 256.939 152.375 256.939C152.144 256.939 151.957 257.127 151.957 257.357V260.843C151.957 261.074 152.144 261.261 152.375 261.261C152.606 261.261 152.793 261.074 152.793 260.843V257.357Z" fill="#FEF0A5"/>
<path d="M154.527 257.357C154.527 257.127 154.34 256.939 154.109 256.939C153.879 256.939 153.691 257.127 153.691 257.357V260.843C153.691 261.074 153.879 261.261 154.109 261.261C154.34 261.261 154.527 261.074 154.527 260.843V257.357Z" fill="#FFEF29"/>
<path d="M156.254 257.357C156.254 257.127 156.067 256.939 155.836 256.939C155.605 256.939 155.418 257.127 155.418 257.357V260.843C155.418 261.074 155.605 261.261 155.836 261.261C156.067 261.261 156.254 261.074 156.254 260.843V257.357Z" fill="#FFE726"/>
<path d="M157.984 257.357C157.984 257.127 157.797 256.939 157.566 256.939C157.336 256.939 157.148 257.127 157.148 257.357V260.843C157.148 261.074 157.336 261.261 157.566 261.261C157.797 261.261 157.984 261.074 157.984 260.843V257.357Z" fill="#F8F328"/>
<path d="M159.715 257.357C159.715 257.127 159.528 256.939 159.297 256.939C159.066 256.939 158.879 257.127 158.879 257.357V260.843C158.879 261.074 159.066 261.261 159.297 261.261C159.528 261.261 159.715 261.074 159.715 260.843V257.357Z" fill="#F6E91F"/>
<path d="M161.445 257.357C161.445 257.127 161.258 256.939 161.027 256.939C160.797 256.939 160.609 257.127 160.609 257.357V260.843C160.609 261.074 160.797 261.261 161.027 261.261C161.258 261.261 161.445 261.074 161.445 260.843V257.357Z" fill="#F5E724"/>
<path d="M163.172 257.357C163.172 257.127 162.985 256.939 162.754 256.939C162.523 256.939 162.336 257.127 162.336 257.357V260.843C162.336 261.074 162.523 261.261 162.754 261.261C162.985 261.261 163.172 261.074 163.172 260.843V257.357Z" fill="#F5ED20"/>
<path d="M164.906 257.357C164.906 257.127 164.719 256.939 164.488 256.939C164.257 256.939 164.07 257.127 164.07 257.357V260.843C164.07 261.074 164.257 261.261 164.488 261.261C164.719 261.261 164.906 261.074 164.906 260.843V257.357Z" fill="#FBEF29"/>
<path d="M166.633 257.357C166.633 257.127 166.446 256.939 166.215 256.939C165.984 256.939 165.797 257.127 165.797 257.357V260.843C165.797 261.074 165.984 261.261 166.215 261.261C166.446 261.261 166.633 261.074 166.633 260.843V257.357Z" fill="#F5E61B"/>
<path d="M168.359 257.357C168.359 257.127 168.172 256.939 167.941 256.939C167.711 256.939 167.523 257.127 167.523 257.357V260.843C167.523 261.074 167.711 261.261 167.941 261.261C168.172 261.261 168.359 261.074 168.359 260.843V257.357Z" fill="#FFE320"/>
<path d="M170.094 257.357C170.094 257.127 169.907 256.939 169.676 256.939C169.445 256.939 169.258 257.127 169.258 257.357V260.843C169.258 261.074 169.445 261.261 169.676 261.261C169.907 261.261 170.094 261.074 170.094 260.843V257.357Z" fill="#FFEC31"/>
<path d="M171.82 257.357C171.82 257.127 171.633 256.939 171.402 256.939C171.172 256.939 170.984 257.127 170.984 257.357V260.843C170.984 261.074 171.172 261.261 171.402 261.261C171.633 261.261 171.82 261.074 171.82 260.843V257.357Z" fill="#FCC200"/>
<path d="M173.551 257.357C173.551 257.127 173.364 256.939 173.133 256.939C172.902 256.939 172.715 257.127 172.715 257.357V260.843C172.715 261.074 172.902 261.261 173.133 261.261C173.364 261.261 173.551 261.074 173.551 260.843V257.357Z" fill="#FDC30A"/>
<path d="M175.277 257.357C175.277 257.127 175.09 256.939 174.859 256.939C174.629 256.939 174.441 257.127 174.441 257.357V260.843C174.441 261.074 174.629 261.261 174.859 261.261C175.09 261.261 175.277 261.074 175.277 260.843V257.357Z" fill="#FFBD0C"/>
<path d="M177.012 257.357C177.012 257.127 176.825 256.939 176.594 256.939C176.363 256.939 176.176 257.127 176.176 257.357V260.843C176.176 261.074 176.363 261.261 176.594 261.261C176.825 261.261 177.012 261.074 177.012 260.843V257.357Z" fill="#FDBC0A"/>
<path d="M178.738 257.357C178.738 257.127 178.551 256.939 178.32 256.939C178.089 256.939 177.902 257.127 177.902 257.357V260.843C177.902 261.074 178.089 261.261 178.32 261.261C178.551 261.261 178.738 261.074 178.738 260.843V257.357Z" fill="#FDC202"/>
<path d="M180.469 257.357C180.469 257.127 180.282 256.939 180.051 256.939C179.82 256.939 179.633 257.127 179.633 257.357V260.843C179.633 261.074 179.82 261.261 180.051 261.261C180.282 261.261 180.469 261.074 180.469 260.843V257.357Z" fill="#FCC200"/>
<path d="M180.464 249.739H142.727C142.803 249.325 143.168 249.011 143.605 249.011H179.582C180.019 249.011 180.383 249.325 180.46 249.739H180.464Z" fill="#FFEB13"/>
<path d="M180.464 255.008C180.387 255.422 180.023 255.736 179.586 255.736H143.609C143.171 255.736 142.807 255.422 142.73 255.008H180.468H180.464Z" fill="#D58E02"/>
<path d="M152.121 249.738V255.007H142.726C142.715 254.953 142.711 254.896 142.711 254.842V249.907C142.711 249.849 142.715 249.796 142.726 249.742H152.121V249.738Z" fill="#F9EC22"/>
<path d="M169.404 249.738H152.121V255.007H169.404V249.738Z" fill="#F9C100"/>
<path d="M180.477 249.907V254.842C180.477 254.9 180.473 254.953 180.462 255.007H169.402V249.738H180.462C180.473 249.792 180.477 249.849 180.477 249.903V249.907Z" fill="#F3AC04"/>
<path d="M144.719 250.632C144.719 250.401 144.532 250.214 144.301 250.214C144.07 250.214 143.883 250.401 143.883 250.632V254.118C143.883 254.348 144.07 254.536 144.301 254.536C144.532 254.536 144.719 254.348 144.719 254.118V250.632Z" fill="#FEF0A5"/>
<path d="M146.449 250.632C146.449 250.401 146.262 250.214 146.031 250.214C145.8 250.214 145.613 250.401 145.613 250.632V254.118C145.613 254.348 145.8 254.536 146.031 254.536C146.262 254.536 146.449 254.348 146.449 254.118V250.632Z" fill="#FEF0A5"/>
<path d="M148.18 250.632C148.18 250.401 147.993 250.214 147.762 250.214C147.531 250.214 147.344 250.401 147.344 250.632V254.118C147.344 254.348 147.531 254.536 147.762 254.536C147.993 254.536 148.18 254.348 148.18 254.118V250.632Z" fill="#FEF0A5"/>
<path d="M149.906 250.632C149.906 250.401 149.719 250.214 149.488 250.214C149.257 250.214 149.07 250.401 149.07 250.632V254.118C149.07 254.348 149.257 254.536 149.488 254.536C149.719 254.536 149.906 254.348 149.906 254.118V250.632Z" fill="#FEF0A5"/>
<path d="M151.633 250.632C151.633 250.401 151.446 250.214 151.215 250.214C150.984 250.214 150.797 250.401 150.797 250.632V254.118C150.797 254.348 150.984 254.536 151.215 254.536C151.446 254.536 151.633 254.348 151.633 254.118V250.632Z" fill="#FEF0A5"/>
<path d="M153.367 250.632C153.367 250.401 153.18 250.214 152.949 250.214C152.718 250.214 152.531 250.401 152.531 250.632V254.118C152.531 254.348 152.718 254.536 152.949 254.536C153.18 254.536 153.367 254.348 153.367 254.118V250.632Z" fill="#FFEF29"/>
<path d="M155.094 250.632C155.094 250.401 154.907 250.214 154.676 250.214C154.445 250.214 154.258 250.401 154.258 250.632V254.118C154.258 254.348 154.445 254.536 154.676 254.536C154.907 254.536 155.094 254.348 155.094 254.118V250.632Z" fill="#FFE726"/>
<path d="M156.824 250.632C156.824 250.401 156.637 250.214 156.406 250.214C156.175 250.214 155.988 250.401 155.988 250.632V254.118C155.988 254.348 156.175 254.536 156.406 254.536C156.637 254.536 156.824 254.348 156.824 254.118V250.632Z" fill="#F8F328"/>
<path d="M158.555 250.632C158.555 250.401 158.368 250.214 158.137 250.214C157.906 250.214 157.719 250.401 157.719 250.632V254.118C157.719 254.348 157.906 254.536 158.137 254.536C158.368 254.536 158.555 254.348 158.555 254.118V250.632Z" fill="#F6E91F"/>
<path d="M160.285 250.632C160.285 250.401 160.098 250.214 159.867 250.214C159.636 250.214 159.449 250.401 159.449 250.632V254.118C159.449 254.348 159.636 254.536 159.867 254.536C160.098 254.536 160.285 254.348 160.285 254.118V250.632Z" fill="#F5E724"/>
<path d="M162.012 250.632C162.012 250.401 161.825 250.214 161.594 250.214C161.363 250.214 161.176 250.401 161.176 250.632V254.118C161.176 254.348 161.363 254.536 161.594 254.536C161.825 254.536 162.012 254.348 162.012 254.118V250.632Z" fill="#F5ED20"/>
<path d="M163.746 250.632C163.746 250.401 163.559 250.214 163.328 250.214C163.097 250.214 162.91 250.401 162.91 250.632V254.118C162.91 254.348 163.097 254.536 163.328 254.536C163.559 254.536 163.746 254.348 163.746 254.118V250.632Z" fill="#FBEF29"/>
<path d="M165.473 250.632C165.473 250.401 165.286 250.214 165.055 250.214C164.824 250.214 164.637 250.401 164.637 250.632V254.118C164.637 254.348 164.824 254.536 165.055 254.536C165.286 254.536 165.473 254.348 165.473 254.118V250.632Z" fill="#F5E61B"/>
<path d="M167.199 250.632C167.199 250.401 167.012 250.214 166.781 250.214C166.55 250.214 166.363 250.401 166.363 250.632V254.118C166.363 254.348 166.55 254.536 166.781 254.536C167.012 254.536 167.199 254.348 167.199 254.118V250.632Z" fill="#FFE320"/>
<path d="M168.93 250.632C168.93 250.401 168.743 250.214 168.512 250.214C168.281 250.214 168.094 250.401 168.094 250.632V254.118C168.094 254.348 168.281 254.536 168.512 254.536C168.743 254.536 168.93 254.348 168.93 254.118V250.632Z" fill="#FFEC31"/>
<path d="M170.66 250.632C170.66 250.401 170.473 250.214 170.242 250.214C170.011 250.214 169.824 250.401 169.824 250.632V254.118C169.824 254.348 170.011 254.536 170.242 254.536C170.473 254.536 170.66 254.348 170.66 254.118V250.632Z" fill="#FCC200"/>
<path d="M172.391 250.632C172.391 250.401 172.204 250.214 171.973 250.214C171.742 250.214 171.555 250.401 171.555 250.632V254.118C171.555 254.348 171.742 254.536 171.973 254.536C172.204 254.536 172.391 254.348 172.391 254.118V250.632Z" fill="#FDC30A"/>
<path d="M174.117 250.632C174.117 250.401 173.93 250.214 173.699 250.214C173.468 250.214 173.281 250.401 173.281 250.632V254.118C173.281 254.348 173.468 254.536 173.699 254.536C173.93 254.536 174.117 254.348 174.117 254.118V250.632Z" fill="#FFBD0C"/>
<path d="M175.852 250.632C175.852 250.401 175.664 250.214 175.434 250.214C175.203 250.214 175.016 250.401 175.016 250.632V254.118C175.016 254.348 175.203 254.536 175.434 254.536C175.664 254.536 175.852 254.348 175.852 254.118V250.632Z" fill="#FDBC0A"/>
<path d="M177.578 250.632C177.578 250.401 177.391 250.214 177.16 250.214C176.929 250.214 176.742 250.401 176.742 250.632V254.118C176.742 254.348 176.929 254.536 177.16 254.536C177.391 254.536 177.578 254.348 177.578 254.118V250.632Z" fill="#FDC202"/>
<path d="M179.309 250.632C179.309 250.401 179.121 250.214 178.891 250.214C178.66 250.214 178.473 250.401 178.473 250.632V254.118C178.473 254.348 178.66 254.536 178.891 254.536C179.121 254.536 179.309 254.348 179.309 254.118V250.632Z" fill="#FCC200"/>
<path d="M174.858 243.013H137.121C137.198 242.599 137.562 242.284 137.999 242.284H173.976C174.413 242.284 174.778 242.599 174.854 243.013H174.858Z" fill="#FFEB13"/>
<path d="M174.858 248.281C174.782 248.695 174.417 249.01 173.98 249.01H138.003C137.566 249.01 137.202 248.695 137.125 248.281H174.862H174.858Z" fill="#D58E02"/>
<path d="M146.516 243.014V248.283H137.121C137.109 248.229 137.105 248.171 137.105 248.118V243.182C137.105 243.125 137.109 243.071 137.121 243.017H146.516V243.014Z" fill="#F9EC22"/>
<path d="M163.795 243.014H146.512V248.283H163.795V243.014Z" fill="#F9C100"/>
<path d="M174.871 243.182V248.118C174.871 248.175 174.868 248.229 174.856 248.283H163.797V243.014H174.856C174.868 243.067 174.871 243.125 174.871 243.179V243.182Z" fill="#F3AC04"/>
<path d="M139.113 243.906C139.113 243.675 138.926 243.488 138.695 243.488C138.464 243.488 138.277 243.675 138.277 243.906V247.392C138.277 247.623 138.464 247.81 138.695 247.81C138.926 247.81 139.113 247.623 139.113 247.392V243.906Z" fill="#FEF0A5"/>
<path d="M140.84 243.906C140.84 243.675 140.653 243.488 140.422 243.488C140.191 243.488 140.004 243.675 140.004 243.906V247.392C140.004 247.623 140.191 247.81 140.422 247.81C140.653 247.81 140.84 247.623 140.84 247.392V243.906Z" fill="#FEF0A5"/>
<path d="M142.574 243.906C142.574 243.675 142.387 243.488 142.156 243.488C141.925 243.488 141.738 243.675 141.738 243.906V247.392C141.738 247.623 141.925 247.81 142.156 247.81C142.387 247.81 142.574 247.623 142.574 247.392V243.906Z" fill="#FEF0A5"/>
<path d="M144.297 243.906C144.297 243.675 144.11 243.488 143.879 243.488C143.648 243.488 143.461 243.675 143.461 243.906V247.392C143.461 247.623 143.648 247.81 143.879 247.81C144.11 247.81 144.297 247.623 144.297 247.392V243.906Z" fill="#FEF0A5"/>
<path d="M146.027 243.906C146.027 243.675 145.84 243.488 145.609 243.488C145.379 243.488 145.191 243.675 145.191 243.906V247.392C145.191 247.623 145.379 247.81 145.609 247.81C145.84 247.81 146.027 247.623 146.027 247.392V243.906Z" fill="#FEF0A5"/>
<path d="M147.758 243.906C147.758 243.675 147.571 243.488 147.34 243.488C147.109 243.488 146.922 243.675 146.922 243.906V247.392C146.922 247.623 147.109 247.81 147.34 247.81C147.571 247.81 147.758 247.623 147.758 247.392V243.906Z" fill="#FFEF29"/>
<path d="M149.488 243.906C149.488 243.675 149.301 243.488 149.07 243.488C148.839 243.488 148.652 243.675 148.652 243.906V247.392C148.652 247.623 148.839 247.81 149.07 247.81C149.301 247.81 149.488 247.623 149.488 247.392V243.906Z" fill="#FFE726"/>
<path d="M151.215 243.906C151.215 243.675 151.028 243.488 150.797 243.488C150.566 243.488 150.379 243.675 150.379 243.906V247.392C150.379 247.623 150.566 247.81 150.797 247.81C151.028 247.81 151.215 247.623 151.215 247.392V243.906Z" fill="#F8F328"/>
<path d="M152.949 243.906C152.949 243.675 152.762 243.488 152.531 243.488C152.3 243.488 152.113 243.675 152.113 243.906V247.392C152.113 247.623 152.3 247.81 152.531 247.81C152.762 247.81 152.949 247.623 152.949 247.392V243.906Z" fill="#F6E91F"/>
<path d="M154.676 243.906C154.676 243.675 154.489 243.488 154.258 243.488C154.027 243.488 153.84 243.675 153.84 243.906V247.392C153.84 247.623 154.027 247.81 154.258 247.81C154.489 247.81 154.676 247.623 154.676 247.392V243.906Z" fill="#F5E724"/>
<path d="M156.406 243.906C156.406 243.675 156.219 243.488 155.988 243.488C155.757 243.488 155.57 243.675 155.57 243.906V247.392C155.57 247.623 155.757 247.81 155.988 247.81C156.219 247.81 156.406 247.623 156.406 247.392V243.906Z" fill="#F5ED20"/>
<path d="M158.137 243.906C158.137 243.675 157.95 243.488 157.719 243.488C157.488 243.488 157.301 243.675 157.301 243.906V247.392C157.301 247.623 157.488 247.81 157.719 247.81C157.95 247.81 158.137 247.623 158.137 247.392V243.906Z" fill="#FBEF29"/>
<path d="M159.863 243.906C159.863 243.675 159.676 243.488 159.445 243.488C159.214 243.488 159.027 243.675 159.027 243.906V247.392C159.027 247.623 159.214 247.81 159.445 247.81C159.676 247.81 159.863 247.623 159.863 247.392V243.906Z" fill="#F5E61B"/>
<path d="M161.594 243.906C161.594 243.675 161.407 243.488 161.176 243.488C160.945 243.488 160.758 243.675 160.758 243.906V247.392C160.758 247.623 160.945 247.81 161.176 247.81C161.407 247.81 161.594 247.623 161.594 247.392V243.906Z" fill="#FFE320"/>
<path d="M163.32 243.906C163.32 243.675 163.133 243.488 162.902 243.488C162.672 243.488 162.484 243.675 162.484 243.906V247.392C162.484 247.623 162.672 247.81 162.902 247.81C163.133 247.81 163.32 247.623 163.32 247.392V243.906Z" fill="#FFEC31"/>
<path d="M165.055 243.906C165.055 243.675 164.868 243.488 164.637 243.488C164.406 243.488 164.219 243.675 164.219 243.906V247.392C164.219 247.623 164.406 247.81 164.637 247.81C164.868 247.81 165.055 247.623 165.055 247.392V243.906Z" fill="#FCC200"/>
<path d="M166.781 243.906C166.781 243.675 166.594 243.488 166.363 243.488C166.132 243.488 165.945 243.675 165.945 243.906V247.392C165.945 247.623 166.132 247.81 166.363 247.81C166.594 247.81 166.781 247.623 166.781 247.392V243.906Z" fill="#FDC30A"/>
<path d="M168.512 243.906C168.512 243.675 168.325 243.488 168.094 243.488C167.863 243.488 167.676 243.675 167.676 243.906V247.392C167.676 247.623 167.863 247.81 168.094 247.81C168.325 247.81 168.512 247.623 168.512 247.392V243.906Z" fill="#FFBD0C"/>
<path d="M170.242 243.906C170.242 243.675 170.055 243.488 169.824 243.488C169.593 243.488 169.406 243.675 169.406 243.906V247.392C169.406 247.623 169.593 247.81 169.824 247.81C170.055 247.81 170.242 247.623 170.242 247.392V243.906Z" fill="#FDBC0A"/>
<path d="M171.973 243.906C171.973 243.675 171.786 243.488 171.555 243.488C171.324 243.488 171.137 243.675 171.137 243.906V247.392C171.137 247.623 171.324 247.81 171.555 247.81C171.786 247.81 171.973 247.623 171.973 247.392V243.906Z" fill="#FDC202"/>
<path d="M173.695 243.906C173.695 243.675 173.508 243.488 173.277 243.488C173.047 243.488 172.859 243.675 172.859 243.906V247.392C172.859 247.623 173.047 247.81 173.277 247.81C173.508 247.81 173.695 247.623 173.695 247.392V243.906Z" fill="#FCC200"/>
<path d="M180.788 236.287H143.051C143.127 235.873 143.492 235.559 143.929 235.559H179.906C180.343 235.559 180.707 235.873 180.784 236.287H180.788Z" fill="#FFEB13"/>
<path d="M180.788 241.557C180.711 241.971 180.347 242.285 179.91 242.285H143.933C143.496 242.285 143.131 241.971 143.055 241.557H180.792H180.788Z" fill="#D58E02"/>
<path d="M152.445 236.286V241.555H143.05C143.039 241.501 143.035 241.444 143.035 241.39V236.455C143.035 236.397 143.039 236.344 143.05 236.29H152.445V236.286Z" fill="#F9EC22"/>
<path d="M169.728 236.286H152.445V241.555H169.728V236.286Z" fill="#F9C100"/>
<path d="M180.801 236.451V241.386C180.801 241.444 180.797 241.497 180.786 241.551H169.727V236.282H180.786C180.797 236.336 180.801 236.393 180.801 236.447V236.451Z" fill="#F3AC04"/>
<path d="M145.043 237.176C145.043 236.945 144.856 236.758 144.625 236.758C144.394 236.758 144.207 236.945 144.207 237.176V240.662C144.207 240.892 144.394 241.079 144.625 241.079C144.856 241.079 145.043 240.892 145.043 240.662V237.176Z" fill="#FEF0A5"/>
<path d="M146.773 237.176C146.773 236.945 146.586 236.758 146.355 236.758C146.125 236.758 145.938 236.945 145.938 237.176V240.662C145.938 240.892 146.125 241.079 146.355 241.079C146.586 241.079 146.773 240.892 146.773 240.662V237.176Z" fill="#FEF0A5"/>
<path d="M148.504 237.176C148.504 236.945 148.317 236.758 148.086 236.758C147.855 236.758 147.668 236.945 147.668 237.176V240.662C147.668 240.892 147.855 241.079 148.086 241.079C148.317 241.079 148.504 240.892 148.504 240.662V237.176Z" fill="#FEF0A5"/>
<path d="M150.234 237.176C150.234 236.945 150.047 236.758 149.816 236.758C149.586 236.758 149.398 236.945 149.398 237.176V240.662C149.398 240.892 149.586 241.079 149.816 241.079C150.047 241.079 150.234 240.892 150.234 240.662V237.176Z" fill="#FEF0A5"/>
<path d="M151.957 237.176C151.957 236.945 151.77 236.758 151.539 236.758C151.308 236.758 151.121 236.945 151.121 237.176V240.662C151.121 240.892 151.308 241.079 151.539 241.079C151.77 241.079 151.957 240.892 151.957 240.662V237.176Z" fill="#FEF0A5"/>
<path d="M153.691 237.176C153.691 236.945 153.504 236.758 153.273 236.758C153.043 236.758 152.855 236.945 152.855 237.176V240.662C152.855 240.892 153.043 241.079 153.273 241.079C153.504 241.079 153.691 240.892 153.691 240.662V237.176Z" fill="#FFEF29"/>
<path d="M155.418 237.176C155.418 236.945 155.231 236.758 155 236.758C154.769 236.758 154.582 236.945 154.582 237.176V240.662C154.582 240.892 154.769 241.079 155 241.079C155.231 241.079 155.418 240.892 155.418 240.662V237.176Z" fill="#FFE726"/>
<path d="M157.145 237.176C157.145 236.945 156.957 236.758 156.727 236.758C156.496 236.758 156.309 236.945 156.309 237.176V240.662C156.309 240.892 156.496 241.079 156.727 241.079C156.957 241.079 157.145 240.892 157.145 240.662V237.176Z" fill="#F8F328"/>
<path d="M158.879 237.176C158.879 236.945 158.692 236.758 158.461 236.758C158.23 236.758 158.043 236.945 158.043 237.176V240.662C158.043 240.892 158.23 241.079 158.461 241.079C158.692 241.079 158.879 240.892 158.879 240.662V237.176Z" fill="#F6E91F"/>
<path d="M160.605 237.176C160.605 236.945 160.418 236.758 160.188 236.758C159.957 236.758 159.77 236.945 159.77 237.176V240.662C159.77 240.892 159.957 241.079 160.188 241.079C160.418 241.079 160.605 240.892 160.605 240.662V237.176Z" fill="#F5E724"/>
<path d="M162.336 237.176C162.336 236.945 162.149 236.758 161.918 236.758C161.687 236.758 161.5 236.945 161.5 237.176V240.662C161.5 240.892 161.687 241.079 161.918 241.079C162.149 241.079 162.336 240.892 162.336 240.662V237.176Z" fill="#F5ED20"/>
<path d="M164.066 237.176C164.066 236.945 163.879 236.758 163.648 236.758C163.418 236.758 163.23 236.945 163.23 237.176V240.662C163.23 240.892 163.418 241.079 163.648 241.079C163.879 241.079 164.066 240.892 164.066 240.662V237.176Z" fill="#FBEF29"/>
<path d="M165.797 237.176C165.797 236.945 165.61 236.758 165.379 236.758C165.148 236.758 164.961 236.945 164.961 237.176V240.662C164.961 240.892 165.148 241.079 165.379 241.079C165.61 241.079 165.797 240.892 165.797 240.662V237.176Z" fill="#F5E61B"/>
<path d="M167.523 237.176C167.523 236.945 167.336 236.758 167.105 236.758C166.875 236.758 166.688 236.945 166.688 237.176V240.662C166.688 240.892 166.875 241.079 167.105 241.079C167.336 241.079 167.523 240.892 167.523 240.662V237.176Z" fill="#FFE320"/>
<path d="M169.258 237.176C169.258 236.945 169.071 236.758 168.84 236.758C168.609 236.758 168.422 236.945 168.422 237.176V240.662C168.422 240.892 168.609 241.079 168.84 241.079C169.071 241.079 169.258 240.892 169.258 240.662V237.176Z" fill="#FFEC31"/>
<path d="M170.98 237.176C170.98 236.945 170.793 236.758 170.563 236.758C170.332 236.758 170.145 236.945 170.145 237.176V240.662C170.145 240.892 170.332 241.079 170.563 241.079C170.793 241.079 170.98 240.892 170.98 240.662V237.176Z" fill="#FCC200"/>
<path d="M172.711 237.176C172.711 236.945 172.524 236.758 172.293 236.758C172.062 236.758 171.875 236.945 171.875 237.176V240.662C171.875 240.892 172.062 241.079 172.293 241.079C172.524 241.079 172.711 240.892 172.711 240.662V237.176Z" fill="#FDC30A"/>
<path d="M174.438 237.176C174.438 236.945 174.25 236.758 174.02 236.758C173.789 236.758 173.602 236.945 173.602 237.176V240.662C173.602 240.892 173.789 241.079 174.02 241.079C174.25 241.079 174.438 240.892 174.438 240.662V237.176Z" fill="#FFBD0C"/>
<path d="M176.172 237.176C176.172 236.945 175.985 236.758 175.754 236.758C175.523 236.758 175.336 236.945 175.336 237.176V240.662C175.336 240.892 175.523 241.079 175.754 241.079C175.985 241.079 176.172 240.892 176.172 240.662V237.176Z" fill="#FDBC0A"/>
<path d="M177.898 237.176C177.898 236.945 177.711 236.758 177.48 236.758C177.25 236.758 177.062 236.945 177.062 237.176V240.662C177.062 240.892 177.25 241.079 177.48 241.079C177.711 241.079 177.898 240.892 177.898 240.662V237.176Z" fill="#FDC202"/>
<path d="M179.629 237.176C179.629 236.945 179.442 236.758 179.211 236.758C178.98 236.758 178.793 236.945 178.793 237.176V240.662C178.793 240.892 178.98 241.079 179.211 241.079C179.442 241.079 179.629 240.892 179.629 240.662V237.176Z" fill="#FCC200"/>
<path d="M172.585 229.561H134.848C134.924 229.146 135.289 228.832 135.726 228.832H171.703C172.14 228.832 172.504 229.146 172.581 229.561H172.585Z" fill="#FFEB13"/>
<path d="M172.585 234.829C172.508 235.243 172.144 235.558 171.707 235.558H135.73C135.293 235.558 134.928 235.243 134.852 234.829H172.589H172.585Z" fill="#D58E02"/>
<path d="M144.242 229.561V234.829H134.847C134.836 234.776 134.832 234.718 134.832 234.665V229.729C134.832 229.672 134.836 229.618 134.847 229.564H144.242V229.561Z" fill="#F9EC22"/>
<path d="M161.521 229.561H144.238V234.829H161.521V229.561Z" fill="#F9C100"/>
<path d="M172.598 229.725V234.661C172.598 234.718 172.594 234.772 172.583 234.825H161.523V229.557H172.583C172.594 229.61 172.598 229.668 172.598 229.722V229.725Z" fill="#F3AC04"/>
<path d="M136.84 230.451C136.84 230.22 136.653 230.033 136.422 230.033C136.191 230.033 136.004 230.22 136.004 230.451V233.937C136.004 234.168 136.191 234.355 136.422 234.355C136.653 234.355 136.84 234.168 136.84 233.937V230.451Z" fill="#FEF0A5"/>
<path d="M138.566 230.451C138.566 230.22 138.379 230.033 138.148 230.033C137.918 230.033 137.73 230.22 137.73 230.451V233.937C137.73 234.168 137.918 234.355 138.148 234.355C138.379 234.355 138.566 234.168 138.566 233.937V230.451Z" fill="#FEF0A5"/>
<path d="M140.301 230.451C140.301 230.22 140.114 230.033 139.883 230.033C139.652 230.033 139.465 230.22 139.465 230.451V233.937C139.465 234.168 139.652 234.355 139.883 234.355C140.114 234.355 140.301 234.168 140.301 233.937V230.451Z" fill="#FEF0A5"/>
<path d="M142.027 230.451C142.027 230.22 141.84 230.033 141.609 230.033C141.379 230.033 141.191 230.22 141.191 230.451V233.937C141.191 234.168 141.379 234.355 141.609 234.355C141.84 234.355 142.027 234.168 142.027 233.937V230.451Z" fill="#FEF0A5"/>
<path d="M143.758 230.451C143.758 230.22 143.571 230.033 143.34 230.033C143.109 230.033 142.922 230.22 142.922 230.451V233.937C142.922 234.168 143.109 234.355 143.34 234.355C143.571 234.355 143.758 234.168 143.758 233.937V230.451Z" fill="#FEF0A5"/>
<path d="M145.488 230.451C145.488 230.22 145.301 230.033 145.07 230.033C144.839 230.033 144.652 230.22 144.652 230.451V233.937C144.652 234.168 144.839 234.355 145.07 234.355C145.301 234.355 145.488 234.168 145.488 233.937V230.451Z" fill="#FFEF29"/>
<path d="M147.219 230.451C147.219 230.22 147.032 230.033 146.801 230.033C146.57 230.033 146.383 230.22 146.383 230.451V233.937C146.383 234.168 146.57 234.355 146.801 234.355C147.032 234.355 147.219 234.168 147.219 233.937V230.451Z" fill="#FFE726"/>
<path d="M148.941 230.451C148.941 230.22 148.754 230.033 148.523 230.033C148.293 230.033 148.105 230.22 148.105 230.451V233.937C148.105 234.168 148.293 234.355 148.523 234.355C148.754 234.355 148.941 234.168 148.941 233.937V230.451Z" fill="#F8F328"/>
<path d="M150.676 230.451C150.676 230.22 150.489 230.033 150.258 230.033C150.027 230.033 149.84 230.22 149.84 230.451V233.937C149.84 234.168 150.027 234.355 150.258 234.355C150.489 234.355 150.676 234.168 150.676 233.937V230.451Z" fill="#F6E91F"/>
<path d="M152.402 230.451C152.402 230.22 152.215 230.033 151.984 230.033C151.754 230.033 151.566 230.22 151.566 230.451V233.937C151.566 234.168 151.754 234.355 151.984 234.355C152.215 234.355 152.402 234.168 152.402 233.937V230.451Z" fill="#F5E724"/>
<path d="M154.133 230.451C154.133 230.22 153.946 230.033 153.715 230.033C153.484 230.033 153.297 230.22 153.297 230.451V233.937C153.297 234.168 153.484 234.355 153.715 234.355C153.946 234.355 154.133 234.168 154.133 233.937V230.451Z" fill="#F5ED20"/>
<path d="M155.863 230.451C155.863 230.22 155.676 230.033 155.445 230.033C155.214 230.033 155.027 230.22 155.027 230.451V233.937C155.027 234.168 155.214 234.355 155.445 234.355C155.676 234.355 155.863 234.168 155.863 233.937V230.451Z" fill="#FBEF29"/>
<path d="M157.594 230.451C157.594 230.22 157.407 230.033 157.176 230.033C156.945 230.033 156.758 230.22 156.758 230.451V233.937C156.758 234.168 156.945 234.355 157.176 234.355C157.407 234.355 157.594 234.168 157.594 233.937V230.451Z" fill="#F5E61B"/>
<path d="M159.32 230.451C159.32 230.22 159.133 230.033 158.902 230.033C158.672 230.033 158.484 230.22 158.484 230.451V233.937C158.484 234.168 158.672 234.355 158.902 234.355C159.133 234.355 159.32 234.168 159.32 233.937V230.451Z" fill="#FFE320"/>
<path d="M161.055 230.451C161.055 230.22 160.868 230.033 160.637 230.033C160.406 230.033 160.219 230.22 160.219 230.451V233.937C160.219 234.168 160.406 234.355 160.637 234.355C160.868 234.355 161.055 234.168 161.055 233.937V230.451Z" fill="#FFEC31"/>
<path d="M162.781 230.451C162.781 230.22 162.594 230.033 162.363 230.033C162.132 230.033 161.945 230.22 161.945 230.451V233.937C161.945 234.168 162.132 234.355 162.363 234.355C162.594 234.355 162.781 234.168 162.781 233.937V230.451Z" fill="#FCC200"/>
<path d="M164.508 230.451C164.508 230.22 164.321 230.033 164.09 230.033C163.859 230.033 163.672 230.22 163.672 230.451V233.937C163.672 234.168 163.859 234.355 164.09 234.355C164.321 234.355 164.508 234.168 164.508 233.937V230.451Z" fill="#FDC30A"/>
<path d="M166.238 230.451C166.238 230.22 166.051 230.033 165.82 230.033C165.589 230.033 165.402 230.22 165.402 230.451V233.937C165.402 234.168 165.589 234.355 165.82 234.355C166.051 234.355 166.238 234.168 166.238 233.937V230.451Z" fill="#FFBD0C"/>
<path d="M167.969 230.451C167.969 230.22 167.782 230.033 167.551 230.033C167.32 230.033 167.133 230.22 167.133 230.451V233.937C167.133 234.168 167.32 234.355 167.551 234.355C167.782 234.355 167.969 234.168 167.969 233.937V230.451Z" fill="#FDBC0A"/>
<path d="M169.699 230.451C169.699 230.22 169.512 230.033 169.281 230.033C169.05 230.033 168.863 230.22 168.863 230.451V233.937C168.863 234.168 169.05 234.355 169.281 234.355C169.512 234.355 169.699 234.168 169.699 233.937V230.451Z" fill="#FDC202"/>
<path d="M171.426 230.451C171.426 230.22 171.239 230.033 171.008 230.033C170.777 230.033 170.59 230.22 170.59 230.451V233.937C170.59 234.168 170.777 234.355 171.008 234.355C171.239 234.355 171.426 234.168 171.426 233.937V230.451Z" fill="#FCC200"/>
<path d="M163.694 269.011C161.746 270.446 159.437 271.676 156.86 272.812C154.567 273.824 150.893 274.587 146.518 275.105C140.325 275.837 132.729 276.075 125.631 275.814C122.256 275.691 119 275.454 116.059 275.105C114.111 274.875 112.301 274.595 110.687 274.265C109.97 274.119 109.295 273.962 108.662 273.797C108.229 273.682 107.818 273.563 107.431 273.444C107.362 273.421 107.293 273.398 107.228 273.379C106.894 273.272 106.576 273.157 106.277 273.038C106.089 272.965 105.905 272.888 105.732 272.812C105.56 272.735 105.383 272.658 105.215 272.578C104.877 272.424 104.544 272.259 104.222 272.094C103.861 271.907 103.504 271.715 103.159 271.515C102.818 271.316 102.488 271.117 102.166 270.906C101.802 270.672 101.445 270.426 101.104 270.177C101.066 270.15 101.027 270.12 100.989 270.093C100.793 269.947 100.602 269.797 100.414 269.648C100.375 269.617 100.333 269.583 100.295 269.552C100.233 269.502 100.172 269.452 100.115 269.402C99.9267 269.249 99.7465 269.092 99.5701 268.935C99.409 268.789 99.2518 268.643 99.1023 268.497C98.9259 268.329 98.7533 268.156 98.5884 267.984C98.32 267.704 98.0592 267.412 97.8061 267.117C97.7678 267.071 97.7256 267.021 97.6911 266.975C97.4917 266.737 97.3038 266.496 97.1236 266.25C96.4793 265.384 95.9195 264.46 95.4478 263.478C95.0643 262.68 94.7346 261.848 94.4623 260.978C94.3626 260.656 94.2706 260.33 94.1862 259.996C94.1862 259.996 94.1862 259.992 94.1862 259.985C94.1133 259.705 94.0481 259.421 93.9868 259.129C93.9254 258.846 93.8718 258.554 93.8219 258.263C93.5995 256.955 93.4883 255.571 93.4883 254.117C93.4883 253.972 93.4883 253.822 93.4921 253.673C93.496 253.128 93.5228 252.576 93.5573 252.012C93.5765 251.728 93.6033 251.437 93.6302 251.146C93.7375 250.014 93.8986 248.845 94.1287 247.633C94.7959 244.055 95.9885 240.136 97.7256 235.864C98.7725 233.295 99.9459 230.703 101.215 228.095C103.267 223.877 105.564 219.64 107.953 215.464C109.053 213.535 110.173 211.622 111.3 209.731C112.133 208.331 112.968 206.943 113.797 205.57C114.088 205.091 114.376 204.612 114.663 204.136C115.032 203.53 115.396 202.932 115.76 202.334H146.982C147.343 202.932 147.703 203.53 148.063 204.136C148.251 204.447 148.435 204.765 148.623 205.08C150.418 208.113 152.209 211.234 153.961 214.39C154.709 215.732 155.445 217.082 156.174 218.436C159.314 224.268 162.279 230.17 164.875 235.857C173.449 254.643 171.309 263.405 163.705 269.008L163.694 269.011Z" fill="#F6B350"/>
<path d="M120.682 178.75C129.256 178.945 142.521 181.422 151.682 181.104C160.843 180.786 161.169 184.091 161.169 184.091L146.98 202.329H115.758L100.93 180.387C100.93 180.387 110.766 178.527 120.686 178.753L120.682 178.75Z" fill="#F0963F"/>
<path d="M100.93 180.383L115.755 202.328H142.747L159.259 180.751V180.724C157.905 179.585 155.605 178.63 151.686 178.768C142.524 179.086 132.761 183.029 124.191 183.427C113.358 183.934 103.533 181.176 101.371 180.521C101.083 180.436 100.93 180.383 100.93 180.383Z" fill="#F6B350"/>
<path d="M163.692 269.01C161.744 270.444 159.435 271.675 156.859 272.81C154.565 273.823 150.892 274.586 146.516 275.104C140.323 275.836 132.727 276.074 125.629 275.813C129 275.69 132.259 275.452 135.196 275.104C139.568 274.586 143.23 273.823 145.523 272.81C148.76 271.38 151.992 269.674 154.535 267.166C155.562 266.146 156.456 264.992 157.15 263.718C159.911 258.645 159.117 253.012 157.721 247.686C157.702 247.62 157.687 247.555 157.668 247.49C155.804 240.58 153.185 233.881 150.827 227.128C148.403 220.202 145.953 213.285 143.153 206.501C143.046 206.24 142.866 205.692 142.632 205.071C142.517 204.764 142.39 204.442 142.248 204.127C142.149 203.905 142.045 203.69 141.938 203.487C141.581 202.828 141.179 202.325 140.761 202.325H146.977C147.337 202.923 147.697 203.522 148.058 204.127C148.246 204.438 148.43 204.756 148.618 205.071C150.412 208.104 152.203 211.225 153.956 214.381C154.703 215.724 155.44 217.073 156.168 218.427C159.309 224.26 162.273 230.161 164.869 235.848C173.444 254.634 171.304 263.396 163.7 268.999L163.692 269.01Z" fill="#F0963F"/>
<g opacity="0.45">
<path d="M131.181 236.713C127.126 235.042 126.444 234.165 126.444 232.834C126.444 231.607 127.345 230.297 129.884 230.297C132.423 230.297 134.165 231.24 134.868 231.64L136.187 232.39L138.231 227.021L137.286 226.467C135.753 225.569 134.055 225.026 132.121 224.818V220.413H126.757V225.152C124.928 225.629 123.367 226.517 122.196 227.76C120.768 229.278 120.015 231.212 120.015 233.36C120.015 235.508 120.79 237.392 122.389 238.921C123.669 240.143 125.516 241.206 128.197 242.252C131.917 243.754 132.428 245.107 132.428 246.345C132.428 248.181 130.813 249.413 128.411 249.413C126.406 249.413 124.323 248.794 122.697 247.715L121.317 246.8L119.355 252.257L120.152 252.827C121.685 253.917 124.059 254.706 126.444 254.947V259.517H131.851V254.64C136.116 253.523 138.907 250.175 138.907 246.033C138.907 243.759 138.231 241.891 136.847 240.324C135.599 238.91 133.797 237.76 131.181 236.697V236.713Z" fill="white"/>
</g>
<path d="M141.645 202.33H146.979L161.171 184.092C161.171 184.092 161.067 182.248 159.261 180.726V180.752L141.645 202.33Z" fill="#F0963F"/>
<path d="M114.259 200.949H148.921C149.692 200.949 150.317 201.455 150.317 202.077V203.005C150.317 203.626 149.692 204.132 148.921 204.132H114.259C113.488 204.132 112.863 203.626 112.863 203.005V202.077C112.863 201.455 113.488 200.949 114.259 200.949Z" fill="#804C0C"/>
<path d="M79.0714 240.591C81.6236 231.891 76.6401 222.769 67.9402 220.217C59.2404 217.665 50.1188 222.648 47.5666 231.348C45.0143 240.048 49.9979 249.17 58.6977 251.722C67.3975 254.274 76.5191 249.29 79.0714 240.591Z" fill="#F98202"/>
<path d="M58.7154 217.756C53.3854 219.872 49.7791 224.466 48.6929 229.69C48.0632 232.727 48.2848 235.974 49.5148 239.072C52.8598 247.497 62.4028 251.619 70.8309 248.272C75.6682 246.352 79.0872 242.388 80.4857 237.767C81.5248 234.338 81.4537 230.546 80.0291 226.957C76.6831 218.529 67.1411 214.411 58.7154 217.756ZM77.0067 228.157C78.1689 231.085 78.2082 234.178 77.3291 236.964C76.1792 240.612 73.4599 243.727 69.63 245.248C66.0465 246.67 62.2096 246.409 58.995 244.842C56.1513 243.454 53.7962 241.043 52.5372 237.872C51.5707 235.437 51.3823 232.886 51.8505 230.495C52.6832 226.247 55.5913 222.498 59.9139 220.782C65.1025 218.722 70.8205 220.193 74.4089 224.046C75.4927 225.212 76.3825 226.592 77.0043 228.158L77.0067 228.157Z" fill="#FFD102"/>
<path d="M59.9093 220.779C55.5867 222.495 52.6786 226.245 51.8459 230.492C51.3753 232.884 51.5661 235.435 52.5326 237.869C53.7916 241.04 56.1468 243.452 58.9904 244.839C62.2026 246.407 66.0396 246.669 69.6255 245.245C73.4553 243.725 76.1761 240.606 77.3245 236.961C78.2036 234.175 78.1643 231.082 77.0022 228.155C76.3804 226.589 75.4896 225.206 74.4067 224.043C70.8184 220.19 65.1003 218.718 59.9118 220.778L59.9093 220.779Z" fill="#FDA902"/>
<path opacity="0.15" d="M59.9158 220.779C55.9371 222.359 53.1569 225.663 52.0904 229.492C56.9121 228.713 68.6723 228.02 77.1536 237.49C77.217 237.315 77.2754 237.142 77.3319 236.964C78.211 234.178 78.1717 231.085 77.0096 228.158C76.3878 226.592 75.497 225.209 74.4142 224.046C70.8258 220.193 65.1078 218.721 59.9192 220.781L59.9158 220.779Z" fill="#FDFDFD"/>
<path d="M59.1275 243.914C56.2103 242.491 53.7969 240.018 52.5049 236.764C52.013 235.525 51.718 234.256 51.6028 232.991C51.5986 234.617 51.8985 236.268 52.5347 237.871C53.7938 241.042 56.1489 243.453 58.9926 244.84C62.2047 246.409 66.0417 246.67 69.6276 245.246C72.8134 243.982 75.2306 241.613 76.6143 238.754C75.1439 241.196 72.8905 243.194 70.0364 244.327C66.3603 245.787 62.4249 245.519 59.129 243.911L59.1275 243.914Z" fill="#FFE261"/>
<path d="M59.9131 220.779C56.4248 222.164 53.8571 224.872 52.5596 228.098C53.9943 225.332 56.3932 223.052 59.5156 221.813C64.8042 219.713 70.6343 221.211 74.2927 225.141C75.3959 226.326 76.3057 227.736 76.939 229.331C77.5724 230.926 77.8719 232.541 77.8872 234.145C78.0605 232.17 77.7875 230.124 77.0059 228.155C76.3842 226.589 75.4934 225.206 74.4105 224.043C70.8221 220.19 65.1041 218.719 59.9155 220.778L59.9131 220.779Z" fill="#EB8E02"/>
<path d="M65.1932 231.027C63.0976 230.997 62.6402 230.727 62.4048 230.134C62.1879 229.588 62.3565 228.846 63.4835 228.399C64.6105 227.951 65.5503 228.064 65.9333 228.118L66.6514 228.22L66.6098 225.469L66.0924 225.389C65.253 225.259 64.4033 225.317 63.5078 225.565L62.7292 223.604L60.3484 224.549L61.1861 226.659C60.458 227.194 59.9221 227.864 59.6224 228.624C59.2564 229.552 59.2641 230.545 59.6437 231.502C60.0233 232.458 60.7004 233.16 61.6805 233.559C62.4649 233.878 63.4724 234.025 64.8478 234.019C66.7646 234.031 67.2307 234.544 67.4495 235.095C67.774 235.912 67.2747 236.746 66.2087 237.169C65.3183 237.523 64.2844 237.614 63.3715 237.42L62.5975 237.256L62.6912 240.031L63.1456 240.144C64.019 240.36 65.2122 240.293 66.3135 239.98L67.1212 242.014L69.5216 241.061L68.6597 238.89C70.3551 237.641 71.0025 235.658 70.2704 233.814C69.8685 232.802 69.2382 232.089 68.3465 231.636C67.5429 231.226 66.5394 231.032 65.1903 231.019L65.1932 231.027Z" fill="#FFD102"/>
<path d="M64.9159 233.729C63.5371 233.734 62.5305 233.589 61.7486 233.269C60.7685 232.871 60.1031 232.197 59.7118 231.212C59.4348 230.514 59.3577 229.794 59.4765 229.097C59.2756 229.886 59.3334 230.707 59.6501 231.505C60.0414 232.49 60.7069 233.163 61.6869 233.562C62.4713 233.881 63.4788 234.028 64.8542 234.022C66.771 234.034 67.2371 234.547 67.456 235.098C67.5383 235.306 67.5665 235.512 67.548 235.714C67.6447 235.424 67.6406 235.115 67.5186 234.808C67.2997 234.257 66.8337 233.744 64.9168 233.731L64.9159 233.729Z" fill="#EB8E02"/>
<path d="M63.5457 228.106C62.7334 228.429 62.4193 228.904 62.3903 229.35C62.5184 228.997 62.8498 228.651 63.4865 228.398C64.6525 227.935 65.5533 228.063 65.9363 228.117L66.6544 228.219L66.6508 227.918L66.0013 227.826C65.6184 227.772 64.7176 227.644 63.5515 228.107L63.5457 228.106Z" fill="#EB8E02"/>
<path d="M66.3776 239.69C65.2763 240.003 64.0855 240.069 63.2097 239.855L62.7553 239.742L62.6729 237.273L62.6013 237.256L62.6951 240.031L63.1495 240.144C64.0228 240.36 65.2161 240.293 66.3174 239.98L67.1251 242.014L69.5254 241.061L69.4344 240.832L67.1877 241.724L66.38 239.689L66.3776 239.69Z" fill="#EB8E02"/>
<path d="M382.281 164.781C388.672 158.389 388.672 148.027 382.281 141.635C375.889 135.244 365.527 135.244 359.135 141.635C352.744 148.027 352.744 158.389 359.135 164.781C365.527 171.172 375.889 171.172 382.281 164.781Z" fill="#F98202"/>
<path d="M367.324 135.299C361.783 136.71 357.629 140.792 355.887 145.818C354.876 148.741 354.68 151.98 355.5 155.201C357.73 163.961 366.64 169.256 375.402 167.025C380.431 165.745 384.319 162.262 386.293 157.871C387.759 154.614 388.174 150.854 387.224 147.124C384.993 138.362 376.084 133.069 367.324 135.299ZM384.082 147.924C384.857 150.967 384.5 154.031 383.274 156.674C381.671 160.134 378.583 162.867 374.601 163.881C370.876 164.829 367.115 164.08 364.137 162.119C361.502 160.384 359.482 157.698 358.642 154.401C357.998 151.87 358.138 149.323 358.907 147.018C360.273 142.925 363.628 139.589 368.122 138.444C373.517 137.071 378.983 139.257 382.038 143.526C382.961 144.817 383.665 146.296 384.079 147.924L384.082 147.924Z" fill="#FFD102"/>
<path d="M368.125 138.434C363.631 139.578 360.276 142.914 358.909 147.007C358.138 149.313 358 151.859 358.645 154.39C359.484 157.687 361.505 160.373 364.139 162.108C367.115 164.07 370.876 164.819 374.604 163.87C378.586 162.856 381.675 160.12 383.277 156.663C384.502 154.021 384.859 150.956 384.084 147.913C383.669 146.285 382.966 144.803 382.043 143.515C378.988 139.246 373.522 137.06 368.127 138.433L368.125 138.434Z" fill="#FDA902"/>
<path opacity="0.15" d="M368.122 138.434C363.986 139.488 360.814 142.399 359.27 146.049C364.138 145.895 375.856 146.714 383.031 157.163C383.116 156.998 383.196 156.835 383.275 156.666C384.501 154.024 384.857 150.96 384.082 147.916C383.668 146.288 382.964 144.807 382.042 143.518C378.986 139.249 373.52 137.063 368.126 138.436L368.122 138.434Z" fill="#FDFDFD"/>
<path d="M364.388 161.21C361.686 159.43 359.615 156.676 358.754 153.292C358.426 152.004 358.296 150.711 358.344 149.446C358.132 151.053 358.218 152.724 358.642 154.39C359.481 157.687 361.502 160.373 364.136 162.108C367.112 164.07 370.873 164.819 374.601 163.87C377.913 163.027 380.606 160.993 382.34 158.343C380.574 160.569 378.09 162.258 375.123 163.013C371.301 163.986 367.444 163.219 364.39 161.206L364.388 161.21Z" fill="#FFE261"/>
<path d="M368.124 138.433C364.497 139.357 361.612 141.706 359.916 144.731C361.689 142.178 364.352 140.231 367.599 139.404C373.097 138.004 378.67 140.231 381.786 144.585C382.725 145.899 383.444 147.409 383.867 149.067C384.289 150.726 384.378 152.361 384.189 153.949C384.612 152.018 384.604 149.96 384.083 147.913C383.669 146.285 382.965 144.803 382.042 143.515C378.987 139.246 373.521 137.059 368.126 138.433L368.124 138.433Z" fill="#EB8E02"/>
<path d="M372.035 149.244C369.966 148.947 369.549 148.621 369.392 148.005C369.247 147.437 369.509 146.725 370.68 146.427C371.852 146.128 372.767 146.36 373.139 146.462L373.836 146.655L374.146 143.929L373.645 143.784C372.832 143.549 371.984 143.497 371.067 143.628L370.548 141.589L368.072 142.219L368.631 144.413C367.843 144.848 367.227 145.443 366.833 146.156C366.353 147.026 366.233 148.01 366.486 149.004C366.74 149.998 367.319 150.78 368.237 151.299C368.972 151.714 369.95 151.989 371.311 152.159C373.205 152.416 373.6 152.983 373.746 153.556C373.962 154.406 373.362 155.166 372.254 155.448C371.328 155.684 370.294 155.642 369.416 155.334L368.671 155.072L368.409 157.829L368.844 157.999C369.68 158.323 370.869 158.409 371.998 158.241L372.536 160.356L375.032 159.721L374.457 157.463C376.293 156.445 377.187 154.567 376.699 152.65C376.431 151.598 375.899 150.812 375.075 150.25C374.333 149.742 373.365 149.421 372.033 149.237L372.035 149.244Z" fill="#FFD102"/>
<path d="M371.415 151.877C370.051 151.706 369.074 151.434 368.342 151.018C367.423 150.498 366.851 149.747 366.591 148.723C366.406 147.997 366.422 147.275 366.628 146.601C366.329 147.355 366.281 148.175 366.492 149.004C366.753 150.029 367.325 150.78 368.243 151.3C368.978 151.715 369.955 151.99 371.316 152.159C373.21 152.417 373.606 152.983 373.751 153.556C373.806 153.772 373.808 153.979 373.764 154.177C373.896 153.903 373.932 153.597 373.851 153.277C373.705 152.704 373.309 152.138 371.415 151.88L371.415 151.877Z" fill="#EB8E02"/>
<path d="M370.782 146.145C369.937 146.36 369.566 146.79 369.48 147.227C369.652 146.895 370.024 146.595 370.686 146.426C371.898 146.118 372.773 146.36 373.144 146.462L373.842 146.654L373.876 146.357L373.246 146.182C372.874 146.08 372 145.838 370.788 146.147L370.782 146.145Z" fill="#EB8E02"/>
<path d="M372.098 157.962C370.969 158.131 369.783 158.044 368.944 157.72L368.509 157.55L368.744 155.098L368.675 155.072L368.413 157.829L368.848 157.999C369.684 158.323 370.872 158.41 372.001 158.241L372.54 160.356L375.035 159.721L374.975 159.482L372.639 160.077L372.1 157.962L372.098 157.962Z" fill="#EB8E02"/>
<path d="M383.998 155.609C383.998 155.609 383.998 155.617 383.99 155.628C383.419 156.921 382.648 158.113 381.705 159.164C382.391 158.286 382.966 157.323 383.419 156.307C383.419 156.3 383.427 156.296 383.427 156.288C384.259 153.937 384.447 151.334 383.825 148.734C382.376 142.671 377.026 138.441 370.807 138.441C369.764 138.441 368.709 138.564 367.685 138.81C365.016 139.446 362.662 140.85 360.863 142.844C362.715 140.489 365.296 138.836 368.257 138.131C369.284 137.889 370.335 137.763 371.382 137.763C377.598 137.763 382.951 141.992 384.397 148.051C385.018 150.655 384.83 153.259 384.002 155.609H383.998Z" fill="#E78314"/>
<path d="M323.14 139.651C330.996 138.764 336.646 131.676 335.758 123.82C334.871 115.964 327.784 110.315 319.928 111.202C312.072 112.089 306.422 119.177 307.309 127.033C308.197 134.889 315.284 140.538 323.14 139.651Z" fill="#582E89"/>
<path d="M320.836 136.919C328.742 136.863 335.106 130.409 335.05 122.504C334.994 114.598 328.541 108.234 320.635 108.29C312.729 108.346 306.365 114.799 306.421 122.705C306.477 130.611 312.93 136.975 320.836 136.919Z" fill="#A25BDB"/>
<path d="M318.152 117.016C317.539 119.144 318.605 121.938 320.732 122.551C322.859 123.163 325.249 121.362 325.858 119.234C326.471 117.107 325.179 115.098 323.052 114.485C320.924 113.872 318.762 114.884 318.149 117.015L318.152 117.016Z" fill="white"/>
<path d="M323.158 132.122L313.751 129.416C312.762 129.13 312.069 128.238 312.038 127.209L311.986 125.48C311.95 124.216 312.913 123.135 314.175 123.044C318.408 122.747 322.315 124.064 325.983 126.581C327.012 127.286 327.29 128.682 326.644 129.749L325.841 131.072C325.288 131.987 324.189 132.418 323.158 132.122Z" fill="white"/>
<path d="M98.2241 109.295C104.842 102.677 104.842 91.9479 98.2241 85.3303C91.6065 78.7127 80.8772 78.7127 74.2596 85.3303C67.642 91.9479 67.642 102.677 74.2596 109.295C80.8772 115.912 91.6065 115.912 98.2241 109.295Z" fill="#BA3E50"/>
<path d="M86.9181 112.139C96.2768 112.139 103.864 104.552 103.864 95.1935C103.864 85.8348 96.2768 78.248 86.9181 78.248C77.5594 78.248 69.9727 85.8348 69.9727 95.1935C69.9727 104.552 77.5594 112.139 86.9181 112.139Z" fill="#E2538E"/>
<path d="M76.0573 94.637C75.3364 91.6229 77.2 88.5974 80.2141 87.8765C82.2388 87.3933 84.2673 88.0797 85.598 89.4909C86.1502 87.6272 87.6495 86.101 89.6742 85.6178C92.6883 84.8969 95.7139 86.7606 96.4348 89.7746C97.033 92.2902 95.6448 94.9706 94.4983 97.1257C92.9529 100.029 89.5324 105.205 89.5324 105.205C89.5324 105.205 83.788 102.214 81.0999 100.324C79.0023 98.8475 76.6938 97.2906 76.0611 94.637H76.0573Z" fill="white"/>
<path d="M74.658 153.227V178.125C74.658 179.444 73.5881 180.514 72.269 180.514H34.7734V155.616C34.7734 154.296 35.8433 153.227 37.1586 153.227H74.658Z" fill="#44390A"/>
<path d="M74.6608 176.238V178.124C74.6608 179.443 73.591 180.513 72.2718 180.513H34.389C33.0699 180.513 32 179.443 32 178.124V176.238L34.7763 174.389L48.5658 165.213L53.3285 168.415L58.095 165.213L74.6608 176.238Z" fill="#F5B014"/>
<path d="M48.5658 165.21L32 176.235V154.074L48.5658 165.21Z" fill="#F9C82B"/>
<path d="M74.6596 154.078V176.239L58.0938 165.214L74.6596 154.078Z" fill="#F9C82B"/>
<path d="M74.6608 152.838V154.077L58.095 165.213L53.3285 168.415L48.5658 165.213L34.7763 155.944L32 154.077V152.838C32 151.519 33.0699 150.453 34.389 150.453H72.2718C73.591 150.453 74.6608 151.519 74.6608 152.838Z" fill="#FFDE42"/>
<path d="M77.4371 155.618V180.9C77.4371 182.22 76.3673 183.289 75.0481 183.289H37.1653C34.3123 183.289 32 180.977 32 178.124C32 179.443 33.0699 180.513 34.389 180.513H72.2718C73.591 180.513 74.6608 179.443 74.6608 178.124V152.838C74.6608 151.519 73.591 150.453 72.2718 150.453C75.1248 150.453 77.4371 152.765 77.4371 155.618Z" fill="#896321"/>
<path d="M278.536 99.2219C286.15 91.6084 286.15 79.2646 278.536 71.6512C270.923 64.0377 258.579 64.0377 250.965 71.6512C243.352 79.2646 243.352 91.6084 250.965 99.2219C258.579 106.835 270.923 106.835 278.536 99.2219Z" fill="#355BAF"/>
<path d="M266.839 107.318C277.606 107.318 286.335 98.5897 286.335 87.8226C286.335 77.0556 277.606 68.3271 266.839 68.3271C256.072 68.3271 247.344 77.0556 247.344 87.8226C247.344 98.5897 256.072 107.318 266.839 107.318Z" fill="url(#paint1_linear_431_52500)"/>
<path d="M259.702 87.2279L254.088 89.9663C253.593 90.2076 253.387 90.8045 253.628 91.2994L258.89 102.087C259.131 102.582 259.728 102.788 260.223 102.546L265.838 99.8079C266.333 99.5665 266.538 98.9697 266.297 98.4748L261.035 87.6869C260.794 87.192 260.197 86.9865 259.702 87.2279Z" fill="white"/>
<path d="M276.71 81.1955C277.243 77.5142 274.256 77.9514 274.256 77.9514L267.495 81.2492L267.326 80.605C267.326 80.605 265.678 75.7311 264.224 74.6957C262.771 73.6565 259.722 74.4158 259.864 75.0025C260.006 75.5892 261.329 77.8555 261.724 79.2628C262.119 80.6701 262.184 86.0234 262.146 86.6983C262.138 86.8555 262.058 87.0702 261.943 87.3118L267.047 97.7766C268.051 97.8802 268.768 97.4392 268.768 97.4392L278.585 92.6497C280.387 90.6786 278.708 89.0221 278.708 89.0221C280.05 86.5487 278.366 85.0417 278.366 85.0417C279.743 81.8972 276.706 81.1917 276.706 81.1917L276.71 81.1955Z" fill="white"/>
<path d="M323.239 182.397C297.723 181.979 276.904 202.575 276.735 228.398C276.567 254.22 297.117 275.491 322.633 275.909C348.149 276.327 368.967 255.731 369.136 229.909C369.305 204.086 348.755 182.815 323.239 182.397Z" fill="#BA3E50"/>
<path d="M272.853 228.398C272.684 254.22 293.234 275.491 318.75 275.909C344.266 276.327 365.084 255.731 365.253 229.909C365.422 204.086 344.872 182.815 319.356 182.397C293.84 181.979 273.021 202.575 272.853 228.398Z" fill="#E2538E"/>
<path d="M283.013 228.562C282.882 248.705 298.911 265.298 318.813 265.624C338.715 265.95 354.955 249.883 355.089 229.743C355.22 209.599 339.191 193.007 319.289 192.681C299.387 192.355 283.147 208.422 283.013 228.562Z" fill="white"/>
<path d="M293.067 228.727C292.971 243.249 304.529 255.213 318.878 255.447C333.228 255.681 344.939 244.1 345.031 229.574C345.127 215.052 333.569 203.088 319.22 202.854C304.87 202.62 293.159 214.201 293.067 228.727Z" fill="#E2538E"/>
<path d="M303.231 228.892C303.173 237.735 310.21 245.017 318.945 245.158C327.681 245.3 334.809 238.248 334.867 229.409C334.924 220.567 327.888 213.285 319.152 213.143C310.417 213.001 303.288 220.053 303.231 228.892Z" fill="white"/>
<path d="M312.004 229.039C311.977 232.973 315.11 236.218 318.999 236.283C322.887 236.348 326.062 233.207 326.085 229.273C326.112 225.339 322.979 222.095 319.091 222.029C315.202 221.964 312.027 225.105 312.004 229.043V229.039Z" fill="#E2538E"/>
<path d="M316.938 227.842L319.154 225.154C319.369 224.897 319.714 224.794 320.036 224.894C320.355 224.993 320.581 225.277 320.608 225.611L320.7 226.803L366.375 202.787C366.758 201.935 367.065 201 367.284 199.995C367.337 199.757 367.491 199.554 367.705 199.443L373.837 196.237C374.132 196.08 374.497 196.122 374.754 196.341C375.01 196.559 375.106 196.912 374.995 197.23L373.987 200.179L377.031 201.107C377.35 201.203 377.58 201.483 377.61 201.816C377.641 202.15 377.468 202.465 377.173 202.622L371.026 205.835C370.815 205.946 370.566 205.958 370.344 205.87L367.46 204.969L321.827 228.962L322.763 229.729C323.024 229.94 323.127 230.289 323.027 230.607C322.928 230.925 322.644 231.156 322.314 231.182L318.917 231.474C318.894 231.474 318.871 231.474 318.848 231.474C318.552 231.474 318.276 231.313 318.131 231.052L316.854 228.759C316.689 228.464 316.723 228.099 316.938 227.835V227.842Z" fill="#4F2271"/>
<defs>
<linearGradient id="paint0_linear_431_52500" x1="349.061" y1="221.229" x2="359.339" y2="246.797" gradientUnits="userSpaceOnUse">
<stop stop-color="#349CFF"/>
<stop offset="1" stop-color="#2F85FE"/>
</linearGradient>
<linearGradient id="paint1_linear_431_52500" x1="247.336" y1="87.8226" x2="286.339" y2="87.8226" gradientUnits="userSpaceOnUse">
<stop stop-color="#349CFF"/>
<stop offset="1" stop-color="#2F85FE"/>
</linearGradient>
</defs>
</svg>
