<svg width="1040" height="503" viewBox="0 0 1040 503" fill="none" xmlns="http://www.w3.org/2000/svg">
<g clip-path="url(#clip0_597_6002)">
<g filter="url(#filter0_d_597_6002)">
<g clip-path="url(#clip1_597_6002)">
<rect x="153.348" width="729.977" height="418.47" rx="6.25248" fill="#F9FAFA"/>
<rect width="729.977" height="37.0683" transform="translate(153.348)" fill="#38AC41"/>
<rect width="729.977" height="37.0683" transform="translate(153.348)" fill="white" fill-opacity="0.65"/>
<rect x="172.105" y="12.5049" width="12.0584" height="12.0584" rx="6.02918" fill="#FBEDF1"/>
<rect x="193.207" y="12.5049" width="12.0584" height="12.0584" rx="6.02918" fill="#FBEDF1"/>
<rect x="214.309" y="12.5049" width="12.0584" height="12.0584" rx="6.02918" fill="#FBEDF1"/>
<rect width="729.977" height="45.3306" transform="translate(153.348 37.0684)" fill="white"/>
<rect x="758.273" y="48.0103" width="23.4468" height="23.4468" rx="11.7234" fill="#F3CAD6"/>
<rect x="789.535" y="56.6074" width="70.3404" height="6.25249" rx="3.12624" fill="#D3D4D5"/>
<g clip-path="url(#clip2_597_6002)">
<rect width="156.312" height="336.071" transform="translate(153.348 82.3989)" fill="white"/>
<rect x="179.922" y="108.972" width="103.166" height="15.6312" rx="7.81561" fill="#FBEDF1"/>
<rect x="179.922" y="140.234" width="103.166" height="15.6312" rx="7.81561" fill="#FBEDF1"/>
<rect x="179.922" y="171.497" width="103.166" height="15.6312" rx="7.81561" fill="#FBEDF1"/>
<rect x="179.922" y="202.759" width="103.166" height="15.6312" rx="7.81561" fill="#FBEDF1"/>
<rect x="179.922" y="234.021" width="103.166" height="15.6312" rx="7.81561" fill="#FBEDF1"/>
</g>
<rect width="573.665" height="336.071" transform="translate(309.66 82.3989)" fill="#F4EEFB"/>
<g clip-path="url(#clip3_597_6002)">
<rect x="336.234" y="108.972" width="163.086" height="65.6511" rx="6.25248" fill="white"/>
<path d="M336.234 115.224C336.234 111.771 339.034 108.972 342.487 108.972H493.067C496.521 108.972 499.32 111.771 499.32 115.224V143.361H336.234V115.224Z" fill="#38AC41"/>
<path d="M336.234 115.224C336.234 111.771 339.034 108.972 342.487 108.972H493.067C496.521 108.972 499.32 111.771 499.32 115.224V143.361H336.234V115.224Z" fill="white" fill-opacity="0.65"/>
<rect x="378.699" y="121.477" width="78.156" height="9.37873" rx="4.68937" fill="white"/>
<rect x="395.891" y="155.866" width="43.7674" height="6.25249" rx="3.12624" fill="#F3CAD6"/>
</g>
<g clip-path="url(#clip4_597_6002)">
<rect x="514.949" y="108.972" width="163.086" height="65.6511" rx="6.25248" fill="white"/>
<path d="M514.949 115.224C514.949 111.771 517.749 108.972 521.202 108.972H671.782C675.235 108.972 678.035 111.771 678.035 115.224V143.361H514.949V115.224Z" fill="#38AC41"/>
<path d="M514.949 115.224C514.949 111.771 517.749 108.972 521.202 108.972H671.782C675.235 108.972 678.035 111.771 678.035 115.224V143.361H514.949V115.224Z" fill="white" fill-opacity="0.65"/>
<rect x="557.414" y="121.477" width="78.156" height="9.37873" rx="4.68937" fill="white"/>
<rect x="574.605" y="155.866" width="43.7674" height="6.25249" rx="3.12624" fill="#F3CAD6"/>
</g>
<g clip-path="url(#clip5_597_6002)">
<rect x="693.668" y="108.972" width="163.086" height="65.6511" rx="6.25248" fill="white"/>
<path d="M693.668 115.224C693.668 111.771 696.467 108.972 699.92 108.972H850.501C853.954 108.972 856.753 111.771 856.753 115.224V143.361H693.668V115.224Z" fill="#38AC41"/>
<path d="M693.668 115.224C693.668 111.771 696.467 108.972 699.92 108.972H850.501C853.954 108.972 856.753 111.771 856.753 115.224V143.361H693.668V115.224Z" fill="white" fill-opacity="0.65"/>
<rect x="736.133" y="121.477" width="78.156" height="9.37873" rx="4.68937" fill="white"/>
<rect x="753.324" y="155.866" width="43.7674" height="6.25249" rx="3.12624" fill="#F3CAD6"/>
</g>
<rect width="520.519" height="190.701" transform="translate(336.234 201.196)" fill="#38AC41"/>
<rect width="520.519" height="190.701" transform="translate(336.234 201.196)" fill="white" fill-opacity="0.25"/>
<mask id="path-24-inside-1_597_6002" fill="white">
<path d="M336.234 216.828H422.988V376.266H336.234V216.828Z"/>
</mask>
<path d="M422.988 376.266H423.769V373.2H422.988H422.206V376.266H422.988ZM422.988 367.068H423.769V360.936H422.988H422.206V367.068H422.988ZM422.988 354.803H423.769V348.671H422.988H422.206V354.803H422.988ZM422.988 342.539H423.769V336.407H422.988H422.206V342.539H422.988ZM422.988 330.274H423.769V324.142H422.988H422.206V330.274H422.988ZM422.988 318.01H423.769V311.878H422.988H422.206V318.01H422.988ZM422.988 305.745H423.769V299.613H422.988H422.206V305.745H422.988ZM422.988 293.481H423.769V287.349H422.988H422.206V293.481H422.988ZM422.988 281.216H423.769V275.084H422.988H422.206V281.216H422.988ZM422.988 268.952H423.769V262.82H422.988H422.206V268.952H422.988ZM422.988 256.687H423.769V250.555H422.988H422.206V256.687H422.988ZM422.988 244.423H423.769V238.291H422.988H422.206V244.423H422.988ZM422.988 232.158H423.769V226.026H422.988H422.206V232.158H422.988ZM422.988 219.894H423.769V216.828H422.988H422.206V219.894H422.988ZM422.988 376.266H424.551V373.2H422.988H421.424V376.266H422.988ZM422.988 367.068H424.551V360.936H422.988H421.424V367.068H422.988ZM422.988 354.803H424.551V348.671H422.988H421.424V354.803H422.988ZM422.988 342.539H424.551V336.407H422.988H421.424V342.539H422.988ZM422.988 330.274H424.551V324.142H422.988H421.424V330.274H422.988ZM422.988 318.01H424.551V311.878H422.988H421.424V318.01H422.988ZM422.988 305.745H424.551V299.613H422.988H421.424V305.745H422.988ZM422.988 293.481H424.551V287.349H422.988H421.424V293.481H422.988ZM422.988 281.216H424.551V275.084H422.988H421.424V281.216H422.988ZM422.988 268.952H424.551V262.82H422.988H421.424V268.952H422.988ZM422.988 256.687H424.551V250.555H422.988H421.424V256.687H422.988ZM422.988 244.423H424.551V238.291H422.988H421.424V244.423H422.988ZM422.988 232.158H424.551V226.026H422.988H421.424V232.158H422.988ZM422.988 219.894H424.551V216.828H422.988H421.424V219.894H422.988Z" fill="#EEF7EF" mask="url(#path-24-inside-1_597_6002)"/>
<mask id="path-26-inside-2_597_6002" fill="white">
<path d="M422.988 216.828H509.741V376.266H422.988V216.828Z"/>
</mask>
<path d="M509.741 376.266H510.523V373.2H509.741H508.96V376.266H509.741ZM509.741 367.068H510.523V360.936H509.741H508.96V367.068H509.741ZM509.741 354.803H510.523V348.671H509.741H508.96V354.803H509.741ZM509.741 342.539H510.523V336.407H509.741H508.96V342.539H509.741ZM509.741 330.274H510.523V324.142H509.741H508.96V330.274H509.741ZM509.741 318.01H510.523V311.878H509.741H508.96V318.01H509.741ZM509.741 305.745H510.523V299.613H509.741H508.96V305.745H509.741ZM509.741 293.481H510.523V287.349H509.741H508.96V293.481H509.741ZM509.741 281.216H510.523V275.084H509.741H508.96V281.216H509.741ZM509.741 268.952H510.523V262.82H509.741H508.96V268.952H509.741ZM509.741 256.687H510.523V250.555H509.741H508.96V256.687H509.741ZM509.741 244.423H510.523V238.291H509.741H508.96V244.423H509.741ZM509.741 232.158H510.523V226.026H509.741H508.96V232.158H509.741ZM509.741 219.894H510.523V216.828H509.741H508.96V219.894H509.741ZM509.741 376.266H511.305V373.2H509.741H508.178V376.266H509.741ZM509.741 367.068H511.305V360.936H509.741H508.178V367.068H509.741ZM509.741 354.803H511.305V348.671H509.741H508.178V354.803H509.741ZM509.741 342.539H511.305V336.407H509.741H508.178V342.539H509.741ZM509.741 330.274H511.305V324.142H509.741H508.178V330.274H509.741ZM509.741 318.01H511.305V311.878H509.741H508.178V318.01H509.741ZM509.741 305.745H511.305V299.613H509.741H508.178V305.745H509.741ZM509.741 293.481H511.305V287.349H509.741H508.178V293.481H509.741ZM509.741 281.216H511.305V275.084H509.741H508.178V281.216H509.741ZM509.741 268.952H511.305V262.82H509.741H508.178V268.952H509.741ZM509.741 256.687H511.305V250.555H509.741H508.178V256.687H509.741ZM509.741 244.423H511.305V238.291H509.741H508.178V244.423H509.741ZM509.741 232.158H511.305V226.026H509.741H508.178V232.158H509.741ZM509.741 219.894H511.305V216.828H509.741H508.178V219.894H509.741Z" fill="#EEF7EF" mask="url(#path-26-inside-2_597_6002)"/>
<mask id="path-28-inside-3_597_6002" fill="white">
<path d="M509.742 216.828H596.495V376.266H509.742V216.828Z"/>
</mask>
<path d="M596.495 376.266H597.277V373.2H596.495H595.714V376.266H596.495ZM596.495 367.068H597.277V360.936H596.495H595.714V367.068H596.495ZM596.495 354.803H597.277V348.671H596.495H595.714V354.803H596.495ZM596.495 342.539H597.277V336.407H596.495H595.714V342.539H596.495ZM596.495 330.274H597.277V324.142H596.495H595.714V330.274H596.495ZM596.495 318.01H597.277V311.878H596.495H595.714V318.01H596.495ZM596.495 305.745H597.277V299.613H596.495H595.714V305.745H596.495ZM596.495 293.481H597.277V287.349H596.495H595.714V293.481H596.495ZM596.495 281.216H597.277V275.084H596.495H595.714V281.216H596.495ZM596.495 268.952H597.277V262.82H596.495H595.714V268.952H596.495ZM596.495 256.687H597.277V250.555H596.495H595.714V256.687H596.495ZM596.495 244.423H597.277V238.291H596.495H595.714V244.423H596.495ZM596.495 232.158H597.277V226.026H596.495H595.714V232.158H596.495ZM596.495 219.894H597.277V216.828H596.495H595.714V219.894H596.495ZM596.495 376.266H598.058V373.2H596.495H594.932V376.266H596.495ZM596.495 367.068H598.058V360.936H596.495H594.932V367.068H596.495ZM596.495 354.803H598.058V348.671H596.495H594.932V354.803H596.495ZM596.495 342.539H598.058V336.407H596.495H594.932V342.539H596.495ZM596.495 330.274H598.058V324.142H596.495H594.932V330.274H596.495ZM596.495 318.01H598.058V311.878H596.495H594.932V318.01H596.495ZM596.495 305.745H598.058V299.613H596.495H594.932V305.745H596.495ZM596.495 293.481H598.058V287.349H596.495H594.932V293.481H596.495ZM596.495 281.216H598.058V275.084H596.495H594.932V281.216H596.495ZM596.495 268.952H598.058V262.82H596.495H594.932V268.952H596.495ZM596.495 256.687H598.058V250.555H596.495H594.932V256.687H596.495ZM596.495 244.423H598.058V238.291H596.495H594.932V244.423H596.495ZM596.495 232.158H598.058V226.026H596.495H594.932V232.158H596.495ZM596.495 219.894H598.058V216.828H596.495H594.932V219.894H596.495Z" fill="#EEF7EF" mask="url(#path-28-inside-3_597_6002)"/>
<mask id="path-30-inside-4_597_6002" fill="white">
<path d="M596.492 216.828H683.245V376.266H596.492V216.828Z"/>
</mask>
<path d="M683.245 376.266H684.027V373.2H683.245H682.464V376.266H683.245ZM683.245 367.068H684.027V360.936H683.245H682.464V367.068H683.245ZM683.245 354.803H684.027V348.671H683.245H682.464V354.803H683.245ZM683.245 342.539H684.027V336.407H683.245H682.464V342.539H683.245ZM683.245 330.274H684.027V324.142H683.245H682.464V330.274H683.245ZM683.245 318.01H684.027V311.878H683.245H682.464V318.01H683.245ZM683.245 305.745H684.027V299.613H683.245H682.464V305.745H683.245ZM683.245 293.481H684.027V287.349H683.245H682.464V293.481H683.245ZM683.245 281.216H684.027V275.084H683.245H682.464V281.216H683.245ZM683.245 268.952H684.027V262.82H683.245H682.464V268.952H683.245ZM683.245 256.687H684.027V250.555H683.245H682.464V256.687H683.245ZM683.245 244.423H684.027V238.291H683.245H682.464V244.423H683.245ZM683.245 232.158H684.027V226.026H683.245H682.464V232.158H683.245ZM683.245 219.894H684.027V216.828H683.245H682.464V219.894H683.245ZM683.245 376.266H684.808V373.2H683.245H681.682V376.266H683.245ZM683.245 367.068H684.808V360.936H683.245H681.682V367.068H683.245ZM683.245 354.803H684.808V348.671H683.245H681.682V354.803H683.245ZM683.245 342.539H684.808V336.407H683.245H681.682V342.539H683.245ZM683.245 330.274H684.808V324.142H683.245H681.682V330.274H683.245ZM683.245 318.01H684.808V311.878H683.245H681.682V318.01H683.245ZM683.245 305.745H684.808V299.613H683.245H681.682V305.745H683.245ZM683.245 293.481H684.808V287.349H683.245H681.682V293.481H683.245ZM683.245 281.216H684.808V275.084H683.245H681.682V281.216H683.245ZM683.245 268.952H684.808V262.82H683.245H681.682V268.952H683.245ZM683.245 256.687H684.808V250.555H683.245H681.682V256.687H683.245ZM683.245 244.423H684.808V238.291H683.245H681.682V244.423H683.245ZM683.245 232.158H684.808V226.026H683.245H681.682V232.158H683.245ZM683.245 219.894H684.808V216.828H683.245H681.682V219.894H683.245Z" fill="#EEF7EF" mask="url(#path-30-inside-4_597_6002)"/>
<mask id="path-32-inside-5_597_6002" fill="white">
<path d="M683.246 216.828H769.999V376.266H683.246V216.828Z"/>
</mask>
<path d="M769.999 376.266H770.781V373.2H769.999H769.218V376.266H769.999ZM769.999 367.068H770.781V360.936H769.999H769.218V367.068H769.999ZM769.999 354.803H770.781V348.671H769.999H769.218V354.803H769.999ZM769.999 342.539H770.781V336.407H769.999H769.218V342.539H769.999ZM769.999 330.274H770.781V324.142H769.999H769.218V330.274H769.999ZM769.999 318.01H770.781V311.878H769.999H769.218V318.01H769.999ZM769.999 305.745H770.781V299.613H769.999H769.218V305.745H769.999ZM769.999 293.481H770.781V287.349H769.999H769.218V293.481H769.999ZM769.999 281.216H770.781V275.084H769.999H769.218V281.216H769.999ZM769.999 268.952H770.781V262.82H769.999H769.218V268.952H769.999ZM769.999 256.687H770.781V250.555H769.999H769.218V256.687H769.999ZM769.999 244.423H770.781V238.291H769.999H769.218V244.423H769.999ZM769.999 232.158H770.781V226.026H769.999H769.218V232.158H769.999ZM769.999 219.894H770.781V216.828H769.999H769.218V219.894H769.999ZM769.999 376.266H771.562V373.2H769.999H768.436V376.266H769.999ZM769.999 367.068H771.562V360.936H769.999H768.436V367.068H769.999ZM769.999 354.803H771.562V348.671H769.999H768.436V354.803H769.999ZM769.999 342.539H771.562V336.407H769.999H768.436V342.539H769.999ZM769.999 330.274H771.562V324.142H769.999H768.436V330.274H769.999ZM769.999 318.01H771.562V311.878H769.999H768.436V318.01H769.999ZM769.999 305.745H771.562V299.613H769.999H768.436V305.745H769.999ZM769.999 293.481H771.562V287.349H769.999H768.436V293.481H769.999ZM769.999 281.216H771.562V275.084H769.999H768.436V281.216H769.999ZM769.999 268.952H771.562V262.82H769.999H768.436V268.952H769.999ZM769.999 256.687H771.562V250.555H769.999H768.436V256.687H769.999ZM769.999 244.423H771.562V238.291H769.999H768.436V244.423H769.999ZM769.999 232.158H771.562V226.026H769.999H768.436V232.158H769.999ZM769.999 219.894H771.562V216.828H769.999H768.436V219.894H769.999Z" fill="#EEF7EF" mask="url(#path-32-inside-5_597_6002)"/>
<path d="M423.532 341.654L336.234 331.246V391.674H863.006V280.692L774.962 320.837L687.664 303.738L598.127 320.837L510.829 305.969L423.532 341.654Z" fill="white" fill-opacity="0.5"/>
</g>
<path d="M951.546 257.223H949.943V213.372C949.943 210.039 949.287 206.738 948.011 203.659C946.735 200.58 944.864 197.782 942.507 195.425C940.149 193.068 937.35 191.199 934.269 189.923C931.189 188.648 927.887 187.991 924.553 187.991H831.613C824.879 187.991 818.421 190.665 813.659 195.425C808.898 200.185 806.223 206.64 806.223 213.372V453.942C806.223 460.673 808.898 467.129 813.659 471.888C818.421 476.648 824.879 479.322 831.613 479.322H924.553C931.287 479.322 937.745 476.648 942.506 471.888C947.268 467.129 949.943 460.673 949.943 453.942V288.434H951.546V257.223Z" fill="#6E736F"/>
<path d="M925.581 194.596H913.452C914.01 195.963 914.223 197.447 914.072 198.916C913.921 200.385 913.411 201.795 912.587 203.02C911.763 204.246 910.65 205.25 909.346 205.945C908.042 206.639 906.587 207.002 905.109 207.002H851.862C850.384 207.002 848.929 206.639 847.625 205.945C846.321 205.251 845.208 204.246 844.384 203.021C843.559 201.795 843.049 200.385 842.899 198.916C842.748 197.447 842.961 195.963 843.519 194.596H832.192C827.163 194.596 822.34 196.593 818.784 200.147C815.228 203.702 813.23 208.523 813.23 213.549V453.768C813.23 456.257 813.721 458.722 814.674 461.021C815.627 463.321 817.023 465.41 818.784 467.17C820.545 468.93 822.635 470.326 824.935 471.279C827.236 472.231 829.701 472.721 832.191 472.721H925.58C930.608 472.721 935.431 470.724 938.987 467.17C942.543 463.615 944.541 458.794 944.541 453.768V213.549C944.541 208.523 942.544 203.702 938.988 200.148C935.433 196.594 930.611 194.596 925.582 194.596H925.581Z" fill="#F4EEFB"/>
<rect width="131.189" height="21.9872" transform="translate(813.555 222.071)" fill="white"/>
<rect x="819.051" y="228.118" width="12.093" height="1.09936" rx="0.549681" fill="#F3CAD6"/>
<rect x="819.051" y="232.515" width="12.093" height="1.09936" rx="0.549681" fill="#F3CAD6"/>
<rect x="819.051" y="236.913" width="12.093" height="1.09936" rx="0.549681" fill="#F3CAD6"/>
<rect x="911.766" y="227.568" width="10.9936" height="10.9936" rx="5.49681" fill="#F3CAD6"/>
<rect x="928.254" y="227.568" width="10.9936" height="10.9936" rx="5.49681" fill="#D6BFF1"/>
<rect width="131.189" height="208.717" transform="translate(813.555 244.059)" fill="#F4EEFB"/>
<g clip-path="url(#clip6_597_6002)">
<rect x="819.59" y="255.052" width="119.121" height="30.2627" rx="2.85971" fill="white"/>
<path d="M819.59 257.912C819.59 256.333 820.87 255.052 822.45 255.052H935.851C937.431 255.052 938.711 256.333 938.711 257.912V271.016H819.59V257.912Z" fill="#38AC41"/>
<path d="M819.59 257.912C819.59 256.333 820.87 255.052 822.45 255.052H935.851C937.431 255.052 938.711 256.333 938.711 257.912V271.016H819.59V257.912Z" fill="white" fill-opacity="0.65"/>
<rect x="859.035" y="260.771" width="40.2253" height="4.52535" rx="2.26267" fill="white"/>
<rect x="869.141" y="276.736" width="20.0179" height="2.85971" rx="1.42985" fill="#F3CAD6"/>
</g>
<g clip-path="url(#clip7_597_6002)">
<rect width="119.121" height="86.8496" transform="translate(819.59 296.309)" fill="#38AC41"/>
<rect width="119.121" height="86.8496" transform="translate(819.59 296.309)" fill="white" fill-opacity="0.25"/>
<mask id="path-46-inside-6_597_6002" fill="white">
<path d="M819.59 303.458H839.443V376.009H819.59V303.458Z"/>
</mask>
<path d="M839.443 376.009H839.801V374.614H839.443H839.086V376.009H839.443ZM839.443 371.823H839.801V369.033H839.443H839.086V371.823H839.443ZM839.443 366.243H839.801V363.452H839.443H839.086V366.243H839.443ZM839.443 360.662H839.801V357.871H839.443H839.086V360.662H839.443ZM839.443 355.081H839.801V352.29H839.443H839.086V355.081H839.443ZM839.443 349.5H839.801V346.71H839.443H839.086V349.5H839.443ZM839.443 343.919H839.801V341.129H839.443H839.086V343.919H839.443ZM839.443 338.338H839.801V335.548H839.443H839.086V338.338H839.443ZM839.443 332.757H839.801V329.967H839.443H839.086V332.757H839.443ZM839.443 327.177H839.801V324.386H839.443H839.086V327.177H839.443ZM839.443 321.596H839.801V318.805H839.443H839.086V321.596H839.443ZM839.443 316.015H839.801V313.225H839.443H839.086V316.015H839.443ZM839.443 310.434H839.801V307.644H839.443H839.086V310.434H839.443ZM839.443 304.853H839.801V303.458H839.443H839.086V304.853H839.443ZM839.443 376.009H840.158V374.614H839.443H838.728V376.009H839.443ZM839.443 371.823H840.158V369.033H839.443H838.728V371.823H839.443ZM839.443 366.243H840.158V363.452H839.443H838.728V366.243H839.443ZM839.443 360.662H840.158V357.871H839.443H838.728V360.662H839.443ZM839.443 355.081H840.158V352.29H839.443H838.728V355.081H839.443ZM839.443 349.5H840.158V346.71H839.443H838.728V349.5H839.443ZM839.443 343.919H840.158V341.129H839.443H838.728V343.919H839.443ZM839.443 338.338H840.158V335.548H839.443H838.728V338.338H839.443ZM839.443 332.757H840.158V329.967H839.443H838.728V332.757H839.443ZM839.443 327.177H840.158V324.386H839.443H838.728V327.177H839.443ZM839.443 321.596H840.158V318.805H839.443H838.728V321.596H839.443ZM839.443 316.015H840.158V313.225H839.443H838.728V316.015H839.443ZM839.443 310.434H840.158V307.644H839.443H838.728V310.434H839.443ZM839.443 304.853H840.158V303.458H839.443H838.728V304.853H839.443Z" fill="#EEF7EF" mask="url(#path-46-inside-6_597_6002)"/>
<mask id="path-48-inside-7_597_6002" fill="white">
<path d="M839.445 303.458H859.299V376.009H839.445V303.458Z"/>
</mask>
<path d="M859.299 376.009H859.656V374.614H859.299H858.941V376.009H859.299ZM859.299 371.823H859.656V369.033H859.299H858.941V371.823H859.299ZM859.299 366.243H859.656V363.452H859.299H858.941V366.243H859.299ZM859.299 360.662H859.656V357.871H859.299H858.941V360.662H859.299ZM859.299 355.081H859.656V352.29H859.299H858.941V355.081H859.299ZM859.299 349.5H859.656V346.71H859.299H858.941V349.5H859.299ZM859.299 343.919H859.656V341.129H859.299H858.941V343.919H859.299ZM859.299 338.338H859.656V335.548H859.299H858.941V338.338H859.299ZM859.299 332.757H859.656V329.967H859.299H858.941V332.757H859.299ZM859.299 327.177H859.656V324.386H859.299H858.941V327.177H859.299ZM859.299 321.596H859.656V318.805H859.299H858.941V321.596H859.299ZM859.299 316.015H859.656V313.225H859.299H858.941V316.015H859.299ZM859.299 310.434H859.656V307.644H859.299H858.941V310.434H859.299ZM859.299 304.853H859.656V303.458H859.299H858.941V304.853H859.299ZM859.299 376.009H860.014V374.614H859.299H858.584V376.009H859.299ZM859.299 371.823H860.014V369.033H859.299H858.584V371.823H859.299ZM859.299 366.243H860.014V363.452H859.299H858.584V366.243H859.299ZM859.299 360.662H860.014V357.871H859.299H858.584V360.662H859.299ZM859.299 355.081H860.014V352.29H859.299H858.584V355.081H859.299ZM859.299 349.5H860.014V346.71H859.299H858.584V349.5H859.299ZM859.299 343.919H860.014V341.129H859.299H858.584V343.919H859.299ZM859.299 338.338H860.014V335.548H859.299H858.584V338.338H859.299ZM859.299 332.757H860.014V329.967H859.299H858.584V332.757H859.299ZM859.299 327.177H860.014V324.386H859.299H858.584V327.177H859.299ZM859.299 321.596H860.014V318.805H859.299H858.584V321.596H859.299ZM859.299 316.015H860.014V313.225H859.299H858.584V316.015H859.299ZM859.299 310.434H860.014V307.644H859.299H858.584V310.434H859.299ZM859.299 304.853H860.014V303.458H859.299H858.584V304.853H859.299Z" fill="#EEF7EF" mask="url(#path-48-inside-7_597_6002)"/>
<mask id="path-50-inside-8_597_6002" fill="white">
<path d="M859.297 303.458H879.15V376.009H859.297V303.458Z"/>
</mask>
<path d="M879.15 376.009H879.508V374.614H879.15H878.793V376.009H879.15ZM879.15 371.823H879.508V369.033H879.15H878.793V371.823H879.15ZM879.15 366.243H879.508V363.452H879.15H878.793V366.243H879.15ZM879.15 360.662H879.508V357.871H879.15H878.793V360.662H879.15ZM879.15 355.081H879.508V352.29H879.15H878.793V355.081H879.15ZM879.15 349.5H879.508V346.71H879.15H878.793V349.5H879.15ZM879.15 343.919H879.508V341.129H879.15H878.793V343.919H879.15ZM879.15 338.338H879.508V335.548H879.15H878.793V338.338H879.15ZM879.15 332.757H879.508V329.967H879.15H878.793V332.757H879.15ZM879.15 327.177H879.508V324.386H879.15H878.793V327.177H879.15ZM879.15 321.596H879.508V318.805H879.15H878.793V321.596H879.15ZM879.15 316.015H879.508V313.225H879.15H878.793V316.015H879.15ZM879.15 310.434H879.508V307.644H879.15H878.793V310.434H879.15ZM879.15 304.853H879.508V303.458H879.15H878.793V304.853H879.15ZM879.15 376.009H879.865V374.614H879.15H878.436V376.009H879.15ZM879.15 371.823H879.865V369.033H879.15H878.436V371.823H879.15ZM879.15 366.243H879.865V363.452H879.15H878.436V366.243H879.15ZM879.15 360.662H879.865V357.871H879.15H878.436V360.662H879.15ZM879.15 355.081H879.865V352.29H879.15H878.436V355.081H879.15ZM879.15 349.5H879.865V346.71H879.15H878.436V349.5H879.15ZM879.15 343.919H879.865V341.129H879.15H878.436V343.919H879.15ZM879.15 338.338H879.865V335.548H879.15H878.436V338.338H879.15ZM879.15 332.757H879.865V329.967H879.15H878.436V332.757H879.15ZM879.15 327.177H879.865V324.386H879.15H878.436V327.177H879.15ZM879.15 321.596H879.865V318.805H879.15H878.436V321.596H879.15ZM879.15 316.015H879.865V313.225H879.15H878.436V316.015H879.15ZM879.15 310.434H879.865V307.644H879.15H878.436V310.434H879.15ZM879.15 304.853H879.865V303.458H879.15H878.436V304.853H879.15Z" fill="#EEF7EF" mask="url(#path-50-inside-8_597_6002)"/>
<mask id="path-52-inside-9_597_6002" fill="white">
<path d="M879.152 303.458H899.006V376.009H879.152V303.458Z"/>
</mask>
<path d="M899.006 376.009H899.363V374.614H899.006H898.648V376.009H899.006ZM899.006 371.823H899.363V369.033H899.006H898.648V371.823H899.006ZM899.006 366.243H899.363V363.452H899.006H898.648V366.243H899.006ZM899.006 360.662H899.363V357.871H899.006H898.648V360.662H899.006ZM899.006 355.081H899.363V352.29H899.006H898.648V355.081H899.006ZM899.006 349.5H899.363V346.71H899.006H898.648V349.5H899.006ZM899.006 343.919H899.363V341.129H899.006H898.648V343.919H899.006ZM899.006 338.338H899.363V335.548H899.006H898.648V338.338H899.006ZM899.006 332.757H899.363V329.967H899.006H898.648V332.757H899.006ZM899.006 327.177H899.363V324.386H899.006H898.648V327.177H899.006ZM899.006 321.596H899.363V318.805H899.006H898.648V321.596H899.006ZM899.006 316.015H899.363V313.225H899.006H898.648V316.015H899.006ZM899.006 310.434H899.363V307.644H899.006H898.648V310.434H899.006ZM899.006 304.853H899.363V303.458H899.006H898.648V304.853H899.006ZM899.006 376.009H899.721V374.614H899.006H898.291V376.009H899.006ZM899.006 371.823H899.721V369.033H899.006H898.291V371.823H899.006ZM899.006 366.243H899.721V363.452H899.006H898.291V366.243H899.006ZM899.006 360.662H899.721V357.871H899.006H898.291V360.662H899.006ZM899.006 355.081H899.721V352.29H899.006H898.291V355.081H899.006ZM899.006 349.5H899.721V346.71H899.006H898.291V349.5H899.006ZM899.006 343.919H899.721V341.129H899.006H898.291V343.919H899.006ZM899.006 338.338H899.721V335.548H899.006H898.291V338.338H899.006ZM899.006 332.757H899.721V329.967H899.006H898.291V332.757H899.006ZM899.006 327.177H899.721V324.386H899.006H898.291V327.177H899.006ZM899.006 321.596H899.721V318.805H899.006H898.291V321.596H899.006ZM899.006 316.015H899.721V313.225H899.006H898.291V316.015H899.006ZM899.006 310.434H899.721V307.644H899.006H898.291V310.434H899.006ZM899.006 304.853H899.721V303.458H899.006H898.291V304.853H899.006Z" fill="#EEF7EF" mask="url(#path-52-inside-9_597_6002)"/>
<mask id="path-54-inside-10_597_6002" fill="white">
<path d="M899.004 303.458H918.857V376.009H899.004V303.458Z"/>
</mask>
<path d="M918.857 376.009H919.215V374.614H918.857H918.5V376.009H918.857ZM918.857 371.823H919.215V369.033H918.857H918.5V371.823H918.857ZM918.857 366.243H919.215V363.452H918.857H918.5V366.243H918.857ZM918.857 360.662H919.215V357.871H918.857H918.5V360.662H918.857ZM918.857 355.081H919.215V352.29H918.857H918.5V355.081H918.857ZM918.857 349.5H919.215V346.71H918.857H918.5V349.5H918.857ZM918.857 343.919H919.215V341.129H918.857H918.5V343.919H918.857ZM918.857 338.338H919.215V335.548H918.857H918.5V338.338H918.857ZM918.857 332.757H919.215V329.967H918.857H918.5V332.757H918.857ZM918.857 327.177H919.215V324.386H918.857H918.5V327.177H918.857ZM918.857 321.596H919.215V318.805H918.857H918.5V321.596H918.857ZM918.857 316.015H919.215V313.225H918.857H918.5V316.015H918.857ZM918.857 310.434H919.215V307.644H918.857H918.5V310.434H918.857ZM918.857 304.853H919.215V303.458H918.857H918.5V304.853H918.857ZM918.857 376.009H919.572V374.614H918.857H918.143V376.009H918.857ZM918.857 371.823H919.572V369.033H918.857H918.143V371.823H918.857ZM918.857 366.243H919.572V363.452H918.857H918.143V366.243H918.857ZM918.857 360.662H919.572V357.871H918.857H918.143V360.662H918.857ZM918.857 355.081H919.572V352.29H918.857H918.143V355.081H918.857ZM918.857 349.5H919.572V346.71H918.857H918.143V349.5H918.857ZM918.857 343.919H919.572V341.129H918.857H918.143V343.919H918.857ZM918.857 338.338H919.572V335.548H918.857H918.143V338.338H918.857ZM918.857 332.757H919.572V329.967H918.857H918.143V332.757H918.857ZM918.857 327.177H919.572V324.386H918.857H918.143V327.177H918.857ZM918.857 321.596H919.572V318.805H918.857H918.143V321.596H918.857ZM918.857 316.015H919.572V313.225H918.857H918.143V316.015H918.857ZM918.857 310.434H919.572V307.644H918.857H918.143V310.434H918.857ZM918.857 304.853H919.572V303.458H918.857H918.143V304.853H918.857Z" fill="#EEF7EF" mask="url(#path-54-inside-10_597_6002)"/>
<path d="M839.331 360.452L819.59 355.692V383.33H938.712V332.57L918.802 350.931L899.061 343.111L878.813 350.931L859.072 344.131L839.331 360.452Z" fill="white" fill-opacity="0.5"/>
</g>
<g clip-path="url(#clip8_597_6002)">
<path d="M819.59 397.012C819.59 395.432 820.87 394.152 822.45 394.152H935.851C937.431 394.152 938.711 395.432 938.711 397.012V409.88H819.59V397.012Z" fill="#38AC41"/>
<path d="M819.59 397.012C819.59 395.432 820.87 394.152 822.45 394.152H935.851C937.431 394.152 938.711 395.432 938.711 397.012V409.88H819.59V397.012Z" fill="white" fill-opacity="0.65"/>
<rect x="825.625" y="399.871" width="17.7128" height="4.28956" rx="2.14478" fill="white"/>
<rect x="855.406" y="399.871" width="17.7128" height="4.28956" rx="2.14478" fill="white"/>
<rect x="885.188" y="399.871" width="17.7128" height="4.28956" rx="2.14478" fill="white"/>
<rect x="914.965" y="399.871" width="17.7128" height="4.28956" rx="2.14478" fill="white"/>
<rect width="119.121" height="14.2985" transform="translate(819.59 409.88)" fill="white"/>
<rect x="823.32" y="415.6" width="20.0179" height="2.85971" rx="1.42985" fill="#38AC41"/>
<rect x="823.32" y="415.6" width="20.0179" height="2.85971" rx="1.42985" fill="white" fill-opacity="0.65"/>
<rect x="853.102" y="415.6" width="20.0179" height="2.85971" rx="1.42985" fill="#38AC41"/>
<rect x="853.102" y="415.6" width="20.0179" height="2.85971" rx="1.42985" fill="white" fill-opacity="0.65"/>
<rect x="882.883" y="415.6" width="20.0179" height="2.85971" rx="1.42985" fill="#38AC41"/>
<rect x="882.883" y="415.6" width="20.0179" height="2.85971" rx="1.42985" fill="white" fill-opacity="0.65"/>
<rect x="912.66" y="415.6" width="20.0179" height="2.85971" rx="1.42985" fill="#38AC41"/>
<rect x="912.66" y="415.6" width="20.0179" height="2.85971" rx="1.42985" fill="white" fill-opacity="0.65"/>
<rect x="823.32" y="429.898" width="20.0179" height="2.85971" rx="1.42985" fill="#38AC41"/>
<rect x="823.32" y="429.898" width="20.0179" height="2.85971" rx="1.42985" fill="white" fill-opacity="0.65"/>
<rect x="853.102" y="429.898" width="20.0179" height="2.85971" rx="1.42985" fill="#38AC41"/>
<rect x="853.102" y="429.898" width="20.0179" height="2.85971" rx="1.42985" fill="white" fill-opacity="0.65"/>
<rect x="882.883" y="429.898" width="20.0179" height="2.85971" rx="1.42985" fill="#38AC41"/>
<rect x="882.883" y="429.898" width="20.0179" height="2.85971" rx="1.42985" fill="white" fill-opacity="0.65"/>
<rect x="912.66" y="429.898" width="20.0179" height="2.85971" rx="1.42985" fill="#38AC41"/>
<rect x="912.66" y="429.898" width="20.0179" height="2.85971" rx="1.42985" fill="white" fill-opacity="0.65"/>
<rect width="119.121" height="14.2985" transform="translate(819.59 438.478)" fill="white"/>
<rect x="823.32" y="444.197" width="20.0179" height="2.85971" rx="1.42985" fill="#38AC41"/>
<rect x="823.32" y="444.197" width="20.0179" height="2.85971" rx="1.42985" fill="white" fill-opacity="0.65"/>
<rect x="853.102" y="444.197" width="20.0179" height="2.85971" rx="1.42985" fill="#38AC41"/>
<rect x="853.102" y="444.197" width="20.0179" height="2.85971" rx="1.42985" fill="white" fill-opacity="0.65"/>
<rect x="882.883" y="444.197" width="20.0179" height="2.85971" rx="1.42985" fill="#38AC41"/>
<rect x="882.883" y="444.197" width="20.0179" height="2.85971" rx="1.42985" fill="white" fill-opacity="0.65"/>
<rect x="912.66" y="444.197" width="20.0179" height="2.85971" rx="1.42985" fill="#38AC41"/>
<rect x="912.66" y="444.197" width="20.0179" height="2.85971" rx="1.42985" fill="white" fill-opacity="0.65"/>
</g>
<path d="M212.155 280.027L157.817 275.673L154.659 275.421L145.711 386.495L194.439 390.396L203.207 391.096L212.155 280.022V280.027ZM149.292 383.464L154.458 319.338L157.709 278.992L208.584 283.068L200.173 387.54L188.583 386.613L149.302 383.469L149.292 383.464Z" fill="#D6F5AB"/>
<path d="M208.581 283.063L157.705 278.987L154.455 319.333L149.289 383.459L188.569 386.603L200.159 387.529L208.57 283.058L208.581 283.063ZM160.564 381.04C160.905 376.805 157.736 373.089 153.49 372.75L156.524 335.049L160.136 290.226C164.383 290.566 168.109 287.406 168.449 283.171L197.311 285.482C196.97 289.717 200.138 293.432 204.385 293.772L197.739 376.295C193.492 375.956 189.766 379.115 189.426 383.351L183.801 382.898L160.564 381.035V381.04Z" fill="#56992C"/>
<path d="M197.734 376.301L204.38 293.777C200.133 293.438 196.965 289.727 197.305 285.487L168.444 283.176C168.103 287.412 164.383 290.571 160.131 290.232L156.519 335.054L153.484 372.755C157.731 373.095 160.9 376.805 160.559 381.045L183.796 382.908L189.421 383.361C189.761 379.126 193.482 375.966 197.734 376.306V376.301Z" fill="#D6F5AB"/>
<path d="M181.003 307.559C178.722 307.379 177.02 305.382 177.205 303.108C177.386 300.833 179.388 299.135 181.669 299.32C183.95 299.5 185.653 301.497 185.467 303.771C185.286 306.046 183.284 307.744 181.003 307.559Z" fill="#56992C"/>
<path d="M186.047 347.179C193.75 343.26 196.808 333.857 192.878 326.176C188.949 318.495 179.519 315.445 171.817 319.363C164.115 323.282 161.057 332.686 164.986 340.367C168.916 348.048 178.345 351.098 186.047 347.179Z" fill="#56992C"/>
<path d="M176.206 367.207C173.926 367.027 172.223 365.031 172.408 362.756C172.594 360.481 174.591 358.783 176.872 358.968C179.153 359.149 180.856 361.145 180.67 363.42C180.489 365.694 178.487 367.393 176.206 367.207Z" fill="#56992C"/>
<path d="M180.627 334.787C181.541 333.171 182.108 332.26 183.166 332.343C184.152 332.42 184.662 333.104 184.575 334.216C184.487 335.312 184.074 335.868 183.192 336.691L182.536 337.304L184.781 339.805L185.39 339.29C186.216 338.59 187.186 337.597 187.671 335.986L190.267 336.192L190.535 332.847L187.877 332.636C187.692 331.607 187.258 330.701 186.603 329.986C185.777 329.085 184.662 328.555 183.372 328.452C180.333 328.21 178.96 330.547 177.856 332.43C176.834 334.175 176.138 335.235 174.801 335.127C173.65 335.034 173.145 334.324 173.253 332.95C173.346 331.802 173.893 330.737 174.977 329.595L175.642 328.895L173.031 326.677L172.495 327.197C171.406 328.251 170.559 329.708 170.141 331.21L167.561 331.005L167.293 334.35L169.945 334.561C170.368 337.098 172.144 338.811 174.631 339.012C178.083 339.29 179.554 336.681 180.632 334.777L180.627 334.787Z" fill="#D6F5AB"/>
<path opacity="0.15" d="M172.534 372.117L164.809 370.866L193.01 278.493L196.426 278.771L172.534 372.117Z" fill="black"/>
<path d="M255.915 281.648L203.765 265.818L200.736 264.897L168.195 371.499L214.963 385.697L223.374 388.25L255.915 281.648ZM172.334 369.296L191.122 307.754L202.945 269.029L251.771 283.85L221.166 384.117L210.04 380.741L172.339 369.296H172.334Z" fill="#D6F5AB"/>
<path d="M251.765 283.856L202.939 269.035L191.117 307.759L172.328 369.302L210.029 380.747L221.155 384.123L251.76 283.856H251.765ZM183.867 369.333C185.11 365.267 182.809 360.965 178.732 359.73L189.775 323.548L202.908 280.531C206.985 281.771 211.299 279.476 212.537 275.411L240.237 283.819C238.994 287.885 241.295 292.187 245.372 293.422L221.196 372.621C217.119 371.381 212.805 373.676 211.567 377.741L206.169 376.1L183.867 369.328V369.333Z" fill="#56992C"/>
<path d="M221.198 372.621L245.374 293.422C241.298 292.182 238.996 287.885 240.24 283.819L212.539 275.411C211.296 279.476 206.987 281.771 202.91 280.531L189.777 323.548L178.734 359.73C182.811 360.97 185.112 365.267 183.869 369.333L206.172 376.105L211.569 377.746C212.813 373.681 217.122 371.386 221.198 372.626V372.621Z" fill="#D6F5AB"/>
<path d="M219.584 301.903C217.397 301.239 216.163 298.928 216.829 296.746C217.495 294.564 219.812 293.334 221.999 293.998C224.187 294.662 225.421 296.973 224.755 299.155C224.089 301.337 221.772 302.567 219.584 301.903Z" fill="#56992C"/>
<path d="M216.524 341.527C224.81 339.064 229.525 330.368 227.055 322.104C224.584 313.84 215.864 309.138 207.578 311.602C199.292 314.065 194.577 322.761 197.047 331.025C199.517 339.289 208.237 343.991 216.524 341.527Z" fill="#56992C"/>
<path d="M202.112 359.148C199.924 358.485 198.691 356.174 199.356 353.992C200.022 351.81 202.339 350.58 204.527 351.244C206.715 351.908 207.948 354.218 207.282 356.4C206.617 358.582 204.3 359.812 202.112 359.148Z" fill="#56992C"/>
<path d="M213.376 328.426C214.614 327.042 215.367 326.27 216.379 326.579C217.323 326.867 217.679 327.644 217.354 328.709C217.034 329.759 216.513 330.212 215.471 330.835L214.702 331.293L216.358 334.216L217.065 333.84C218.02 333.331 219.181 332.569 220.001 331.102L222.494 331.859L223.474 328.648L220.925 327.876C220.961 326.831 220.734 325.853 220.249 325.015C219.635 323.96 218.66 323.203 217.421 322.827C214.506 321.942 212.658 323.934 211.177 325.534C209.805 327.022 208.896 327.912 207.612 327.521C206.507 327.186 206.162 326.383 206.564 325.066C206.899 323.965 207.663 323.044 208.964 322.158L209.763 321.613L207.684 318.891L207.049 319.282C205.764 320.079 204.624 321.325 203.891 322.704L201.414 321.953L200.434 325.164L202.978 325.936C202.843 328.504 204.211 330.557 206.6 331.282C209.913 332.286 211.91 330.053 213.37 328.426H213.376Z" fill="#D6F5AB"/>
<path opacity="0.15" d="M255.31 281.468L251.651 280.356L191.797 359.045L197.592 363.43L255.31 281.468Z" fill="black"/>
<path d="M307.985 306.704L264.551 273.852L262.027 271.942L194.5 360.723L233.45 390.185L240.457 395.485L307.985 306.704ZM199.155 360.085L238.14 308.83L262.667 276.579L303.33 307.337L239.818 390.844L230.555 383.835L199.155 360.085Z" fill="#D6F5AB"/>
<path d="M303.328 307.337L262.665 276.579L238.138 308.83L199.152 360.085L230.553 383.835L239.815 390.844L303.328 307.337ZM209.953 364.099C212.528 360.713 211.862 355.886 208.467 353.313L231.389 323.177L258.64 287.35C262.036 289.918 266.876 289.254 269.456 285.868L292.528 303.318C289.953 306.705 290.618 311.532 294.014 314.105L243.846 380.068C240.45 377.5 235.61 378.164 233.03 381.55L228.535 378.148L209.963 364.099H209.953Z" fill="#56992C"/>
<path d="M243.84 380.073L294.008 314.11C290.613 311.542 289.947 306.715 292.522 303.324L269.45 285.873C266.875 289.259 262.035 289.923 258.634 287.355L231.383 323.182L208.461 353.318C211.856 355.886 212.522 360.713 209.947 364.104L228.519 378.153L233.014 381.555C235.589 378.169 240.429 377.505 243.829 380.073H243.84Z" fill="#D6F5AB"/>
<path d="M266.864 313.168C265.043 311.789 264.687 309.195 266.069 307.379C267.452 305.562 270.053 305.207 271.875 306.586C273.696 307.965 274.052 310.559 272.669 312.376C271.287 314.192 268.686 314.547 266.864 313.168Z" fill="#56992C"/>
<path d="M252.682 349.247C261.292 348.453 267.627 340.849 266.831 332.263C266.036 323.676 258.411 317.359 249.801 318.153C241.191 318.946 234.856 326.55 235.652 335.136C236.447 343.723 244.072 350.04 252.682 349.247Z" fill="#56992C"/>
<path d="M230.606 360.842C228.785 359.463 228.429 356.869 229.812 355.053C231.195 353.236 233.795 352.881 235.617 354.26C237.439 355.639 237.795 358.233 236.412 360.049C235.029 361.866 232.428 362.221 230.606 360.842Z" fill="#56992C"/>
<path d="M251.839 335.904C253.48 335.034 254.455 334.571 255.296 335.209C256.086 335.806 256.148 336.655 255.472 337.545C254.806 338.42 254.161 338.667 252.969 338.888L252.086 339.053L252.623 342.367L253.413 342.259C254.486 342.115 255.838 341.796 257.118 340.705L259.192 342.275L261.225 339.599L259.099 337.993C259.497 337.026 259.62 336.027 259.455 335.075C259.249 333.871 258.594 332.826 257.562 332.049C255.131 330.212 252.711 331.447 250.765 332.435C248.964 333.356 247.803 333.876 246.73 333.068C245.812 332.373 245.765 331.499 246.601 330.402C247.298 329.486 248.335 328.884 249.862 328.504L250.802 328.272L249.795 324.999L249.063 325.148C247.576 325.452 246.08 326.224 244.914 327.268L242.85 325.709L240.816 328.385L242.937 329.991C241.921 332.353 242.494 334.751 244.48 336.259C247.236 338.343 249.888 336.938 251.823 335.914L251.839 335.904Z" fill="#D6F5AB"/>
<path d="M100.133 448.948H237.758V426.645H100.133V448.948Z" fill="#93D166"/>
<path d="M142.862 448.949H195.027V426.645H142.862V448.949Z" fill="#FFF5C7"/>
<path d="M188.813 448.949H191.512V426.645H188.813V448.949Z" fill="#FFD102"/>
<path d="M146.379 448.949H149.078V426.645H146.379V448.949Z" fill="#FFD102"/>
<path opacity="0.14" d="M237.758 426.65H100.133V431.436H237.758V426.65Z" fill="black"/>
<path d="M88.4573 426.65H226.082V404.347H88.4573V426.65Z" fill="#93D166"/>
<path d="M131.19 426.65H183.355V404.347H131.19V426.65Z" fill="#FFF5C7"/>
<path d="M177.137 426.65H179.836V404.347H177.137V426.65Z" fill="#FFD102"/>
<path d="M134.7 426.65H137.398V404.347H134.7V426.65Z" fill="#FFD102"/>
<path opacity="0.14" d="M226.082 404.347H88.457V409.133H226.082V404.347Z" fill="black"/>
<path d="M120.004 404.347H257.629V382.043H120.004V404.347Z" fill="#93D166"/>
<path d="M162.729 404.347H214.895V382.044H162.729V404.347Z" fill="#FFF5C7"/>
<path d="M208.688 404.347H211.387V382.044H208.688V404.347Z" fill="#FFD102"/>
<path d="M166.25 404.347H168.949V382.044H166.25V404.347Z" fill="#FFD102"/>
<path opacity="0.14" d="M257.625 382.049H120V386.835H257.625V382.049Z" fill="black"/>
<path d="M120.004 382.049H257.629V359.746H120.004V382.049Z" fill="#93D166"/>
<path d="M162.729 382.049H214.895V359.746H162.729V382.049Z" fill="#FFF5C7"/>
<path d="M208.688 382.049H211.387V359.746H208.688V382.049Z" fill="#FFD102"/>
<path d="M166.25 382.049H168.949V359.746H166.25V382.049Z" fill="#FFD102"/>
<path opacity="0.14" d="M257.625 359.746H120V364.532H257.625V359.746Z" fill="black"/>
<path opacity="0.15" d="M225.042 421.406V422.343V434.57V435.512H209.938V436.448V448.676V449.617H276.531V448.676V436.448V435.512H291.63V434.57V422.343V421.406H225.042Z" fill="black"/>
<path opacity="0.15" d="M221.046 364.989V365.926V378.153V379.095H217.042V380.032V392.259V393.195H213.946V394.137V406.364V407.301H217.496V408.243V420.47V421.406H284.084V420.47V408.243V407.301H280.534V406.364V394.137V393.195H283.635V392.259V380.032V379.095H287.634V378.153V365.926V364.989H278.459V364.048V351.82V350.884H282.309V349.947V337.715V336.778H215.721V337.715V349.947V350.884H211.871V351.82V364.048V364.989H221.046Z" fill="black"/>
<path d="M279.217 435.512H212.629V449.617H279.217V435.512Z" fill="#FFD102"/>
<path d="M212.629 448.676V449.618H279.217V448.676H212.629Z" fill="#FDA902"/>
<path d="M212.629 435.512V436.448H279.217V435.512H212.629Z" fill="#FFE261"/>
<path d="M215.884 437.966H215.621C215.444 437.966 215.301 438.109 215.301 438.285V446.838C215.301 447.014 215.444 447.157 215.621 447.157H215.884C216.061 447.157 216.204 447.014 216.204 446.838V438.285C216.204 438.109 216.061 437.966 215.884 437.966Z" fill="#FFE261"/>
<path d="M219.431 437.966H219.168C218.991 437.966 218.848 438.109 218.848 438.285V446.838C218.848 447.014 218.991 447.157 219.168 447.157H219.431C219.607 447.157 219.751 447.014 219.751 446.838V438.285C219.751 438.109 219.607 437.966 219.431 437.966Z" fill="#FFE261"/>
<path d="M222.985 437.966H222.722C222.546 437.966 222.402 438.109 222.402 438.285V446.838C222.402 447.014 222.546 447.157 222.722 447.157H222.985C223.162 447.157 223.305 447.014 223.305 446.838V438.285C223.305 438.109 223.162 437.966 222.985 437.966Z" fill="#FFE261"/>
<path d="M226.532 437.966H226.269C226.092 437.966 225.949 438.109 225.949 438.285V446.838C225.949 447.014 226.092 447.157 226.269 447.157H226.532C226.709 447.157 226.852 447.014 226.852 446.838V438.285C226.852 438.109 226.709 437.966 226.532 437.966Z" fill="#FFE261"/>
<path d="M230.079 437.966H229.816C229.639 437.966 229.496 438.109 229.496 438.285V446.838C229.496 447.014 229.639 447.157 229.816 447.157H230.079C230.256 447.157 230.399 447.014 230.399 446.838V438.285C230.399 438.109 230.256 437.966 230.079 437.966Z" fill="#FFE261"/>
<path d="M233.638 437.966H233.375C233.198 437.966 233.055 438.109 233.055 438.285V446.838C233.055 447.014 233.198 447.157 233.375 447.157H233.638C233.814 447.157 233.958 447.014 233.958 446.838V438.285C233.958 438.109 233.814 437.966 233.638 437.966Z" fill="#FFE261"/>
<path d="M237.185 437.966H236.921C236.745 437.966 236.602 438.109 236.602 438.285V446.838C236.602 447.014 236.745 447.157 236.921 447.157H237.185C237.361 447.157 237.505 447.014 237.505 446.838V438.285C237.505 438.109 237.361 437.966 237.185 437.966Z" fill="#FFE261"/>
<path d="M240.735 437.966H240.472C240.296 437.966 240.152 438.109 240.152 438.285V446.838C240.152 447.014 240.296 447.157 240.472 447.157H240.735C240.912 447.157 241.055 447.014 241.055 446.838V438.285C241.055 438.109 240.912 437.966 240.735 437.966Z" fill="#FFE261"/>
<path d="M244.278 437.966H244.015C243.839 437.966 243.695 438.109 243.695 438.285V446.838C243.695 447.014 243.839 447.157 244.015 447.157H244.278C244.455 447.157 244.598 447.014 244.598 446.838V438.285C244.598 438.109 244.455 437.966 244.278 437.966Z" fill="#FFE261"/>
<path d="M247.829 437.966H247.566C247.389 437.966 247.246 438.109 247.246 438.285V446.838C247.246 447.014 247.389 447.157 247.566 447.157H247.829C248.006 447.157 248.149 447.014 248.149 446.838V438.285C248.149 438.109 248.006 437.966 247.829 437.966Z" fill="#FFE261"/>
<path d="M251.38 437.966H251.117C250.94 437.966 250.797 438.109 250.797 438.285V446.838C250.797 447.014 250.94 447.157 251.117 447.157H251.38C251.557 447.157 251.7 447.014 251.7 446.838V438.285C251.7 438.109 251.557 437.966 251.38 437.966Z" fill="#FFE261"/>
<path d="M254.931 437.966H254.668C254.491 437.966 254.348 438.109 254.348 438.285V446.838C254.348 447.014 254.491 447.157 254.668 447.157H254.931C255.107 447.157 255.251 447.014 255.251 446.838V438.285C255.251 438.109 255.107 437.966 254.931 437.966Z" fill="#FFE261"/>
<path d="M258.478 437.966H258.214C258.038 437.966 257.895 438.109 257.895 438.285V446.838C257.895 447.014 258.038 447.157 258.214 447.157H258.478C258.654 447.157 258.798 447.014 258.798 446.838V438.285C258.798 438.109 258.654 437.966 258.478 437.966Z" fill="#FFE261"/>
<path d="M262.032 437.966H261.769C261.592 437.966 261.449 438.109 261.449 438.285V446.838C261.449 447.014 261.592 447.157 261.769 447.157H262.032C262.209 447.157 262.352 447.014 262.352 446.838V438.285C262.352 438.109 262.209 437.966 262.032 437.966Z" fill="#FFE261"/>
<path d="M265.579 437.966H265.316C265.139 437.966 264.996 438.109 264.996 438.285V446.838C264.996 447.014 265.139 447.157 265.316 447.157H265.579C265.756 447.157 265.899 447.014 265.899 446.838V438.285C265.899 438.109 265.756 437.966 265.579 437.966Z" fill="#FFE261"/>
<path d="M269.134 437.966H268.871C268.694 437.966 268.551 438.109 268.551 438.285V446.838C268.551 447.014 268.694 447.157 268.871 447.157H269.134C269.311 447.157 269.454 447.014 269.454 446.838V438.285C269.454 438.109 269.311 437.966 269.134 437.966Z" fill="#FFE261"/>
<path d="M272.685 437.966H272.422C272.245 437.966 272.102 438.109 272.102 438.285V446.838C272.102 447.014 272.245 447.157 272.422 447.157H272.685C272.861 447.157 273.005 447.014 273.005 446.838V438.285C273.005 438.109 272.861 437.966 272.685 437.966Z" fill="#FFE261"/>
<path d="M276.232 437.966H275.968C275.792 437.966 275.648 438.109 275.648 438.285V446.838C275.648 447.014 275.792 447.157 275.968 447.157H276.232C276.408 447.157 276.551 447.014 276.551 446.838V438.285C276.551 438.109 276.408 437.966 276.232 437.966Z" fill="#FFE261"/>
<path opacity="0.07" d="M279.221 435.512H252.93V449.617H279.221V435.512Z" fill="#FF0000"/>
<path opacity="0.27" d="M232.023 435.512H217.879V449.617H232.023V435.512Z" fill="#FDFDFD"/>
<path d="M294.32 421.406H227.727V435.512H294.32V421.406Z" fill="#FFD102"/>
<path d="M227.727 434.57V435.512H294.32V434.57H227.727Z" fill="#FDA902"/>
<path d="M227.727 421.406V422.343H294.32V421.406H227.727Z" fill="#FFE261"/>
<path d="M230.982 423.866H230.718C230.542 423.866 230.398 424.009 230.398 424.185V432.738C230.398 432.914 230.542 433.057 230.718 433.057H230.982C231.158 433.057 231.301 432.914 231.301 432.738V424.185C231.301 424.009 231.158 423.866 230.982 423.866Z" fill="#FFE261"/>
<path d="M234.532 423.866H234.269C234.092 423.866 233.949 424.009 233.949 424.185V432.738C233.949 432.914 234.092 433.057 234.269 433.057H234.532C234.709 433.057 234.852 432.914 234.852 432.738V424.185C234.852 424.009 234.709 423.866 234.532 423.866Z" fill="#FFE261"/>
<path d="M238.083 423.866H237.82C237.643 423.866 237.5 424.009 237.5 424.185V432.738C237.5 432.914 237.643 433.057 237.82 433.057H238.083C238.26 433.057 238.403 432.914 238.403 432.738V424.185C238.403 424.009 238.26 423.866 238.083 423.866Z" fill="#FFE261"/>
<path d="M241.63 423.866H241.367C241.19 423.866 241.047 424.009 241.047 424.185V432.738C241.047 432.914 241.19 433.057 241.367 433.057H241.63C241.807 433.057 241.95 432.914 241.95 432.738V424.185C241.95 424.009 241.807 423.866 241.63 423.866Z" fill="#FFE261"/>
<path d="M245.185 423.866H244.921C244.745 423.866 244.602 424.009 244.602 424.185V432.738C244.602 432.914 244.745 433.057 244.921 433.057H245.185C245.361 433.057 245.505 432.914 245.505 432.738V424.185C245.505 424.009 245.361 423.866 245.185 423.866Z" fill="#FFE261"/>
<path d="M248.735 423.866H248.472C248.296 423.866 248.152 424.009 248.152 424.185V432.738C248.152 432.914 248.296 433.057 248.472 433.057H248.735C248.912 433.057 249.055 432.914 249.055 432.738V424.185C249.055 424.009 248.912 423.866 248.735 423.866Z" fill="#FFE261"/>
<path d="M252.286 423.866H252.023C251.846 423.866 251.703 424.009 251.703 424.185V432.738C251.703 432.914 251.846 433.057 252.023 433.057H252.286C252.463 433.057 252.606 432.914 252.606 432.738V424.185C252.606 424.009 252.463 423.866 252.286 423.866Z" fill="#FFE261"/>
<path d="M255.833 423.866H255.57C255.393 423.866 255.25 424.009 255.25 424.185V432.738C255.25 432.914 255.393 433.057 255.57 433.057H255.833C256.01 433.057 256.153 432.914 256.153 432.738V424.185C256.153 424.009 256.01 423.866 255.833 423.866Z" fill="#FFE261"/>
<path d="M259.125 423.866H259.388C259.563 423.866 259.708 424.01 259.708 424.185V432.738C259.708 432.913 259.563 433.057 259.388 433.057H259.125C258.949 433.057 258.805 432.913 258.805 432.738V424.185C258.805 424.01 258.949 423.866 259.125 423.866Z" fill="#FFE261"/>
<path d="M262.935 423.866H262.671C262.495 423.866 262.352 424.009 262.352 424.185V432.738C262.352 432.914 262.495 433.057 262.671 433.057H262.935C263.111 433.057 263.255 432.914 263.255 432.738V424.185C263.255 424.009 263.111 423.866 262.935 423.866Z" fill="#FFE261"/>
<path d="M266.485 423.866H266.222C266.046 423.866 265.902 424.009 265.902 424.185V432.738C265.902 432.914 266.046 433.057 266.222 433.057H266.485C266.662 433.057 266.805 432.914 266.805 432.738V424.185C266.805 424.009 266.662 423.866 266.485 423.866Z" fill="#FFE261"/>
<path d="M270.036 423.866H269.773C269.596 423.866 269.453 424.009 269.453 424.185V432.738C269.453 432.914 269.596 433.057 269.773 433.057H270.036C270.213 433.057 270.356 432.914 270.356 432.738V424.185C270.356 424.009 270.213 423.866 270.036 423.866Z" fill="#FFE261"/>
<path d="M273.583 423.866H273.32C273.143 423.866 273 424.009 273 424.185V432.738C273 432.914 273.143 433.057 273.32 433.057H273.583C273.76 433.057 273.903 432.914 273.903 432.738V424.185C273.903 424.009 273.76 423.866 273.583 423.866Z" fill="#FFE261"/>
<path d="M277.138 423.866H276.875C276.698 423.866 276.555 424.009 276.555 424.185V432.738C276.555 432.914 276.698 433.057 276.875 433.057H277.138C277.314 433.057 277.458 432.914 277.458 432.738V424.185C277.458 424.009 277.314 423.866 277.138 423.866Z" fill="#FFE261"/>
<path d="M280.689 423.866H280.425C280.249 423.866 280.105 424.009 280.105 424.185V432.738C280.105 432.914 280.249 433.057 280.425 433.057H280.689C280.865 433.057 281.009 432.914 281.009 432.738V424.185C281.009 424.009 280.865 423.866 280.689 423.866Z" fill="#FFE261"/>
<path d="M284.239 423.866H283.976C283.799 423.866 283.656 424.009 283.656 424.185V432.738C283.656 432.914 283.799 433.057 283.976 433.057H284.239C284.416 433.057 284.559 432.914 284.559 432.738V424.185C284.559 424.009 284.416 423.866 284.239 423.866Z" fill="#FFE261"/>
<path d="M287.786 423.866H287.523C287.346 423.866 287.203 424.009 287.203 424.185V432.738C287.203 432.914 287.346 433.057 287.523 433.057H287.786C287.963 433.057 288.106 432.914 288.106 432.738V424.185C288.106 424.009 287.963 423.866 287.786 423.866Z" fill="#FFE261"/>
<path d="M291.341 423.866H291.078C290.901 423.866 290.758 424.009 290.758 424.185V432.738C290.758 432.914 290.901 433.057 291.078 433.057H291.341C291.518 433.057 291.661 432.914 291.661 432.738V424.185C291.661 424.009 291.518 423.866 291.341 423.866Z" fill="#FFE261"/>
<path opacity="0.07" d="M294.319 421.406H268.027V435.512H294.319V421.406Z" fill="#FF0000"/>
<path opacity="0.27" d="M247.121 421.406H232.977V435.512H247.121V421.406Z" fill="#FDFDFD"/>
<path d="M286.768 407.301H220.18V421.407H286.768V407.301Z" fill="#FFD102"/>
<path d="M220.18 420.47V421.407H286.768V420.47H220.18Z" fill="#FDA902"/>
<path d="M220.18 407.301V408.243H286.768V407.301H220.18Z" fill="#FFE261"/>
<path d="M223.435 409.761H223.171C222.995 409.761 222.852 409.904 222.852 410.08V418.633C222.852 418.809 222.995 418.952 223.171 418.952H223.435C223.611 418.952 223.755 418.809 223.755 418.633V410.08C223.755 409.904 223.611 409.761 223.435 409.761Z" fill="#FFE261"/>
<path d="M226.982 409.761H226.718C226.542 409.761 226.398 409.904 226.398 410.08V418.633C226.398 418.809 226.542 418.952 226.718 418.952H226.982C227.158 418.952 227.301 418.809 227.301 418.633V410.08C227.301 409.904 227.158 409.761 226.982 409.761Z" fill="#FFE261"/>
<path d="M230.536 409.761H230.273C230.096 409.761 229.953 409.904 229.953 410.08V418.633C229.953 418.809 230.096 418.952 230.273 418.952H230.536C230.713 418.952 230.856 418.809 230.856 418.633V410.08C230.856 409.904 230.713 409.761 230.536 409.761Z" fill="#FFE261"/>
<path d="M234.083 409.761H233.82C233.643 409.761 233.5 409.904 233.5 410.08V418.633C233.5 418.809 233.643 418.952 233.82 418.952H234.083C234.26 418.952 234.403 418.809 234.403 418.633V410.08C234.403 409.904 234.26 409.761 234.083 409.761Z" fill="#FFE261"/>
<path d="M237.634 409.761H237.371C237.194 409.761 237.051 409.904 237.051 410.08V418.633C237.051 418.809 237.194 418.952 237.371 418.952H237.634C237.811 418.952 237.954 418.809 237.954 418.633V410.08C237.954 409.904 237.811 409.761 237.634 409.761Z" fill="#FFE261"/>
<path d="M241.185 409.761H240.921C240.745 409.761 240.602 409.904 240.602 410.08V418.633C240.602 418.809 240.745 418.952 240.921 418.952H241.185C241.361 418.952 241.505 418.809 241.505 418.633V410.08C241.505 409.904 241.361 409.761 241.185 409.761Z" fill="#FFE261"/>
<path d="M244.735 409.761H244.472C244.296 409.761 244.152 409.904 244.152 410.08V418.633C244.152 418.809 244.296 418.952 244.472 418.952H244.735C244.912 418.952 245.055 418.809 245.055 418.633V410.08C245.055 409.904 244.912 409.761 244.735 409.761Z" fill="#FFE261"/>
<path d="M248.282 409.761H248.019C247.842 409.761 247.699 409.904 247.699 410.08V418.633C247.699 418.809 247.842 418.952 248.019 418.952H248.282C248.459 418.952 248.602 418.809 248.602 418.633V410.08C248.602 409.904 248.459 409.761 248.282 409.761Z" fill="#FFE261"/>
<path d="M251.833 409.761H251.57C251.393 409.761 251.25 409.904 251.25 410.08V418.633C251.25 418.809 251.393 418.952 251.57 418.952H251.833C252.01 418.952 252.153 418.809 252.153 418.633V410.08C252.153 409.904 252.01 409.761 251.833 409.761Z" fill="#FFE261"/>
<path d="M255.388 409.761H255.125C254.948 409.761 254.805 409.904 254.805 410.08V418.633C254.805 418.809 254.948 418.952 255.125 418.952H255.388C255.564 418.952 255.708 418.809 255.708 418.633V410.08C255.708 409.904 255.564 409.761 255.388 409.761Z" fill="#FFE261"/>
<path d="M258.935 409.761H258.671C258.495 409.761 258.352 409.904 258.352 410.08V418.633C258.352 418.809 258.495 418.952 258.671 418.952H258.935C259.111 418.952 259.255 418.809 259.255 418.633V410.08C259.255 409.904 259.111 409.761 258.935 409.761Z" fill="#FFE261"/>
<path d="M262.489 409.761H262.226C262.049 409.761 261.906 409.904 261.906 410.08V418.633C261.906 418.809 262.049 418.952 262.226 418.952H262.489C262.666 418.952 262.809 418.809 262.809 418.633V410.08C262.809 409.904 262.666 409.761 262.489 409.761Z" fill="#FFE261"/>
<path d="M266.036 409.761H265.773C265.596 409.761 265.453 409.904 265.453 410.08V418.633C265.453 418.809 265.596 418.952 265.773 418.952H266.036C266.213 418.952 266.356 418.809 266.356 418.633V410.08C266.356 409.904 266.213 409.761 266.036 409.761Z" fill="#FFE261"/>
<path d="M269.587 409.761H269.324C269.147 409.761 269.004 409.904 269.004 410.08V418.633C269.004 418.809 269.147 418.952 269.324 418.952H269.587C269.764 418.952 269.907 418.809 269.907 418.633V410.08C269.907 409.904 269.764 409.761 269.587 409.761Z" fill="#FFE261"/>
<path d="M273.138 409.761H272.875C272.698 409.761 272.555 409.904 272.555 410.08V418.633C272.555 418.809 272.698 418.952 272.875 418.952H273.138C273.314 418.952 273.458 418.809 273.458 418.633V410.08C273.458 409.904 273.314 409.761 273.138 409.761Z" fill="#FFE261"/>
<path d="M276.685 409.761H276.421C276.245 409.761 276.102 409.904 276.102 410.08V418.633C276.102 418.809 276.245 418.952 276.421 418.952H276.685C276.861 418.952 277.005 418.809 277.005 418.633V410.08C277.005 409.904 276.861 409.761 276.685 409.761Z" fill="#FFE261"/>
<path d="M279.972 409.761H280.235C280.411 409.761 280.555 409.905 280.555 410.08V418.633C280.555 418.808 280.411 418.952 280.235 418.952H279.972C279.797 418.952 279.652 418.808 279.652 418.633V410.08C279.652 409.905 279.797 409.761 279.972 409.761Z" fill="#FFE261"/>
<path d="M283.786 409.761H283.523C283.346 409.761 283.203 409.904 283.203 410.08V418.633C283.203 418.809 283.346 418.952 283.523 418.952H283.786C283.963 418.952 284.106 418.809 284.106 418.633V410.08C284.106 409.904 283.963 409.761 283.786 409.761Z" fill="#FFE261"/>
<path opacity="0.07" d="M286.768 407.301H260.477V421.407H286.768V407.301Z" fill="#FF0000"/>
<path opacity="0.27" d="M239.574 407.301H225.43V421.407H239.574V407.301Z" fill="#FDFDFD"/>
<path d="M283.217 393.195H216.629V407.301H283.217V393.195Z" fill="#FFD102"/>
<path d="M216.629 406.364V407.301H283.217V406.364H216.629Z" fill="#FDA902"/>
<path d="M216.629 393.195V394.137H283.217V393.195H216.629Z" fill="#FFE261"/>
<path d="M219.884 395.655H219.621C219.444 395.655 219.301 395.798 219.301 395.974V404.527C219.301 404.703 219.444 404.846 219.621 404.846H219.884C220.061 404.846 220.204 404.703 220.204 404.527V395.974C220.204 395.798 220.061 395.655 219.884 395.655Z" fill="#FFE261"/>
<path d="M223.431 395.655H223.168C222.991 395.655 222.848 395.798 222.848 395.974V404.527C222.848 404.703 222.991 404.846 223.168 404.846H223.431C223.607 404.846 223.751 404.703 223.751 404.527V395.974C223.751 395.798 223.607 395.655 223.431 395.655Z" fill="#FFE261"/>
<path d="M226.982 395.655H226.718C226.542 395.655 226.398 395.798 226.398 395.974V404.527C226.398 404.703 226.542 404.846 226.718 404.846H226.982C227.158 404.846 227.301 404.703 227.301 404.527V395.974C227.301 395.798 227.158 395.655 226.982 395.655Z" fill="#FFE261"/>
<path d="M230.532 395.655H230.269C230.092 395.655 229.949 395.798 229.949 395.974V404.527C229.949 404.703 230.092 404.846 230.269 404.846H230.532C230.709 404.846 230.852 404.703 230.852 404.527V395.974C230.852 395.798 230.709 395.655 230.532 395.655Z" fill="#FFE261"/>
<path d="M234.079 395.655H233.816C233.639 395.655 233.496 395.798 233.496 395.974V404.527C233.496 404.703 233.639 404.846 233.816 404.846H234.079C234.256 404.846 234.399 404.703 234.399 404.527V395.974C234.399 395.798 234.256 395.655 234.079 395.655Z" fill="#FFE261"/>
<path d="M237.634 395.655H237.371C237.194 395.655 237.051 395.798 237.051 395.974V404.527C237.051 404.703 237.194 404.846 237.371 404.846H237.634C237.811 404.846 237.954 404.703 237.954 404.527V395.974C237.954 395.798 237.811 395.655 237.634 395.655Z" fill="#FFE261"/>
<path d="M241.181 395.655H240.918C240.741 395.655 240.598 395.798 240.598 395.974V404.527C240.598 404.703 240.741 404.846 240.918 404.846H241.181C241.357 404.846 241.501 404.703 241.501 404.527V395.974C241.501 395.798 241.357 395.655 241.181 395.655Z" fill="#FFE261"/>
<path d="M244.732 395.655H244.468C244.292 395.655 244.148 395.798 244.148 395.974V404.527C244.148 404.703 244.292 404.846 244.468 404.846H244.732C244.908 404.846 245.051 404.703 245.051 404.527V395.974C245.051 395.798 244.908 395.655 244.732 395.655Z" fill="#FFE261"/>
<path d="M248.282 395.655H248.019C247.842 395.655 247.699 395.798 247.699 395.974V404.527C247.699 404.703 247.842 404.846 248.019 404.846H248.282C248.459 404.846 248.602 404.703 248.602 404.527V395.974C248.602 395.798 248.459 395.655 248.282 395.655Z" fill="#FFE261"/>
<path d="M251.833 395.655H251.57C251.393 395.655 251.25 395.798 251.25 395.974V404.527C251.25 404.703 251.393 404.846 251.57 404.846H251.833C252.01 404.846 252.153 404.703 252.153 404.527V395.974C252.153 395.798 252.01 395.655 251.833 395.655Z" fill="#FFE261"/>
<path d="M255.384 395.655H255.121C254.944 395.655 254.801 395.798 254.801 395.974V404.527C254.801 404.703 254.944 404.846 255.121 404.846H255.384C255.561 404.846 255.704 404.703 255.704 404.527V395.974C255.704 395.798 255.561 395.655 255.384 395.655Z" fill="#FFE261"/>
<path d="M258.935 395.655H258.671C258.495 395.655 258.352 395.798 258.352 395.974V404.527C258.352 404.703 258.495 404.846 258.671 404.846H258.935C259.111 404.846 259.255 404.703 259.255 404.527V395.974C259.255 395.798 259.111 395.655 258.935 395.655Z" fill="#FFE261"/>
<path d="M262.485 395.655H262.222C262.046 395.655 261.902 395.798 261.902 395.974V404.527C261.902 404.703 262.046 404.846 262.222 404.846H262.485C262.662 404.846 262.805 404.703 262.805 404.527V395.974C262.805 395.798 262.662 395.655 262.485 395.655Z" fill="#FFE261"/>
<path d="M266.032 395.655H265.769C265.592 395.655 265.449 395.798 265.449 395.974V404.527C265.449 404.703 265.592 404.846 265.769 404.846H266.032C266.209 404.846 266.352 404.703 266.352 404.527V395.974C266.352 395.798 266.209 395.655 266.032 395.655Z" fill="#FFE261"/>
<path d="M269.587 395.655H269.324C269.147 395.655 269.004 395.798 269.004 395.974V404.527C269.004 404.703 269.147 404.846 269.324 404.846H269.587C269.764 404.846 269.907 404.703 269.907 404.527V395.974C269.907 395.798 269.764 395.655 269.587 395.655Z" fill="#FFE261"/>
<path d="M273.134 395.655H272.871C272.694 395.655 272.551 395.798 272.551 395.974V404.527C272.551 404.703 272.694 404.846 272.871 404.846H273.134C273.311 404.846 273.454 404.703 273.454 404.527V395.974C273.454 395.798 273.311 395.655 273.134 395.655Z" fill="#FFE261"/>
<path d="M276.685 395.655H276.421C276.245 395.655 276.102 395.798 276.102 395.974V404.527C276.102 404.703 276.245 404.846 276.421 404.846H276.685C276.861 404.846 277.005 404.703 277.005 404.527V395.974C277.005 395.798 276.861 395.655 276.685 395.655Z" fill="#FFE261"/>
<path d="M280.235 395.655H279.972C279.796 395.655 279.652 395.798 279.652 395.974V404.527C279.652 404.703 279.796 404.846 279.972 404.846H280.235C280.412 404.846 280.555 404.703 280.555 404.527V395.974C280.555 395.798 280.412 395.655 280.235 395.655Z" fill="#FFE261"/>
<path opacity="0.07" d="M283.217 393.195H256.926V407.301H283.217V393.195Z" fill="#FF0000"/>
<path opacity="0.27" d="M236.023 393.195H221.879V407.301H236.023V393.195Z" fill="#FDFDFD"/>
<path d="M286.316 379.095H219.723V393.196H286.316V379.095Z" fill="#FFD102"/>
<path d="M219.723 392.259V393.195H286.316V392.259H219.723Z" fill="#FDA902"/>
<path d="M219.723 379.095V380.032H286.316V379.095H219.723Z" fill="#FFE261"/>
<path d="M222.982 381.55H222.718C222.542 381.55 222.398 381.693 222.398 381.869V390.422C222.398 390.598 222.542 390.741 222.718 390.741H222.982C223.158 390.741 223.301 390.598 223.301 390.422V381.869C223.301 381.693 223.158 381.55 222.982 381.55Z" fill="#FFE261"/>
<path d="M226.528 381.55H226.265C226.089 381.55 225.945 381.693 225.945 381.869V390.422C225.945 390.598 226.089 390.741 226.265 390.741H226.528C226.705 390.741 226.848 390.598 226.848 390.422V381.869C226.848 381.693 226.705 381.55 226.528 381.55Z" fill="#FFE261"/>
<path d="M230.079 381.55H229.816C229.639 381.55 229.496 381.693 229.496 381.869V390.422C229.496 390.598 229.639 390.741 229.816 390.741H230.079C230.256 390.741 230.399 390.598 230.399 390.422V381.869C230.399 381.693 230.256 381.55 230.079 381.55Z" fill="#FFE261"/>
<path d="M233.634 381.55H233.371C233.194 381.55 233.051 381.693 233.051 381.869V390.422C233.051 390.598 233.194 390.741 233.371 390.741H233.634C233.811 390.741 233.954 390.598 233.954 390.422V381.869C233.954 381.693 233.811 381.55 233.634 381.55Z" fill="#FFE261"/>
<path d="M237.185 381.55H236.921C236.745 381.55 236.602 381.693 236.602 381.869V390.422C236.602 390.598 236.745 390.741 236.921 390.741H237.185C237.361 390.741 237.505 390.598 237.505 390.422V381.869C237.505 381.693 237.361 381.55 237.185 381.55Z" fill="#FFE261"/>
<path d="M240.735 381.55H240.472C240.296 381.55 240.152 381.693 240.152 381.869V390.422C240.152 390.598 240.296 390.741 240.472 390.741H240.735C240.912 390.741 241.055 390.598 241.055 390.422V381.869C241.055 381.693 240.912 381.55 240.735 381.55Z" fill="#FFE261"/>
<path d="M244.278 381.55H244.015C243.839 381.55 243.695 381.693 243.695 381.869V390.422C243.695 390.598 243.839 390.741 244.015 390.741H244.278C244.455 390.741 244.598 390.598 244.598 390.422V381.869C244.598 381.693 244.455 381.55 244.278 381.55Z" fill="#FFE261"/>
<path d="M247.566 381.55H247.829C248.005 381.55 248.149 381.694 248.149 381.869V390.422C248.149 390.597 248.005 390.741 247.829 390.741H247.566C247.391 390.741 247.246 390.597 247.246 390.422V381.869C247.246 381.694 247.391 381.55 247.566 381.55Z" fill="#FFE261"/>
<path d="M251.38 381.55H251.117C250.94 381.55 250.797 381.693 250.797 381.869V390.422C250.797 390.598 250.94 390.741 251.117 390.741H251.38C251.557 390.741 251.7 390.598 251.7 390.422V381.869C251.7 381.693 251.557 381.55 251.38 381.55Z" fill="#FFE261"/>
<path d="M254.927 381.55H254.664C254.487 381.55 254.344 381.693 254.344 381.869V390.422C254.344 390.598 254.487 390.741 254.664 390.741H254.927C255.104 390.741 255.247 390.598 255.247 390.422V381.869C255.247 381.693 255.104 381.55 254.927 381.55Z" fill="#FFE261"/>
<path d="M258.478 381.55H258.214C258.038 381.55 257.895 381.693 257.895 381.869V390.422C257.895 390.598 258.038 390.741 258.214 390.741H258.478C258.654 390.741 258.798 390.598 258.798 390.422V381.869C258.798 381.693 258.654 381.55 258.478 381.55Z" fill="#FFE261"/>
<path d="M262.028 381.55H261.765C261.589 381.55 261.445 381.693 261.445 381.869V390.422C261.445 390.598 261.589 390.741 261.765 390.741H262.028C262.205 390.741 262.348 390.598 262.348 390.422V381.869C262.348 381.693 262.205 381.55 262.028 381.55Z" fill="#FFE261"/>
<path d="M265.575 381.55H265.312C265.135 381.55 264.992 381.693 264.992 381.869V390.422C264.992 390.598 265.135 390.741 265.312 390.741H265.575C265.752 390.741 265.895 390.598 265.895 390.422V381.869C265.895 381.693 265.752 381.55 265.575 381.55Z" fill="#FFE261"/>
<path d="M269.134 381.55H268.871C268.694 381.55 268.551 381.693 268.551 381.869V390.422C268.551 390.598 268.694 390.741 268.871 390.741H269.134C269.311 390.741 269.454 390.598 269.454 390.422V381.869C269.454 381.693 269.311 381.55 269.134 381.55Z" fill="#FFE261"/>
<path d="M272.681 381.55H272.418C272.241 381.55 272.098 381.693 272.098 381.869V390.422C272.098 390.598 272.241 390.741 272.418 390.741H272.681C272.857 390.741 273.001 390.598 273.001 390.422V381.869C273.001 381.693 272.857 381.55 272.681 381.55Z" fill="#FFE261"/>
<path d="M276.232 381.55H275.968C275.792 381.55 275.648 381.693 275.648 381.869V390.422C275.648 390.598 275.792 390.741 275.968 390.741H276.232C276.408 390.741 276.551 390.598 276.551 390.422V381.869C276.551 381.693 276.408 381.55 276.232 381.55Z" fill="#FFE261"/>
<path d="M279.782 381.55H279.519C279.342 381.55 279.199 381.693 279.199 381.869V390.422C279.199 390.598 279.342 390.741 279.519 390.741H279.782C279.959 390.741 280.102 390.598 280.102 390.422V381.869C280.102 381.693 279.959 381.55 279.782 381.55Z" fill="#FFE261"/>
<path d="M283.066 381.55H283.329C283.505 381.55 283.649 381.694 283.649 381.869V390.422C283.649 390.597 283.505 390.741 283.329 390.741H283.066C282.891 390.741 282.746 390.597 282.746 390.422V381.869C282.746 381.694 282.891 381.55 283.066 381.55Z" fill="#FFE261"/>
<path opacity="0.07" d="M286.319 379.095H260.027V393.201H286.319V379.095Z" fill="#FF0000"/>
<path opacity="0.27" d="M239.121 379.095H224.977V393.201H239.121V379.095Z" fill="#FDFDFD"/>
<path d="M290.319 364.989H223.73V379.095H290.319V364.989Z" fill="#FFD102"/>
<path d="M223.73 378.153V379.095H290.319V378.153H223.73Z" fill="#FDA902"/>
<path d="M223.73 364.989V365.926H290.319V364.989H223.73Z" fill="#FFE261"/>
<path d="M226.982 367.444H226.718C226.542 367.444 226.398 367.587 226.398 367.763V376.316C226.398 376.492 226.542 376.635 226.718 376.635H226.982C227.158 376.635 227.301 376.492 227.301 376.316V367.763C227.301 367.587 227.158 367.444 226.982 367.444Z" fill="#FFE261"/>
<path d="M230.532 367.444H230.269C230.092 367.444 229.949 367.587 229.949 367.763V376.316C229.949 376.492 230.092 376.635 230.269 376.635H230.532C230.709 376.635 230.852 376.492 230.852 376.316V367.763C230.852 367.587 230.709 367.444 230.532 367.444Z" fill="#FFE261"/>
<path d="M234.083 367.444H233.82C233.643 367.444 233.5 367.587 233.5 367.763V376.316C233.5 376.492 233.643 376.635 233.82 376.635H234.083C234.26 376.635 234.403 376.492 234.403 376.316V367.763C234.403 367.587 234.26 367.444 234.083 367.444Z" fill="#FFE261"/>
<path d="M237.634 367.444H237.371C237.194 367.444 237.051 367.587 237.051 367.763V376.316C237.051 376.492 237.194 376.635 237.371 376.635H237.634C237.811 376.635 237.954 376.492 237.954 376.316V367.763C237.954 367.587 237.811 367.444 237.634 367.444Z" fill="#FFE261"/>
<path d="M241.181 367.444H240.918C240.741 367.444 240.598 367.587 240.598 367.763V376.316C240.598 376.492 240.741 376.635 240.918 376.635H241.181C241.357 376.635 241.501 376.492 241.501 376.316V367.763C241.501 367.587 241.357 367.444 241.181 367.444Z" fill="#FFE261"/>
<path d="M244.735 367.444H244.472C244.296 367.444 244.152 367.587 244.152 367.763V376.316C244.152 376.492 244.296 376.635 244.472 376.635H244.735C244.912 376.635 245.055 376.492 245.055 376.316V367.763C245.055 367.587 244.912 367.444 244.735 367.444Z" fill="#FFE261"/>
<path d="M248.282 367.444H248.019C247.842 367.444 247.699 367.587 247.699 367.763V376.316C247.699 376.492 247.842 376.635 248.019 376.635H248.282C248.459 376.635 248.602 376.492 248.602 376.316V367.763C248.602 367.587 248.459 367.444 248.282 367.444Z" fill="#FFE261"/>
<path d="M251.833 367.444H251.57C251.393 367.444 251.25 367.587 251.25 367.763V376.316C251.25 376.492 251.393 376.635 251.57 376.635H251.833C252.01 376.635 252.153 376.492 252.153 376.316V367.763C252.153 367.587 252.01 367.444 251.833 367.444Z" fill="#FFE261"/>
<path d="M255.388 367.444H255.125C254.948 367.444 254.805 367.587 254.805 367.763V376.316C254.805 376.492 254.948 376.635 255.125 376.635H255.388C255.564 376.635 255.708 376.492 255.708 376.316V367.763C255.708 367.587 255.564 367.444 255.388 367.444Z" fill="#FFE261"/>
<path d="M258.935 367.444H258.671C258.495 367.444 258.352 367.587 258.352 367.763V376.316C258.352 376.492 258.495 376.635 258.671 376.635H258.935C259.111 376.635 259.255 376.492 259.255 376.316V367.763C259.255 367.587 259.111 367.444 258.935 367.444Z" fill="#FFE261"/>
<path d="M262.485 367.444H262.222C262.046 367.444 261.902 367.587 261.902 367.763V376.316C261.902 376.492 262.046 376.635 262.222 376.635H262.485C262.662 376.635 262.805 376.492 262.805 376.316V367.763C262.805 367.587 262.662 367.444 262.485 367.444Z" fill="#FFE261"/>
<path d="M266.036 367.444H265.773C265.596 367.444 265.453 367.587 265.453 367.763V376.316C265.453 376.492 265.596 376.635 265.773 376.635H266.036C266.213 376.635 266.356 376.492 266.356 376.316V367.763C266.356 367.587 266.213 367.444 266.036 367.444Z" fill="#FFE261"/>
<path d="M269.324 367.444H269.587C269.762 367.444 269.907 367.588 269.907 367.763V376.316C269.907 376.491 269.762 376.635 269.587 376.635H269.324C269.148 376.635 269.004 376.491 269.004 376.316V367.763C269.004 367.588 269.148 367.444 269.324 367.444Z" fill="#FFE261"/>
<path d="M273.134 367.444H272.871C272.694 367.444 272.551 367.587 272.551 367.763V376.316C272.551 376.492 272.694 376.635 272.871 376.635H273.134C273.311 376.635 273.454 376.492 273.454 376.316V367.763C273.454 367.587 273.311 367.444 273.134 367.444Z" fill="#FFE261"/>
<path d="M276.685 367.444H276.421C276.245 367.444 276.102 367.587 276.102 367.763V376.316C276.102 376.492 276.245 376.635 276.421 376.635H276.685C276.861 376.635 277.005 376.492 277.005 376.316V367.763C277.005 367.587 276.861 367.444 276.685 367.444Z" fill="#FFE261"/>
<path d="M280.235 367.444H279.972C279.796 367.444 279.652 367.587 279.652 367.763V376.316C279.652 376.492 279.796 376.635 279.972 376.635H280.235C280.412 376.635 280.555 376.492 280.555 376.316V367.763C280.555 367.587 280.412 367.444 280.235 367.444Z" fill="#FFE261"/>
<path d="M283.782 367.444H283.519C283.342 367.444 283.199 367.587 283.199 367.763V376.316C283.199 376.492 283.342 376.635 283.519 376.635H283.782C283.959 376.635 284.102 376.492 284.102 376.316V367.763C284.102 367.587 283.959 367.444 283.782 367.444Z" fill="#FFE261"/>
<path d="M287.341 367.444H287.078C286.901 367.444 286.758 367.587 286.758 367.763V376.316C286.758 376.492 286.901 376.635 287.078 376.635H287.341C287.518 376.635 287.661 376.492 287.661 376.316V367.763C287.661 367.587 287.518 367.444 287.341 367.444Z" fill="#FFE261"/>
<path opacity="0.07" d="M290.319 364.989H264.027V379.095H290.319V364.989Z" fill="#FF0000"/>
<path opacity="0.27" d="M243.121 364.989H228.977V379.095H243.121V364.989Z" fill="#FDFDFD"/>
<path d="M281.148 350.884H214.555V364.989H281.148V350.884Z" fill="#FFD102"/>
<path d="M214.555 364.047V364.989H281.148V364.047H214.555Z" fill="#FDA902"/>
<path d="M214.555 350.884V351.82H281.148V350.884H214.555Z" fill="#FFE261"/>
<path d="M217.547 353.338H217.81C217.985 353.338 218.13 353.482 218.13 353.657V362.21C218.13 362.385 217.985 362.529 217.81 362.529H217.547C217.371 362.529 217.227 362.385 217.227 362.21V353.657C217.227 353.482 217.371 353.338 217.547 353.338Z" fill="#FFE261"/>
<path d="M221.093 353.338H221.357C221.532 353.338 221.676 353.482 221.676 353.657V362.21C221.676 362.385 221.532 362.529 221.357 362.529H221.093C220.918 362.529 220.773 362.385 220.773 362.21V353.657C220.773 353.482 220.918 353.338 221.093 353.338Z" fill="#FFE261"/>
<path d="M224.911 353.338H224.648C224.471 353.338 224.328 353.481 224.328 353.657V362.21C224.328 362.387 224.471 362.529 224.648 362.529H224.911C225.088 362.529 225.231 362.387 225.231 362.21V353.657C225.231 353.481 225.088 353.338 224.911 353.338Z" fill="#FFE261"/>
<path d="M228.458 353.338H228.195C228.018 353.338 227.875 353.481 227.875 353.657V362.21C227.875 362.387 228.018 362.529 228.195 362.529H228.458C228.635 362.529 228.778 362.387 228.778 362.21V353.657C228.778 353.481 228.635 353.338 228.458 353.338Z" fill="#FFE261"/>
<path d="M232.009 353.338H231.746C231.569 353.338 231.426 353.481 231.426 353.657V362.21C231.426 362.387 231.569 362.529 231.746 362.529H232.009C232.186 362.529 232.329 362.387 232.329 362.21V353.657C232.329 353.481 232.186 353.338 232.009 353.338Z" fill="#FFE261"/>
<path d="M235.56 353.338H235.296C235.12 353.338 234.977 353.481 234.977 353.657V362.21C234.977 362.387 235.12 362.529 235.296 362.529H235.56C235.736 362.529 235.88 362.387 235.88 362.21V353.657C235.88 353.481 235.736 353.338 235.56 353.338Z" fill="#FFE261"/>
<path d="M239.11 353.338H238.847C238.671 353.338 238.527 353.481 238.527 353.657V362.21C238.527 362.387 238.671 362.529 238.847 362.529H239.11C239.287 362.529 239.43 362.387 239.43 362.21V353.657C239.43 353.481 239.287 353.338 239.11 353.338Z" fill="#FFE261"/>
<path d="M242.657 353.338H242.394C242.217 353.338 242.074 353.481 242.074 353.657V362.21C242.074 362.387 242.217 362.529 242.394 362.529H242.657C242.834 362.529 242.977 362.387 242.977 362.21V353.657C242.977 353.481 242.834 353.338 242.657 353.338Z" fill="#FFE261"/>
<path d="M246.208 353.338H245.945C245.768 353.338 245.625 353.481 245.625 353.657V362.21C245.625 362.387 245.768 362.529 245.945 362.529H246.208C246.385 362.529 246.528 362.387 246.528 362.21V353.657C246.528 353.481 246.385 353.338 246.208 353.338Z" fill="#FFE261"/>
<path d="M249.763 353.338H249.5C249.323 353.338 249.18 353.481 249.18 353.657V362.21C249.18 362.387 249.323 362.529 249.5 362.529H249.763C249.939 362.529 250.083 362.387 250.083 362.21V353.657C250.083 353.481 249.939 353.338 249.763 353.338Z" fill="#FFE261"/>
<path d="M253.31 353.338H253.046C252.87 353.338 252.727 353.481 252.727 353.657V362.21C252.727 362.387 252.87 362.529 253.046 362.529H253.31C253.486 362.529 253.63 362.387 253.63 362.21V353.657C253.63 353.481 253.486 353.338 253.31 353.338Z" fill="#FFE261"/>
<path d="M256.864 353.338H256.601C256.424 353.338 256.281 353.481 256.281 353.657V362.21C256.281 362.387 256.424 362.529 256.601 362.529H256.864C257.041 362.529 257.184 362.387 257.184 362.21V353.657C257.184 353.481 257.041 353.338 256.864 353.338Z" fill="#FFE261"/>
<path d="M260.411 353.338H260.148C259.971 353.338 259.828 353.481 259.828 353.657V362.21C259.828 362.387 259.971 362.529 260.148 362.529H260.411C260.588 362.529 260.731 362.387 260.731 362.21V353.657C260.731 353.481 260.588 353.338 260.411 353.338Z" fill="#FFE261"/>
<path d="M263.962 353.338H263.699C263.522 353.338 263.379 353.481 263.379 353.657V362.21C263.379 362.387 263.522 362.529 263.699 362.529H263.962C264.139 362.529 264.282 362.387 264.282 362.21V353.657C264.282 353.481 264.139 353.338 263.962 353.338Z" fill="#FFE261"/>
<path d="M267.513 353.338H267.25C267.073 353.338 266.93 353.481 266.93 353.657V362.21C266.93 362.387 267.073 362.529 267.25 362.529H267.513C267.689 362.529 267.833 362.387 267.833 362.21V353.657C267.833 353.481 267.689 353.338 267.513 353.338Z" fill="#FFE261"/>
<path d="M271.06 353.338H270.796C270.62 353.338 270.477 353.481 270.477 353.657V362.21C270.477 362.387 270.62 362.529 270.796 362.529H271.06C271.236 362.529 271.38 362.387 271.38 362.21V353.657C271.38 353.481 271.236 353.338 271.06 353.338Z" fill="#FFE261"/>
<path d="M274.61 353.338H274.347C274.171 353.338 274.027 353.481 274.027 353.657V362.21C274.027 362.387 274.171 362.529 274.347 362.529H274.61C274.787 362.529 274.93 362.387 274.93 362.21V353.657C274.93 353.481 274.787 353.338 274.61 353.338Z" fill="#FFE261"/>
<path d="M278.161 353.338H277.898C277.721 353.338 277.578 353.481 277.578 353.657V362.21C277.578 362.387 277.721 362.529 277.898 362.529H278.161C278.338 362.529 278.481 362.387 278.481 362.21V353.657C278.481 353.481 278.338 353.338 278.161 353.338Z" fill="#FFE261"/>
<path opacity="0.07" d="M281.143 350.884H254.852V364.989H281.143V350.884Z" fill="#FF0000"/>
<path opacity="0.27" d="M233.949 350.884H219.805V364.989H233.949V350.884Z" fill="#FDFDFD"/>
<path d="M284.995 336.778H218.406V350.884H284.995V336.778Z" fill="#FFD102"/>
<path d="M218.406 349.947V350.884H284.995V349.947H218.406Z" fill="#FDA902"/>
<path d="M218.406 336.778V337.715H284.995V336.778H218.406Z" fill="#FFE261"/>
<path d="M221.657 339.238H221.394C221.217 339.238 221.074 339.381 221.074 339.557V348.11C221.074 348.286 221.217 348.429 221.394 348.429H221.657C221.834 348.429 221.977 348.286 221.977 348.11V339.557C221.977 339.381 221.834 339.238 221.657 339.238Z" fill="#FFE261"/>
<path d="M225.208 339.238H224.945C224.768 339.238 224.625 339.381 224.625 339.557V348.11C224.625 348.286 224.768 348.429 224.945 348.429H225.208C225.385 348.429 225.528 348.286 225.528 348.11V339.557C225.528 339.381 225.385 339.238 225.208 339.238Z" fill="#FFE261"/>
<path d="M228.759 339.238H228.496C228.319 339.238 228.176 339.381 228.176 339.557V348.11C228.176 348.286 228.319 348.429 228.496 348.429H228.759C228.936 348.429 229.079 348.286 229.079 348.11V339.557C229.079 339.381 228.936 339.238 228.759 339.238Z" fill="#FFE261"/>
<path d="M232.31 339.238H232.046C231.87 339.238 231.727 339.381 231.727 339.557V348.11C231.727 348.286 231.87 348.429 232.046 348.429H232.31C232.486 348.429 232.63 348.286 232.63 348.11V339.557C232.63 339.381 232.486 339.238 232.31 339.238Z" fill="#FFE261"/>
<path d="M235.857 339.238H235.593C235.417 339.238 235.273 339.381 235.273 339.557V348.11C235.273 348.286 235.417 348.429 235.593 348.429H235.857C236.033 348.429 236.176 348.286 236.176 348.11V339.557C236.176 339.381 236.033 339.238 235.857 339.238Z" fill="#FFE261"/>
<path d="M239.407 339.238H239.144C238.967 339.238 238.824 339.381 238.824 339.557V348.11C238.824 348.286 238.967 348.429 239.144 348.429H239.407C239.584 348.429 239.727 348.286 239.727 348.11V339.557C239.727 339.381 239.584 339.238 239.407 339.238Z" fill="#FFE261"/>
<path d="M242.958 339.238H242.695C242.518 339.238 242.375 339.381 242.375 339.557V348.11C242.375 348.286 242.518 348.429 242.695 348.429H242.958C243.135 348.429 243.278 348.286 243.278 348.11V339.557C243.278 339.381 243.135 339.238 242.958 339.238Z" fill="#FFE261"/>
<path d="M246.505 339.238H246.242C246.065 339.238 245.922 339.381 245.922 339.557V348.11C245.922 348.286 246.065 348.429 246.242 348.429H246.505C246.682 348.429 246.825 348.286 246.825 348.11V339.557C246.825 339.381 246.682 339.238 246.505 339.238Z" fill="#FFE261"/>
<path d="M250.06 339.238H249.797C249.62 339.238 249.477 339.381 249.477 339.557V348.11C249.477 348.286 249.62 348.429 249.797 348.429H250.06C250.236 348.429 250.38 348.286 250.38 348.11V339.557C250.38 339.381 250.236 339.238 250.06 339.238Z" fill="#FFE261"/>
<path d="M253.61 339.238H253.347C253.171 339.238 253.027 339.381 253.027 339.557V348.11C253.027 348.286 253.171 348.429 253.347 348.429H253.61C253.787 348.429 253.93 348.286 253.93 348.11V339.557C253.93 339.381 253.787 339.238 253.61 339.238Z" fill="#FFE261"/>
<path d="M257.161 339.238H256.898C256.721 339.238 256.578 339.381 256.578 339.557V348.11C256.578 348.286 256.721 348.429 256.898 348.429H257.161C257.338 348.429 257.481 348.286 257.481 348.11V339.557C257.481 339.381 257.338 339.238 257.161 339.238Z" fill="#FFE261"/>
<path d="M260.712 339.238H260.449C260.272 339.238 260.129 339.381 260.129 339.557V348.11C260.129 348.286 260.272 348.429 260.449 348.429H260.712C260.889 348.429 261.032 348.286 261.032 348.11V339.557C261.032 339.381 260.889 339.238 260.712 339.238Z" fill="#FFE261"/>
<path d="M264.259 339.238H263.996C263.819 339.238 263.676 339.381 263.676 339.557V348.11C263.676 348.286 263.819 348.429 263.996 348.429H264.259C264.436 348.429 264.579 348.286 264.579 348.11V339.557C264.579 339.381 264.436 339.238 264.259 339.238Z" fill="#FFE261"/>
<path d="M267.81 339.238H267.546C267.37 339.238 267.227 339.381 267.227 339.557V348.11C267.227 348.286 267.37 348.429 267.546 348.429H267.81C267.986 348.429 268.13 348.286 268.13 348.11V339.557C268.13 339.381 267.986 339.238 267.81 339.238Z" fill="#FFE261"/>
<path d="M271.36 339.238H271.097C270.921 339.238 270.777 339.381 270.777 339.557V348.11C270.777 348.286 270.921 348.429 271.097 348.429H271.36C271.537 348.429 271.68 348.286 271.68 348.11V339.557C271.68 339.381 271.537 339.238 271.36 339.238Z" fill="#FFE261"/>
<path d="M274.911 339.238H274.648C274.471 339.238 274.328 339.381 274.328 339.557V348.11C274.328 348.286 274.471 348.429 274.648 348.429H274.911C275.088 348.429 275.231 348.286 275.231 348.11V339.557C275.231 339.381 275.088 339.238 274.911 339.238Z" fill="#FFE261"/>
<path d="M278.458 339.238H278.195C278.018 339.238 277.875 339.381 277.875 339.557V348.11C277.875 348.286 278.018 348.429 278.195 348.429H278.458C278.635 348.429 278.778 348.286 278.778 348.11V339.557C278.778 339.381 278.635 339.238 278.458 339.238Z" fill="#FFE261"/>
<path d="M282.013 339.238H281.75C281.573 339.238 281.43 339.381 281.43 339.557V348.11C281.43 348.286 281.573 348.429 281.75 348.429H282.013C282.189 348.429 282.333 348.286 282.333 348.11V339.557C282.333 339.381 282.189 339.238 282.013 339.238Z" fill="#FFE261"/>
<path opacity="0.07" d="M284.991 336.778H258.699V350.884H284.991V336.778Z" fill="#FF0000"/>
<path opacity="0.27" d="M237.797 336.778H223.652V350.884H237.797V336.778Z" fill="#FDFDFD"/>
</g>
</g>
<defs>
<filter id="filter0_d_597_6002" x="66.5105" y="-13.3179" width="906.983" height="523.215" filterUnits="userSpaceOnUse" color-interpolation-filters="sRGB">
<feFlood flood-opacity="0" result="BackgroundImageFix"/>
<feColorMatrix in="SourceAlpha" type="matrix" values="0 0 0 0 0 0 0 0 0 0 0 0 0 0 0 0 0 0 127 0" result="hardAlpha"/>
<feMorphology radius="4.68936" operator="dilate" in="SourceAlpha" result="effect1_dropShadow_597_6002"/>
<feOffset dy="8.62857"/>
<feGaussianBlur stdDeviation="8.62857"/>
<feComposite in2="hardAlpha" operator="out"/>
<feColorMatrix type="matrix" values="0 0 0 0 0 0 0 0 0 0 0 0 0 0 0 0 0 0 0.25 0"/>
<feBlend mode="normal" in2="BackgroundImageFix" result="effect1_dropShadow_597_6002"/>
<feBlend mode="normal" in="SourceGraphic" in2="effect1_dropShadow_597_6002" result="shape"/>
</filter>
<clipPath id="clip0_597_6002">
<rect width="1040" height="503" fill="white"/>
</clipPath>
<clipPath id="clip1_597_6002">
<rect x="153.348" width="729.977" height="418.47" rx="6.25248" fill="white"/>
</clipPath>
<clipPath id="clip2_597_6002">
<rect width="156.312" height="336.071" fill="white" transform="translate(153.348 82.3989)"/>
</clipPath>
<clipPath id="clip3_597_6002">
<rect x="336.234" y="108.972" width="163.086" height="65.6511" rx="6.25248" fill="white"/>
</clipPath>
<clipPath id="clip4_597_6002">
<rect x="514.949" y="108.972" width="163.086" height="65.6511" rx="6.25248" fill="white"/>
</clipPath>
<clipPath id="clip5_597_6002">
<rect x="693.668" y="108.972" width="163.086" height="65.6511" rx="6.25248" fill="white"/>
</clipPath>
<clipPath id="clip6_597_6002">
<rect x="819.59" y="255.052" width="119.121" height="30.2627" rx="2.85971" fill="white"/>
</clipPath>
<clipPath id="clip7_597_6002">
<rect width="119.121" height="86.8496" fill="white" transform="translate(819.59 296.309)"/>
</clipPath>
<clipPath id="clip8_597_6002">
<rect x="819.59" y="394.152" width="119.121" height="58.624" rx="2.85971" fill="white"/>
</clipPath>
</defs>
</svg>
