<svg width="320" height="282" viewBox="0 0 320 282" fill="none" xmlns="http://www.w3.org/2000/svg">
<g clip-path="url(#clip0_904_9028)">
<path d="M266.839 101.797H264.483V37.3186C264.483 32.4178 263.517 27.565 261.641 23.0373C259.765 18.5095 257.015 14.3955 253.548 10.9302C250.081 7.4648 245.966 4.71594 241.436 2.84054C236.907 0.965138 232.052 -7.67107e-05 227.149 4.57264e-09H90.4932C80.5919 4.57266e-09 71.0961 3.93177 64.0948 10.9304C57.0935 17.929 53.1602 27.4211 53.1602 37.3186V391.046C53.1602 400.944 57.0935 410.436 64.0948 417.434C71.0961 424.433 80.5919 428.365 90.4932 428.365H227.149C237.051 428.365 246.546 424.433 253.548 417.434C260.549 410.436 264.482 400.944 264.482 391.046V147.688H266.839V101.797Z" fill="#6E736F"/>
<path d="M228.666 9.71094H210.831C211.652 11.7216 211.965 13.9032 211.744 16.0634C211.522 18.2236 210.772 20.2962 209.56 22.0984C208.348 23.9006 206.711 25.3772 204.794 26.3981C202.877 27.4189 200.737 27.9527 198.565 27.9523H120.271C118.099 27.9528 115.959 27.4191 114.042 26.3983C112.124 25.3775 110.488 23.9009 109.276 22.0986C108.064 20.2964 107.314 18.2238 107.092 16.0636C106.87 13.9033 107.183 11.7217 108.004 9.71094H91.3486C83.9544 9.71094 76.863 12.6471 71.6346 17.8736C66.4061 23.1001 63.4688 30.1887 63.4688 37.58V390.79C63.4688 394.45 64.1899 398.074 65.5909 401.455C66.992 404.836 69.0456 407.909 71.6344 410.496C74.2232 413.084 77.2966 415.137 80.6791 416.538C84.0615 417.938 87.6868 418.659 91.348 418.659H228.664C236.058 418.659 243.149 415.723 248.378 410.496C253.606 405.27 256.544 398.181 256.544 390.79V37.58C256.544 30.1893 253.607 23.1013 248.379 17.8749C243.152 12.6485 236.061 9.71187 228.668 9.71094H228.666Z" fill="#F4EEFB"/>
<rect width="192.896" height="32.3294" transform="translate(63.9414 50.1104)" fill="white"/>
<rect x="72.0234" y="59.001" width="17.7811" height="1.61647" rx="0.808235" fill="#F3CAD6"/>
<rect x="72.0234" y="65.4668" width="17.7811" height="1.61647" rx="0.808235" fill="#F3CAD6"/>
<rect x="72.0234" y="71.9326" width="17.7811" height="1.61647" rx="0.808235" fill="#F3CAD6"/>
<rect x="208.34" y="58.1929" width="16.1647" height="16.1647" rx="8.08235" fill="#F3CAD6"/>
<rect x="232.59" y="58.1929" width="16.1647" height="16.1647" rx="8.08235" fill="#D6BFF1"/>
<rect width="192.896" height="306.892" transform="translate(63.9414 82.4399)" fill="#F4EEFB"/>
<g clip-path="url(#clip1_904_9028)">
<rect x="72.8125" y="98.6045" width="175.153" height="44.4974" rx="4.20483" fill="white"/>
<path d="M72.8125 102.809C72.8125 100.487 74.6951 98.6045 77.0173 98.6045H243.76C246.083 98.6045 247.965 100.487 247.965 102.809V122.078H72.8125V102.809Z" fill="#38AC41"/>
<path d="M72.8125 102.809C72.8125 100.487 74.6951 98.6045 77.0173 98.6045H243.76C246.083 98.6045 247.965 100.487 247.965 102.809V122.078H72.8125V102.809Z" fill="white" fill-opacity="0.65"/>
<rect x="130.812" y="107.014" width="59.1461" height="6.65394" rx="3.32697" fill="white"/>
<rect x="145.672" y="130.487" width="29.4338" height="4.20483" rx="2.10242" fill="#F3CAD6"/>
</g>
<g clip-path="url(#clip2_904_9028)">
<rect width="175.153" height="127.701" transform="translate(72.8125 159.267)" fill="#38AC41"/>
<rect width="175.153" height="127.701" transform="translate(72.8125 159.267)" fill="white" fill-opacity="0.25"/>
<mask id="path-12-inside-1_904_9028" fill="white">
<path d="M72.8125 169.779H102.005V276.456H72.8125V169.779Z"/>
</mask>
<path d="M102.005 276.456H102.53V274.404H102.005H101.479V276.456H102.005ZM102.005 270.301H102.53V266.198H102.005H101.479V270.301H102.005ZM102.005 262.095H102.53V257.992H102.005H101.479V262.095H102.005ZM102.005 253.89H102.53V249.787H102.005H101.479V253.89H102.005ZM102.005 245.684H102.53V241.581H102.005H101.479V245.684H102.005ZM102.005 237.478H102.53V233.375H102.005H101.479V237.478H102.005ZM102.005 229.272H102.53V225.169H102.005H101.479V229.272H102.005ZM102.005 221.066H102.53V216.963H102.005H101.479V221.066H102.005ZM102.005 212.86H102.53V208.757H102.005H101.479V212.86H102.005ZM102.005 204.654H102.53V200.551H102.005H101.479V204.654H102.005ZM102.005 196.448H102.53V192.345H102.005H101.479V196.448H102.005ZM102.005 188.242H102.53V184.139H102.005H101.479V188.242H102.005ZM102.005 180.036H102.53V175.933H102.005H101.479V180.036H102.005ZM102.005 171.83H102.53V169.779H102.005H101.479V171.83H102.005ZM102.005 276.456H103.056V274.404H102.005H100.953V276.456H102.005ZM102.005 270.301H103.056V266.198H102.005H100.953V270.301H102.005ZM102.005 262.095H103.056V257.992H102.005H100.953V262.095H102.005ZM102.005 253.89H103.056V249.787H102.005H100.953V253.89H102.005ZM102.005 245.684H103.056V241.581H102.005H100.953V245.684H102.005ZM102.005 237.478H103.056V233.375H102.005H100.953V237.478H102.005ZM102.005 229.272H103.056V225.169H102.005H100.953V229.272H102.005ZM102.005 221.066H103.056V216.963H102.005H100.953V221.066H102.005ZM102.005 212.86H103.056V208.757H102.005H100.953V212.86H102.005ZM102.005 204.654H103.056V200.551H102.005H100.953V204.654H102.005ZM102.005 196.448H103.056V192.345H102.005H100.953V196.448H102.005ZM102.005 188.242H103.056V184.139H102.005H100.953V188.242H102.005ZM102.005 180.036H103.056V175.933H102.005H100.953V180.036H102.005ZM102.005 171.83H103.056V169.779H102.005H100.953V171.83H102.005Z" fill="#EEF7EF" mask="url(#path-12-inside-1_904_9028)"/>
<mask id="path-14-inside-2_904_9028" fill="white">
<path d="M102.004 169.779H131.196V276.456H102.004V169.779Z"/>
</mask>
<path d="M131.196 276.456H131.722V274.404H131.196H130.67V276.456H131.196ZM131.196 270.301H131.722V266.198H131.196H130.67V270.301H131.196ZM131.196 262.095H131.722V257.992H131.196H130.67V262.095H131.196ZM131.196 253.89H131.722V249.787H131.196H130.67V253.89H131.196ZM131.196 245.684H131.722V241.581H131.196H130.67V245.684H131.196ZM131.196 237.478H131.722V233.375H131.196H130.67V237.478H131.196ZM131.196 229.272H131.722V225.169H131.196H130.67V229.272H131.196ZM131.196 221.066H131.722V216.963H131.196H130.67V221.066H131.196ZM131.196 212.86H131.722V208.757H131.196H130.67V212.86H131.196ZM131.196 204.654H131.722V200.551H131.196H130.67V204.654H131.196ZM131.196 196.448H131.722V192.345H131.196H130.67V196.448H131.196ZM131.196 188.242H131.722V184.139H131.196H130.67V188.242H131.196ZM131.196 180.036H131.722V175.933H131.196H130.67V180.036H131.196ZM131.196 171.83H131.722V169.779H131.196H130.67V171.83H131.196ZM131.196 276.456H132.247V274.404H131.196H130.145V276.456H131.196ZM131.196 270.301H132.247V266.198H131.196H130.145V270.301H131.196ZM131.196 262.095H132.247V257.992H131.196H130.145V262.095H131.196ZM131.196 253.89H132.247V249.787H131.196H130.145V253.89H131.196ZM131.196 245.684H132.247V241.581H131.196H130.145V245.684H131.196ZM131.196 237.478H132.247V233.375H131.196H130.145V237.478H131.196ZM131.196 229.272H132.247V225.169H131.196H130.145V229.272H131.196ZM131.196 221.066H132.247V216.963H131.196H130.145V221.066H131.196ZM131.196 212.86H132.247V208.757H131.196H130.145V212.86H131.196ZM131.196 204.654H132.247V200.551H131.196H130.145V204.654H131.196ZM131.196 196.448H132.247V192.345H131.196H130.145V196.448H131.196ZM131.196 188.242H132.247V184.139H131.196H130.145V188.242H131.196ZM131.196 180.036H132.247V175.933H131.196H130.145V180.036H131.196ZM131.196 171.83H132.247V169.779H131.196H130.145V171.83H131.196Z" fill="#EEF7EF" mask="url(#path-14-inside-2_904_9028)"/>
<mask id="path-16-inside-3_904_9028" fill="white">
<path d="M131.195 169.779H160.387V276.456H131.195V169.779Z"/>
</mask>
<path d="M160.387 276.456H160.913V274.404H160.387H159.862V276.456H160.387ZM160.387 270.301H160.913V266.198H160.387H159.862V270.301H160.387ZM160.387 262.095H160.913V257.992H160.387H159.862V262.095H160.387ZM160.387 253.89H160.913V249.787H160.387H159.862V253.89H160.387ZM160.387 245.684H160.913V241.581H160.387H159.862V245.684H160.387ZM160.387 237.478H160.913V233.375H160.387H159.862V237.478H160.387ZM160.387 229.272H160.913V225.169H160.387H159.862V229.272H160.387ZM160.387 221.066H160.913V216.963H160.387H159.862V221.066H160.387ZM160.387 212.86H160.913V208.757H160.387H159.862V212.86H160.387ZM160.387 204.654H160.913V200.551H160.387H159.862V204.654H160.387ZM160.387 196.448H160.913V192.345H160.387H159.862V196.448H160.387ZM160.387 188.242H160.913V184.139H160.387H159.862V188.242H160.387ZM160.387 180.036H160.913V175.933H160.387H159.862V180.036H160.387ZM160.387 171.83H160.913V169.779H160.387H159.862V171.83H160.387ZM160.387 276.456H161.439V274.404H160.387H159.336V276.456H160.387ZM160.387 270.301H161.439V266.198H160.387H159.336V270.301H160.387ZM160.387 262.095H161.439V257.992H160.387H159.336V262.095H160.387ZM160.387 253.89H161.439V249.787H160.387H159.336V253.89H160.387ZM160.387 245.684H161.439V241.581H160.387H159.336V245.684H160.387ZM160.387 237.478H161.439V233.375H160.387H159.336V237.478H160.387ZM160.387 229.272H161.439V225.169H160.387H159.336V229.272H160.387ZM160.387 221.066H161.439V216.963H160.387H159.336V221.066H160.387ZM160.387 212.86H161.439V208.757H160.387H159.336V212.86H160.387ZM160.387 204.654H161.439V200.551H160.387H159.336V204.654H160.387ZM160.387 196.448H161.439V192.345H160.387H159.336V196.448H160.387ZM160.387 188.242H161.439V184.139H160.387H159.336V188.242H160.387ZM160.387 180.036H161.439V175.933H160.387H159.336V180.036H160.387ZM160.387 171.83H161.439V169.779H160.387H159.336V171.83H160.387Z" fill="#EEF7EF" mask="url(#path-16-inside-3_904_9028)"/>
<mask id="path-18-inside-4_904_9028" fill="white">
<path d="M160.391 169.779H189.583V276.456H160.391V169.779Z"/>
</mask>
<path d="M189.583 276.456H190.108V274.404H189.583H189.057V276.456H189.583ZM189.583 270.301H190.108V266.198H189.583H189.057V270.301H189.583ZM189.583 262.095H190.108V257.992H189.583H189.057V262.095H189.583ZM189.583 253.89H190.108V249.787H189.583H189.057V253.89H189.583ZM189.583 245.684H190.108V241.581H189.583H189.057V245.684H189.583ZM189.583 237.478H190.108V233.375H189.583H189.057V237.478H189.583ZM189.583 229.272H190.108V225.169H189.583H189.057V229.272H189.583ZM189.583 221.066H190.108V216.963H189.583H189.057V221.066H189.583ZM189.583 212.86H190.108V208.757H189.583H189.057V212.86H189.583ZM189.583 204.654H190.108V200.551H189.583H189.057V204.654H189.583ZM189.583 196.448H190.108V192.345H189.583H189.057V196.448H189.583ZM189.583 188.242H190.108V184.139H189.583H189.057V188.242H189.583ZM189.583 180.036H190.108V175.933H189.583H189.057V180.036H189.583ZM189.583 171.83H190.108V169.779H189.583H189.057V171.83H189.583ZM189.583 276.456H190.634V274.404H189.583H188.532V276.456H189.583ZM189.583 270.301H190.634V266.198H189.583H188.532V270.301H189.583ZM189.583 262.095H190.634V257.992H189.583H188.532V262.095H189.583ZM189.583 253.89H190.634V249.787H189.583H188.532V253.89H189.583ZM189.583 245.684H190.634V241.581H189.583H188.532V245.684H189.583ZM189.583 237.478H190.634V233.375H189.583H188.532V237.478H189.583ZM189.583 229.272H190.634V225.169H189.583H188.532V229.272H189.583ZM189.583 221.066H190.634V216.963H189.583H188.532V221.066H189.583ZM189.583 212.86H190.634V208.757H189.583H188.532V212.86H189.583ZM189.583 204.654H190.634V200.551H189.583H188.532V204.654H189.583ZM189.583 196.448H190.634V192.345H189.583H188.532V196.448H189.583ZM189.583 188.242H190.634V184.139H189.583H188.532V188.242H189.583ZM189.583 180.036H190.634V175.933H189.583H188.532V180.036H189.583ZM189.583 171.83H190.634V169.779H189.583H188.532V171.83H189.583Z" fill="#EEF7EF" mask="url(#path-18-inside-4_904_9028)"/>
<mask id="path-20-inside-5_904_9028" fill="white">
<path d="M189.582 169.779H218.774V276.456H189.582V169.779Z"/>
</mask>
<path d="M218.774 276.456H219.3V274.404H218.774H218.249V276.456H218.774ZM218.774 270.301H219.3V266.198H218.774H218.249V270.301H218.774ZM218.774 262.095H219.3V257.992H218.774H218.249V262.095H218.774ZM218.774 253.89H219.3V249.787H218.774H218.249V253.89H218.774ZM218.774 245.684H219.3V241.581H218.774H218.249V245.684H218.774ZM218.774 237.478H219.3V233.375H218.774H218.249V237.478H218.774ZM218.774 229.272H219.3V225.169H218.774H218.249V229.272H218.774ZM218.774 221.066H219.3V216.963H218.774H218.249V221.066H218.774ZM218.774 212.86H219.3V208.757H218.774H218.249V212.86H218.774ZM218.774 204.654H219.3V200.551H218.774H218.249V204.654H218.774ZM218.774 196.448H219.3V192.345H218.774H218.249V196.448H218.774ZM218.774 188.242H219.3V184.139H218.774H218.249V188.242H218.774ZM218.774 180.036H219.3V175.933H218.774H218.249V180.036H218.774ZM218.774 171.83H219.3V169.779H218.774H218.249V171.83H218.774ZM218.774 276.456H219.825V274.404H218.774H217.723V276.456H218.774ZM218.774 270.301H219.825V266.198H218.774H217.723V270.301H218.774ZM218.774 262.095H219.825V257.992H218.774H217.723V262.095H218.774ZM218.774 253.89H219.825V249.787H218.774H217.723V253.89H218.774ZM218.774 245.684H219.825V241.581H218.774H217.723V245.684H218.774ZM218.774 237.478H219.825V233.375H218.774H217.723V237.478H218.774ZM218.774 229.272H219.825V225.169H218.774H217.723V229.272H218.774ZM218.774 221.066H219.825V216.963H218.774H217.723V221.066H218.774ZM218.774 212.86H219.825V208.757H218.774H217.723V212.86H218.774ZM218.774 204.654H219.825V200.551H218.774H217.723V204.654H218.774ZM218.774 196.448H219.825V192.345H218.774H217.723V196.448H218.774ZM218.774 188.242H219.825V184.139H218.774H217.723V188.242H218.774ZM218.774 180.036H219.825V175.933H218.774H217.723V180.036H218.774ZM218.774 171.83H219.825V169.779H218.774H217.723V171.83H218.774Z" fill="#EEF7EF" mask="url(#path-20-inside-5_904_9028)"/>
<path d="M101.839 253.581L72.8125 246.581V287.219H247.966V212.583L218.691 239.582L189.664 228.082L159.893 239.582L130.866 229.582L101.839 253.581Z" fill="white" fill-opacity="0.5"/>
</g>
</g>
<defs>
<clipPath id="clip0_904_9028">
<rect width="320" height="282" fill="white"/>
</clipPath>
<clipPath id="clip1_904_9028">
<rect x="72.8125" y="98.6045" width="175.153" height="44.4974" rx="4.20483" fill="white"/>
</clipPath>
<clipPath id="clip2_904_9028">
<rect width="175.153" height="127.701" fill="white" transform="translate(72.8125 159.267)"/>
</clipPath>
</defs>
</svg>
