<svg width="194" height="171" viewBox="0 0 194 171" fill="none" xmlns="http://www.w3.org/2000/svg">
<g filter="url(#filter0_d_904_9209)">
<path d="M106.013 25.7863L70.8658 22.9702L68.823 22.8071L63.0352 94.6537L94.5545 97.1769L100.226 97.6296L106.013 25.783V25.7863ZM65.3516 92.6931L68.6928 51.2142L70.7957 25.1172L103.704 27.7536L98.2628 95.3295L90.766 94.7303L65.3583 92.6965L65.3516 92.6931Z" fill="#D6F5AB"/>
<path d="M103.7 27.7506L70.7917 25.1143L68.6888 51.2112L65.3477 92.6901L90.7554 94.724L98.2522 95.3231L103.693 27.7473L103.7 27.7506ZM72.6409 91.1256C72.8612 88.3861 70.8117 85.9828 68.0647 85.7631L70.0273 61.3771L72.3638 32.3841C75.1109 32.6038 77.5208 30.56 77.7411 27.8205L96.4097 29.3151C96.1894 32.0546 98.2389 34.4579 100.986 34.6776L96.6868 88.0566C93.9397 87.8369 91.5298 89.8807 91.3095 92.6202L87.6712 92.3273L72.6409 91.1223V91.1256Z" fill="#56992C"/>
<path d="M96.6846 88.0593L100.984 34.6804C98.2367 34.4607 96.1872 32.0607 96.4075 29.3178L77.7389 27.8232C77.5186 30.5628 75.112 32.6066 72.3617 32.3869L70.0252 61.3798L68.0625 85.7659C70.8096 85.9856 72.859 88.3856 72.6387 91.1284L87.669 92.3334L91.3073 92.6263C91.5276 89.8868 93.9342 87.843 96.6846 88.0627V88.0593Z" fill="#D6F5AB"/>
<path d="M85.8641 43.595C84.3887 43.4785 83.2872 42.187 83.4074 40.7157C83.5242 39.2444 84.8193 38.1459 86.2946 38.2658C87.77 38.3823 88.8715 39.6738 88.7513 41.1451C88.6345 42.6164 87.3394 43.7149 85.8641 43.595Z" fill="#56992C"/>
<path d="M89.1239 69.2228C94.106 66.688 96.0842 60.6055 93.5425 55.6371C91.0007 50.6686 84.9014 48.6958 79.9193 51.2306C74.9372 53.7654 72.959 59.848 75.5007 64.8164C78.0425 69.7848 84.1418 71.7577 89.1239 69.2228Z" fill="#56992C"/>
<path d="M82.7547 82.178C81.2794 82.0615 80.1779 80.77 80.298 79.2987C80.4182 77.8274 81.7099 76.729 83.1853 76.8488C84.6606 76.9653 85.7621 78.2568 85.6419 79.7281C85.5251 81.1994 84.23 82.2979 82.7547 82.178Z" fill="#56992C"/>
<path d="M85.6172 61.207C86.208 60.1618 86.5752 59.5726 87.2594 59.6258C87.897 59.6758 88.2274 60.1185 88.1707 60.8375C88.1139 61.5465 87.8469 61.906 87.2761 62.4386L86.8522 62.8347L88.3042 64.4524L88.698 64.1196C89.2321 63.6669 89.8596 63.0244 90.1734 61.9825L91.8523 62.1157L92.0259 59.952L90.3069 59.8156C90.1867 59.1498 89.9063 58.564 89.4824 58.1013C88.9484 57.5188 88.2274 57.1759 87.3929 57.1093C85.4269 56.9529 84.5391 58.4641 83.8248 59.6824C83.1639 60.8108 82.7133 61.4966 81.8488 61.4267C81.1044 61.3667 80.7773 60.9074 80.8474 60.0186C80.9075 59.2763 81.2613 58.5873 81.9622 57.8483L82.3928 57.3956L80.7039 55.9609L80.3567 56.2971C79.6525 56.9795 79.105 57.9215 78.8347 58.8935L77.1658 58.7604L76.9922 60.924L78.7078 61.0605C78.9815 62.7015 80.1298 63.81 81.7386 63.9398C83.9716 64.1196 84.9229 62.4319 85.6205 61.2003L85.6172 61.207Z" fill="#D6F5AB"/>
<path opacity="0.15" d="M80.3835 85.3534L75.3867 84.5445L93.6281 24.7944L95.8377 24.9742L80.3835 85.3534Z" fill="black"/>
<path d="M134.314 26.8349L100.582 16.5958L98.6227 16L77.5742 84.954L107.825 94.1378L113.266 95.7889L134.314 26.8349ZM80.2512 83.5293L92.4043 43.7214L100.051 18.6729L131.634 28.2596L111.837 93.1159L104.641 90.9323L80.2545 83.5293H80.2512Z" fill="#D6F5AB"/>
<path d="M131.633 28.2629L100.05 18.6763L92.4031 43.7247L80.25 83.5326L104.636 90.9356L111.833 93.1192L131.63 28.2629H131.633ZM87.7134 83.5526C88.5179 80.9229 87.0292 78.1401 84.3923 77.3412L91.5353 53.9372L100.03 26.1126C102.667 26.9148 105.457 25.4302 106.259 22.8005L124.176 28.2396C123.372 30.8693 124.86 33.6521 127.497 34.451L111.859 85.6796C109.223 84.8774 106.432 86.362 105.631 88.9917L102.14 87.9298L87.7134 83.5492V83.5526Z" fill="#56992C"/>
<path d="M111.862 85.6799L127.5 34.4512C124.863 33.649 123.374 30.8695 124.178 28.2399L106.261 22.8008C105.456 25.4305 102.669 26.9151 100.032 26.1128L91.5375 53.9374L84.3945 77.3415C87.0314 78.1437 88.5201 80.9232 87.7157 83.5528L102.142 87.9334L105.633 88.9952C106.438 86.3656 109.225 84.881 111.862 85.6832V85.6799Z" fill="#D6F5AB"/>
<path d="M110.817 39.9363C109.402 39.5069 108.604 38.0123 109.035 36.601C109.465 35.1896 110.964 34.394 112.379 34.8234C113.794 35.2528 114.592 36.7474 114.162 38.1588C113.731 39.5702 112.232 40.3657 110.817 39.9363Z" fill="#56992C"/>
<path d="M108.839 65.5667C114.199 63.9732 117.249 58.3483 115.651 53.0031C114.053 47.6579 108.413 44.6165 103.053 46.21C97.6927 47.8034 94.643 53.4284 96.2408 58.7736C97.8387 64.1188 103.479 67.1602 108.839 65.5667Z" fill="#56992C"/>
<path d="M99.5124 76.9646C98.0972 76.5352 97.2994 75.0407 97.73 73.6293C98.1606 72.2179 99.6593 71.4224 101.075 71.8518C102.49 72.2812 103.288 73.7757 102.857 75.1871C102.426 76.5985 100.928 77.394 99.5124 76.9646Z" fill="#56992C"/>
<path d="M106.801 57.0929C107.602 56.1975 108.089 55.6982 108.744 55.8979C109.354 56.0843 109.585 56.5869 109.375 57.276C109.168 57.955 108.83 58.2479 108.156 58.6507L107.659 58.947L108.73 60.8377L109.188 60.5947C109.805 60.2651 110.556 59.7725 111.087 58.8238L112.699 59.3131L113.333 57.236L111.684 56.7367C111.708 56.061 111.561 55.4285 111.247 54.886C110.85 54.2036 110.219 53.7143 109.418 53.4713C107.532 52.8987 106.337 54.1869 105.379 55.2222C104.491 56.1841 103.904 56.76 103.073 56.507C102.358 56.2907 102.135 55.7714 102.395 54.9192C102.612 54.2069 103.106 53.6111 103.947 53.0385L104.465 52.6857L103.119 50.9248L102.709 51.1778C101.878 51.6937 101.14 52.4993 100.666 53.3914L99.0639 52.9054L98.4297 54.9825L100.075 55.4818C99.9885 57.1428 100.873 58.471 102.418 58.9403C104.561 59.5894 105.853 58.1447 106.798 57.0929H106.801Z" fill="#D6F5AB"/>
<path opacity="0.15" d="M133.922 26.7185L131.556 25.9995L92.8398 76.8986L96.5883 79.7347L133.922 26.7185Z" fill="black"/>
<path d="M167.996 43.0425L139.901 21.7921L138.269 20.5571L94.5898 77.9838L119.784 97.0406L124.317 100.469L167.996 43.0425ZM97.6006 77.5711L122.818 44.4172L138.683 23.5563L164.985 43.4519L123.903 97.4667L117.911 92.933L97.6006 77.5711Z" fill="#D6F5AB"/>
<path d="M164.986 43.4523L138.684 23.5566L122.819 44.4176L97.6016 77.5714L117.912 92.9333L123.904 97.467L164.986 43.4523ZM104.588 80.1678C106.253 77.9775 105.823 74.8552 103.626 73.1908L118.453 53.698L136.08 30.5236C138.277 32.1846 141.408 31.7552 143.076 29.5649L158 40.8526C156.334 43.0428 156.765 46.1651 158.961 47.8295L126.511 90.4967C124.314 88.8357 121.183 89.2651 119.515 91.4554L116.607 89.2551L104.594 80.1678H104.588Z" fill="#56992C"/>
<path d="M126.505 90.5002L158.956 47.8329C156.76 46.1719 156.329 43.0496 157.995 40.856L143.071 29.5684C141.406 31.7586 138.275 32.188 136.075 30.527L118.448 53.7014L103.621 73.1943C105.817 74.8553 106.248 77.9776 104.582 80.1712L116.595 89.2586L119.503 91.4588C121.168 89.2685 124.299 88.8391 126.499 90.5002H126.505Z" fill="#D6F5AB"/>
<path d="M141.399 47.2235C140.221 46.3314 139.991 44.6537 140.885 43.4787C141.78 42.3037 143.462 42.074 144.64 42.9661C145.818 43.8582 146.049 45.5358 145.154 46.7109C144.26 47.8859 142.577 48.1156 141.399 47.2235Z" fill="#56992C"/>
<path d="M132.221 70.5604C137.791 70.0471 141.888 65.1286 141.374 59.5746C140.859 54.0206 135.927 49.9343 130.358 50.4476C124.788 50.9609 120.691 55.8794 121.205 61.4334C121.72 66.9874 126.652 71.0737 132.221 70.5604Z" fill="#56992C"/>
<path d="M117.946 78.0604C116.768 77.1683 116.537 75.4907 117.432 74.3156C118.326 73.1406 120.009 72.9109 121.187 73.803C122.365 74.6951 122.596 76.3728 121.701 77.5478C120.807 78.7228 119.124 78.9525 117.946 78.0604Z" fill="#56992C"/>
<path d="M131.677 61.9295C132.738 61.3669 133.369 61.0674 133.913 61.4801C134.424 61.8662 134.464 62.4155 134.026 62.9913C133.596 63.5572 133.179 63.717 132.408 63.8601L131.837 63.9667L132.184 66.1103L132.695 66.0404C133.389 65.9472 134.263 65.7408 135.091 65.0352L136.433 66.0504L137.748 64.3195L136.373 63.2809C136.63 62.6551 136.71 62.0094 136.603 61.3936C136.47 60.6146 136.046 59.9389 135.378 59.4363C133.806 58.2479 132.241 59.0468 130.982 59.6859C129.817 60.2818 129.066 60.618 128.372 60.0954C127.778 59.646 127.748 59.0801 128.289 58.3711C128.739 57.7786 129.41 57.3891 130.398 57.1428L131.006 56.993L130.355 54.876L129.881 54.9725C128.919 55.1689 127.951 55.6682 127.197 56.3439L125.862 55.3353L124.547 57.0663L125.919 58.1048C125.261 59.6327 125.632 61.1839 126.917 62.1592C128.699 63.5073 130.415 62.5986 131.667 61.9361L131.677 61.9295Z" fill="#D6F5AB"/>
<path d="M33.5498 135.051H122.57V120.624L33.5498 120.624V135.051Z" fill="#93D166"/>
<path d="M61.1912 135.051H94.9336V120.624H61.1912V135.051Z" fill="#FFF5C7"/>
<path d="M90.9184 135.051H92.6641V120.624H90.9184V135.051Z" fill="#FFD102"/>
<path d="M63.4652 135.05H65.2109V120.624H63.4652V135.05Z" fill="#FFD102"/>
<path opacity="0.14" d="M122.571 120.628H33.5508V123.724H122.571V120.628Z" fill="black"/>
<path d="M25.999 120.628L115.02 120.628V106.201L25.999 106.201V120.628Z" fill="#93D166"/>
<path d="M53.6366 120.628H87.3789V106.201H53.6366V120.628Z" fill="#FFF5C7"/>
<path d="M83.3637 120.627H85.1094V106.201H83.3637V120.627Z" fill="#FFD102"/>
<path d="M55.9106 120.627H57.6562V106.201H55.9106V120.627Z" fill="#FFD102"/>
<path opacity="0.14" d="M115.021 106.201H26V109.297H115.021V106.201Z" fill="black"/>
<path d="M46.4053 106.201L135.426 106.201V91.7746L46.4053 91.7746V106.201Z" fill="#93D166"/>
<path d="M74.0389 106.201H107.781V91.7746H74.0389V106.201Z" fill="#FFF5C7"/>
<path d="M103.766 106.201H105.512V91.7741H103.766V106.201Z" fill="#FFD102"/>
<path d="M76.3129 106.201H78.0586V91.7741H76.3129V106.201Z" fill="#FFD102"/>
<path opacity="0.14" d="M135.423 91.7778H46.4023V94.8735H135.423V91.7778Z" fill="black"/>
<path d="M46.4053 91.7783L135.426 91.7783V77.3517L46.4053 77.3517V91.7783Z" fill="#93D166"/>
<path d="M74.0389 91.7783H107.781V77.3517H74.0389V91.7783Z" fill="#FFF5C7"/>
<path d="M103.766 91.7778H105.512V77.3513H103.766V91.7778Z" fill="#FFD102"/>
<path d="M76.3129 91.7778H78.0586V77.3513H76.3129V91.7778Z" fill="#FFD102"/>
<path opacity="0.14" d="M135.423 77.3516H46.4023V80.4473H135.423V77.3516Z" fill="black"/>
<path opacity="0.15" d="M114.348 117.235V117.841V125.75V126.359H104.578V126.965V134.874V135.483H147.653V134.874V126.965V126.359H157.42V125.75V117.841V117.235H114.348Z" fill="black"/>
<path opacity="0.15" d="M111.763 80.743V81.3489V89.2578V89.867H109.173V90.4728V98.3818V98.9876H107.17V99.5968V107.506V108.112H109.466V108.721V116.63V117.236H152.538V116.63V108.721V108.112H150.242V107.506V99.5968V98.9876H152.248V98.3818V90.4728V89.867H154.834V89.2578V81.3489V80.743H148.9V80.1339V72.2249V71.6191H151.39V71.0133V63.1009V62.4951H108.318V63.1009V71.0133V71.6191H105.828V72.2249V80.1339V80.743H111.763Z" fill="black"/>
<path d="M149.388 126.359H106.316V135.483H149.388V126.359Z" fill="#FFD102"/>
<path d="M106.316 134.874V135.483H149.388V134.874H106.316Z" fill="#FDA902"/>
<path d="M106.316 126.359V126.965H149.388V126.359H106.316Z" fill="#FFE261"/>
<path d="M108.424 127.947H108.254C108.14 127.947 108.047 128.04 108.047 128.154V133.686C108.047 133.8 108.14 133.892 108.254 133.892H108.424C108.538 133.892 108.631 133.8 108.631 133.686V128.154C108.631 128.04 108.538 127.947 108.424 127.947Z" fill="#FFE261"/>
<path d="M110.717 127.947H110.547C110.432 127.947 110.34 128.04 110.34 128.154V133.686C110.34 133.8 110.432 133.892 110.547 133.892H110.717C110.831 133.892 110.924 133.8 110.924 133.686V128.154C110.924 128.04 110.831 127.947 110.717 127.947Z" fill="#FFE261"/>
<path d="M113.014 127.947H112.844C112.729 127.947 112.637 128.04 112.637 128.154V133.686C112.637 133.8 112.729 133.892 112.844 133.892H113.014C113.128 133.892 113.221 133.8 113.221 133.686V128.154C113.221 128.04 113.128 127.947 113.014 127.947Z" fill="#FFE261"/>
<path d="M115.311 127.947H115.141C115.026 127.947 114.934 128.04 114.934 128.154V133.686C114.934 133.8 115.026 133.892 115.141 133.892H115.311C115.425 133.892 115.518 133.8 115.518 133.686V128.154C115.518 128.04 115.425 127.947 115.311 127.947Z" fill="#FFE261"/>
<path d="M117.608 127.947H117.437C117.323 127.947 117.23 128.04 117.23 128.154V133.686C117.23 133.8 117.323 133.892 117.437 133.892H117.608C117.722 133.892 117.815 133.8 117.815 133.686V128.154C117.815 128.04 117.722 127.947 117.608 127.947Z" fill="#FFE261"/>
<path d="M119.905 127.947H119.734C119.62 127.947 119.527 128.04 119.527 128.154V133.686C119.527 133.8 119.62 133.892 119.734 133.892H119.905C120.019 133.892 120.111 133.8 120.111 133.686V128.154C120.111 128.04 120.019 127.947 119.905 127.947Z" fill="#FFE261"/>
<path d="M122.201 127.947H122.031C121.917 127.947 121.824 128.04 121.824 128.154V133.686C121.824 133.8 121.917 133.892 122.031 133.892H122.201C122.316 133.892 122.408 133.8 122.408 133.686V128.154C122.408 128.04 122.316 127.947 122.201 127.947Z" fill="#FFE261"/>
<path d="M124.498 127.947H124.328C124.214 127.947 124.121 128.04 124.121 128.154V133.686C124.121 133.8 124.214 133.892 124.328 133.892H124.498C124.613 133.892 124.705 133.8 124.705 133.686V128.154C124.705 128.04 124.613 127.947 124.498 127.947Z" fill="#FFE261"/>
<path d="M126.791 127.947H126.621C126.507 127.947 126.414 128.04 126.414 128.154V133.686C126.414 133.8 126.507 133.892 126.621 133.892H126.791C126.906 133.892 126.998 133.8 126.998 133.686V128.154C126.998 128.04 126.906 127.947 126.791 127.947Z" fill="#FFE261"/>
<path d="M129.084 127.947H128.914C128.8 127.947 128.707 128.04 128.707 128.154V133.686C128.707 133.8 128.8 133.892 128.914 133.892H129.084C129.198 133.892 129.291 133.8 129.291 133.686V128.154C129.291 128.04 129.198 127.947 129.084 127.947Z" fill="#FFE261"/>
<path d="M131.385 127.947H131.215C131.1 127.947 131.008 128.04 131.008 128.154V133.686C131.008 133.8 131.1 133.892 131.215 133.892H131.385C131.499 133.892 131.592 133.8 131.592 133.686V128.154C131.592 128.04 131.499 127.947 131.385 127.947Z" fill="#FFE261"/>
<path d="M133.678 127.947H133.508C133.393 127.947 133.301 128.04 133.301 128.154V133.686C133.301 133.8 133.393 133.892 133.508 133.892H133.678C133.792 133.892 133.885 133.8 133.885 133.686V128.154C133.885 128.04 133.792 127.947 133.678 127.947Z" fill="#FFE261"/>
<path d="M135.975 127.947H135.805C135.69 127.947 135.598 128.04 135.598 128.154V133.686C135.598 133.8 135.69 133.892 135.805 133.892H135.975C136.089 133.892 136.182 133.8 136.182 133.686V128.154C136.182 128.04 136.089 127.947 135.975 127.947Z" fill="#FFE261"/>
<path d="M138.272 127.947H138.101C137.987 127.947 137.895 128.04 137.895 128.154V133.686C137.895 133.8 137.987 133.892 138.101 133.892H138.272C138.386 133.892 138.479 133.8 138.479 133.686V128.154C138.479 128.04 138.386 127.947 138.272 127.947Z" fill="#FFE261"/>
<path d="M140.569 127.947H140.398C140.284 127.947 140.191 128.04 140.191 128.154V133.686C140.191 133.8 140.284 133.892 140.398 133.892H140.569C140.683 133.892 140.776 133.8 140.776 133.686V128.154C140.776 128.04 140.683 127.947 140.569 127.947Z" fill="#FFE261"/>
<path d="M142.865 127.947H142.695C142.581 127.947 142.488 128.04 142.488 128.154V133.686C142.488 133.8 142.581 133.892 142.695 133.892H142.865C142.98 133.892 143.072 133.8 143.072 133.686V128.154C143.072 128.04 142.98 127.947 142.865 127.947Z" fill="#FFE261"/>
<path d="M145.162 127.947H144.992C144.878 127.947 144.785 128.04 144.785 128.154V133.686C144.785 133.8 144.878 133.892 144.992 133.892H145.162C145.277 133.892 145.369 133.8 145.369 133.686V128.154C145.369 128.04 145.277 127.947 145.162 127.947Z" fill="#FFE261"/>
<path d="M147.459 127.947H147.289C147.175 127.947 147.082 128.04 147.082 128.154V133.686C147.082 133.8 147.175 133.892 147.289 133.892H147.459C147.574 133.892 147.666 133.8 147.666 133.686V128.154C147.666 128.04 147.574 127.947 147.459 127.947Z" fill="#FFE261"/>
<path opacity="0.07" d="M149.389 126.359H132.383V135.483H149.389V126.359Z" fill="#FF0000"/>
<path opacity="0.27" d="M118.86 126.359H109.711V135.483H118.86V126.359Z" fill="#FDFDFD"/>
<path d="M159.161 117.235H116.086V126.359H159.161V117.235Z" fill="#FFD102"/>
<path d="M116.086 125.75V126.359H159.161V125.75H116.086Z" fill="#FDA902"/>
<path d="M116.086 117.235V117.841H159.161V117.235H116.086Z" fill="#FFE261"/>
<path d="M118.19 118.826H118.019C117.905 118.826 117.812 118.919 117.812 119.033V124.565C117.812 124.679 117.905 124.771 118.019 124.771H118.19C118.304 124.771 118.397 124.679 118.397 124.565V119.033C118.397 118.919 118.304 118.826 118.19 118.826Z" fill="#FFE261"/>
<path d="M120.487 118.826H120.316C120.202 118.826 120.109 118.919 120.109 119.033V124.565C120.109 124.679 120.202 124.771 120.316 124.771H120.487C120.601 124.771 120.693 124.679 120.693 124.565V119.033C120.693 118.919 120.601 118.826 120.487 118.826Z" fill="#FFE261"/>
<path d="M122.783 118.826H122.613C122.499 118.826 122.406 118.919 122.406 119.033V124.565C122.406 124.679 122.499 124.771 122.613 124.771H122.783C122.898 124.771 122.99 124.679 122.99 124.565V119.033C122.99 118.919 122.898 118.826 122.783 118.826Z" fill="#FFE261"/>
<path d="M125.076 118.826H124.906C124.792 118.826 124.699 118.919 124.699 119.033V124.565C124.699 124.679 124.792 124.771 124.906 124.771H125.076C125.191 124.771 125.283 124.679 125.283 124.565V119.033C125.283 118.919 125.191 118.826 125.076 118.826Z" fill="#FFE261"/>
<path d="M127.377 118.826H127.207C127.093 118.826 127 118.919 127 119.033V124.565C127 124.679 127.093 124.771 127.207 124.771H127.377C127.491 124.771 127.584 124.679 127.584 124.565V119.033C127.584 118.919 127.491 118.826 127.377 118.826Z" fill="#FFE261"/>
<path d="M129.674 118.826H129.504C129.39 118.826 129.297 118.919 129.297 119.033V124.565C129.297 124.679 129.39 124.771 129.504 124.771H129.674C129.788 124.771 129.881 124.679 129.881 124.565V119.033C129.881 118.919 129.788 118.826 129.674 118.826Z" fill="#FFE261"/>
<path d="M131.967 118.826H131.797C131.683 118.826 131.59 118.919 131.59 119.033V124.565C131.59 124.679 131.683 124.771 131.797 124.771H131.967C132.081 124.771 132.174 124.679 132.174 124.565V119.033C132.174 118.919 132.081 118.826 131.967 118.826Z" fill="#FFE261"/>
<path d="M134.264 118.826H134.094C133.979 118.826 133.887 118.919 133.887 119.033V124.565C133.887 124.679 133.979 124.771 134.094 124.771H134.264C134.378 124.771 134.471 124.679 134.471 124.565V119.033C134.471 118.919 134.378 118.826 134.264 118.826Z" fill="#FFE261"/>
<path d="M136.391 118.826H136.561C136.674 118.826 136.768 118.919 136.768 119.033V124.565C136.768 124.678 136.674 124.771 136.561 124.771H136.391C136.277 124.771 136.184 124.678 136.184 124.565V119.033C136.184 118.919 136.277 118.826 136.391 118.826Z" fill="#FFE261"/>
<path d="M138.858 118.826H138.687C138.573 118.826 138.48 118.919 138.48 119.033V124.565C138.48 124.679 138.573 124.771 138.687 124.771H138.858C138.972 124.771 139.065 124.679 139.065 124.565V119.033C139.065 118.919 138.972 118.826 138.858 118.826Z" fill="#FFE261"/>
<path d="M141.151 118.826H140.98C140.866 118.826 140.773 118.919 140.773 119.033V124.565C140.773 124.679 140.866 124.771 140.98 124.771H141.151C141.265 124.771 141.358 124.679 141.358 124.565V119.033C141.358 118.919 141.265 118.826 141.151 118.826Z" fill="#FFE261"/>
<path d="M143.451 118.826H143.281C143.167 118.826 143.074 118.919 143.074 119.033V124.565C143.074 124.679 143.167 124.771 143.281 124.771H143.451C143.566 124.771 143.658 124.679 143.658 124.565V119.033C143.658 118.919 143.566 118.826 143.451 118.826Z" fill="#FFE261"/>
<path d="M145.748 118.826H145.578C145.464 118.826 145.371 118.919 145.371 119.033V124.565C145.371 124.679 145.464 124.771 145.578 124.771H145.748C145.863 124.771 145.955 124.679 145.955 124.565V119.033C145.955 118.919 145.863 118.826 145.748 118.826Z" fill="#FFE261"/>
<path d="M148.041 118.826H147.871C147.757 118.826 147.664 118.919 147.664 119.033V124.565C147.664 124.679 147.757 124.771 147.871 124.771H148.041C148.156 124.771 148.248 124.679 148.248 124.565V119.033C148.248 118.919 148.156 118.826 148.041 118.826Z" fill="#FFE261"/>
<path d="M150.338 118.826H150.168C150.054 118.826 149.961 118.919 149.961 119.033V124.565C149.961 124.679 150.054 124.771 150.168 124.771H150.338C150.452 124.771 150.545 124.679 150.545 124.565V119.033C150.545 118.919 150.452 118.826 150.338 118.826Z" fill="#FFE261"/>
<path d="M152.635 118.826H152.465C152.35 118.826 152.258 118.919 152.258 119.033V124.565C152.258 124.679 152.35 124.771 152.465 124.771H152.635C152.749 124.771 152.842 124.679 152.842 124.565V119.033C152.842 118.919 152.749 118.826 152.635 118.826Z" fill="#FFE261"/>
<path d="M154.932 118.826H154.762C154.647 118.826 154.555 118.919 154.555 119.033V124.565C154.555 124.679 154.647 124.771 154.762 124.771H154.932C155.046 124.771 155.139 124.679 155.139 124.565V119.033C155.139 118.919 155.046 118.826 154.932 118.826Z" fill="#FFE261"/>
<path d="M157.229 118.826H157.059C156.944 118.826 156.852 118.919 156.852 119.033V124.565C156.852 124.679 156.944 124.771 157.059 124.771H157.229C157.343 124.771 157.436 124.679 157.436 124.565V119.033C157.436 118.919 157.343 118.826 157.229 118.826Z" fill="#FFE261"/>
<path opacity="0.07" d="M159.159 117.235H142.152V126.359H159.159V117.235Z" fill="#FF0000"/>
<path opacity="0.27" d="M128.63 117.235H119.48V126.359H128.63V117.235Z" fill="#FDFDFD"/>
<path d="M154.275 108.111H111.203V117.235H154.275V108.111Z" fill="#FFD102"/>
<path d="M111.203 116.63V117.236H154.275V116.63H111.203Z" fill="#FDA902"/>
<path d="M111.203 108.111V108.72H154.275V108.111H111.203Z" fill="#FFE261"/>
<path d="M113.307 109.703H113.137C113.022 109.703 112.93 109.795 112.93 109.909V115.441C112.93 115.555 113.022 115.648 113.137 115.648H113.307C113.421 115.648 113.514 115.555 113.514 115.441V109.909C113.514 109.795 113.421 109.703 113.307 109.703Z" fill="#FFE261"/>
<path d="M115.6 109.703H115.43C115.315 109.703 115.223 109.795 115.223 109.909V115.441C115.223 115.555 115.315 115.648 115.43 115.648H115.6C115.714 115.648 115.807 115.555 115.807 115.441V109.909C115.807 109.795 115.714 109.703 115.6 109.703Z" fill="#FFE261"/>
<path d="M117.901 109.703H117.73C117.616 109.703 117.523 109.795 117.523 109.909V115.441C117.523 115.555 117.616 115.648 117.73 115.648H117.901C118.015 115.648 118.108 115.555 118.108 115.441V109.909C118.108 109.795 118.015 109.703 117.901 109.703Z" fill="#FFE261"/>
<path d="M120.197 109.703H120.027C119.913 109.703 119.82 109.795 119.82 109.909V115.441C119.82 115.555 119.913 115.648 120.027 115.648H120.197C120.312 115.648 120.404 115.555 120.404 115.441V109.909C120.404 109.795 120.312 109.703 120.197 109.703Z" fill="#FFE261"/>
<path d="M122.49 109.703H122.32C122.206 109.703 122.113 109.795 122.113 109.909V115.441C122.113 115.555 122.206 115.648 122.32 115.648H122.49C122.605 115.648 122.697 115.555 122.697 115.441V109.909C122.697 109.795 122.605 109.703 122.49 109.703Z" fill="#FFE261"/>
<path d="M124.787 109.703H124.617C124.503 109.703 124.41 109.795 124.41 109.909V115.441C124.41 115.555 124.503 115.648 124.617 115.648H124.787C124.902 115.648 124.994 115.555 124.994 115.441V109.909C124.994 109.795 124.902 109.703 124.787 109.703Z" fill="#FFE261"/>
<path d="M127.084 109.703H126.914C126.8 109.703 126.707 109.795 126.707 109.909V115.441C126.707 115.555 126.8 115.648 126.914 115.648H127.084C127.198 115.648 127.291 115.555 127.291 115.441V109.909C127.291 109.795 127.198 109.703 127.084 109.703Z" fill="#FFE261"/>
<path d="M129.381 109.703H129.211C129.097 109.703 129.004 109.795 129.004 109.909V115.441C129.004 115.555 129.097 115.648 129.211 115.648H129.381C129.495 115.648 129.588 115.555 129.588 115.441V109.909C129.588 109.795 129.495 109.703 129.381 109.703Z" fill="#FFE261"/>
<path d="M131.678 109.703H131.508C131.393 109.703 131.301 109.795 131.301 109.909V115.441C131.301 115.555 131.393 115.648 131.508 115.648H131.678C131.792 115.648 131.885 115.555 131.885 115.441V109.909C131.885 109.795 131.792 109.703 131.678 109.703Z" fill="#FFE261"/>
<path d="M133.975 109.703H133.805C133.69 109.703 133.598 109.795 133.598 109.909V115.441C133.598 115.555 133.69 115.648 133.805 115.648H133.975C134.089 115.648 134.182 115.555 134.182 115.441V109.909C134.182 109.795 134.089 109.703 133.975 109.703Z" fill="#FFE261"/>
<path d="M136.272 109.703H136.101C135.987 109.703 135.895 109.795 135.895 109.909V115.441C135.895 115.555 135.987 115.648 136.101 115.648H136.272C136.386 115.648 136.479 115.555 136.479 115.441V109.909C136.479 109.795 136.386 109.703 136.272 109.703Z" fill="#FFE261"/>
<path d="M138.569 109.703H138.398C138.284 109.703 138.191 109.795 138.191 109.909V115.441C138.191 115.555 138.284 115.648 138.398 115.648H138.569C138.683 115.648 138.776 115.555 138.776 115.441V109.909C138.776 109.795 138.683 109.703 138.569 109.703Z" fill="#FFE261"/>
<path d="M140.862 109.703H140.691C140.577 109.703 140.484 109.795 140.484 109.909V115.441C140.484 115.555 140.577 115.648 140.691 115.648H140.862C140.976 115.648 141.068 115.555 141.068 115.441V109.909C141.068 109.795 140.976 109.703 140.862 109.703Z" fill="#FFE261"/>
<path d="M143.162 109.703H142.992C142.878 109.703 142.785 109.795 142.785 109.909V115.441C142.785 115.555 142.878 115.648 142.992 115.648H143.162C143.277 115.648 143.369 115.555 143.369 115.441V109.909C143.369 109.795 143.277 109.703 143.162 109.703Z" fill="#FFE261"/>
<path d="M145.459 109.703H145.289C145.175 109.703 145.082 109.795 145.082 109.909V115.441C145.082 115.555 145.175 115.648 145.289 115.648H145.459C145.574 115.648 145.666 115.555 145.666 115.441V109.909C145.666 109.795 145.574 109.703 145.459 109.703Z" fill="#FFE261"/>
<path d="M147.752 109.703H147.582C147.468 109.703 147.375 109.795 147.375 109.909V115.441C147.375 115.555 147.468 115.648 147.582 115.648H147.752C147.866 115.648 147.959 115.555 147.959 115.441V109.909C147.959 109.795 147.866 109.703 147.752 109.703Z" fill="#FFE261"/>
<path d="M149.879 109.703H150.049C150.163 109.703 150.256 109.796 150.256 109.909V115.441C150.256 115.554 150.163 115.648 150.049 115.648H149.879C149.765 115.648 149.672 115.554 149.672 115.441V109.909C149.672 109.796 149.765 109.703 149.879 109.703Z" fill="#FFE261"/>
<path d="M152.346 109.703H152.176C152.061 109.703 151.969 109.795 151.969 109.909V115.441C151.969 115.555 152.061 115.648 152.176 115.648H152.346C152.46 115.648 152.553 115.555 152.553 115.441V109.909C152.553 109.795 152.46 109.703 152.346 109.703Z" fill="#FFE261"/>
<path opacity="0.07" d="M154.276 108.111H137.27V117.235H154.276V108.111Z" fill="#FF0000"/>
<path opacity="0.27" d="M123.747 108.111H114.598V117.235H123.747V108.111Z" fill="#FDFDFD"/>
<path d="M151.974 98.9878H108.902V108.112H151.974V98.9878Z" fill="#FFD102"/>
<path d="M108.902 107.506V108.112H151.974V107.506H108.902Z" fill="#FDA902"/>
<path d="M108.902 98.9878V99.5969H151.974V98.9878H108.902Z" fill="#FFE261"/>
<path d="M111.01 100.579H110.84C110.725 100.579 110.633 100.672 110.633 100.785V106.318C110.633 106.432 110.725 106.524 110.84 106.524H111.01C111.124 106.524 111.217 106.432 111.217 106.318V100.785C111.217 100.672 111.124 100.579 111.01 100.579Z" fill="#FFE261"/>
<path d="M113.303 100.579H113.133C113.018 100.579 112.926 100.672 112.926 100.785V106.318C112.926 106.432 113.018 106.524 113.133 106.524H113.303C113.417 106.524 113.51 106.432 113.51 106.318V100.785C113.51 100.672 113.417 100.579 113.303 100.579Z" fill="#FFE261"/>
<path d="M115.6 100.579H115.43C115.315 100.579 115.223 100.672 115.223 100.785V106.318C115.223 106.432 115.315 106.524 115.43 106.524H115.6C115.714 106.524 115.807 106.432 115.807 106.318V100.785C115.807 100.672 115.714 100.579 115.6 100.579Z" fill="#FFE261"/>
<path d="M117.897 100.579H117.726C117.612 100.579 117.52 100.672 117.52 100.785V106.318C117.52 106.432 117.612 106.524 117.726 106.524H117.897C118.011 106.524 118.104 106.432 118.104 106.318V100.785C118.104 100.672 118.011 100.579 117.897 100.579Z" fill="#FFE261"/>
<path d="M120.194 100.579H120.023C119.909 100.579 119.816 100.672 119.816 100.785V106.318C119.816 106.432 119.909 106.524 120.023 106.524H120.194C120.308 106.524 120.401 106.432 120.401 106.318V100.785C120.401 100.672 120.308 100.579 120.194 100.579Z" fill="#FFE261"/>
<path d="M122.49 100.579H122.32C122.206 100.579 122.113 100.672 122.113 100.785V106.318C122.113 106.432 122.206 106.524 122.32 106.524H122.49C122.605 106.524 122.697 106.432 122.697 106.318V100.785C122.697 100.672 122.605 100.579 122.49 100.579Z" fill="#FFE261"/>
<path d="M124.787 100.579H124.617C124.503 100.579 124.41 100.672 124.41 100.785V106.318C124.41 106.432 124.503 106.524 124.617 106.524H124.787C124.902 106.524 124.994 106.432 124.994 106.318V100.785C124.994 100.672 124.902 100.579 124.787 100.579Z" fill="#FFE261"/>
<path d="M127.084 100.579H126.914C126.8 100.579 126.707 100.672 126.707 100.785V106.318C126.707 106.432 126.8 106.524 126.914 106.524H127.084C127.198 106.524 127.291 106.432 127.291 106.318V100.785C127.291 100.672 127.198 100.579 127.084 100.579Z" fill="#FFE261"/>
<path d="M129.381 100.579H129.211C129.097 100.579 129.004 100.672 129.004 100.785V106.318C129.004 106.432 129.097 106.524 129.211 106.524H129.381C129.495 106.524 129.588 106.432 129.588 106.318V100.785C129.588 100.672 129.495 100.579 129.381 100.579Z" fill="#FFE261"/>
<path d="M131.674 100.579H131.504C131.39 100.579 131.297 100.672 131.297 100.785V106.318C131.297 106.432 131.39 106.524 131.504 106.524H131.674C131.788 106.524 131.881 106.432 131.881 106.318V100.785C131.881 100.672 131.788 100.579 131.674 100.579Z" fill="#FFE261"/>
<path d="M133.975 100.579H133.805C133.69 100.579 133.598 100.672 133.598 100.785V106.318C133.598 106.432 133.69 106.524 133.805 106.524H133.975C134.089 106.524 134.182 106.432 134.182 106.318V100.785C134.182 100.672 134.089 100.579 133.975 100.579Z" fill="#FFE261"/>
<path d="M136.272 100.579H136.101C135.987 100.579 135.895 100.672 135.895 100.785V106.318C135.895 106.432 135.987 106.524 136.101 106.524H136.272C136.386 106.524 136.479 106.432 136.479 106.318V100.785C136.479 100.672 136.386 100.579 136.272 100.579Z" fill="#FFE261"/>
<path d="M138.565 100.579H138.394C138.28 100.579 138.188 100.672 138.188 100.785V106.318C138.188 106.432 138.28 106.524 138.394 106.524H138.565C138.679 106.524 138.772 106.432 138.772 106.318V100.785C138.772 100.672 138.679 100.579 138.565 100.579Z" fill="#FFE261"/>
<path d="M140.862 100.579H140.691C140.577 100.579 140.484 100.672 140.484 100.785V106.318C140.484 106.432 140.577 106.524 140.691 106.524H140.862C140.976 106.524 141.068 106.432 141.068 106.318V100.785C141.068 100.672 140.976 100.579 140.862 100.579Z" fill="#FFE261"/>
<path d="M143.162 100.579H142.992C142.878 100.579 142.785 100.672 142.785 100.785V106.318C142.785 106.432 142.878 106.524 142.992 106.524H143.162C143.277 106.524 143.369 106.432 143.369 106.318V100.785C143.369 100.672 143.277 100.579 143.162 100.579Z" fill="#FFE261"/>
<path d="M145.455 100.579H145.285C145.171 100.579 145.078 100.672 145.078 100.785V106.318C145.078 106.432 145.171 106.524 145.285 106.524H145.455C145.57 106.524 145.662 106.432 145.662 106.318V100.785C145.662 100.672 145.57 100.579 145.455 100.579Z" fill="#FFE261"/>
<path d="M147.748 100.579H147.578C147.464 100.579 147.371 100.672 147.371 100.785V106.318C147.371 106.432 147.464 106.524 147.578 106.524H147.748C147.863 106.524 147.955 106.432 147.955 106.318V100.785C147.955 100.672 147.863 100.579 147.748 100.579Z" fill="#FFE261"/>
<path d="M150.049 100.579H149.879C149.765 100.579 149.672 100.672 149.672 100.785V106.318C149.672 106.432 149.765 106.524 149.879 106.524H150.049C150.163 106.524 150.256 106.432 150.256 106.318V100.785C150.256 100.672 150.163 100.579 150.049 100.579Z" fill="#FFE261"/>
<path opacity="0.07" d="M151.979 98.9878H134.973V108.112H151.979V98.9878Z" fill="#FF0000"/>
<path opacity="0.27" d="M121.45 98.9878H112.301V108.112H121.45V98.9878Z" fill="#FDFDFD"/>
<path d="M153.981 89.8672H110.906V98.9878H153.981V89.8672Z" fill="#FFD102"/>
<path d="M110.906 98.3818V98.9877H153.981V98.3818H110.906Z" fill="#FDA902"/>
<path d="M110.906 89.8672V90.473H153.981V89.8672H110.906Z" fill="#FFE261"/>
<path d="M113.014 91.4551H112.844C112.729 91.4551 112.637 91.5475 112.637 91.6615V97.1938C112.637 97.3077 112.729 97.4001 112.844 97.4001H113.014C113.128 97.4001 113.221 97.3077 113.221 97.1938V91.6615C113.221 91.5475 113.128 91.4551 113.014 91.4551Z" fill="#FFE261"/>
<path d="M115.311 91.4551H115.141C115.026 91.4551 114.934 91.5475 114.934 91.6615V97.1938C114.934 97.3077 115.026 97.4001 115.141 97.4001H115.311C115.425 97.4001 115.518 97.3077 115.518 97.1938V91.6615C115.518 91.5475 115.425 91.4551 115.311 91.4551Z" fill="#FFE261"/>
<path d="M117.608 91.4551H117.437C117.323 91.4551 117.23 91.5475 117.23 91.6615V97.1938C117.23 97.3077 117.323 97.4001 117.437 97.4001H117.608C117.722 97.4001 117.815 97.3077 117.815 97.1938V91.6615C117.815 91.5475 117.722 91.4551 117.608 91.4551Z" fill="#FFE261"/>
<path d="M119.901 91.4551H119.73C119.616 91.4551 119.523 91.5475 119.523 91.6615V97.1938C119.523 97.3077 119.616 97.4001 119.73 97.4001H119.901C120.015 97.4001 120.108 97.3077 120.108 97.1938V91.6615C120.108 91.5475 120.015 91.4551 119.901 91.4551Z" fill="#FFE261"/>
<path d="M122.197 91.4551H122.027C121.913 91.4551 121.82 91.5475 121.82 91.6615V97.1938C121.82 97.3077 121.913 97.4001 122.027 97.4001H122.197C122.312 97.4001 122.404 97.3077 122.404 97.1938V91.6615C122.404 91.5475 122.312 91.4551 122.197 91.4551Z" fill="#FFE261"/>
<path d="M124.498 91.4551H124.328C124.214 91.4551 124.121 91.5475 124.121 91.6615V97.1938C124.121 97.3077 124.214 97.4001 124.328 97.4001H124.498C124.613 97.4001 124.705 97.3077 124.705 97.1938V91.6615C124.705 91.5475 124.613 91.4551 124.498 91.4551Z" fill="#FFE261"/>
<path d="M126.787 91.4551H126.617C126.503 91.4551 126.41 91.5475 126.41 91.6615V97.1938C126.41 97.3077 126.503 97.4001 126.617 97.4001H126.787C126.902 97.4001 126.994 97.3077 126.994 97.1938V91.6615C126.994 91.5475 126.902 91.4551 126.787 91.4551Z" fill="#FFE261"/>
<path d="M128.914 91.4551H129.084C129.198 91.4551 129.291 91.5483 129.291 91.6615V97.1938C129.291 97.3069 129.198 97.4001 129.084 97.4001H128.914C128.8 97.4001 128.707 97.3069 128.707 97.1938V91.6615C128.707 91.5483 128.8 91.4551 128.914 91.4551Z" fill="#FFE261"/>
<path d="M131.381 91.4551H131.211C131.097 91.4551 131.004 91.5475 131.004 91.6615V97.1938C131.004 97.3077 131.097 97.4001 131.211 97.4001H131.381C131.495 97.4001 131.588 97.3077 131.588 97.1938V91.6615C131.588 91.5475 131.495 91.4551 131.381 91.4551Z" fill="#FFE261"/>
<path d="M133.678 91.4551H133.508C133.393 91.4551 133.301 91.5475 133.301 91.6615V97.1938C133.301 97.3077 133.393 97.4001 133.508 97.4001H133.678C133.792 97.4001 133.885 97.3077 133.885 97.1938V91.6615C133.885 91.5475 133.792 91.4551 133.678 91.4551Z" fill="#FFE261"/>
<path d="M135.975 91.4551H135.805C135.69 91.4551 135.598 91.5475 135.598 91.6615V97.1938C135.598 97.3077 135.69 97.4001 135.805 97.4001H135.975C136.089 97.4001 136.182 97.3077 136.182 97.1938V91.6615C136.182 91.5475 136.089 91.4551 135.975 91.4551Z" fill="#FFE261"/>
<path d="M138.272 91.4551H138.101C137.987 91.4551 137.895 91.5475 137.895 91.6615V97.1938C137.895 97.3077 137.987 97.4001 138.101 97.4001H138.272C138.386 97.4001 138.479 97.3077 138.479 97.1938V91.6615C138.479 91.5475 138.386 91.4551 138.272 91.4551Z" fill="#FFE261"/>
<path d="M140.569 91.4551H140.398C140.284 91.4551 140.191 91.5475 140.191 91.6615V97.1938C140.191 97.3077 140.284 97.4001 140.398 97.4001H140.569C140.683 97.4001 140.776 97.3077 140.776 97.1938V91.6615C140.776 91.5475 140.683 91.4551 140.569 91.4551Z" fill="#FFE261"/>
<path d="M142.865 91.4551H142.695C142.581 91.4551 142.488 91.5475 142.488 91.6615V97.1938C142.488 97.3077 142.581 97.4001 142.695 97.4001H142.865C142.98 97.4001 143.072 97.3077 143.072 97.1938V91.6615C143.072 91.5475 142.98 91.4551 142.865 91.4551Z" fill="#FFE261"/>
<path d="M145.158 91.4551H144.988C144.874 91.4551 144.781 91.5475 144.781 91.6615V97.1938C144.781 97.3077 144.874 97.4001 144.988 97.4001H145.158C145.273 97.4001 145.365 97.3077 145.365 97.1938V91.6615C145.365 91.5475 145.273 91.4551 145.158 91.4551Z" fill="#FFE261"/>
<path d="M147.455 91.4551H147.285C147.171 91.4551 147.078 91.5475 147.078 91.6615V97.1938C147.078 97.3077 147.171 97.4001 147.285 97.4001H147.455C147.57 97.4001 147.662 97.3077 147.662 97.1938V91.6615C147.662 91.5475 147.57 91.4551 147.455 91.4551Z" fill="#FFE261"/>
<path d="M149.756 91.4551H149.586C149.472 91.4551 149.379 91.5475 149.379 91.6615V97.1938C149.379 97.3077 149.472 97.4001 149.586 97.4001H149.756C149.87 97.4001 149.963 97.3077 149.963 97.1938V91.6615C149.963 91.5475 149.87 91.4551 149.756 91.4551Z" fill="#FFE261"/>
<path d="M151.879 91.4551H152.049C152.163 91.4551 152.256 91.5483 152.256 91.6615V97.1938C152.256 97.3069 152.163 97.4001 152.049 97.4001H151.879C151.765 97.4001 151.672 97.3069 151.672 97.1938V91.6615C151.672 91.5483 151.765 91.4551 151.879 91.4551Z" fill="#FFE261"/>
<path opacity="0.07" d="M153.983 89.8672H136.977V98.9911H153.983V89.8672Z" fill="#FF0000"/>
<path opacity="0.27" d="M123.458 89.8672H114.309V98.9911H123.458V89.8672Z" fill="#FDFDFD"/>
<path d="M156.572 80.7432H113.5V89.8671H156.572V80.7432Z" fill="#FFD102"/>
<path d="M113.5 89.2578V89.867H156.572V89.2578H113.5Z" fill="#FDA902"/>
<path d="M113.5 80.7432V81.349H156.572V80.7432H113.5Z" fill="#FFE261"/>
<path d="M115.6 82.3311H115.43C115.315 82.3311 115.223 82.4235 115.223 82.5374V88.0697C115.223 88.1837 115.315 88.2761 115.43 88.2761H115.6C115.714 88.2761 115.807 88.1837 115.807 88.0697V82.5374C115.807 82.4235 115.714 82.3311 115.6 82.3311Z" fill="#FFE261"/>
<path d="M117.897 82.3311H117.726C117.612 82.3311 117.52 82.4235 117.52 82.5374V88.0697C117.52 88.1837 117.612 88.2761 117.726 88.2761H117.897C118.011 88.2761 118.104 88.1837 118.104 88.0697V82.5374C118.104 82.4235 118.011 82.3311 117.897 82.3311Z" fill="#FFE261"/>
<path d="M120.197 82.3311H120.027C119.913 82.3311 119.82 82.4235 119.82 82.5374V88.0697C119.82 88.1837 119.913 88.2761 120.027 88.2761H120.197C120.312 88.2761 120.404 88.1837 120.404 88.0697V82.5374C120.404 82.4235 120.312 82.3311 120.197 82.3311Z" fill="#FFE261"/>
<path d="M122.49 82.3311H122.32C122.206 82.3311 122.113 82.4235 122.113 82.5374V88.0697C122.113 88.1837 122.206 88.2761 122.32 88.2761H122.49C122.605 88.2761 122.697 88.1837 122.697 88.0697V82.5374C122.697 82.4235 122.605 82.3311 122.49 82.3311Z" fill="#FFE261"/>
<path d="M124.787 82.3311H124.617C124.503 82.3311 124.41 82.4235 124.41 82.5374V88.0697C124.41 88.1837 124.503 88.2761 124.617 88.2761H124.787C124.902 88.2761 124.994 88.1837 124.994 88.0697V82.5374C124.994 82.4235 124.902 82.3311 124.787 82.3311Z" fill="#FFE261"/>
<path d="M127.084 82.3311H126.914C126.8 82.3311 126.707 82.4235 126.707 82.5374V88.0697C126.707 88.1837 126.8 88.2761 126.914 88.2761H127.084C127.198 88.2761 127.291 88.1837 127.291 88.0697V82.5374C127.291 82.4235 127.198 82.3311 127.084 82.3311Z" fill="#FFE261"/>
<path d="M129.381 82.3311H129.211C129.097 82.3311 129.004 82.4235 129.004 82.5374V88.0697C129.004 88.1837 129.097 88.2761 129.211 88.2761H129.381C129.495 88.2761 129.588 88.1837 129.588 88.0697V82.5374C129.588 82.4235 129.495 82.3311 129.381 82.3311Z" fill="#FFE261"/>
<path d="M131.674 82.3311H131.504C131.39 82.3311 131.297 82.4235 131.297 82.5374V88.0697C131.297 88.1837 131.39 88.2761 131.504 88.2761H131.674C131.788 88.2761 131.881 88.1837 131.881 88.0697V82.5374C131.881 82.4235 131.788 82.3311 131.674 82.3311Z" fill="#FFE261"/>
<path d="M133.975 82.3311H133.805C133.69 82.3311 133.598 82.4235 133.598 82.5374V88.0697C133.598 88.1837 133.69 88.2761 133.805 88.2761H133.975C134.089 88.2761 134.182 88.1837 134.182 88.0697V82.5374C134.182 82.4235 134.089 82.3311 133.975 82.3311Z" fill="#FFE261"/>
<path d="M136.272 82.3311H136.101C135.987 82.3311 135.895 82.4235 135.895 82.5374V88.0697C135.895 88.1837 135.987 88.2761 136.101 88.2761H136.272C136.386 88.2761 136.479 88.1837 136.479 88.0697V82.5374C136.479 82.4235 136.386 82.3311 136.272 82.3311Z" fill="#FFE261"/>
<path d="M138.565 82.3311H138.394C138.28 82.3311 138.188 82.4235 138.188 82.5374V88.0697C138.188 88.1837 138.28 88.2761 138.394 88.2761H138.565C138.679 88.2761 138.772 88.1837 138.772 88.0697V82.5374C138.772 82.4235 138.679 82.3311 138.565 82.3311Z" fill="#FFE261"/>
<path d="M140.862 82.3311H140.691C140.577 82.3311 140.484 82.4235 140.484 82.5374V88.0697C140.484 88.1837 140.577 88.2761 140.691 88.2761H140.862C140.976 88.2761 141.068 88.1837 141.068 88.0697V82.5374C141.068 82.4235 140.976 82.3311 140.862 82.3311Z" fill="#FFE261"/>
<path d="M142.992 82.3311H143.162C143.276 82.3311 143.369 82.4243 143.369 82.5374V88.0697C143.369 88.1829 143.276 88.2761 143.162 88.2761H142.992C142.879 88.2761 142.785 88.1829 142.785 88.0697V82.5374C142.785 82.4243 142.879 82.3311 142.992 82.3311Z" fill="#FFE261"/>
<path d="M145.455 82.3311H145.285C145.171 82.3311 145.078 82.4235 145.078 82.5374V88.0697C145.078 88.1837 145.171 88.2761 145.285 88.2761H145.455C145.57 88.2761 145.662 88.1837 145.662 88.0697V82.5374C145.662 82.4235 145.57 82.3311 145.455 82.3311Z" fill="#FFE261"/>
<path d="M147.752 82.3311H147.582C147.468 82.3311 147.375 82.4235 147.375 82.5374V88.0697C147.375 88.1837 147.468 88.2761 147.582 88.2761H147.752C147.866 88.2761 147.959 88.1837 147.959 88.0697V82.5374C147.959 82.4235 147.866 82.3311 147.752 82.3311Z" fill="#FFE261"/>
<path d="M150.049 82.3311H149.879C149.765 82.3311 149.672 82.4235 149.672 82.5374V88.0697C149.672 88.1837 149.765 88.2761 149.879 88.2761H150.049C150.163 88.2761 150.256 88.1837 150.256 88.0697V82.5374C150.256 82.4235 150.163 82.3311 150.049 82.3311Z" fill="#FFE261"/>
<path d="M152.346 82.3311H152.176C152.061 82.3311 151.969 82.4235 151.969 82.5374V88.0697C151.969 88.1837 152.061 88.2761 152.176 88.2761H152.346C152.46 88.2761 152.553 88.1837 152.553 88.0697V82.5374C152.553 82.4235 152.46 82.3311 152.346 82.3311Z" fill="#FFE261"/>
<path d="M154.643 82.3311H154.473C154.358 82.3311 154.266 82.4235 154.266 82.5374V88.0697C154.266 88.1837 154.358 88.2761 154.473 88.2761H154.643C154.757 88.2761 154.85 88.1837 154.85 88.0697V82.5374C154.85 82.4235 154.757 82.3311 154.643 82.3311Z" fill="#FFE261"/>
<path opacity="0.07" d="M156.569 80.7432H139.562V89.8671H156.569V80.7432Z" fill="#FF0000"/>
<path opacity="0.27" d="M126.04 80.7432H116.891V89.8671H126.04V80.7432Z" fill="#FDFDFD"/>
<path d="M150.637 71.6191H107.562V80.7431H150.637V71.6191Z" fill="#FFD102"/>
<path d="M107.562 80.1338V80.7429H150.637V80.1338H107.562Z" fill="#FDA902"/>
<path d="M107.562 71.6191V72.225H150.637V71.6191H107.562Z" fill="#FFE261"/>
<path d="M109.496 73.207H109.666C109.78 73.207 109.873 73.3002 109.873 73.4134V78.9457C109.873 79.0589 109.78 79.1521 109.666 79.1521H109.496C109.383 79.1521 109.289 79.0589 109.289 78.9457V73.4134C109.289 73.3002 109.383 73.207 109.496 73.207Z" fill="#FFE261"/>
<path d="M111.793 73.207H111.963C112.077 73.207 112.17 73.3002 112.17 73.4134V78.9457C112.17 79.0589 112.077 79.1521 111.963 79.1521H111.793C111.679 79.1521 111.586 79.0589 111.586 78.9457V73.4134C111.586 73.3002 111.679 73.207 111.793 73.207Z" fill="#FFE261"/>
<path d="M114.26 73.207H114.09C113.975 73.207 113.883 73.2994 113.883 73.4134V78.9457C113.883 79.0597 113.975 79.1521 114.09 79.1521H114.26C114.374 79.1521 114.467 79.0597 114.467 78.9457V73.4134C114.467 73.2994 114.374 73.207 114.26 73.207Z" fill="#FFE261"/>
<path d="M116.557 73.207H116.387C116.272 73.207 116.18 73.2994 116.18 73.4134V78.9457C116.18 79.0597 116.272 79.1521 116.387 79.1521H116.557C116.671 79.1521 116.764 79.0597 116.764 78.9457V73.4134C116.764 73.2994 116.671 73.207 116.557 73.207Z" fill="#FFE261"/>
<path d="M118.854 73.207H118.684C118.569 73.207 118.477 73.2994 118.477 73.4134V78.9457C118.477 79.0597 118.569 79.1521 118.684 79.1521H118.854C118.968 79.1521 119.061 79.0597 119.061 78.9457V73.4134C119.061 73.2994 118.968 73.207 118.854 73.207Z" fill="#FFE261"/>
<path d="M121.151 73.207H120.98C120.866 73.207 120.773 73.2994 120.773 73.4134V78.9457C120.773 79.0597 120.866 79.1521 120.98 79.1521H121.151C121.265 79.1521 121.358 79.0597 121.358 78.9457V73.4134C121.358 73.2994 121.265 73.207 121.151 73.207Z" fill="#FFE261"/>
<path d="M123.447 73.207H123.277C123.163 73.207 123.07 73.2994 123.07 73.4134V78.9457C123.07 79.0597 123.163 79.1521 123.277 79.1521H123.447C123.562 79.1521 123.654 79.0597 123.654 78.9457V73.4134C123.654 73.2994 123.562 73.207 123.447 73.207Z" fill="#FFE261"/>
<path d="M125.74 73.207H125.57C125.456 73.207 125.363 73.2994 125.363 73.4134V78.9457C125.363 79.0597 125.456 79.1521 125.57 79.1521H125.74C125.855 79.1521 125.947 79.0597 125.947 78.9457V73.4134C125.947 73.2994 125.855 73.207 125.74 73.207Z" fill="#FFE261"/>
<path d="M128.041 73.207H127.871C127.757 73.207 127.664 73.2994 127.664 73.4134V78.9457C127.664 79.0597 127.757 79.1521 127.871 79.1521H128.041C128.156 79.1521 128.248 79.0597 128.248 78.9457V73.4134C128.248 73.2994 128.156 73.207 128.041 73.207Z" fill="#FFE261"/>
<path d="M130.334 73.207H130.164C130.05 73.207 129.957 73.2994 129.957 73.4134V78.9457C129.957 79.0597 130.05 79.1521 130.164 79.1521H130.334C130.449 79.1521 130.541 79.0597 130.541 78.9457V73.4134C130.541 73.2994 130.449 73.207 130.334 73.207Z" fill="#FFE261"/>
<path d="M132.631 73.207H132.461C132.347 73.207 132.254 73.2994 132.254 73.4134V78.9457C132.254 79.0597 132.347 79.1521 132.461 79.1521H132.631C132.745 79.1521 132.838 79.0597 132.838 78.9457V73.4134C132.838 73.2994 132.745 73.207 132.631 73.207Z" fill="#FFE261"/>
<path d="M134.928 73.207H134.758C134.643 73.207 134.551 73.2994 134.551 73.4134V78.9457C134.551 79.0597 134.643 79.1521 134.758 79.1521H134.928C135.042 79.1521 135.135 79.0597 135.135 78.9457V73.4134C135.135 73.2994 135.042 73.207 134.928 73.207Z" fill="#FFE261"/>
<path d="M137.225 73.207H137.055C136.94 73.207 136.848 73.2994 136.848 73.4134V78.9457C136.848 79.0597 136.94 79.1521 137.055 79.1521H137.225C137.339 79.1521 137.432 79.0597 137.432 78.9457V73.4134C137.432 73.2994 137.339 73.207 137.225 73.207Z" fill="#FFE261"/>
<path d="M139.522 73.207H139.351C139.237 73.207 139.145 73.2994 139.145 73.4134V78.9457C139.145 79.0597 139.237 79.1521 139.351 79.1521H139.522C139.636 79.1521 139.729 79.0597 139.729 78.9457V73.4134C139.729 73.2994 139.636 73.207 139.522 73.207Z" fill="#FFE261"/>
<path d="M141.819 73.207H141.648C141.534 73.207 141.441 73.2994 141.441 73.4134V78.9457C141.441 79.0597 141.534 79.1521 141.648 79.1521H141.819C141.933 79.1521 142.026 79.0597 142.026 78.9457V73.4134C142.026 73.2994 141.933 73.207 141.819 73.207Z" fill="#FFE261"/>
<path d="M144.115 73.207H143.945C143.831 73.207 143.738 73.2994 143.738 73.4134V78.9457C143.738 79.0597 143.831 79.1521 143.945 79.1521H144.115C144.23 79.1521 144.322 79.0597 144.322 78.9457V73.4134C144.322 73.2994 144.23 73.207 144.115 73.207Z" fill="#FFE261"/>
<path d="M146.408 73.207H146.238C146.124 73.207 146.031 73.2994 146.031 73.4134V78.9457C146.031 79.0597 146.124 79.1521 146.238 79.1521H146.408C146.523 79.1521 146.615 79.0597 146.615 78.9457V73.4134C146.615 73.2994 146.523 73.207 146.408 73.207Z" fill="#FFE261"/>
<path d="M148.709 73.207H148.539C148.425 73.207 148.332 73.2994 148.332 73.4134V78.9457C148.332 79.0597 148.425 79.1521 148.539 79.1521H148.709C148.823 79.1521 148.916 79.0597 148.916 78.9457V73.4134C148.916 73.2994 148.823 73.207 148.709 73.207Z" fill="#FFE261"/>
<path opacity="0.07" d="M150.635 71.6191H133.629V80.7431H150.635V71.6191Z" fill="#FF0000"/>
<path opacity="0.27" d="M120.11 71.6191H110.961V80.7431H120.11V71.6191Z" fill="#FDFDFD"/>
<path d="M153.126 62.4951H110.055V71.6191H153.126V62.4951Z" fill="#FFD102"/>
<path d="M110.055 71.0132V71.619H153.126V71.0132H110.055Z" fill="#FDA902"/>
<path d="M110.055 62.4951V63.1009H153.126V62.4951H110.055Z" fill="#FFE261"/>
<path d="M112.158 64.0859H111.988C111.874 64.0859 111.781 64.1783 111.781 64.2923V69.8246C111.781 69.9386 111.874 70.031 111.988 70.031H112.158C112.273 70.031 112.365 69.9386 112.365 69.8246V64.2923C112.365 64.1783 112.273 64.0859 112.158 64.0859Z" fill="#FFE261"/>
<path d="M114.451 64.0859H114.281C114.167 64.0859 114.074 64.1783 114.074 64.2923V69.8246C114.074 69.9386 114.167 70.031 114.281 70.031H114.451C114.566 70.031 114.658 69.9386 114.658 69.8246V64.2923C114.658 64.1783 114.566 64.0859 114.451 64.0859Z" fill="#FFE261"/>
<path d="M116.752 64.0859H116.582C116.468 64.0859 116.375 64.1783 116.375 64.2923V69.8246C116.375 69.9386 116.468 70.031 116.582 70.031H116.752C116.866 70.031 116.959 69.9386 116.959 69.8246V64.2923C116.959 64.1783 116.866 64.0859 116.752 64.0859Z" fill="#FFE261"/>
<path d="M119.045 64.0859H118.875C118.761 64.0859 118.668 64.1783 118.668 64.2923V69.8246C118.668 69.9386 118.761 70.031 118.875 70.031H119.045C119.159 70.031 119.252 69.9386 119.252 69.8246V64.2923C119.252 64.1783 119.159 64.0859 119.045 64.0859Z" fill="#FFE261"/>
<path d="M121.342 64.0859H121.172C121.057 64.0859 120.965 64.1783 120.965 64.2923V69.8246C120.965 69.9386 121.057 70.031 121.172 70.031H121.342C121.456 70.031 121.549 69.9386 121.549 69.8246V64.2923C121.549 64.1783 121.456 64.0859 121.342 64.0859Z" fill="#FFE261"/>
<path d="M123.639 64.0859H123.469C123.354 64.0859 123.262 64.1783 123.262 64.2923V69.8246C123.262 69.9386 123.354 70.031 123.469 70.031H123.639C123.753 70.031 123.846 69.9386 123.846 69.8246V64.2923C123.846 64.1783 123.753 64.0859 123.639 64.0859Z" fill="#FFE261"/>
<path d="M125.936 64.0859H125.766C125.651 64.0859 125.559 64.1783 125.559 64.2923V69.8246C125.559 69.9386 125.651 70.031 125.766 70.031H125.936C126.05 70.031 126.143 69.9386 126.143 69.8246V64.2923C126.143 64.1783 126.05 64.0859 125.936 64.0859Z" fill="#FFE261"/>
<path d="M128.233 64.0859H128.062C127.948 64.0859 127.855 64.1783 127.855 64.2923V69.8246C127.855 69.9386 127.948 70.031 128.062 70.031H128.233C128.347 70.031 128.44 69.9386 128.44 69.8246V64.2923C128.44 64.1783 128.347 64.0859 128.233 64.0859Z" fill="#FFE261"/>
<path d="M130.53 64.0859H130.359C130.245 64.0859 130.152 64.1783 130.152 64.2923V69.8246C130.152 69.9386 130.245 70.031 130.359 70.031H130.53C130.644 70.031 130.736 69.9386 130.736 69.8246V64.2923C130.736 64.1783 130.644 64.0859 130.53 64.0859Z" fill="#FFE261"/>
<path d="M132.826 64.0859H132.656C132.542 64.0859 132.449 64.1783 132.449 64.2923V69.8246C132.449 69.9386 132.542 70.031 132.656 70.031H132.826C132.941 70.031 133.033 69.9386 133.033 69.8246V64.2923C133.033 64.1783 132.941 64.0859 132.826 64.0859Z" fill="#FFE261"/>
<path d="M135.119 64.0859H134.949C134.835 64.0859 134.742 64.1783 134.742 64.2923V69.8246C134.742 69.9386 134.835 70.031 134.949 70.031H135.119C135.234 70.031 135.326 69.9386 135.326 69.8246V64.2923C135.326 64.1783 135.234 64.0859 135.119 64.0859Z" fill="#FFE261"/>
<path d="M137.416 64.0859H137.246C137.132 64.0859 137.039 64.1783 137.039 64.2923V69.8246C137.039 69.9386 137.132 70.031 137.246 70.031H137.416C137.531 70.031 137.623 69.9386 137.623 69.8246V64.2923C137.623 64.1783 137.531 64.0859 137.416 64.0859Z" fill="#FFE261"/>
<path d="M139.717 64.0859H139.547C139.432 64.0859 139.34 64.1783 139.34 64.2923V69.8246C139.34 69.9386 139.432 70.031 139.547 70.031H139.717C139.831 70.031 139.924 69.9386 139.924 69.8246V64.2923C139.924 64.1783 139.831 64.0859 139.717 64.0859Z" fill="#FFE261"/>
<path d="M142.01 64.0859H141.84C141.725 64.0859 141.633 64.1783 141.633 64.2923V69.8246C141.633 69.9386 141.725 70.031 141.84 70.031H142.01C142.124 70.031 142.217 69.9386 142.217 69.8246V64.2923C142.217 64.1783 142.124 64.0859 142.01 64.0859Z" fill="#FFE261"/>
<path d="M144.307 64.0859H144.137C144.022 64.0859 143.93 64.1783 143.93 64.2923V69.8246C143.93 69.9386 144.022 70.031 144.137 70.031H144.307C144.421 70.031 144.514 69.9386 144.514 69.8246V64.2923C144.514 64.1783 144.421 64.0859 144.307 64.0859Z" fill="#FFE261"/>
<path d="M146.604 64.0859H146.434C146.319 64.0859 146.227 64.1783 146.227 64.2923V69.8246C146.227 69.9386 146.319 70.031 146.434 70.031H146.604C146.718 70.031 146.811 69.9386 146.811 69.8246V64.2923C146.811 64.1783 146.718 64.0859 146.604 64.0859Z" fill="#FFE261"/>
<path d="M148.901 64.0859H148.73C148.616 64.0859 148.523 64.1783 148.523 64.2923V69.8246C148.523 69.9386 148.616 70.031 148.73 70.031H148.901C149.015 70.031 149.108 69.9386 149.108 69.8246V64.2923C149.108 64.1783 149.015 64.0859 148.901 64.0859Z" fill="#FFE261"/>
<path d="M151.197 64.0859H151.027C150.913 64.0859 150.82 64.1783 150.82 64.2923V69.8246C150.82 69.9386 150.913 70.031 151.027 70.031H151.197C151.312 70.031 151.404 69.9386 151.404 69.8246V64.2923C151.404 64.1783 151.312 64.0859 151.197 64.0859Z" fill="#FFE261"/>
<path opacity="0.07" d="M153.124 62.4951H136.117V71.6191H153.124V62.4951Z" fill="#FF0000"/>
<path opacity="0.27" d="M122.594 62.4951H113.445V71.6191H122.594V62.4951Z" fill="#FDFDFD"/>
</g>
<defs>
<filter id="filter0_d_904_9209" x="0.565307" y="0.565307" width="192.865" height="170.353" filterUnits="userSpaceOnUse" color-interpolation-filters="sRGB">
<feFlood flood-opacity="0" result="BackgroundImageFix"/>
<feColorMatrix in="SourceAlpha" type="matrix" values="0 0 0 0 0 0 0 0 0 0 0 0 0 0 0 0 0 0 127 0" result="hardAlpha"/>
<feMorphology radius="5.43469" operator="dilate" in="SourceAlpha" result="effect1_dropShadow_904_9209"/>
<feOffset dy="10"/>
<feGaussianBlur stdDeviation="10"/>
<feComposite in2="hardAlpha" operator="out"/>
<feColorMatrix type="matrix" values="0 0 0 0 0 0 0 0 0 0 0 0 0 0 0 0 0 0 0.25 0"/>
<feBlend mode="normal" in2="BackgroundImageFix" result="effect1_dropShadow_904_9209"/>
<feBlend mode="normal" in="SourceGraphic" in2="effect1_dropShadow_904_9209" result="shape"/>
</filter>
</defs>
</svg>
