<svg width="360" height="282" viewBox="0 0 360 282" fill="none" xmlns="http://www.w3.org/2000/svg">
<g clip-path="url(#clip0_903_1218)">
<path d="M286.843 101.797H284.487V37.3186C284.487 32.4178 283.521 27.565 281.645 23.0373C279.769 18.5095 277.019 14.3955 273.552 10.9302C270.085 7.4648 265.97 4.71594 261.44 2.84054C256.911 0.965138 252.056 -7.67107e-05 247.153 4.57264e-09H110.497C100.596 4.57266e-09 91.1 3.93177 84.0987 10.9304C77.0974 17.929 73.1641 27.4211 73.1641 37.3186V391.046C73.1641 400.944 77.0974 410.436 84.0987 417.434C91.1 424.433 100.596 428.365 110.497 428.365H247.153C257.054 428.365 266.55 424.433 273.552 417.434C280.553 410.436 284.486 400.944 284.486 391.046V147.688H286.843V101.797Z" fill="#6E736F"/>
<path d="M248.666 9.71094H230.831C231.652 11.7216 231.965 13.9032 231.744 16.0634C231.522 18.2236 230.772 20.2962 229.56 22.0984C228.348 23.9006 226.711 25.3772 224.794 26.3981C222.877 27.4189 220.737 27.9527 218.565 27.9523H140.271C138.099 27.9528 135.959 27.4191 134.042 26.3983C132.124 25.3775 130.488 23.9009 129.276 22.0986C128.064 20.2964 127.314 18.2238 127.092 16.0636C126.87 13.9033 127.183 11.7217 128.004 9.71094H111.349C103.954 9.71094 96.863 12.6471 91.6346 17.8736C86.4061 23.1001 83.4688 30.1887 83.4688 37.58V390.79C83.4688 394.45 84.1899 398.074 85.5909 401.455C86.992 404.836 89.0456 407.909 91.6344 410.496C94.2232 413.084 97.2966 415.137 100.679 416.538C104.062 417.938 107.687 418.659 111.348 418.659H248.664C256.058 418.659 263.149 415.723 268.378 410.496C273.606 405.27 276.544 398.181 276.544 390.79V37.58C276.544 30.1893 273.607 23.1013 268.379 17.8749C263.152 12.6485 256.061 9.71187 248.668 9.71094H248.666Z" fill="#F4EEFB"/>
<rect width="192.896" height="32.3294" transform="translate(83.9453 50.1104)" fill="white"/>
<rect x="92.0312" y="59.001" width="17.7811" height="1.61647" rx="0.808235" fill="#F3CAD6"/>
<rect x="92.0312" y="65.4668" width="17.7811" height="1.61647" rx="0.808235" fill="#F3CAD6"/>
<rect x="92.0312" y="71.9326" width="17.7811" height="1.61647" rx="0.808235" fill="#F3CAD6"/>
<rect x="228.352" y="58.1929" width="16.1647" height="16.1647" rx="8.08235" fill="#F3CAD6"/>
<rect x="252.602" y="58.1929" width="16.1647" height="16.1647" rx="8.08235" fill="#D6BFF1"/>
<rect width="192.896" height="306.892" transform="translate(83.9453 82.4399)" fill="#F4EEFB"/>
<g clip-path="url(#clip1_903_1218)">
<rect x="92.8203" y="98.6045" width="175.153" height="44.4974" rx="4.20483" fill="white"/>
<path d="M92.8203 102.809C92.8203 100.487 94.7029 98.6045 97.0251 98.6045H263.768C266.09 98.6045 267.973 100.487 267.973 102.809V122.078H92.8203V102.809Z" fill="#38AC41"/>
<path d="M92.8203 102.809C92.8203 100.487 94.7029 98.6045 97.0251 98.6045H263.768C266.09 98.6045 267.973 100.487 267.973 102.809V122.078H92.8203V102.809Z" fill="white" fill-opacity="0.65"/>
<rect x="150.82" y="107.014" width="59.1461" height="6.65394" rx="3.32697" fill="white"/>
<rect x="165.68" y="130.487" width="29.4338" height="4.20483" rx="2.10242" fill="#F3CAD6"/>
</g>
<g clip-path="url(#clip2_903_1218)">
<rect width="175.153" height="127.701" transform="translate(92.8203 159.267)" fill="#38AC41"/>
<rect width="175.153" height="127.701" transform="translate(92.8203 159.267)" fill="white" fill-opacity="0.25"/>
<mask id="path-12-inside-1_903_1218" fill="white">
<path d="M92.8203 169.779H122.012V276.456H92.8203V169.779Z"/>
</mask>
<path d="M122.012 276.456H122.538V274.404H122.012H121.487V276.456H122.012ZM122.012 270.301H122.538V266.198H122.012H121.487V270.301H122.012ZM122.012 262.095H122.538V257.992H122.012H121.487V262.095H122.012ZM122.012 253.89H122.538V249.787H122.012H121.487V253.89H122.012ZM122.012 245.684H122.538V241.581H122.012H121.487V245.684H122.012ZM122.012 237.478H122.538V233.375H122.012H121.487V237.478H122.012ZM122.012 229.272H122.538V225.169H122.012H121.487V229.272H122.012ZM122.012 221.066H122.538V216.963H122.012H121.487V221.066H122.012ZM122.012 212.86H122.538V208.757H122.012H121.487V212.86H122.012ZM122.012 204.654H122.538V200.551H122.012H121.487V204.654H122.012ZM122.012 196.448H122.538V192.345H122.012H121.487V196.448H122.012ZM122.012 188.242H122.538V184.139H122.012H121.487V188.242H122.012ZM122.012 180.036H122.538V175.933H122.012H121.487V180.036H122.012ZM122.012 171.83H122.538V169.779H122.012H121.487V171.83H122.012ZM122.012 276.456H123.064V274.404H122.012H120.961V276.456H122.012ZM122.012 270.301H123.064V266.198H122.012H120.961V270.301H122.012ZM122.012 262.095H123.064V257.992H122.012H120.961V262.095H122.012ZM122.012 253.89H123.064V249.787H122.012H120.961V253.89H122.012ZM122.012 245.684H123.064V241.581H122.012H120.961V245.684H122.012ZM122.012 237.478H123.064V233.375H122.012H120.961V237.478H122.012ZM122.012 229.272H123.064V225.169H122.012H120.961V229.272H122.012ZM122.012 221.066H123.064V216.963H122.012H120.961V221.066H122.012ZM122.012 212.86H123.064V208.757H122.012H120.961V212.86H122.012ZM122.012 204.654H123.064V200.551H122.012H120.961V204.654H122.012ZM122.012 196.448H123.064V192.345H122.012H120.961V196.448H122.012ZM122.012 188.242H123.064V184.139H122.012H120.961V188.242H122.012ZM122.012 180.036H123.064V175.933H122.012H120.961V180.036H122.012ZM122.012 171.83H123.064V169.779H122.012H120.961V171.83H122.012Z" fill="#EEF7EF" mask="url(#path-12-inside-1_903_1218)"/>
<mask id="path-14-inside-2_903_1218" fill="white">
<path d="M122.016 169.779H151.208V276.456H122.016V169.779Z"/>
</mask>
<path d="M151.208 276.456H151.733V274.404H151.208H150.682V276.456H151.208ZM151.208 270.301H151.733V266.198H151.208H150.682V270.301H151.208ZM151.208 262.095H151.733V257.992H151.208H150.682V262.095H151.208ZM151.208 253.89H151.733V249.787H151.208H150.682V253.89H151.208ZM151.208 245.684H151.733V241.581H151.208H150.682V245.684H151.208ZM151.208 237.478H151.733V233.375H151.208H150.682V237.478H151.208ZM151.208 229.272H151.733V225.169H151.208H150.682V229.272H151.208ZM151.208 221.066H151.733V216.963H151.208H150.682V221.066H151.208ZM151.208 212.86H151.733V208.757H151.208H150.682V212.86H151.208ZM151.208 204.654H151.733V200.551H151.208H150.682V204.654H151.208ZM151.208 196.448H151.733V192.345H151.208H150.682V196.448H151.208ZM151.208 188.242H151.733V184.139H151.208H150.682V188.242H151.208ZM151.208 180.036H151.733V175.933H151.208H150.682V180.036H151.208ZM151.208 171.83H151.733V169.779H151.208H150.682V171.83H151.208ZM151.208 276.456H152.259V274.404H151.208H150.157V276.456H151.208ZM151.208 270.301H152.259V266.198H151.208H150.157V270.301H151.208ZM151.208 262.095H152.259V257.992H151.208H150.157V262.095H151.208ZM151.208 253.89H152.259V249.787H151.208H150.157V253.89H151.208ZM151.208 245.684H152.259V241.581H151.208H150.157V245.684H151.208ZM151.208 237.478H152.259V233.375H151.208H150.157V237.478H151.208ZM151.208 229.272H152.259V225.169H151.208H150.157V229.272H151.208ZM151.208 221.066H152.259V216.963H151.208H150.157V221.066H151.208ZM151.208 212.86H152.259V208.757H151.208H150.157V212.86H151.208ZM151.208 204.654H152.259V200.551H151.208H150.157V204.654H151.208ZM151.208 196.448H152.259V192.345H151.208H150.157V196.448H151.208ZM151.208 188.242H152.259V184.139H151.208H150.157V188.242H151.208ZM151.208 180.036H152.259V175.933H151.208H150.157V180.036H151.208ZM151.208 171.83H152.259V169.779H151.208H150.157V171.83H151.208Z" fill="#EEF7EF" mask="url(#path-14-inside-2_903_1218)"/>
<mask id="path-16-inside-3_903_1218" fill="white">
<path d="M151.203 169.779H180.395V276.456H151.203V169.779Z"/>
</mask>
<path d="M180.395 276.456H180.921V274.404H180.395H179.87V276.456H180.395ZM180.395 270.301H180.921V266.198H180.395H179.87V270.301H180.395ZM180.395 262.095H180.921V257.992H180.395H179.87V262.095H180.395ZM180.395 253.89H180.921V249.787H180.395H179.87V253.89H180.395ZM180.395 245.684H180.921V241.581H180.395H179.87V245.684H180.395ZM180.395 237.478H180.921V233.375H180.395H179.87V237.478H180.395ZM180.395 229.272H180.921V225.169H180.395H179.87V229.272H180.395ZM180.395 221.066H180.921V216.963H180.395H179.87V221.066H180.395ZM180.395 212.86H180.921V208.757H180.395H179.87V212.86H180.395ZM180.395 204.654H180.921V200.551H180.395H179.87V204.654H180.395ZM180.395 196.448H180.921V192.345H180.395H179.87V196.448H180.395ZM180.395 188.242H180.921V184.139H180.395H179.87V188.242H180.395ZM180.395 180.036H180.921V175.933H180.395H179.87V180.036H180.395ZM180.395 171.83H180.921V169.779H180.395H179.87V171.83H180.395ZM180.395 276.456H181.446V274.404H180.395H179.344V276.456H180.395ZM180.395 270.301H181.446V266.198H180.395H179.344V270.301H180.395ZM180.395 262.095H181.446V257.992H180.395H179.344V262.095H180.395ZM180.395 253.89H181.446V249.787H180.395H179.344V253.89H180.395ZM180.395 245.684H181.446V241.581H180.395H179.344V245.684H180.395ZM180.395 237.478H181.446V233.375H180.395H179.344V237.478H180.395ZM180.395 229.272H181.446V225.169H180.395H179.344V229.272H180.395ZM180.395 221.066H181.446V216.963H180.395H179.344V221.066H180.395ZM180.395 212.86H181.446V208.757H180.395H179.344V212.86H180.395ZM180.395 204.654H181.446V200.551H180.395H179.344V204.654H180.395ZM180.395 196.448H181.446V192.345H180.395H179.344V196.448H180.395ZM180.395 188.242H181.446V184.139H180.395H179.344V188.242H180.395ZM180.395 180.036H181.446V175.933H180.395H179.344V180.036H180.395ZM180.395 171.83H181.446V169.779H180.395H179.344V171.83H180.395Z" fill="#EEF7EF" mask="url(#path-16-inside-3_903_1218)"/>
<mask id="path-18-inside-4_903_1218" fill="white">
<path d="M180.398 169.779H209.591V276.456H180.398V169.779Z"/>
</mask>
<path d="M209.591 276.456H210.116V274.404H209.591H209.065V276.456H209.591ZM209.591 270.301H210.116V266.198H209.591H209.065V270.301H209.591ZM209.591 262.095H210.116V257.992H209.591H209.065V262.095H209.591ZM209.591 253.89H210.116V249.787H209.591H209.065V253.89H209.591ZM209.591 245.684H210.116V241.581H209.591H209.065V245.684H209.591ZM209.591 237.478H210.116V233.375H209.591H209.065V237.478H209.591ZM209.591 229.272H210.116V225.169H209.591H209.065V229.272H209.591ZM209.591 221.066H210.116V216.963H209.591H209.065V221.066H209.591ZM209.591 212.86H210.116V208.757H209.591H209.065V212.86H209.591ZM209.591 204.654H210.116V200.551H209.591H209.065V204.654H209.591ZM209.591 196.448H210.116V192.345H209.591H209.065V196.448H209.591ZM209.591 188.242H210.116V184.139H209.591H209.065V188.242H209.591ZM209.591 180.036H210.116V175.933H209.591H209.065V180.036H209.591ZM209.591 171.83H210.116V169.779H209.591H209.065V171.83H209.591ZM209.591 276.456H210.642V274.404H209.591H208.539V276.456H209.591ZM209.591 270.301H210.642V266.198H209.591H208.539V270.301H209.591ZM209.591 262.095H210.642V257.992H209.591H208.539V262.095H209.591ZM209.591 253.89H210.642V249.787H209.591H208.539V253.89H209.591ZM209.591 245.684H210.642V241.581H209.591H208.539V245.684H209.591ZM209.591 237.478H210.642V233.375H209.591H208.539V237.478H209.591ZM209.591 229.272H210.642V225.169H209.591H208.539V229.272H209.591ZM209.591 221.066H210.642V216.963H209.591H208.539V221.066H209.591ZM209.591 212.86H210.642V208.757H209.591H208.539V212.86H209.591ZM209.591 204.654H210.642V200.551H209.591H208.539V204.654H209.591ZM209.591 196.448H210.642V192.345H209.591H208.539V196.448H209.591ZM209.591 188.242H210.642V184.139H209.591H208.539V188.242H209.591ZM209.591 180.036H210.642V175.933H209.591H208.539V180.036H209.591ZM209.591 171.83H210.642V169.779H209.591H208.539V171.83H209.591Z" fill="#EEF7EF" mask="url(#path-18-inside-4_903_1218)"/>
<mask id="path-20-inside-5_903_1218" fill="white">
<path d="M209.586 169.779H238.778V276.456H209.586V169.779Z"/>
</mask>
<path d="M238.778 276.456H239.304V274.404H238.778H238.252V276.456H238.778ZM238.778 270.301H239.304V266.198H238.778H238.252V270.301H238.778ZM238.778 262.095H239.304V257.992H238.778H238.252V262.095H238.778ZM238.778 253.89H239.304V249.787H238.778H238.252V253.89H238.778ZM238.778 245.684H239.304V241.581H238.778H238.252V245.684H238.778ZM238.778 237.478H239.304V233.375H238.778H238.252V237.478H238.778ZM238.778 229.272H239.304V225.169H238.778H238.252V229.272H238.778ZM238.778 221.066H239.304V216.963H238.778H238.252V221.066H238.778ZM238.778 212.86H239.304V208.757H238.778H238.252V212.86H238.778ZM238.778 204.654H239.304V200.551H238.778H238.252V204.654H238.778ZM238.778 196.448H239.304V192.345H238.778H238.252V196.448H238.778ZM238.778 188.242H239.304V184.139H238.778H238.252V188.242H238.778ZM238.778 180.036H239.304V175.933H238.778H238.252V180.036H238.778ZM238.778 171.83H239.304V169.779H238.778H238.252V171.83H238.778ZM238.778 276.456H239.829V274.404H238.778H237.727V276.456H238.778ZM238.778 270.301H239.829V266.198H238.778H237.727V270.301H238.778ZM238.778 262.095H239.829V257.992H238.778H237.727V262.095H238.778ZM238.778 253.89H239.829V249.787H238.778H237.727V253.89H238.778ZM238.778 245.684H239.829V241.581H238.778H237.727V245.684H238.778ZM238.778 237.478H239.829V233.375H238.778H237.727V237.478H238.778ZM238.778 229.272H239.829V225.169H238.778H237.727V229.272H238.778ZM238.778 221.066H239.829V216.963H238.778H237.727V221.066H238.778ZM238.778 212.86H239.829V208.757H238.778H237.727V212.86H238.778ZM238.778 204.654H239.829V200.551H238.778H237.727V204.654H238.778ZM238.778 196.448H239.829V192.345H238.778H237.727V196.448H238.778ZM238.778 188.242H239.829V184.139H238.778H237.727V188.242H238.778ZM238.778 180.036H239.829V175.933H238.778H237.727V180.036H238.778ZM238.778 171.83H239.829V169.779H238.778H237.727V171.83H238.778Z" fill="#EEF7EF" mask="url(#path-20-inside-5_903_1218)"/>
<path d="M121.847 253.581L92.8203 246.581V287.219H267.974V212.583L238.699 239.582L209.672 228.082L179.901 239.582L150.874 229.582L121.847 253.581Z" fill="white" fill-opacity="0.5"/>
</g>
</g>
<g filter="url(#filter0_d_903_1218)">
<path d="M89.0094 166.786L53.8618 163.97L51.8191 163.807L46.0312 235.654L77.5506 238.177L83.2216 238.63L89.0094 166.783V166.786ZM48.3477 233.693L51.6889 192.214L53.7918 166.117L86.6996 168.754L81.2589 236.329L73.7621 235.73L48.3544 233.696L48.3477 233.693Z" fill="#D6F5AB"/>
<path d="M86.6957 168.751L53.7878 166.114L51.6849 192.211L48.3438 233.69L73.7515 235.724L81.2483 236.323L86.689 168.747L86.6957 168.751ZM55.637 232.126C55.8573 229.386 53.8078 226.983 51.0608 226.763L53.0234 202.377L55.3599 173.384C58.107 173.604 60.5169 171.56 60.7372 168.82L79.4058 170.315C79.1855 173.055 81.2349 175.458 83.982 175.678L79.6828 229.057C76.9358 228.837 74.5259 230.881 74.3056 233.62L70.6673 233.327L55.637 232.122V232.126Z" fill="#56992C"/>
<path d="M79.6846 229.059L83.9837 175.68C81.2367 175.461 79.1872 173.061 79.4075 170.318L60.7389 168.823C60.5186 171.563 58.112 173.607 55.3617 173.387L53.0252 202.38L51.0625 226.766C53.8096 226.986 55.859 229.386 55.6387 232.128L70.669 233.333L74.3073 233.626C74.5276 230.887 76.9342 228.843 79.6846 229.063V229.059Z" fill="#D6F5AB"/>
<path d="M68.8563 184.595C67.3809 184.479 66.2794 183.187 66.3996 181.716C66.5164 180.244 67.8115 179.146 69.2868 179.266C70.7622 179.382 71.8637 180.674 71.7435 182.145C71.6267 183.616 70.3316 184.715 68.8563 184.595Z" fill="#56992C"/>
<path d="M72.1161 210.223C77.0982 207.688 79.0764 201.605 76.5346 196.637C73.9929 191.669 67.8936 189.696 62.9115 192.231C57.9294 194.765 55.9511 200.848 58.4929 205.816C61.0347 210.785 67.134 212.758 72.1161 210.223Z" fill="#56992C"/>
<path d="M65.7469 223.178C64.2715 223.062 63.1701 221.77 63.2902 220.299C63.4104 218.827 64.7021 217.729 66.1775 217.849C67.6528 217.965 68.7543 219.257 68.6341 220.728C68.5173 222.199 67.2222 223.298 65.7469 223.178Z" fill="#56992C"/>
<path d="M68.6094 202.207C69.2002 201.162 69.5674 200.573 70.2516 200.626C70.8891 200.676 71.2196 201.118 71.1628 201.837C71.1061 202.546 70.8391 202.906 70.2683 203.439L69.8444 203.835L71.2964 205.452L71.6902 205.12C72.2243 204.667 72.8518 204.024 73.1656 202.983L74.8445 203.116L75.0181 200.952L73.2991 200.816C73.1789 200.15 72.8985 199.564 72.4746 199.101C71.9406 198.519 71.2196 198.176 70.3851 198.109C68.4191 197.953 67.5313 199.464 66.817 200.682C66.1561 201.811 65.7055 202.497 64.841 202.427C64.0966 202.367 63.7695 201.907 63.8396 201.019C63.8997 200.276 64.2535 199.587 64.9544 198.848L65.385 198.396L63.6961 196.961L63.3489 197.297C62.6446 197.98 62.0972 198.922 61.8269 199.894L60.1579 199.76L59.9844 201.924L61.7 202.06C61.9737 203.702 63.122 204.81 64.7308 204.94C66.9638 205.12 67.9151 203.432 68.6127 202.2L68.6094 202.207Z" fill="#D6F5AB"/>
<path opacity="0.15" d="M63.3796 226.353L58.3828 225.545L76.6242 165.794L78.8338 165.974L63.3796 226.353Z" fill="black"/>
<path d="M117.31 167.835L83.5781 157.596L81.6188 157L60.5703 225.954L90.8213 235.138L96.262 236.789L117.31 167.835ZM63.2473 224.529L75.4004 184.721L83.0474 159.673L114.63 169.26L94.8334 234.116L87.637 231.932L63.2506 224.529H63.2473Z" fill="#D6F5AB"/>
<path d="M114.633 169.263L83.0501 159.676L75.4031 184.725L63.25 224.533L87.6363 231.936L94.8328 234.119L114.63 169.263H114.633ZM70.7134 224.553C71.5179 221.923 70.0292 219.14 67.3923 218.341L74.5353 194.937L83.0301 167.113C85.667 167.915 88.4575 166.43 89.2585 163.801L107.176 169.24C106.372 171.869 107.86 174.652 110.497 175.451L94.8595 226.68C92.2226 225.877 89.4321 227.362 88.631 229.992L85.1396 228.93L70.7134 224.549V224.553Z" fill="#56992C"/>
<path d="M94.8578 226.68L110.496 175.451C107.859 174.649 106.37 171.87 107.174 169.24L89.2569 163.801C88.4525 166.43 85.6654 167.915 83.0285 167.113L74.5336 194.937L67.3906 218.341C70.0275 219.144 71.5162 221.923 70.7118 224.553L85.138 228.933L88.6294 229.995C89.4338 227.366 92.2209 225.881 94.8578 226.683V226.68Z" fill="#D6F5AB"/>
<path d="M93.8132 180.936C92.398 180.507 91.6002 179.012 92.0308 177.601C92.4614 176.19 93.9601 175.394 95.3753 175.823C96.7906 176.253 97.5883 177.747 97.1577 179.159C96.7271 180.57 95.2285 181.366 93.8132 180.936Z" fill="#56992C"/>
<path d="M91.8351 206.567C97.195 204.973 100.245 199.348 98.6469 194.003C97.049 188.658 91.4086 185.616 86.0487 187.21C80.6888 188.803 77.6391 194.428 79.2369 199.774C80.8348 205.119 86.4752 208.16 91.8351 206.567Z" fill="#56992C"/>
<path d="M82.5085 217.965C81.0933 217.535 80.2955 216.041 80.7261 214.629C81.1567 213.218 82.6554 212.422 84.0706 212.852C85.4859 213.281 86.2836 214.776 85.853 216.187C85.4225 217.598 83.9238 218.394 82.5085 217.965Z" fill="#56992C"/>
<path d="M89.7932 198.093C90.5943 197.197 91.0816 196.698 91.7358 196.898C92.3467 197.084 92.577 197.587 92.3667 198.276C92.1597 198.955 91.8226 199.248 91.1484 199.651L90.651 199.947L91.7225 201.838L92.1798 201.595C92.7973 201.265 93.5483 200.772 94.079 199.824L95.6912 200.313L96.3254 198.236L94.6765 197.737C94.6999 197.061 94.553 196.429 94.2392 195.886C93.842 195.204 93.2112 194.714 92.4101 194.471C90.5242 193.899 89.3292 195.187 88.3713 196.222C87.4834 197.184 86.896 197.76 86.0648 197.507C85.3505 197.291 85.1269 196.771 85.3872 195.919C85.6042 195.207 86.0982 194.611 86.9393 194.039L87.4567 193.686L86.1116 191.925L85.701 192.178C84.8699 192.694 84.1322 193.499 83.6582 194.391L82.0561 193.905L81.4219 195.982L83.0674 196.482C82.9807 198.143 83.8652 199.471 85.4106 199.94C87.5535 200.589 88.8453 199.145 89.7899 198.093H89.7932Z" fill="#D6F5AB"/>
<path opacity="0.15" d="M116.918 167.719L114.552 167L75.8359 217.899L79.5843 220.735L116.918 167.719Z" fill="black"/>
<path d="M150.992 184.042L122.897 162.792L121.265 161.557L77.5859 218.984L102.78 238.041L107.313 241.469L150.992 184.042ZM80.5967 218.571L105.814 185.417L121.679 164.556L147.981 184.452L106.899 238.467L100.908 233.933L80.5967 218.571Z" fill="#D6F5AB"/>
<path d="M147.978 184.452L121.676 164.557L105.811 185.418L80.5938 218.571L100.905 233.933L106.896 238.467L147.978 184.452ZM87.5799 221.168C89.2455 218.978 88.8149 215.855 86.6186 214.191L101.445 194.698L119.073 171.524C121.269 173.185 124.4 172.755 126.069 170.565L140.992 181.853C139.327 184.043 139.757 187.165 141.953 188.829L109.503 231.497C107.307 229.836 104.176 230.265 102.507 232.455L99.5995 230.255L87.5866 221.168H87.5799Z" fill="#56992C"/>
<path d="M109.502 231.5L141.952 188.833C139.756 187.172 139.325 184.05 140.991 181.856L126.067 170.568C124.402 172.759 121.271 173.188 119.071 171.527L101.444 194.701L86.6172 214.194C88.8135 215.855 89.2441 218.978 87.5785 221.171L99.5914 230.259L102.499 232.459C104.164 230.269 107.295 229.839 109.495 231.5H109.502Z" fill="#D6F5AB"/>
<path d="M124.395 188.223C123.217 187.331 122.987 185.654 123.881 184.479C124.776 183.304 126.458 183.074 127.636 183.966C128.815 184.858 129.045 186.536 128.15 187.711C127.256 188.886 125.573 189.116 124.395 188.223Z" fill="#56992C"/>
<path d="M115.214 211.56C120.783 211.047 124.88 206.129 124.366 200.575C123.851 195.021 118.919 190.934 113.35 191.448C107.78 191.961 103.683 196.879 104.198 202.433C104.712 207.987 109.644 212.074 115.214 211.56Z" fill="#56992C"/>
<path d="M100.942 219.06C99.7638 218.168 99.5335 216.491 100.428 215.316C101.323 214.141 103.005 213.911 104.183 214.803C105.361 215.695 105.592 217.373 104.697 218.548C103.803 219.723 102.12 219.952 100.942 219.06Z" fill="#56992C"/>
<path d="M114.677 202.929C115.738 202.367 116.369 202.067 116.913 202.48C117.424 202.866 117.464 203.415 117.026 203.991C116.596 204.557 116.179 204.717 115.408 204.86L114.837 204.967L115.184 207.11L115.695 207.04C116.389 206.947 117.263 206.741 118.091 206.035L119.433 207.05L120.748 205.319L119.373 204.281C119.63 203.655 119.71 203.009 119.603 202.394C119.47 201.615 119.046 200.939 118.378 200.436C116.806 199.248 115.241 200.047 113.982 200.686C112.817 201.282 112.066 201.618 111.372 201.095C110.778 200.646 110.748 200.08 111.289 199.371C111.739 198.779 112.41 198.389 113.398 198.143L114.006 197.993L113.355 195.876L112.881 195.973C111.919 196.169 110.951 196.668 110.197 197.344L108.862 196.335L107.547 198.066L108.919 199.105C108.261 200.633 108.632 202.184 109.917 203.159C111.699 204.507 113.415 203.599 114.667 202.936L114.677 202.929Z" fill="#D6F5AB"/>
<path d="M16.542 276.051H105.562V261.624H16.542V276.051Z" fill="#93D166"/>
<path d="M44.1873 276.051H77.9297V261.624H44.1873V276.051Z" fill="#FFF5C7"/>
<path d="M73.9106 276.051H75.6562V261.624H73.9106V276.051Z" fill="#FFD102"/>
<path d="M46.4574 276.05H48.2031V261.624H46.4574V276.05Z" fill="#FFD102"/>
<path opacity="0.14" d="M105.567 261.628H16.5469V264.724H105.567V261.628Z" fill="black"/>
<path d="M8.99509 261.628H98.0156V247.201H8.99509V261.628Z" fill="#93D166"/>
<path d="M36.6405 261.628H70.3828V247.201H36.6405V261.628Z" fill="#FFF5C7"/>
<path d="M66.3637 261.627H68.1094V247.201H66.3637V261.627Z" fill="#FFD102"/>
<path d="M38.9106 261.627H40.6562V247.201H38.9106V261.627Z" fill="#FFD102"/>
<path opacity="0.14" d="M98.0205 247.201H9V250.297H98.0205V247.201Z" fill="black"/>
<path d="M29.4092 247.201H118.43V232.775H29.4092V247.201Z" fill="#93D166"/>
<path d="M57.0389 247.201H90.7812V232.775H57.0389V247.201Z" fill="#FFF5C7"/>
<path d="M86.7699 247.201H88.5156V232.774H86.7699V247.201Z" fill="#FFD102"/>
<path d="M59.3168 247.201H61.0625V232.774H59.3168V247.201Z" fill="#FFD102"/>
<path opacity="0.14" d="M118.427 232.778H29.4062V235.874H118.427V232.778Z" fill="black"/>
<path d="M29.4092 232.778H118.43V218.352H29.4092V232.778Z" fill="#93D166"/>
<path d="M57.0389 232.778H90.7812V218.352H57.0389V232.778Z" fill="#FFF5C7"/>
<path d="M86.7699 232.778H88.5156V218.351H86.7699V232.778Z" fill="#FFD102"/>
<path d="M59.3168 232.778H61.0625V218.351H59.3168V232.778Z" fill="#FFD102"/>
<path opacity="0.14" d="M118.427 218.352H29.4062V221.447H118.427V218.352Z" fill="black"/>
<path opacity="0.15" d="M97.348 258.235V258.841V266.75V267.359H87.5781V267.965V275.874V276.483H130.653V275.874V267.965V267.359H140.42V266.75V258.841V258.235H97.348Z" fill="black"/>
<path opacity="0.15" d="M94.7628 221.743V222.349V230.258V230.867H92.1727V231.473V239.382V239.988H90.1699V240.597V248.506V249.112H92.4664V249.721V257.63V258.236H135.538V257.63V249.721V249.112H133.242V248.506V240.597V239.988H135.248V239.382V231.473V230.867H137.834V230.258V222.349V221.743H131.9V221.134V213.225V212.619H134.39V212.013V204.101V203.495H91.3182V204.101V212.013V212.619H88.8281V213.225V221.134V221.743H94.7628Z" fill="black"/>
<path d="M132.384 267.359H89.3125V276.483H132.384V267.359Z" fill="#FFD102"/>
<path d="M89.3125 275.874V276.483H132.384V275.874H89.3125Z" fill="#FDA902"/>
<path d="M89.3125 267.359V267.965H132.384V267.359H89.3125Z" fill="#FFE261"/>
<path d="M91.4241 268.947H91.2538C91.1395 268.947 91.0469 269.04 91.0469 269.154V274.686C91.0469 274.8 91.1395 274.892 91.2538 274.892H91.4241C91.5383 274.892 91.631 274.8 91.631 274.686V269.154C91.631 269.04 91.5383 268.947 91.4241 268.947Z" fill="#FFE261"/>
<path d="M93.7209 268.947H93.5507C93.4364 268.947 93.3438 269.04 93.3438 269.154V274.686C93.3438 274.8 93.4364 274.892 93.5507 274.892H93.7209C93.8352 274.892 93.9279 274.8 93.9279 274.686V269.154C93.9279 269.04 93.8352 268.947 93.7209 268.947Z" fill="#FFE261"/>
<path d="M96.0178 268.947H95.8476C95.7333 268.947 95.6406 269.04 95.6406 269.154V274.686C95.6406 274.8 95.7333 274.892 95.8476 274.892H96.0178C96.1321 274.892 96.2247 274.8 96.2247 274.686V269.154C96.2247 269.04 96.1321 268.947 96.0178 268.947Z" fill="#FFE261"/>
<path d="M98.3147 268.947H98.1444C98.0302 268.947 97.9375 269.04 97.9375 269.154V274.686C97.9375 274.8 98.0302 274.892 98.1444 274.892H98.3147C98.429 274.892 98.5216 274.8 98.5216 274.686V269.154C98.5216 269.04 98.429 268.947 98.3147 268.947Z" fill="#FFE261"/>
<path d="M100.612 268.947H100.441C100.327 268.947 100.234 269.04 100.234 269.154V274.686C100.234 274.8 100.327 274.892 100.441 274.892H100.612C100.726 274.892 100.818 274.8 100.818 274.686V269.154C100.818 269.04 100.726 268.947 100.612 268.947Z" fill="#FFE261"/>
<path d="M102.908 268.947H102.738C102.624 268.947 102.531 269.04 102.531 269.154V274.686C102.531 274.8 102.624 274.892 102.738 274.892H102.908C103.023 274.892 103.115 274.8 103.115 274.686V269.154C103.115 269.04 103.023 268.947 102.908 268.947Z" fill="#FFE261"/>
<path d="M105.205 268.947H105.035C104.921 268.947 104.828 269.04 104.828 269.154V274.686C104.828 274.8 104.921 274.892 105.035 274.892H105.205C105.32 274.892 105.412 274.8 105.412 274.686V269.154C105.412 269.04 105.32 268.947 105.205 268.947Z" fill="#FFE261"/>
<path d="M107.502 268.947H107.332C107.218 268.947 107.125 269.04 107.125 269.154V274.686C107.125 274.8 107.218 274.892 107.332 274.892H107.502C107.616 274.892 107.709 274.8 107.709 274.686V269.154C107.709 269.04 107.616 268.947 107.502 268.947Z" fill="#FFE261"/>
<path d="M109.791 268.947H109.621C109.507 268.947 109.414 269.04 109.414 269.154V274.686C109.414 274.8 109.507 274.892 109.621 274.892H109.791C109.906 274.892 109.998 274.8 109.998 274.686V269.154C109.998 269.04 109.906 268.947 109.791 268.947Z" fill="#FFE261"/>
<path d="M112.08 268.947H111.91C111.796 268.947 111.703 269.04 111.703 269.154V274.686C111.703 274.8 111.796 274.892 111.91 274.892H112.08C112.195 274.892 112.287 274.8 112.287 274.686V269.154C112.287 269.04 112.195 268.947 112.08 268.947Z" fill="#FFE261"/>
<path d="M114.385 268.947H114.215C114.1 268.947 114.008 269.04 114.008 269.154V274.686C114.008 274.8 114.1 274.892 114.215 274.892H114.385C114.499 274.892 114.592 274.8 114.592 274.686V269.154C114.592 269.04 114.499 268.947 114.385 268.947Z" fill="#FFE261"/>
<path d="M116.674 268.947H116.504C116.39 268.947 116.297 269.04 116.297 269.154V274.686C116.297 274.8 116.39 274.892 116.504 274.892H116.674C116.788 274.892 116.881 274.8 116.881 274.686V269.154C116.881 269.04 116.788 268.947 116.674 268.947Z" fill="#FFE261"/>
<path d="M118.971 268.947H118.801C118.686 268.947 118.594 269.04 118.594 269.154V274.686C118.594 274.8 118.686 274.892 118.801 274.892H118.971C119.085 274.892 119.178 274.8 119.178 274.686V269.154C119.178 269.04 119.085 268.947 118.971 268.947Z" fill="#FFE261"/>
<path d="M121.268 268.947H121.098C120.983 268.947 120.891 269.04 120.891 269.154V274.686C120.891 274.8 120.983 274.892 121.098 274.892H121.268C121.382 274.892 121.475 274.8 121.475 274.686V269.154C121.475 269.04 121.382 268.947 121.268 268.947Z" fill="#FFE261"/>
<path d="M123.565 268.947H123.394C123.28 268.947 123.188 269.04 123.188 269.154V274.686C123.188 274.8 123.28 274.892 123.394 274.892H123.565C123.679 274.892 123.772 274.8 123.772 274.686V269.154C123.772 269.04 123.679 268.947 123.565 268.947Z" fill="#FFE261"/>
<path d="M125.869 268.947H125.699C125.585 268.947 125.492 269.04 125.492 269.154V274.686C125.492 274.8 125.585 274.892 125.699 274.892H125.869C125.984 274.892 126.076 274.8 126.076 274.686V269.154C126.076 269.04 125.984 268.947 125.869 268.947Z" fill="#FFE261"/>
<path d="M128.158 268.947H127.988C127.874 268.947 127.781 269.04 127.781 269.154V274.686C127.781 274.8 127.874 274.892 127.988 274.892H128.158C128.273 274.892 128.365 274.8 128.365 274.686V269.154C128.365 269.04 128.273 268.947 128.158 268.947Z" fill="#FFE261"/>
<path d="M130.455 268.947H130.285C130.171 268.947 130.078 269.04 130.078 269.154V274.686C130.078 274.8 130.171 274.892 130.285 274.892H130.455C130.57 274.892 130.662 274.8 130.662 274.686V269.154C130.662 269.04 130.57 268.947 130.455 268.947Z" fill="#FFE261"/>
<path opacity="0.07" d="M132.381 267.359H115.375V276.483H132.381V267.359Z" fill="#FF0000"/>
<path opacity="0.27" d="M101.852 267.359H92.7031V276.483H101.852V267.359Z" fill="#FDFDFD"/>
<path d="M142.161 258.235H99.0859V267.359H142.161V258.235Z" fill="#FFD102"/>
<path d="M99.0859 266.75V267.359H142.161V266.75H99.0859Z" fill="#FDA902"/>
<path d="M99.0859 258.235V258.841H142.161V258.235H99.0859Z" fill="#FFE261"/>
<path d="M101.19 259.826H101.019C100.905 259.826 100.812 259.919 100.812 260.033V265.565C100.812 265.679 100.905 265.771 101.019 265.771H101.19C101.304 265.771 101.397 265.679 101.397 265.565V260.033C101.397 259.919 101.304 259.826 101.19 259.826Z" fill="#FFE261"/>
<path d="M103.487 259.826H103.316C103.202 259.826 103.109 259.919 103.109 260.033V265.565C103.109 265.679 103.202 265.771 103.316 265.771H103.487C103.601 265.771 103.693 265.679 103.693 265.565V260.033C103.693 259.919 103.601 259.826 103.487 259.826Z" fill="#FFE261"/>
<path d="M105.783 259.826H105.613C105.499 259.826 105.406 259.919 105.406 260.033V265.565C105.406 265.679 105.499 265.771 105.613 265.771H105.783C105.898 265.771 105.99 265.679 105.99 265.565V260.033C105.99 259.919 105.898 259.826 105.783 259.826Z" fill="#FFE261"/>
<path d="M108.08 259.826H107.91C107.796 259.826 107.703 259.919 107.703 260.033V265.565C107.703 265.679 107.796 265.771 107.91 265.771H108.08C108.195 265.771 108.287 265.679 108.287 265.565V260.033C108.287 259.919 108.195 259.826 108.08 259.826Z" fill="#FFE261"/>
<path d="M110.377 259.826H110.207C110.093 259.826 110 259.919 110 260.033V265.565C110 265.679 110.093 265.771 110.207 265.771H110.377C110.491 265.771 110.584 265.679 110.584 265.565V260.033C110.584 259.919 110.491 259.826 110.377 259.826Z" fill="#FFE261"/>
<path d="M112.674 259.826H112.504C112.39 259.826 112.297 259.919 112.297 260.033V265.565C112.297 265.679 112.39 265.771 112.504 265.771H112.674C112.788 265.771 112.881 265.679 112.881 265.565V260.033C112.881 259.919 112.788 259.826 112.674 259.826Z" fill="#FFE261"/>
<path d="M114.971 259.826H114.801C114.686 259.826 114.594 259.919 114.594 260.033V265.565C114.594 265.679 114.686 265.771 114.801 265.771H114.971C115.085 265.771 115.178 265.679 115.178 265.565V260.033C115.178 259.919 115.085 259.826 114.971 259.826Z" fill="#FFE261"/>
<path d="M117.268 259.826H117.098C116.983 259.826 116.891 259.919 116.891 260.033V265.565C116.891 265.679 116.983 265.771 117.098 265.771H117.268C117.382 265.771 117.475 265.679 117.475 265.565V260.033C117.475 259.919 117.382 259.826 117.268 259.826Z" fill="#FFE261"/>
<path d="M119.394 259.826H119.565C119.678 259.826 119.772 259.919 119.772 260.033V265.565C119.772 265.678 119.678 265.771 119.565 265.771H119.394C119.281 265.771 119.188 265.678 119.188 265.565V260.033C119.188 259.919 119.281 259.826 119.394 259.826Z" fill="#FFE261"/>
<path d="M121.862 259.826H121.691C121.577 259.826 121.484 259.919 121.484 260.033V265.565C121.484 265.679 121.577 265.771 121.691 265.771H121.862C121.976 265.771 122.068 265.679 122.068 265.565V260.033C122.068 259.919 121.976 259.826 121.862 259.826Z" fill="#FFE261"/>
<path d="M124.151 259.826H123.98C123.866 259.826 123.773 259.919 123.773 260.033V265.565C123.773 265.679 123.866 265.771 123.98 265.771H124.151C124.265 265.771 124.358 265.679 124.358 265.565V260.033C124.358 259.919 124.265 259.826 124.151 259.826Z" fill="#FFE261"/>
<path d="M126.455 259.826H126.285C126.171 259.826 126.078 259.919 126.078 260.033V265.565C126.078 265.679 126.171 265.771 126.285 265.771H126.455C126.57 265.771 126.662 265.679 126.662 265.565V260.033C126.662 259.919 126.57 259.826 126.455 259.826Z" fill="#FFE261"/>
<path d="M128.752 259.826H128.582C128.468 259.826 128.375 259.919 128.375 260.033V265.565C128.375 265.679 128.468 265.771 128.582 265.771H128.752C128.866 265.771 128.959 265.679 128.959 265.565V260.033C128.959 259.919 128.866 259.826 128.752 259.826Z" fill="#FFE261"/>
<path d="M131.041 259.826H130.871C130.757 259.826 130.664 259.919 130.664 260.033V265.565C130.664 265.679 130.757 265.771 130.871 265.771H131.041C131.156 265.771 131.248 265.679 131.248 265.565V260.033C131.248 259.919 131.156 259.826 131.041 259.826Z" fill="#FFE261"/>
<path d="M133.338 259.826H133.168C133.054 259.826 132.961 259.919 132.961 260.033V265.565C132.961 265.679 133.054 265.771 133.168 265.771H133.338C133.452 265.771 133.545 265.679 133.545 265.565V260.033C133.545 259.919 133.452 259.826 133.338 259.826Z" fill="#FFE261"/>
<path d="M135.635 259.826H135.465C135.35 259.826 135.258 259.919 135.258 260.033V265.565C135.258 265.679 135.35 265.771 135.465 265.771H135.635C135.749 265.771 135.842 265.679 135.842 265.565V260.033C135.842 259.919 135.749 259.826 135.635 259.826Z" fill="#FFE261"/>
<path d="M137.932 259.826H137.762C137.647 259.826 137.555 259.919 137.555 260.033V265.565C137.555 265.679 137.647 265.771 137.762 265.771H137.932C138.046 265.771 138.139 265.679 138.139 265.565V260.033C138.139 259.919 138.046 259.826 137.932 259.826Z" fill="#FFE261"/>
<path d="M140.229 259.826H140.059C139.944 259.826 139.852 259.919 139.852 260.033V265.565C139.852 265.679 139.944 265.771 140.059 265.771H140.229C140.343 265.771 140.436 265.679 140.436 265.565V260.033C140.436 259.919 140.343 259.826 140.229 259.826Z" fill="#FFE261"/>
<path opacity="0.07" d="M142.163 258.235H125.156V267.359H142.163V258.235Z" fill="#FF0000"/>
<path opacity="0.27" d="M111.633 258.235H102.484V267.359H111.633V258.235Z" fill="#FDFDFD"/>
<path d="M137.275 249.111H94.2031V258.235H137.275V249.111Z" fill="#FFD102"/>
<path d="M94.2031 257.63V258.236H137.275V257.63H94.2031Z" fill="#FDA902"/>
<path d="M94.2031 249.111V249.72H137.275V249.111H94.2031Z" fill="#FFE261"/>
<path d="M96.3069 250.703H96.1366C96.0223 250.703 95.9297 250.795 95.9297 250.909V256.441C95.9297 256.555 96.0223 256.648 96.1366 256.648H96.3069C96.4211 256.648 96.5138 256.555 96.5138 256.441V250.909C96.5138 250.795 96.4211 250.703 96.3069 250.703Z" fill="#FFE261"/>
<path d="M98.5959 250.703H98.4257C98.3114 250.703 98.2188 250.795 98.2188 250.909V256.441C98.2188 256.555 98.3114 256.648 98.4257 256.648H98.5959C98.7102 256.648 98.8029 256.555 98.8029 256.441V250.909C98.8029 250.795 98.7102 250.703 98.5959 250.703Z" fill="#FFE261"/>
<path d="M100.901 250.703H100.73C100.616 250.703 100.523 250.795 100.523 250.909V256.441C100.523 256.555 100.616 256.648 100.73 256.648H100.901C101.015 256.648 101.108 256.555 101.108 256.441V250.909C101.108 250.795 101.015 250.703 100.901 250.703Z" fill="#FFE261"/>
<path d="M103.197 250.703H103.027C102.913 250.703 102.82 250.795 102.82 250.909V256.441C102.82 256.555 102.913 256.648 103.027 256.648H103.197C103.312 256.648 103.404 256.555 103.404 256.441V250.909C103.404 250.795 103.312 250.703 103.197 250.703Z" fill="#FFE261"/>
<path d="M105.487 250.703H105.316C105.202 250.703 105.109 250.795 105.109 250.909V256.441C105.109 256.555 105.202 256.648 105.316 256.648H105.487C105.601 256.648 105.693 256.555 105.693 256.441V250.909C105.693 250.795 105.601 250.703 105.487 250.703Z" fill="#FFE261"/>
<path d="M107.783 250.703H107.613C107.499 250.703 107.406 250.795 107.406 250.909V256.441C107.406 256.555 107.499 256.648 107.613 256.648H107.783C107.898 256.648 107.99 256.555 107.99 256.441V250.909C107.99 250.795 107.898 250.703 107.783 250.703Z" fill="#FFE261"/>
<path d="M110.08 250.703H109.91C109.796 250.703 109.703 250.795 109.703 250.909V256.441C109.703 256.555 109.796 256.648 109.91 256.648H110.08C110.195 256.648 110.287 256.555 110.287 256.441V250.909C110.287 250.795 110.195 250.703 110.08 250.703Z" fill="#FFE261"/>
<path d="M112.377 250.703H112.207C112.093 250.703 112 250.795 112 250.909V256.441C112 256.555 112.093 256.648 112.207 256.648H112.377C112.491 256.648 112.584 256.555 112.584 256.441V250.909C112.584 250.795 112.491 250.703 112.377 250.703Z" fill="#FFE261"/>
<path d="M114.674 250.703H114.504C114.39 250.703 114.297 250.795 114.297 250.909V256.441C114.297 256.555 114.39 256.648 114.504 256.648H114.674C114.788 256.648 114.881 256.555 114.881 256.441V250.909C114.881 250.795 114.788 250.703 114.674 250.703Z" fill="#FFE261"/>
<path d="M116.971 250.703H116.801C116.686 250.703 116.594 250.795 116.594 250.909V256.441C116.594 256.555 116.686 256.648 116.801 256.648H116.971C117.085 256.648 117.178 256.555 117.178 256.441V250.909C117.178 250.795 117.085 250.703 116.971 250.703Z" fill="#FFE261"/>
<path d="M119.268 250.703H119.098C118.983 250.703 118.891 250.795 118.891 250.909V256.441C118.891 256.555 118.983 256.648 119.098 256.648H119.268C119.382 256.648 119.475 256.555 119.475 256.441V250.909C119.475 250.795 119.382 250.703 119.268 250.703Z" fill="#FFE261"/>
<path d="M121.565 250.703H121.394C121.28 250.703 121.188 250.795 121.188 250.909V256.441C121.188 256.555 121.28 256.648 121.394 256.648H121.565C121.679 256.648 121.772 256.555 121.772 256.441V250.909C121.772 250.795 121.679 250.703 121.565 250.703Z" fill="#FFE261"/>
<path d="M123.862 250.703H123.691C123.577 250.703 123.484 250.795 123.484 250.909V256.441C123.484 256.555 123.577 256.648 123.691 256.648H123.862C123.976 256.648 124.068 256.555 124.068 256.441V250.909C124.068 250.795 123.976 250.703 123.862 250.703Z" fill="#FFE261"/>
<path d="M126.158 250.703H125.988C125.874 250.703 125.781 250.795 125.781 250.909V256.441C125.781 256.555 125.874 256.648 125.988 256.648H126.158C126.273 256.648 126.365 256.555 126.365 256.441V250.909C126.365 250.795 126.273 250.703 126.158 250.703Z" fill="#FFE261"/>
<path d="M128.455 250.703H128.285C128.171 250.703 128.078 250.795 128.078 250.909V256.441C128.078 256.555 128.171 256.648 128.285 256.648H128.455C128.57 256.648 128.662 256.555 128.662 256.441V250.909C128.662 250.795 128.57 250.703 128.455 250.703Z" fill="#FFE261"/>
<path d="M130.752 250.703H130.582C130.468 250.703 130.375 250.795 130.375 250.909V256.441C130.375 256.555 130.468 256.648 130.582 256.648H130.752C130.866 256.648 130.959 256.555 130.959 256.441V250.909C130.959 250.795 130.866 250.703 130.752 250.703Z" fill="#FFE261"/>
<path d="M132.879 250.703H133.049C133.163 250.703 133.256 250.796 133.256 250.909V256.441C133.256 256.554 133.163 256.648 133.049 256.648H132.879C132.765 256.648 132.672 256.554 132.672 256.441V250.909C132.672 250.796 132.765 250.703 132.879 250.703Z" fill="#FFE261"/>
<path d="M135.346 250.703H135.176C135.061 250.703 134.969 250.795 134.969 250.909V256.441C134.969 256.555 135.061 256.648 135.176 256.648H135.346C135.46 256.648 135.553 256.555 135.553 256.441V250.909C135.553 250.795 135.46 250.703 135.346 250.703Z" fill="#FFE261"/>
<path opacity="0.07" d="M137.272 249.111H120.266V258.235H137.272V249.111Z" fill="#FF0000"/>
<path opacity="0.27" d="M106.743 249.111H97.5938V258.235H106.743V249.111Z" fill="#FDFDFD"/>
<path d="M134.978 239.988H91.9062V249.112H134.978V239.988Z" fill="#FFD102"/>
<path d="M91.9062 248.506V249.112H134.978V248.506H91.9062Z" fill="#FDA902"/>
<path d="M91.9062 239.988V240.597H134.978V239.988H91.9062Z" fill="#FFE261"/>
<path d="M94.0178 241.579H93.8476C93.7333 241.579 93.6406 241.672 93.6406 241.785V247.318C93.6406 247.432 93.7333 247.524 93.8476 247.524H94.0178C94.1321 247.524 94.2247 247.432 94.2247 247.318V241.785C94.2247 241.672 94.1321 241.579 94.0178 241.579Z" fill="#FFE261"/>
<path d="M96.3147 241.579H96.1444C96.0302 241.579 95.9375 241.672 95.9375 241.785V247.318C95.9375 247.432 96.0302 247.524 96.1444 247.524H96.3147C96.429 247.524 96.5216 247.432 96.5216 247.318V241.785C96.5216 241.672 96.429 241.579 96.3147 241.579Z" fill="#FFE261"/>
<path d="M98.6116 241.579H98.4413C98.327 241.579 98.2344 241.672 98.2344 241.785V247.318C98.2344 247.432 98.327 247.524 98.4413 247.524H98.6116C98.7258 247.524 98.8185 247.432 98.8185 247.318V241.785C98.8185 241.672 98.7258 241.579 98.6116 241.579Z" fill="#FFE261"/>
<path d="M100.908 241.579H100.738C100.624 241.579 100.531 241.672 100.531 241.785V247.318C100.531 247.432 100.624 247.524 100.738 247.524H100.908C101.023 247.524 101.115 247.432 101.115 247.318V241.785C101.115 241.672 101.023 241.579 100.908 241.579Z" fill="#FFE261"/>
<path d="M103.205 241.579H103.035C102.921 241.579 102.828 241.672 102.828 241.785V247.318C102.828 247.432 102.921 247.524 103.035 247.524H103.205C103.32 247.524 103.412 247.432 103.412 247.318V241.785C103.412 241.672 103.32 241.579 103.205 241.579Z" fill="#FFE261"/>
<path d="M105.502 241.579H105.332C105.218 241.579 105.125 241.672 105.125 241.785V247.318C105.125 247.432 105.218 247.524 105.332 247.524H105.502C105.616 247.524 105.709 247.432 105.709 247.318V241.785C105.709 241.672 105.616 241.579 105.502 241.579Z" fill="#FFE261"/>
<path d="M107.799 241.579H107.629C107.515 241.579 107.422 241.672 107.422 241.785V247.318C107.422 247.432 107.515 247.524 107.629 247.524H107.799C107.913 247.524 108.006 247.432 108.006 247.318V241.785C108.006 241.672 107.913 241.579 107.799 241.579Z" fill="#FFE261"/>
<path d="M110.096 241.579H109.926C109.811 241.579 109.719 241.672 109.719 241.785V247.318C109.719 247.432 109.811 247.524 109.926 247.524H110.096C110.21 247.524 110.303 247.432 110.303 247.318V241.785C110.303 241.672 110.21 241.579 110.096 241.579Z" fill="#FFE261"/>
<path d="M112.385 241.579H112.215C112.1 241.579 112.008 241.672 112.008 241.785V247.318C112.008 247.432 112.1 247.524 112.215 247.524H112.385C112.499 247.524 112.592 247.432 112.592 247.318V241.785C112.592 241.672 112.499 241.579 112.385 241.579Z" fill="#FFE261"/>
<path d="M114.682 241.579H114.512C114.397 241.579 114.305 241.672 114.305 241.785V247.318C114.305 247.432 114.397 247.524 114.512 247.524H114.682C114.796 247.524 114.889 247.432 114.889 247.318V241.785C114.889 241.672 114.796 241.579 114.682 241.579Z" fill="#FFE261"/>
<path d="M116.987 241.579H116.816C116.702 241.579 116.609 241.672 116.609 241.785V247.318C116.609 247.432 116.702 247.524 116.816 247.524H116.987C117.101 247.524 117.193 247.432 117.193 247.318V241.785C117.193 241.672 117.101 241.579 116.987 241.579Z" fill="#FFE261"/>
<path d="M119.283 241.579H119.113C118.999 241.579 118.906 241.672 118.906 241.785V247.318C118.906 247.432 118.999 247.524 119.113 247.524H119.283C119.398 247.524 119.49 247.432 119.49 247.318V241.785C119.49 241.672 119.398 241.579 119.283 241.579Z" fill="#FFE261"/>
<path d="M121.572 241.579H121.402C121.288 241.579 121.195 241.672 121.195 241.785V247.318C121.195 247.432 121.288 247.524 121.402 247.524H121.572C121.687 247.524 121.779 247.432 121.779 247.318V241.785C121.779 241.672 121.687 241.579 121.572 241.579Z" fill="#FFE261"/>
<path d="M123.869 241.579H123.699C123.585 241.579 123.492 241.672 123.492 241.785V247.318C123.492 247.432 123.585 247.524 123.699 247.524H123.869C123.984 247.524 124.076 247.432 124.076 247.318V241.785C124.076 241.672 123.984 241.579 123.869 241.579Z" fill="#FFE261"/>
<path d="M126.174 241.579H126.004C125.89 241.579 125.797 241.672 125.797 241.785V247.318C125.797 247.432 125.89 247.524 126.004 247.524H126.174C126.288 247.524 126.381 247.432 126.381 247.318V241.785C126.381 241.672 126.288 241.579 126.174 241.579Z" fill="#FFE261"/>
<path d="M128.463 241.579H128.293C128.179 241.579 128.086 241.672 128.086 241.785V247.318C128.086 247.432 128.179 247.524 128.293 247.524H128.463C128.577 247.524 128.67 247.432 128.67 247.318V241.785C128.67 241.672 128.577 241.579 128.463 241.579Z" fill="#FFE261"/>
<path d="M130.752 241.579H130.582C130.468 241.579 130.375 241.672 130.375 241.785V247.318C130.375 247.432 130.468 247.524 130.582 247.524H130.752C130.866 247.524 130.959 247.432 130.959 247.318V241.785C130.959 241.672 130.866 241.579 130.752 241.579Z" fill="#FFE261"/>
<path d="M133.057 241.579H132.887C132.772 241.579 132.68 241.672 132.68 241.785V247.318C132.68 247.432 132.772 247.524 132.887 247.524H133.057C133.171 247.524 133.264 247.432 133.264 247.318V241.785C133.264 241.672 133.171 241.579 133.057 241.579Z" fill="#FFE261"/>
<path opacity="0.07" d="M134.983 239.988H117.977V249.112H134.983V239.988Z" fill="#FF0000"/>
<path opacity="0.27" d="M104.454 239.988H95.3047V249.112H104.454V239.988Z" fill="#FDFDFD"/>
<path d="M136.981 230.867H93.9062V239.988H136.981V230.867Z" fill="#FFD102"/>
<path d="M93.9062 239.382V239.988H136.981V239.382H93.9062Z" fill="#FDA902"/>
<path d="M93.9062 230.867V231.473H136.981V230.867H93.9062Z" fill="#FFE261"/>
<path d="M96.0178 232.455H95.8476C95.7333 232.455 95.6406 232.547 95.6406 232.661V238.194C95.6406 238.308 95.7333 238.4 95.8476 238.4H96.0178C96.1321 238.4 96.2247 238.308 96.2247 238.194V232.661C96.2247 232.547 96.1321 232.455 96.0178 232.455Z" fill="#FFE261"/>
<path d="M98.3147 232.455H98.1444C98.0302 232.455 97.9375 232.547 97.9375 232.661V238.194C97.9375 238.308 98.0302 238.4 98.1444 238.4H98.3147C98.429 238.4 98.5216 238.308 98.5216 238.194V232.661C98.5216 232.547 98.429 232.455 98.3147 232.455Z" fill="#FFE261"/>
<path d="M100.612 232.455H100.441C100.327 232.455 100.234 232.547 100.234 232.661V238.194C100.234 238.308 100.327 238.4 100.441 238.4H100.612C100.726 238.4 100.818 238.308 100.818 238.194V232.661C100.818 232.547 100.726 232.455 100.612 232.455Z" fill="#FFE261"/>
<path d="M102.908 232.455H102.738C102.624 232.455 102.531 232.547 102.531 232.661V238.194C102.531 238.308 102.624 238.4 102.738 238.4H102.908C103.023 238.4 103.115 238.308 103.115 238.194V232.661C103.115 232.547 103.023 232.455 102.908 232.455Z" fill="#FFE261"/>
<path d="M105.205 232.455H105.035C104.921 232.455 104.828 232.547 104.828 232.661V238.194C104.828 238.308 104.921 238.4 105.035 238.4H105.205C105.32 238.4 105.412 238.308 105.412 238.194V232.661C105.412 232.547 105.32 232.455 105.205 232.455Z" fill="#FFE261"/>
<path d="M107.502 232.455H107.332C107.218 232.455 107.125 232.547 107.125 232.661V238.194C107.125 238.308 107.218 238.4 107.332 238.4H107.502C107.616 238.4 107.709 238.308 107.709 238.194V232.661C107.709 232.547 107.616 232.455 107.502 232.455Z" fill="#FFE261"/>
<path d="M109.791 232.455H109.621C109.507 232.455 109.414 232.547 109.414 232.661V238.194C109.414 238.308 109.507 238.4 109.621 238.4H109.791C109.906 238.4 109.998 238.308 109.998 238.194V232.661C109.998 232.547 109.906 232.455 109.791 232.455Z" fill="#FFE261"/>
<path d="M111.918 232.455H112.088C112.202 232.455 112.295 232.548 112.295 232.661V238.194C112.295 238.307 112.202 238.4 112.088 238.4H111.918C111.804 238.4 111.711 238.307 111.711 238.194V232.661C111.711 232.548 111.804 232.455 111.918 232.455Z" fill="#FFE261"/>
<path d="M114.385 232.455H114.215C114.1 232.455 114.008 232.547 114.008 232.661V238.194C114.008 238.308 114.1 238.4 114.215 238.4H114.385C114.499 238.4 114.592 238.308 114.592 238.194V232.661C114.592 232.547 114.499 232.455 114.385 232.455Z" fill="#FFE261"/>
<path d="M116.682 232.455H116.512C116.397 232.455 116.305 232.547 116.305 232.661V238.194C116.305 238.308 116.397 238.4 116.512 238.4H116.682C116.796 238.4 116.889 238.308 116.889 238.194V232.661C116.889 232.547 116.796 232.455 116.682 232.455Z" fill="#FFE261"/>
<path d="M118.979 232.455H118.809C118.694 232.455 118.602 232.547 118.602 232.661V238.194C118.602 238.308 118.694 238.4 118.809 238.4H118.979C119.093 238.4 119.186 238.308 119.186 238.194V232.661C119.186 232.547 119.093 232.455 118.979 232.455Z" fill="#FFE261"/>
<path d="M121.276 232.455H121.105C120.991 232.455 120.898 232.547 120.898 232.661V238.194C120.898 238.308 120.991 238.4 121.105 238.4H121.276C121.39 238.4 121.483 238.308 121.483 238.194V232.661C121.483 232.547 121.39 232.455 121.276 232.455Z" fill="#FFE261"/>
<path d="M123.572 232.455H123.402C123.288 232.455 123.195 232.547 123.195 232.661V238.194C123.195 238.308 123.288 238.4 123.402 238.4H123.572C123.687 238.4 123.779 238.308 123.779 238.194V232.661C123.779 232.547 123.687 232.455 123.572 232.455Z" fill="#FFE261"/>
<path d="M125.869 232.455H125.699C125.585 232.455 125.492 232.547 125.492 232.661V238.194C125.492 238.308 125.585 238.4 125.699 238.4H125.869C125.984 238.4 126.076 238.308 126.076 238.194V232.661C126.076 232.547 125.984 232.455 125.869 232.455Z" fill="#FFE261"/>
<path d="M128.158 232.455H127.988C127.874 232.455 127.781 232.547 127.781 232.661V238.194C127.781 238.308 127.874 238.4 127.988 238.4H128.158C128.273 238.4 128.365 238.308 128.365 238.194V232.661C128.365 232.547 128.273 232.455 128.158 232.455Z" fill="#FFE261"/>
<path d="M130.455 232.455H130.285C130.171 232.455 130.078 232.547 130.078 232.661V238.194C130.078 238.308 130.171 238.4 130.285 238.4H130.455C130.57 238.4 130.662 238.308 130.662 238.194V232.661C130.662 232.547 130.57 232.455 130.455 232.455Z" fill="#FFE261"/>
<path d="M132.76 232.455H132.59C132.475 232.455 132.383 232.547 132.383 232.661V238.194C132.383 238.308 132.475 238.4 132.59 238.4H132.76C132.874 238.4 132.967 238.308 132.967 238.194V232.661C132.967 232.547 132.874 232.455 132.76 232.455Z" fill="#FFE261"/>
<path d="M134.879 232.455H135.049C135.163 232.455 135.256 232.548 135.256 232.661V238.194C135.256 238.307 135.163 238.4 135.049 238.4H134.879C134.765 238.4 134.672 238.307 134.672 238.194V232.661C134.672 232.548 134.765 232.455 134.879 232.455Z" fill="#FFE261"/>
<path opacity="0.07" d="M136.983 230.867H119.977V239.991H136.983V230.867Z" fill="#FF0000"/>
<path opacity="0.27" d="M106.462 230.867H97.3125V239.991H106.462V230.867Z" fill="#FDFDFD"/>
<path d="M139.572 221.743H96.5V230.867H139.572V221.743Z" fill="#FFD102"/>
<path d="M96.5 230.258V230.867H139.572V230.258H96.5Z" fill="#FDA902"/>
<path d="M96.5 221.743V222.349H139.572V221.743H96.5Z" fill="#FFE261"/>
<path d="M98.5959 223.331H98.4257C98.3114 223.331 98.2188 223.423 98.2188 223.537V229.07C98.2188 229.184 98.3114 229.276 98.4257 229.276H98.5959C98.7102 229.276 98.8029 229.184 98.8029 229.07V223.537C98.8029 223.423 98.7102 223.331 98.5959 223.331Z" fill="#FFE261"/>
<path d="M100.893 223.331H100.723C100.608 223.331 100.516 223.423 100.516 223.537V229.07C100.516 229.184 100.608 229.276 100.723 229.276H100.893C101.007 229.276 101.1 229.184 101.1 229.07V223.537C101.1 223.423 101.007 223.331 100.893 223.331Z" fill="#FFE261"/>
<path d="M103.19 223.331H103.019C102.905 223.331 102.812 223.423 102.812 223.537V229.07C102.812 229.184 102.905 229.276 103.019 229.276H103.19C103.304 229.276 103.397 229.184 103.397 229.07V223.537C103.397 223.423 103.304 223.331 103.19 223.331Z" fill="#FFE261"/>
<path d="M105.487 223.331H105.316C105.202 223.331 105.109 223.423 105.109 223.537V229.07C105.109 229.184 105.202 229.276 105.316 229.276H105.487C105.601 229.276 105.693 229.184 105.693 229.07V223.537C105.693 223.423 105.601 223.331 105.487 223.331Z" fill="#FFE261"/>
<path d="M107.783 223.331H107.613C107.499 223.331 107.406 223.423 107.406 223.537V229.07C107.406 229.184 107.499 229.276 107.613 229.276H107.783C107.898 229.276 107.99 229.184 107.99 229.07V223.537C107.99 223.423 107.898 223.331 107.783 223.331Z" fill="#FFE261"/>
<path d="M110.08 223.331H109.91C109.796 223.331 109.703 223.423 109.703 223.537V229.07C109.703 229.184 109.796 229.276 109.91 229.276H110.08C110.195 229.276 110.287 229.184 110.287 229.07V223.537C110.287 223.423 110.195 223.331 110.08 223.331Z" fill="#FFE261"/>
<path d="M112.377 223.331H112.207C112.093 223.331 112 223.423 112 223.537V229.07C112 229.184 112.093 229.276 112.207 229.276H112.377C112.491 229.276 112.584 229.184 112.584 229.07V223.537C112.584 223.423 112.491 223.331 112.377 223.331Z" fill="#FFE261"/>
<path d="M114.674 223.331H114.504C114.39 223.331 114.297 223.423 114.297 223.537V229.07C114.297 229.184 114.39 229.276 114.504 229.276H114.674C114.788 229.276 114.881 229.184 114.881 229.07V223.537C114.881 223.423 114.788 223.331 114.674 223.331Z" fill="#FFE261"/>
<path d="M116.971 223.331H116.801C116.686 223.331 116.594 223.423 116.594 223.537V229.07C116.594 229.184 116.686 229.276 116.801 229.276H116.971C117.085 229.276 117.178 229.184 117.178 229.07V223.537C117.178 223.423 117.085 223.331 116.971 223.331Z" fill="#FFE261"/>
<path d="M119.268 223.331H119.098C118.983 223.331 118.891 223.423 118.891 223.537V229.07C118.891 229.184 118.983 229.276 119.098 229.276H119.268C119.382 229.276 119.475 229.184 119.475 229.07V223.537C119.475 223.423 119.382 223.331 119.268 223.331Z" fill="#FFE261"/>
<path d="M121.565 223.331H121.394C121.28 223.331 121.188 223.423 121.188 223.537V229.07C121.188 229.184 121.28 229.276 121.394 229.276H121.565C121.679 229.276 121.772 229.184 121.772 229.07V223.537C121.772 223.423 121.679 223.331 121.565 223.331Z" fill="#FFE261"/>
<path d="M123.862 223.331H123.691C123.577 223.331 123.484 223.423 123.484 223.537V229.07C123.484 229.184 123.577 229.276 123.691 229.276H123.862C123.976 229.276 124.068 229.184 124.068 229.07V223.537C124.068 223.423 123.976 223.331 123.862 223.331Z" fill="#FFE261"/>
<path d="M125.988 223.331H126.158C126.272 223.331 126.365 223.424 126.365 223.537V229.07C126.365 229.183 126.272 229.276 126.158 229.276H125.988C125.875 229.276 125.781 229.183 125.781 229.07V223.537C125.781 223.424 125.875 223.331 125.988 223.331Z" fill="#FFE261"/>
<path d="M128.447 223.331H128.277C128.163 223.331 128.07 223.423 128.07 223.537V229.07C128.07 229.184 128.163 229.276 128.277 229.276H128.447C128.562 229.276 128.654 229.184 128.654 229.07V223.537C128.654 223.423 128.562 223.331 128.447 223.331Z" fill="#FFE261"/>
<path d="M130.752 223.331H130.582C130.468 223.331 130.375 223.423 130.375 223.537V229.07C130.375 229.184 130.468 229.276 130.582 229.276H130.752C130.866 229.276 130.959 229.184 130.959 229.07V223.537C130.959 223.423 130.866 223.331 130.752 223.331Z" fill="#FFE261"/>
<path d="M133.049 223.331H132.879C132.765 223.331 132.672 223.423 132.672 223.537V229.07C132.672 229.184 132.765 229.276 132.879 229.276H133.049C133.163 229.276 133.256 229.184 133.256 229.07V223.537C133.256 223.423 133.163 223.331 133.049 223.331Z" fill="#FFE261"/>
<path d="M135.346 223.331H135.176C135.061 223.331 134.969 223.423 134.969 223.537V229.07C134.969 229.184 135.061 229.276 135.176 229.276H135.346C135.46 229.276 135.553 229.184 135.553 229.07V223.537C135.553 223.423 135.46 223.331 135.346 223.331Z" fill="#FFE261"/>
<path d="M137.643 223.331H137.473C137.358 223.331 137.266 223.423 137.266 223.537V229.07C137.266 229.184 137.358 229.276 137.473 229.276H137.643C137.757 229.276 137.85 229.184 137.85 229.07V223.537C137.85 223.423 137.757 223.331 137.643 223.331Z" fill="#FFE261"/>
<path opacity="0.07" d="M139.569 221.743H122.562V230.867H139.569V221.743Z" fill="#FF0000"/>
<path opacity="0.27" d="M109.04 221.743H99.8906V230.867H109.04V221.743Z" fill="#FDFDFD"/>
<path d="M133.637 212.619H90.5625V221.743H133.637V212.619Z" fill="#FFD102"/>
<path d="M90.5625 221.134V221.743H133.637V221.134H90.5625Z" fill="#FDA902"/>
<path d="M90.5625 212.619V213.225H133.637V212.619H90.5625Z" fill="#FFE261"/>
<path d="M92.496 214.207H92.6662C92.7797 214.207 92.8732 214.3 92.8732 214.413V219.946C92.8732 220.059 92.7797 220.152 92.6662 220.152H92.496C92.3825 220.152 92.2891 220.059 92.2891 219.946V214.413C92.2891 214.3 92.3825 214.207 92.496 214.207Z" fill="#FFE261"/>
<path d="M94.7929 214.207H94.9631C95.0766 214.207 95.1701 214.3 95.1701 214.413V219.946C95.1701 220.059 95.0766 220.152 94.9631 220.152H94.7929C94.6794 220.152 94.5859 220.059 94.5859 219.946V214.413C94.5859 214.3 94.6794 214.207 94.7929 214.207Z" fill="#FFE261"/>
<path d="M97.26 214.207H97.0898C96.9755 214.207 96.8828 214.299 96.8828 214.413V219.946C96.8828 220.06 96.9755 220.152 97.0898 220.152H97.26C97.3743 220.152 97.4669 220.06 97.4669 219.946V214.413C97.4669 214.299 97.3743 214.207 97.26 214.207Z" fill="#FFE261"/>
<path d="M99.5569 214.207H99.3866C99.2723 214.207 99.1797 214.299 99.1797 214.413V219.946C99.1797 220.06 99.2723 220.152 99.3866 220.152H99.5569C99.6712 220.152 99.7638 220.06 99.7638 219.946V214.413C99.7638 214.299 99.6712 214.207 99.5569 214.207Z" fill="#FFE261"/>
<path d="M101.854 214.207H101.684C101.569 214.207 101.477 214.299 101.477 214.413V219.946C101.477 220.06 101.569 220.152 101.684 220.152H101.854C101.968 220.152 102.061 220.06 102.061 219.946V214.413C102.061 214.299 101.968 214.207 101.854 214.207Z" fill="#FFE261"/>
<path d="M104.151 214.207H103.98C103.866 214.207 103.773 214.299 103.773 214.413V219.946C103.773 220.06 103.866 220.152 103.98 220.152H104.151C104.265 220.152 104.358 220.06 104.358 219.946V214.413C104.358 214.299 104.265 214.207 104.151 214.207Z" fill="#FFE261"/>
<path d="M106.447 214.207H106.277C106.163 214.207 106.07 214.299 106.07 214.413V219.946C106.07 220.06 106.163 220.152 106.277 220.152H106.447C106.562 220.152 106.654 220.06 106.654 219.946V214.413C106.654 214.299 106.562 214.207 106.447 214.207Z" fill="#FFE261"/>
<path d="M108.744 214.207H108.574C108.46 214.207 108.367 214.299 108.367 214.413V219.946C108.367 220.06 108.46 220.152 108.574 220.152H108.744C108.859 220.152 108.951 220.06 108.951 219.946V214.413C108.951 214.299 108.859 214.207 108.744 214.207Z" fill="#FFE261"/>
<path d="M111.041 214.207H110.871C110.757 214.207 110.664 214.299 110.664 214.413V219.946C110.664 220.06 110.757 220.152 110.871 220.152H111.041C111.156 220.152 111.248 220.06 111.248 219.946V214.413C111.248 214.299 111.156 214.207 111.041 214.207Z" fill="#FFE261"/>
<path d="M113.33 214.207H113.16C113.046 214.207 112.953 214.299 112.953 214.413V219.946C112.953 220.06 113.046 220.152 113.16 220.152H113.33C113.445 220.152 113.537 220.06 113.537 219.946V214.413C113.537 214.299 113.445 214.207 113.33 214.207Z" fill="#FFE261"/>
<path d="M115.627 214.207H115.457C115.343 214.207 115.25 214.299 115.25 214.413V219.946C115.25 220.06 115.343 220.152 115.457 220.152H115.627C115.741 220.152 115.834 220.06 115.834 219.946V214.413C115.834 214.299 115.741 214.207 115.627 214.207Z" fill="#FFE261"/>
<path d="M117.924 214.207H117.754C117.64 214.207 117.547 214.299 117.547 214.413V219.946C117.547 220.06 117.64 220.152 117.754 220.152H117.924C118.038 220.152 118.131 220.06 118.131 219.946V214.413C118.131 214.299 118.038 214.207 117.924 214.207Z" fill="#FFE261"/>
<path d="M120.221 214.207H120.051C119.936 214.207 119.844 214.299 119.844 214.413V219.946C119.844 220.06 119.936 220.152 120.051 220.152H120.221C120.335 220.152 120.428 220.06 120.428 219.946V214.413C120.428 214.299 120.335 214.207 120.221 214.207Z" fill="#FFE261"/>
<path d="M122.518 214.207H122.348C122.233 214.207 122.141 214.299 122.141 214.413V219.946C122.141 220.06 122.233 220.152 122.348 220.152H122.518C122.632 220.152 122.725 220.06 122.725 219.946V214.413C122.725 214.299 122.632 214.207 122.518 214.207Z" fill="#FFE261"/>
<path d="M124.815 214.207H124.644C124.53 214.207 124.438 214.299 124.438 214.413V219.946C124.438 220.06 124.53 220.152 124.644 220.152H124.815C124.929 220.152 125.022 220.06 125.022 219.946V214.413C125.022 214.299 124.929 214.207 124.815 214.207Z" fill="#FFE261"/>
<path d="M127.112 214.207H126.941C126.827 214.207 126.734 214.299 126.734 214.413V219.946C126.734 220.06 126.827 220.152 126.941 220.152H127.112C127.226 220.152 127.318 220.06 127.318 219.946V214.413C127.318 214.299 127.226 214.207 127.112 214.207Z" fill="#FFE261"/>
<path d="M129.408 214.207H129.238C129.124 214.207 129.031 214.299 129.031 214.413V219.946C129.031 220.06 129.124 220.152 129.238 220.152H129.408C129.523 220.152 129.615 220.06 129.615 219.946V214.413C129.615 214.299 129.523 214.207 129.408 214.207Z" fill="#FFE261"/>
<path d="M131.705 214.207H131.535C131.421 214.207 131.328 214.299 131.328 214.413V219.946C131.328 220.06 131.421 220.152 131.535 220.152H131.705C131.82 220.152 131.912 220.06 131.912 219.946V214.413C131.912 214.299 131.82 214.207 131.705 214.207Z" fill="#FFE261"/>
<path opacity="0.07" d="M133.631 212.619H116.625V221.743H133.631V212.619Z" fill="#FF0000"/>
<path opacity="0.27" d="M103.11 212.619H93.9609V221.743H103.11V212.619Z" fill="#FDFDFD"/>
<path d="M136.126 203.495H93.0547V212.619H136.126V203.495Z" fill="#FFD102"/>
<path d="M93.0547 212.013V212.619H136.126V212.013H93.0547Z" fill="#FDA902"/>
<path d="M93.0547 203.495V204.101H136.126V203.495H93.0547Z" fill="#FFE261"/>
<path d="M95.1584 205.086H94.9882C94.8739 205.086 94.7812 205.178 94.7812 205.292V210.825C94.7812 210.939 94.8739 211.031 94.9882 211.031H95.1584C95.2727 211.031 95.3654 210.939 95.3654 210.825V205.292C95.3654 205.178 95.2727 205.086 95.1584 205.086Z" fill="#FFE261"/>
<path d="M97.4475 205.086H97.2773C97.163 205.086 97.0703 205.178 97.0703 205.292V210.825C97.0703 210.939 97.163 211.031 97.2773 211.031H97.4475C97.5618 211.031 97.6544 210.939 97.6544 210.825V205.292C97.6544 205.178 97.5618 205.086 97.4475 205.086Z" fill="#FFE261"/>
<path d="M99.7522 205.086H99.5819C99.4677 205.086 99.375 205.178 99.375 205.292V210.825C99.375 210.939 99.4677 211.031 99.5819 211.031H99.7522C99.8665 211.031 99.9591 210.939 99.9591 210.825V205.292C99.9591 205.178 99.8665 205.086 99.7522 205.086Z" fill="#FFE261"/>
<path d="M102.049 205.086H101.879C101.765 205.086 101.672 205.178 101.672 205.292V210.825C101.672 210.939 101.765 211.031 101.879 211.031H102.049C102.163 211.031 102.256 210.939 102.256 210.825V205.292C102.256 205.178 102.163 205.086 102.049 205.086Z" fill="#FFE261"/>
<path d="M104.346 205.086H104.176C104.061 205.086 103.969 205.178 103.969 205.292V210.825C103.969 210.939 104.061 211.031 104.176 211.031H104.346C104.46 211.031 104.553 210.939 104.553 210.825V205.292C104.553 205.178 104.46 205.086 104.346 205.086Z" fill="#FFE261"/>
<path d="M106.643 205.086H106.473C106.358 205.086 106.266 205.178 106.266 205.292V210.825C106.266 210.939 106.358 211.031 106.473 211.031H106.643C106.757 211.031 106.85 210.939 106.85 210.825V205.292C106.85 205.178 106.757 205.086 106.643 205.086Z" fill="#FFE261"/>
<path d="M108.94 205.086H108.769C108.655 205.086 108.562 205.178 108.562 205.292V210.825C108.562 210.939 108.655 211.031 108.769 211.031H108.94C109.054 211.031 109.147 210.939 109.147 210.825V205.292C109.147 205.178 109.054 205.086 108.94 205.086Z" fill="#FFE261"/>
<path d="M111.237 205.086H111.066C110.952 205.086 110.859 205.178 110.859 205.292V210.825C110.859 210.939 110.952 211.031 111.066 211.031H111.237C111.351 211.031 111.443 210.939 111.443 210.825V205.292C111.443 205.178 111.351 205.086 111.237 205.086Z" fill="#FFE261"/>
<path d="M113.533 205.086H113.363C113.249 205.086 113.156 205.178 113.156 205.292V210.825C113.156 210.939 113.249 211.031 113.363 211.031H113.533C113.648 211.031 113.74 210.939 113.74 210.825V205.292C113.74 205.178 113.648 205.086 113.533 205.086Z" fill="#FFE261"/>
<path d="M115.83 205.086H115.66C115.546 205.086 115.453 205.178 115.453 205.292V210.825C115.453 210.939 115.546 211.031 115.66 211.031H115.83C115.945 211.031 116.037 210.939 116.037 210.825V205.292C116.037 205.178 115.945 205.086 115.83 205.086Z" fill="#FFE261"/>
<path d="M118.119 205.086H117.949C117.835 205.086 117.742 205.178 117.742 205.292V210.825C117.742 210.939 117.835 211.031 117.949 211.031H118.119C118.234 211.031 118.326 210.939 118.326 210.825V205.292C118.326 205.178 118.234 205.086 118.119 205.086Z" fill="#FFE261"/>
<path d="M120.416 205.086H120.246C120.132 205.086 120.039 205.178 120.039 205.292V210.825C120.039 210.939 120.132 211.031 120.246 211.031H120.416C120.531 211.031 120.623 210.939 120.623 210.825V205.292C120.623 205.178 120.531 205.086 120.416 205.086Z" fill="#FFE261"/>
<path d="M122.721 205.086H122.551C122.436 205.086 122.344 205.178 122.344 205.292V210.825C122.344 210.939 122.436 211.031 122.551 211.031H122.721C122.835 211.031 122.928 210.939 122.928 210.825V205.292C122.928 205.178 122.835 205.086 122.721 205.086Z" fill="#FFE261"/>
<path d="M125.01 205.086H124.84C124.725 205.086 124.633 205.178 124.633 205.292V210.825C124.633 210.939 124.725 211.031 124.84 211.031H125.01C125.124 211.031 125.217 210.939 125.217 210.825V205.292C125.217 205.178 125.124 205.086 125.01 205.086Z" fill="#FFE261"/>
<path d="M127.307 205.086H127.137C127.022 205.086 126.93 205.178 126.93 205.292V210.825C126.93 210.939 127.022 211.031 127.137 211.031H127.307C127.421 211.031 127.514 210.939 127.514 210.825V205.292C127.514 205.178 127.421 205.086 127.307 205.086Z" fill="#FFE261"/>
<path d="M129.604 205.086H129.434C129.319 205.086 129.227 205.178 129.227 205.292V210.825C129.227 210.939 129.319 211.031 129.434 211.031H129.604C129.718 211.031 129.811 210.939 129.811 210.825V205.292C129.811 205.178 129.718 205.086 129.604 205.086Z" fill="#FFE261"/>
<path d="M131.901 205.086H131.73C131.616 205.086 131.523 205.178 131.523 205.292V210.825C131.523 210.939 131.616 211.031 131.73 211.031H131.901C132.015 211.031 132.108 210.939 132.108 210.825V205.292C132.108 205.178 132.015 205.086 131.901 205.086Z" fill="#FFE261"/>
<path d="M134.197 205.086H134.027C133.913 205.086 133.82 205.178 133.82 205.292V210.825C133.82 210.939 133.913 211.031 134.027 211.031H134.197C134.312 211.031 134.404 210.939 134.404 210.825V205.292C134.404 205.178 134.312 205.086 134.197 205.086Z" fill="#FFE261"/>
<path opacity="0.07" d="M136.124 203.495H119.117V212.619H136.124V203.495Z" fill="#FF0000"/>
<path opacity="0.27" d="M105.594 203.495H96.4453V212.619H105.594V203.495Z" fill="#FDFDFD"/>
</g>
<defs>
<filter id="filter0_d_903_1218" x="-16.4425" y="141.565" width="192.869" height="170.353" filterUnits="userSpaceOnUse" color-interpolation-filters="sRGB">
<feFlood flood-opacity="0" result="BackgroundImageFix"/>
<feColorMatrix in="SourceAlpha" type="matrix" values="0 0 0 0 0 0 0 0 0 0 0 0 0 0 0 0 0 0 127 0" result="hardAlpha"/>
<feMorphology radius="5.43469" operator="dilate" in="SourceAlpha" result="effect1_dropShadow_903_1218"/>
<feOffset dy="10"/>
<feGaussianBlur stdDeviation="10"/>
<feComposite in2="hardAlpha" operator="out"/>
<feColorMatrix type="matrix" values="0 0 0 0 0 0 0 0 0 0 0 0 0 0 0 0 0 0 0.25 0"/>
<feBlend mode="normal" in2="BackgroundImageFix" result="effect1_dropShadow_903_1218"/>
<feBlend mode="normal" in="SourceGraphic" in2="effect1_dropShadow_903_1218" result="shape"/>
</filter>
<clipPath id="clip0_903_1218">
<rect width="320" height="282" fill="white" transform="translate(20)"/>
</clipPath>
<clipPath id="clip1_903_1218">
<rect x="92.8203" y="98.6045" width="175.153" height="44.4974" rx="4.20483" fill="white"/>
</clipPath>
<clipPath id="clip2_903_1218">
<rect width="175.153" height="127.701" fill="white" transform="translate(92.8203 159.267)"/>
</clipPath>
</defs>
</svg>
