<svg xmlns="http://www.w3.org/2000/svg" xmlns:xlink="http://www.w3.org/1999/xlink" viewBox="0 0 860.33 283.33"><defs><style>.cls-1{fill:#323535;}.cls-2{fill:#ecd827;}.cls-3{fill:#38ac41;}.cls-4{fill:#d9371f;}.cls-5{fill:#4a89c7;}.cls-6{fill:url(#名称未設定グラデーション_2);}</style><linearGradient id="名称未設定グラデーション_2" x1="858.09" y1="268.8" x2="829.56" y2="248.82" gradientUnits="userSpaceOnUse"><stop offset="0" stop-color="#3694ff"/><stop offset="0.15" stop-color="#627dea"/><stop offset="0.72" stop-color="#dc3ab4"/><stop offset="1" stop-color="#ff28a5"/></linearGradient></defs><title>logo_webridge_afb</title><g id="レイヤー_2" data-name="レイヤー 2"><g id="レイヤー_1-2" data-name="レイヤー 1"><path class="cls-1" d="M853.45,144.21c-.23,1.15-.92,1.47-2.07,1.46-14.19-.07-28.39-.09-42.58-.16-2.5,0-5-.57-7.47.26-1.55,6.27,1.63,14,7.12,16.38a18.62,18.62,0,0,0,16.63-.56,7.66,7.66,0,0,0,4.09-5.76c.15-.88.52-1.3,1.37-1.31,1.87,0,3.75,0,5.62,0h16.43c-.43,11.9-6.21,21-17.39,25.22a54.83,54.83,0,0,1-17.31,3.11,55.89,55.89,0,0,1-18-1.94c-6.8-2-12.65-5.42-16.87-11.28a31.88,31.88,0,0,1-5.63-14.8,94.05,94.05,0,0,1-.62-9.78c-.12-5.2-.2-10.4-.12-15.59.11-6.37,1-12.62,3.8-18.45,3.87-8.06,10.19-13.21,18.66-15.83a51.76,51.76,0,0,1,14-2.24,48.94,48.94,0,0,1,20.48,3.39c10.49,4.4,16.54,12.49,18.66,23.58,1.24,6.48.91,13,1,19.58a10.88,10.88,0,0,0,.23,1.59Zm-23.27-15.87c-.18-1.92-.26-3.71-.53-5.47-.9-5.82-4-9.17-9.66-10.18a27,27,0,0,0-7.13-.24c-9,.8-12,7.16-11.57,15.89Z"/><path class="cls-1" d="M205.28,109.16c-.78,3.06-1.51,5.91-2.23,8.77q-7.32,28.92-14.63,57.84c-.32,1.27-.5,2.58-.74,3.87a1.38,1.38,0,0,1-1.61,1.31c-6.84-.09-13.67-.11-20.51-.14-1,0-2,.06-3,.12a1.74,1.74,0,0,1-2-1.48c-.74-3.18-1.42-6.38-2.2-9.55q-6.47-26.28-13-52.57-5.81-23.51-11.62-47c-.07-.31-.11-.62-.19-1.11h21.87a9.73,9.73,0,0,0,1.08,0c2.36-.23,2.79,0,3.31,2.48.74,3.55,1.36,7.12,2.13,10.66q5.86,27,11.8,54.07c.56,2.6,1.17,5.19,1.82,8.09.72-2.82,1.36-5.36,2-7.9Q185,107.31,192.31,78c.64-2.58,1.28-5.18,1.84-7.78.21-.93.65-1.18,1.57-1.17,5.91.08,11.83.1,17.74.14.28,0,.57,0,.84,0,2.21-.11,2.38,0,2.91,2.16,2.33,9.44,4.61,18.9,7,28.33q5.46,21.87,11,43.7a1.07,1.07,0,0,0,.38.64q1.13-5.16,2.26-10.31,4.77-21.72,9.53-43.43c1.42-6.51,2.84-13,4.21-19.52.24-1.13.66-1.83,1.92-1.81l22.41.26a2,2,0,0,1,.44.14c-.7,2.87-1.39,5.73-2.1,8.59q-8,32.15-15.91,64.3-4.42,17.87-8.8,35.75a12.1,12.1,0,0,0-.36,1.87c-.08,1-.67,1.16-1.48,1.16-7.35-.08-14.7-.17-22-.23-2.37,0-2.37,0-3-2.35q-6.28-25.1-12.58-50.2c-1.32-5.29-2.53-10.61-3.82-15.92C206.05,111.34,205.67,110.37,205.28,109.16Z"/><path class="cls-1" d="M737.56,105.1c.08-1.07.18-2,.2-2.94,0-1.43,0-2.87,0-4.31.05-2.42.78-3,3.18-2.95,5.51.08,11,.1,16.52.09,1,0,1.66.3,1.66,1.37,0,1.55-.12,3.1-.12,4.64q0,38.82,0,77.62a44.86,44.86,0,0,1-1.63,12.88c-2.7,9.13-8.74,15.1-17.59,18.27A60.7,60.7,0,0,1,716,212.86a52.7,52.7,0,0,1-14.63-2.73c-9.35-3.23-14.92-9.85-17.08-19.4-.47-2-.66-4.16-1-6.44H702.7c.91,0,1.83-.05,2.75-.11a1,1,0,0,1,1.19.89c.1.51.29,1,.35,1.51a6.88,6.88,0,0,0,5,5.84,22.11,22.11,0,0,0,15.89-.43c3.94-1.63,6-4.94,6.34-9,.42-4.61.42-9.27.42-13.94a28.39,28.39,0,0,1-8.11,5.56c-10.82,4.67-21.49,4.53-31.68-1.68-5.78-3.53-8.92-9.16-10.91-15.5a47.34,47.34,0,0,1-2-11.87c-.2-4.18-.43-8.37-.34-12.56.13-6.4.26-12.83,2.11-19,2.13-7.16,5.79-13.22,12.48-17a31.85,31.85,0,0,1,18-3.85,31.18,31.18,0,0,1,18.21,7C734.22,101.53,735.76,103.32,737.56,105.1Zm-2.91,28.24h.12c0-.32,0-.64,0-1-.18-2.46,0-5-.62-7.35-1.45-5.38-7.1-11.8-15.18-12.12-4-.15-7.64.78-10,4.4-1.92,2.9-2.36,6.23-2.5,9.59-.12,2.75,0,5.51-.17,8.26-.2,4.11-.45,8.21.29,12.28.68,3.81,2,7.33,5.77,9.11,4.46,2.1,9,1.64,13.24-.6,4.58-2.41,7.09-6.61,9-11.24a2.09,2.09,0,0,0,.07-.71C734.65,140.45,734.65,136.89,734.65,133.34Z"/><path class="cls-1" d="M642.63,170.66a31.4,31.4,0,0,1-21.74,12.09c-7.76.87-15.11-.5-21.64-5-5.51-3.78-8.56-9.31-10.4-15.59A51.71,51.71,0,0,1,586.94,148c-.07-6.59-.21-13.19-.1-19.78.11-6.19.78-12.33,3.35-18.08Q597,95,613.55,93.32c6.69-.64,13.16.15,19.12,3.38a79.05,79.05,0,0,1,6.89,4.64c0-.11,0-.44,0-.77q0-17.08,0-34.19c0-1.43-.05-2.86-.12-4.28,0-1,.44-1.31,1.39-1.3q8.58.09,17.15.12c1.54,0,3.09-.11,4.64-.09,1.05,0,1.67.47,1.35,1.67a5.25,5.25,0,0,0,0,1.19q0,55,0,109.9c0,1.55.16,3.1.22,4.65,0,.4-.05.8-.07,1.2-.07,1.11-.58,1.54-1.77,1.52-4.71-.11-9.43-.13-14.14-.14-1.23,0-2.46.13-3.69.23-1,.08-1.55-.23-1.58-1.37C642.89,176.78,642.75,173.89,642.63,170.66Zm-31.4-31.77h.41c0,4.43-.2,8.87.07,13.29.22,3.68,1.64,7,5,9,4.5,2.66,9.16,2.34,13.7.06,4.15-2.08,6.66-5.71,8.56-9.8a7.2,7.2,0,0,0,.6-2.87c0-6.19,0-12.39,0-18.59,0-.72,0-1.44-.05-2.15-.59-7.42-8.06-15.9-18-14.87a9.51,9.51,0,0,0-7.75,4.71,14.67,14.67,0,0,0-2,6.57C611.5,129.15,611.41,134,611.23,138.89Z"/><path class="cls-1" d="M403.69,170.49c0,2.68,0,5.22,0,7.75,0,1.73-.28,1.87-1.94,1.85q-8.21-.08-16.41,0c-1.58,0-1.76-.08-1.6-1.63,0-.4,0-.8,0-1.2q0-52.91,0-105.82c0-1-.05-2-.11-3-.06-.8.31-1.21,1.09-1.21,1.19,0,2.39,0,3.58,0,5.47,0,10.93-.08,16.4-.12a5.77,5.77,0,0,0,.72,0c1.11-.14,1.4.34,1.39,1.44q-.12,18.23-.15,36.46a4.54,4.54,0,0,0,.08.54c.66-.57,1.23-1.08,1.82-1.56a28.55,28.55,0,0,1,15.69-6.44c7.24-.75,14.06.51,20.19,4.61a24.09,24.09,0,0,1,9.09,12.14,43.63,43.63,0,0,1,2.58,14.76c.08,6,.37,12.06.32,18.08a52.78,52.78,0,0,1-2.87,18.08c-3.17,8.55-9.35,13.77-18.11,15.82a30.49,30.49,0,0,1-26.32-5.51A69.45,69.45,0,0,1,403.69,170.49Zm29.8-30.61h-.16c0-2.64.1-5.28,0-7.91a49.82,49.82,0,0,0-.78-7.83c-1.06-5-4.53-7.79-9.24-8a15.44,15.44,0,0,0-13,5.71A13.73,13.73,0,0,0,406.55,132c.14,2.51.11,5,.13,7.54,0,2.88,0,5.76,0,8.63a10.81,10.81,0,0,0,.26,2.61,16.11,16.11,0,0,0,10.45,11.69,12.54,12.54,0,0,0,9.35,0c4.17-1.68,5.76-5.29,6.16-9.38C433.33,148.66,433.32,144.26,433.49,139.88Z"/><path class="cls-2" d="M168.42,6.11c-2.28,1.21-4.58,2.38-6.84,3.62a146.59,146.59,0,0,0-28,19.77Q125.9,36.43,118.74,44a157.42,157.42,0,0,0-16.22,20.1c-4.21,6.23-8.4,12.5-12.22,19a227.92,227.92,0,0,0-12.92,25.65,199.17,199.17,0,0,0-8.64,24c-1.91,6.66-3.4,13.44-4.84,20.22-.95,4.5-1.52,9.08-2.2,13.63-.3,2.06-.45,4.15-.7,6.54a6.54,6.54,0,0,1-1-1.12c-1.77-3.34-3.7-6.63-5.22-10.09q-3.07-7-5.61-14.22a80.84,80.84,0,0,1-3.73-15.74c-.49-3.6-1-7.2-1.18-10.82a112.52,112.52,0,0,1-.2-14A129.8,129.8,0,0,1,46.23,91.5,73.06,73.06,0,0,1,53.64,71,54.5,54.5,0,0,1,67.13,54.1c5-4.07,9.82-8.32,15-12.16s10.23-7.22,15.56-10.47A181.5,181.5,0,0,1,123,18.71,207.76,207.76,0,0,1,167.5,6a5.66,5.66,0,0,1,.82-.06Z"/><path class="cls-1" d="M360.21,154.53a31.68,31.68,0,0,1-3.54,13.5c-3.11,5.74-8,9.41-14,11.72a54.32,54.32,0,0,1-17.31,3.11,55.62,55.62,0,0,1-18-2,31.89,31.89,0,0,1-13.49-7.42,28.73,28.73,0,0,1-8.52-16.24,83.18,83.18,0,0,1-1.08-11.15c-.2-5.39-.22-10.8-.14-16.19.11-6.4.92-12.69,3.69-18.6a28.73,28.73,0,0,1,15.9-15.07A47.94,47.94,0,0,1,320.57,93c7.5-.18,14.79.77,21.67,3.87a29.46,29.46,0,0,1,16.11,17.68,42.49,42.49,0,0,1,2.26,13.6c.1,5,.24,10,.35,15a9.72,9.72,0,0,1-.12,1.42,1.22,1.22,0,0,1-1.41,1.15c-1.19,0-2.39-.12-3.58-.12H316.73c-2.07,0-4.14-.08-6.2-.11-1.33,0-2,.59-2,2,.08,9.91,4.46,15.79,13.6,16.26a19.28,19.28,0,0,0,9.37-1.42,8.48,8.48,0,0,0,5.24-6.49,1.23,1.23,0,0,1,1.35-1.21h22.15Zm-51.55-26.24h29c-.17-1.87-.22-3.67-.52-5.42-.79-4.73-3-8.38-7.91-9.8a22.1,22.1,0,0,0-12.15,0,10.1,10.1,0,0,0-6.61,5.44C309,121.59,308.8,124.9,308.66,128.29Z"/><path class="cls-3" d="M114.41,56.78c2.45-2.94,4.79-6,7.37-8.79,3.47-3.79,7-7.53,10.72-11.11a145.45,145.45,0,0,1,31.18-23A129.9,129.9,0,0,1,185,4.43,85.1,85.1,0,0,1,208.39.08c11.08-.51,21.74,1.6,32.23,4.82A119.78,119.78,0,0,1,278.31,24a123.83,123.83,0,0,1,10.92,9.3c3.49,3.36,6.64,7.09,9.93,10.66a10.58,10.58,0,0,1,.62.86,7.93,7.93,0,0,1-.86-.43,114.64,114.64,0,0,0-31-16.61,95.86,95.86,0,0,0-29.09-5.68c-4.86-.2-9.75-.31-14.61-.11a195.35,195.35,0,0,0-29.49,3.7,229.27,229.27,0,0,0-30.94,8.22c-5.19,1.78-10.28,3.89-15.42,5.82-3.92,1.47-7.88,2.82-11.77,4.36a83.79,83.79,0,0,0-17.21,9.81C117.87,55,116.22,56,114.6,57Z"/><path class="cls-1" d="M525.51,116.37c-2.75,0-5.34-.1-7.93,0a17.59,17.59,0,0,0-11.85,4.69,19.12,19.12,0,0,0-5.31,10.51c-.92,4.78-.58,9.62-.47,14.44,0,.44.09.87.09,1.31v31.91c0,1.6-.24,1.69-1.81,1.68-5.43-.06-10.87,0-16.3,0-1.55,0-3.11.13-4.67.12s-1.82-.34-1.81-1.84l.24-83.12c0-.27,0-.55,0-.89.4,0,.74,0,1.09,0l17-.25c2.36,0,2.8.26,3,2.62.2,2.94.24,5.88.37,8.82a27,27,0,0,0,.38,3.73c.31-.86.6-1.73.93-2.59,2-5.18,4.92-9.63,10.17-12a28.32,28.32,0,0,1,16-2c.84.13,1.09.47,1.08,1.32,0,5.12,0,10.24,0,15.36,0,1.43.11,2.85.1,4.28A11.72,11.72,0,0,1,525.51,116.37Z"/><path class="cls-4" d="M48.87,72.9c-7.08,16.27-9.07,33.24-7.52,50.76A114.92,114.92,0,0,0,57,172.85l-57,.49C7.92,135.66,23.79,102,48.87,72.9Z"/><path class="cls-1" d="M544.63,180.87V95.13h1.45c5.35,0,10.71,0,16.07,0,1.75,0,3.5-.1,5.25-.13,1.22,0,1.68.46,1.68,1.8q-.06,38.88,0,77.76c0,1.51.18,3,.22,4.53,0,1.67-.25,2-1.94,1.94s-3.27-.22-4.9-.21c-5.56,0-11.11.14-16.66.2A9.29,9.29,0,0,1,544.63,180.87Z"/><path class="cls-5" d="M176.79,33.11c3.27-.85,6.53-1.74,9.8-2.55a173.67,173.67,0,0,1,29.33-5c6.13-.43,12.28-.78,18.41-.61a104.58,104.58,0,0,1,44.28,10.76,114.89,114.89,0,0,1,16.68,9.85c.34.25.67.53,1.17.93-1.12.09-2,.22-2.91.23-4.32,0-8.64,0-13,0-8.31,0-16.63-.1-24.94-.14-3,0-5.9,0-8.85,0a10.58,10.58,0,0,1-5.18-1.22,110.28,110.28,0,0,0-38.43-11.49c-3.87-.46-7.78-.71-11.68-.79-4.5-.09-9,.12-13.5.2h-1.17Z"/><path class="cls-1" d="M544,62.25H564.4c1.16,0,2.31-.11,3.47-.11,1.77,0,2.06.35,2,2.13-.1,4.19-.2,8.38-.23,12.57,0,1.43.17,2.86.21,4.29.07,2-.08,2.13-2,2.11-3.19,0-6.39-.13-9.58-.1-4.23,0-8.46.16-12.69.22-1.66,0-1.72-.06-1.71-1.66L544,63.24C544,63,544,62.69,544,62.25Z"/><path class="cls-3" d="M114.6,57l-.3,0,.11-.26Z"/><path class="cls-4" d="M49.09,72.46a.94.94,0,0,1,.06.15s0,0-.06.08a.46.46,0,0,1-.07-.16S49.06,72.49,49.09,72.46Z"/><path class="cls-1" d="M537.47,258.75v5.46c0,7-3.48,10.68-9.44,10.68a9.56,9.56,0,0,1-8.14-4v12.41h-4.37V248.67h3.72l.15,4.07a9.68,9.68,0,0,1,8.64-4.67C534,248.07,537.47,251.75,537.47,258.75Zm-4.37.15c0-4.57-2.09-7-5.61-7-3.28,0-5.91,2.13-7.6,5.81v7.54c1.69,3.68,4.32,5.82,7.6,5.82,3.52,0,5.61-2.44,5.61-7Z"/><path class="cls-1" d="M543.13,263.57v-4.18c0-7.45,3.83-11.32,11.08-11.32s11.07,3.87,11.07,11.32v4.18c0,7.45-3.82,11.32-11.07,11.32S543.13,271,543.13,263.57Zm17.78-.15v-3.93c0-5.16-2.18-7.59-6.7-7.59s-6.71,2.43-6.71,7.59v3.93c0,5.16,2.19,7.65,6.71,7.65S560.91,268.58,560.91,263.42Z"/><path class="cls-1" d="M606.06,248.67l-8,25.62h-4.67l-6-19.32-6.06,19.32h-4.66l-8-25.62h4.62l5.81,19.86,6.16-19.86h4.32l6.21,20,5.81-20Z"/><path class="cls-1" d="M613.8,263.82c0,5,2.09,7.3,6.66,7.3,3.87,0,5.91-1.69,6.21-4.47h4.22c-.35,5.46-4.17,8.24-10.33,8.24-7.2,0-11.13-3.82-11.13-10.88V259c0-7,3.83-10.88,10.83-10.88s10.83,3.83,10.83,10.88v3.72H613.8Zm0-4.77h13.07c0-4.92-2-7.21-6.51-7.21S613.8,254.13,613.8,259.05Z"/><path class="cls-1" d="M651,248.17v4.32h-1.29c-4.17,0-6.5,2.14-7.35,7.05v14.75h-4.37V248.67h3.73l.19,4.76c1.3-3.62,3.63-5.26,7.36-5.26Z"/><path class="cls-1" d="M658.8,263.82c0,5,2.09,7.3,6.66,7.3,3.87,0,5.91-1.69,6.2-4.47h4.23c-.35,5.46-4.18,8.24-10.34,8.24-7.2,0-11.12-3.82-11.12-10.88V259c0-7,3.82-10.88,10.83-10.88s10.82,3.83,10.82,10.88v3.72H658.8Zm0-4.77h13.06c0-4.92-2-7.21-6.5-7.21S658.8,254.13,658.8,259.05Z"/><path class="cls-1" d="M703.6,238v36.25h-3.73l-.15-4.07a9.65,9.65,0,0,1-8.64,4.67c-6,0-9.44-3.67-9.44-10.68v-5.46c0-7,3.48-10.68,9.44-10.68a9.58,9.58,0,0,1,8.15,4V238Zm-4.37,27.21v-7.54c-1.69-3.68-4.32-5.81-7.6-5.81-3.53,0-5.61,2.43-5.61,7v5.16c0,4.57,2.08,7,5.61,7C694.91,271.07,697.54,268.93,699.23,265.25Z"/><path class="cls-1" d="M746.9,258.75v5.46c0,7-3.47,10.68-9.43,10.68a9.65,9.65,0,0,1-8.64-4.67l-.15,4.07H725V238h4.37v14a9.58,9.58,0,0,1,8.15-4C743.43,248.07,746.9,251.75,746.9,258.75Zm-4.37.15c0-4.57-2.08-7-5.61-7-3.28,0-5.91,2.13-7.6,5.81v7.54c1.69,3.68,4.37,5.82,7.6,5.82,3.53,0,5.61-2.44,5.61-7Z"/><path class="cls-1" d="M772.53,248.67l-10,28.7c-1.59,4.52-3.38,6-7.3,6h-2.59v-3.77h2.19c2,0,2.83-.6,3.53-2.68l1.19-3.58-9.24-24.63H755l6.8,18.92,6.31-18.92Z"/><path class="cls-1" d="M809.47,261.61a12.69,12.69,0,1,0-5.14,10.2,2.57,2.57,0,0,0,5.14-.09v-10h0v-.06m-12.68,7.54a7.54,7.54,0,1,1,7.53-7.54,7.54,7.54,0,0,1-7.53,7.54"/><path id="SVGID" class="cls-6" d="M840.11,261.61a7.54,7.54,0,1,1,7.53,7.54,7.54,7.54,0,0,1-7.53-7.54m-2.57-22.27a2.58,2.58,0,0,0-2.58,2.58v19.77a12.69,12.69,0,0,0,25.37,0v-.07a12.68,12.68,0,0,0-20.22-10.16v-9.5A2.57,2.57,0,0,0,837.54,239.34Z"/><path class="cls-1" d="M827.17,249h-3.4c.08-1.85.72-4.49,3.73-4.49a2.58,2.58,0,0,0,0-5.15,8.45,8.45,0,0,0-6.52,2.85,10.71,10.71,0,0,0-2.36,6.79H815.2a2.58,2.58,0,0,0,0,5.15h3.41v17.53a2.58,2.58,0,0,0,5.15,0V254.13h3.41a2.58,2.58,0,1,0,0-5.15"/></g></g></svg>